G04*
G04 #@! TF.GenerationSoftware,Altium Limited,Altium Designer,20.0.13 (296)*
G04*
G04 Layer_Physical_Order=2*
G04 Layer_Color=16711680*
%FSLAX25Y25*%
%MOIN*%
G70*
G01*
G75*
%ADD13C,0.01000*%
%ADD32C,0.04000*%
%ADD33C,0.01500*%
%ADD35C,0.06000*%
%ADD36C,0.07087*%
%ADD37C,0.05906*%
%ADD38R,0.05906X0.05906*%
%ADD39C,0.09055*%
%ADD40C,0.08661*%
%ADD41R,0.05906X0.05906*%
%ADD42R,0.06000X0.06000*%
%ADD43R,0.06000X0.06000*%
%ADD44C,0.08268*%
%ADD45C,0.06299*%
G04:AMPARAMS|DCode=46|XSize=55.12mil|YSize=55.12mil|CornerRadius=1.93mil|HoleSize=0mil|Usage=FLASHONLY|Rotation=270.000|XOffset=0mil|YOffset=0mil|HoleType=Round|Shape=RoundedRectangle|*
%AMROUNDEDRECTD46*
21,1,0.05512,0.05126,0,0,270.0*
21,1,0.05126,0.05512,0,0,270.0*
1,1,0.00386,-0.02563,-0.02563*
1,1,0.00386,-0.02563,0.02563*
1,1,0.00386,0.02563,0.02563*
1,1,0.00386,0.02563,-0.02563*
%
%ADD46ROUNDEDRECTD46*%
%ADD47C,0.05512*%
%ADD48C,0.07874*%
%ADD49R,0.07087X0.07087*%
%ADD50C,0.03000*%
G36*
X377953Y614173D02*
Y507874D01*
X358268Y507874D01*
X318898Y468504D01*
X366142D01*
X377953Y480315D01*
X458268Y480315D01*
X458268Y303150D01*
X452756D01*
Y299606D01*
X494488D01*
Y406455D01*
X494950Y406647D01*
X496316Y405280D01*
X496284Y405118D01*
X496447Y404299D01*
X496911Y403604D01*
X497606Y403140D01*
X498425Y402977D01*
X499245Y403140D01*
X499939Y403604D01*
X500403Y404299D01*
X500566Y405118D01*
X500403Y405937D01*
X499939Y406632D01*
X499245Y407096D01*
X498425Y407259D01*
X498263Y407227D01*
X494488Y411002D01*
Y488976D01*
X480315Y503150D01*
Y594488D01*
X547244D01*
Y494882D01*
X567717Y474409D01*
X619291D01*
Y400394D01*
X599213Y380315D01*
X574409D01*
X525591Y357480D01*
Y346457D01*
X539370D01*
X566929Y366142D01*
X594833D01*
Y364597D01*
X601939D01*
Y366142D01*
X606299D01*
X625984Y381890D01*
X641472D01*
Y373679D01*
X640494D01*
Y366479D01*
X647694D01*
Y373679D01*
X646717D01*
Y381890D01*
X660630D01*
Y282677D01*
X645669Y267717D01*
X314567D01*
X298425Y251575D01*
Y217323D01*
X299213Y216535D01*
Y212598D01*
X298425D01*
Y188976D01*
X303150Y184252D01*
Y248031D01*
X318898Y263779D01*
X692913D01*
Y110236D01*
X638460D01*
X638269Y110698D01*
X676384Y148813D01*
X676384Y148813D01*
X676627Y149177D01*
X676712Y149606D01*
X676712Y149606D01*
Y179527D01*
X676712Y179528D01*
X676627Y179957D01*
X676384Y180321D01*
X676384Y180321D01*
X660636Y196069D01*
X660272Y196312D01*
X659842Y196397D01*
X659842Y196397D01*
X634252D01*
X634252Y196397D01*
X633823Y196312D01*
X633459Y196069D01*
X633459Y196069D01*
X628166Y190776D01*
X627923Y190412D01*
X627858Y190086D01*
X627183Y189997D01*
X626319Y189639D01*
X625576Y189069D01*
X625007Y188327D01*
X624649Y187463D01*
X624527Y186535D01*
X624649Y185608D01*
X625007Y184744D01*
X625576Y184002D01*
X626319Y183432D01*
X627183Y183074D01*
X628110Y182952D01*
X629038Y183074D01*
X629902Y183432D01*
X630644Y184002D01*
X631214Y184744D01*
X631572Y185608D01*
X631694Y186535D01*
X631572Y187463D01*
X631214Y188327D01*
X630644Y189069D01*
X630471Y189202D01*
X630428Y189865D01*
X634717Y194154D01*
X643490D01*
X643681Y193692D01*
X639708Y189719D01*
X639038Y189997D01*
X638110Y190119D01*
X637183Y189997D01*
X636318Y189639D01*
X635576Y189069D01*
X635007Y188327D01*
X634649Y187463D01*
X634527Y186535D01*
X634649Y185608D01*
X635007Y184744D01*
X635576Y184002D01*
X636318Y183432D01*
X637183Y183074D01*
X638110Y182952D01*
X639038Y183074D01*
X639902Y183432D01*
X640644Y184002D01*
X641214Y184744D01*
X641572Y185608D01*
X641694Y186535D01*
X641572Y187463D01*
X641294Y188133D01*
X645715Y192554D01*
X658715D01*
X672869Y178400D01*
Y150734D01*
X632372Y110236D01*
X569874D01*
X569596Y110652D01*
X569791Y111121D01*
X569881Y111805D01*
X565748D01*
X561615D01*
X561705Y111121D01*
X561900Y110652D01*
X561622Y110236D01*
X556540D01*
X556206Y110736D01*
X556409Y111226D01*
X556538Y112205D01*
X556409Y113184D01*
X556031Y114096D01*
X555430Y114879D01*
X554647Y115480D01*
X553735Y115858D01*
X552756Y115987D01*
X551777Y115858D01*
X550865Y115480D01*
X550082Y114879D01*
X549481Y114096D01*
X549103Y113184D01*
X548974Y112205D01*
X549103Y111226D01*
X549306Y110736D01*
X548972Y110236D01*
X518515D01*
X501515Y127236D01*
Y185827D01*
X501515Y185827D01*
X501430Y186256D01*
X501187Y186620D01*
X501187Y186620D01*
X485439Y202368D01*
X485075Y202611D01*
X484646Y202696D01*
X484646Y202696D01*
X472445D01*
X472183Y203089D01*
X471489Y203553D01*
X470669Y203716D01*
X469850Y203553D01*
X469155Y203089D01*
X468691Y202394D01*
X468528Y201575D01*
X468691Y200755D01*
X468902Y200441D01*
X468634Y199941D01*
X456535D01*
X456535Y199941D01*
X456106Y199855D01*
X455742Y199612D01*
X455742Y199612D01*
X450574Y194444D01*
X449904Y194721D01*
X448976Y194843D01*
X448049Y194721D01*
X447185Y194363D01*
X446443Y193794D01*
X445873Y193052D01*
X445515Y192187D01*
X445393Y191260D01*
X445515Y190332D01*
X445873Y189468D01*
X446443Y188726D01*
X447185Y188156D01*
X448049Y187799D01*
X448976Y187676D01*
X449904Y187799D01*
X450768Y188156D01*
X451510Y188726D01*
X452080Y189468D01*
X452438Y190332D01*
X452560Y191260D01*
X452438Y192187D01*
X452160Y192857D01*
X457000Y197697D01*
X479457D01*
X494941Y182213D01*
Y176589D01*
X494480Y176398D01*
X484651Y186226D01*
X484288Y186469D01*
X483858Y186555D01*
X483858Y186555D01*
X465268D01*
X462160Y189662D01*
X462438Y190332D01*
X462560Y191260D01*
X462438Y192187D01*
X462080Y193052D01*
X461510Y193794D01*
X460768Y194363D01*
X459904Y194721D01*
X458976Y194843D01*
X458049Y194721D01*
X457185Y194363D01*
X456442Y193794D01*
X455873Y193052D01*
X455515Y192187D01*
X455393Y191260D01*
X455515Y190332D01*
X455873Y189468D01*
X456442Y188726D01*
X457185Y188156D01*
X458049Y187799D01*
X458976Y187676D01*
X459904Y187799D01*
X460574Y188076D01*
X464010Y184640D01*
X464010Y184640D01*
X464374Y184397D01*
X464803Y184311D01*
X464803Y184311D01*
X483394D01*
X493341Y174364D01*
Y129474D01*
X474104Y110236D01*
X271654D01*
Y212598D01*
X122047D01*
X118110Y216535D01*
Y248879D01*
X121626D01*
X121644Y248787D01*
X122108Y248092D01*
X122803Y247628D01*
X123622Y247465D01*
X124441Y247628D01*
X125136Y248092D01*
X125600Y248787D01*
X125763Y249606D01*
X125600Y250426D01*
X125136Y251120D01*
X124441Y251585D01*
X123622Y251747D01*
X122803Y251585D01*
X122110Y251121D01*
X118110D01*
Y257469D01*
X128378Y267737D01*
X146211D01*
Y265305D01*
X153316D01*
Y272411D01*
X147797D01*
X145080Y275129D01*
X145271Y275590D01*
X151445D01*
X156580Y270456D01*
X156302Y269786D01*
X156180Y268858D01*
X156302Y267931D01*
X156660Y267067D01*
X157230Y266324D01*
X157972Y265755D01*
X158836Y265397D01*
X159764Y265275D01*
X160691Y265397D01*
X161556Y265755D01*
X162298Y266324D01*
X162867Y267067D01*
X163225Y267931D01*
X163347Y268858D01*
X163225Y269786D01*
X162867Y270650D01*
X162298Y271392D01*
X161556Y271962D01*
X160691Y272320D01*
X159764Y272442D01*
X158836Y272320D01*
X158166Y272042D01*
X155080Y275129D01*
X155271Y275590D01*
X240158D01*
Y307087D01*
X236221Y311024D01*
X220472D01*
Y348425D01*
X220079D01*
Y381496D01*
X206299D01*
Y381496D01*
X194488D01*
Y373622D01*
X173228Y352362D01*
X164567D01*
X162205Y350000D01*
Y349335D01*
X161705Y349236D01*
X161368Y350049D01*
X160727Y350884D01*
X159891Y351525D01*
X158918Y351928D01*
X158274Y352013D01*
Y348031D01*
Y344050D01*
X158918Y344134D01*
X159891Y344537D01*
X160727Y345179D01*
X161368Y346014D01*
X161705Y346827D01*
X162205Y346728D01*
Y338583D01*
X113779D01*
Y383071D01*
X180709D01*
X183465Y385827D01*
X172849D01*
X172515Y386327D01*
X172674Y386710D01*
X172796Y387638D01*
X172674Y388565D01*
X172316Y389429D01*
X171747Y390172D01*
X171004Y390741D01*
X170140Y391099D01*
X169213Y391221D01*
X168285Y391099D01*
X167421Y390741D01*
X166679Y390172D01*
X166109Y389429D01*
X165751Y388565D01*
X165629Y387638D01*
X165751Y386710D01*
X165910Y386327D01*
X165576Y385827D01*
X161417D01*
X161024Y386221D01*
X114173D01*
Y401575D01*
X157480D01*
X168185Y401575D01*
X168285Y401099D01*
X167421Y400741D01*
X166679Y400172D01*
X166109Y399429D01*
X165751Y398565D01*
X165629Y397638D01*
X165751Y396710D01*
X166109Y395846D01*
X166679Y395104D01*
X167421Y394534D01*
X168285Y394177D01*
X169213Y394054D01*
X170140Y394177D01*
X171004Y394534D01*
X171747Y395104D01*
X172316Y395846D01*
X172674Y396710D01*
X172796Y397638D01*
X172674Y398565D01*
X172316Y399429D01*
X171747Y400172D01*
X171004Y400741D01*
X170140Y401099D01*
X170240Y401575D01*
X198185Y401575D01*
X198285Y401099D01*
X197421Y400741D01*
X196679Y400172D01*
X196109Y399429D01*
X195751Y398565D01*
X195629Y397638D01*
X195751Y396710D01*
X196109Y395846D01*
X196679Y395104D01*
X197421Y394534D01*
X198285Y394177D01*
X199213Y394054D01*
X200140Y394177D01*
X201004Y394534D01*
X201747Y395104D01*
X202316Y395846D01*
X202674Y396710D01*
X202796Y397638D01*
X202674Y398565D01*
X202316Y399429D01*
X201747Y400172D01*
X201004Y400741D01*
X200140Y401099D01*
X200240Y401575D01*
X244094Y401575D01*
Y425984D01*
X209842Y460236D01*
X161417D01*
Y447673D01*
X160955Y447481D01*
X159533Y448903D01*
X159169Y449146D01*
X158740Y449232D01*
X158740Y449232D01*
X118342D01*
X118064Y449902D01*
X117494Y450644D01*
X116752Y451214D01*
X115888Y451572D01*
X114961Y451694D01*
X114033Y451572D01*
X113169Y451214D01*
X112427Y450644D01*
X111857Y449902D01*
X111499Y449038D01*
X111377Y448110D01*
X111499Y447183D01*
X111857Y446318D01*
X112427Y445576D01*
X113169Y445007D01*
X114033Y444649D01*
X114961Y444527D01*
X115888Y444649D01*
X116752Y445007D01*
X117494Y445576D01*
X118064Y446318D01*
X118342Y446989D01*
X158276D01*
X161417Y443847D01*
Y433342D01*
X160955Y433150D01*
X155202Y438903D01*
X154839Y439146D01*
X154409Y439232D01*
X154409Y439232D01*
X118342D01*
X118064Y439902D01*
X117494Y440644D01*
X116752Y441214D01*
X115888Y441572D01*
X114961Y441694D01*
X114033Y441572D01*
X113169Y441214D01*
X112427Y440644D01*
X111857Y439902D01*
X111499Y439038D01*
X111377Y438110D01*
X111499Y437183D01*
X111857Y436318D01*
X112427Y435576D01*
X113169Y435007D01*
X114033Y434649D01*
X114961Y434527D01*
X115888Y434649D01*
X116752Y435007D01*
X117494Y435576D01*
X118064Y436318D01*
X118342Y436989D01*
X153945D01*
X161417Y429516D01*
Y418898D01*
X156693Y414173D01*
X113386D01*
X110596Y416963D01*
Y473946D01*
X111008Y474157D01*
X114561D01*
Y478110D01*
X114961D01*
Y478510D01*
X118913D01*
Y481408D01*
X119375Y481600D01*
X121503Y479471D01*
X121503Y479471D01*
X121867Y479228D01*
X122297Y479143D01*
X129631D01*
X129877Y478643D01*
X129533Y478194D01*
X129170Y477318D01*
X129046Y476378D01*
X129170Y475438D01*
X129533Y474562D01*
X130110Y473810D01*
X130862Y473233D01*
X131737Y472871D01*
X132677Y472747D01*
X133617Y472871D01*
X134493Y473233D01*
X135245Y473810D01*
X135822Y474562D01*
X136185Y475438D01*
X136308Y476378D01*
X136185Y477318D01*
X135822Y478194D01*
X135477Y478643D01*
X135723Y479143D01*
X160609D01*
X173223Y466530D01*
X173223Y466530D01*
X173587Y466287D01*
X174016Y466201D01*
X201767D01*
X202029Y465809D01*
X202724Y465345D01*
X203543Y465182D01*
X204363Y465345D01*
X205057Y465809D01*
X205521Y466503D01*
X205684Y467323D01*
X205521Y468142D01*
X205057Y468837D01*
X204363Y469301D01*
X203543Y469464D01*
X202724Y469301D01*
X202029Y468837D01*
X201767Y468444D01*
X174480D01*
X170233Y472692D01*
X170516Y473115D01*
X171107Y472871D01*
X172047Y472747D01*
X172987Y472871D01*
X173863Y473233D01*
X174615Y473810D01*
X175192Y474562D01*
X175555Y475438D01*
X175678Y476378D01*
X175555Y477318D01*
X175192Y478194D01*
X174615Y478945D01*
X173863Y479523D01*
X172987Y479885D01*
X172047Y480009D01*
X171107Y479885D01*
X170413Y479598D01*
X167473Y482539D01*
X167151Y482882D01*
X167471Y483208D01*
X170413Y486150D01*
X171107Y485863D01*
X172047Y485739D01*
X172987Y485863D01*
X173863Y486226D01*
X174615Y486802D01*
X175192Y487555D01*
X175555Y488430D01*
X175678Y489370D01*
X175555Y490310D01*
X175192Y491186D01*
X174615Y491938D01*
X173863Y492515D01*
X172987Y492877D01*
X172047Y493001D01*
X171107Y492877D01*
X170232Y492515D01*
X169480Y491938D01*
X168903Y491186D01*
X168540Y490310D01*
X168416Y489370D01*
X168540Y488430D01*
X168827Y487736D01*
X165891Y484799D01*
X123873D01*
X120872Y487801D01*
X120508Y488044D01*
X120079Y488129D01*
X120079Y488129D01*
X115948D01*
X115757Y488591D01*
X124016Y496850D01*
X137918D01*
X138109Y496388D01*
X134311Y492590D01*
X133617Y492877D01*
X132677Y493001D01*
X131737Y492877D01*
X130862Y492515D01*
X130110Y491938D01*
X129533Y491186D01*
X129170Y490310D01*
X129046Y489370D01*
X129170Y488430D01*
X129533Y487555D01*
X130110Y486802D01*
X130862Y486226D01*
X131737Y485863D01*
X132677Y485739D01*
X133617Y485863D01*
X134493Y486226D01*
X135245Y486802D01*
X135822Y487555D01*
X136185Y488430D01*
X136308Y489370D01*
X136185Y490310D01*
X135897Y491004D01*
X140228Y495335D01*
X210174D01*
X210206Y494835D01*
X209939Y494800D01*
X209074Y494442D01*
X208332Y493872D01*
X207763Y493130D01*
X207405Y492266D01*
X207283Y491339D01*
X207405Y490411D01*
X207763Y489547D01*
X208332Y488805D01*
X209074Y488235D01*
X209939Y487877D01*
X210866Y487755D01*
X211794Y487877D01*
X212658Y488235D01*
X213400Y488805D01*
X213969Y489547D01*
X214327Y490411D01*
X214450Y491339D01*
X214327Y492266D01*
X213969Y493130D01*
X213400Y493872D01*
X212658Y494442D01*
X211794Y494800D01*
X211526Y494835D01*
X211559Y495335D01*
X220174D01*
X220206Y494835D01*
X219939Y494800D01*
X219074Y494442D01*
X218332Y493872D01*
X217763Y493130D01*
X217405Y492266D01*
X217283Y491339D01*
X217405Y490411D01*
X217763Y489547D01*
X218332Y488805D01*
X219074Y488235D01*
X219939Y487877D01*
X220866Y487755D01*
X221794Y487877D01*
X222658Y488235D01*
X223400Y488805D01*
X223970Y489547D01*
X224327Y490411D01*
X224449Y491339D01*
X224327Y492266D01*
X223970Y493130D01*
X223400Y493872D01*
X222658Y494442D01*
X221794Y494800D01*
X221526Y494835D01*
X221559Y495335D01*
X227178D01*
X227313Y494891D01*
X227313Y494835D01*
Y487786D01*
X234419D01*
Y494835D01*
X234419Y494891D01*
X234555Y495335D01*
X238906D01*
X241792Y492449D01*
Y486685D01*
X237567Y482460D01*
X234247D01*
X233969Y483130D01*
X233400Y483872D01*
X232658Y484442D01*
X231794Y484800D01*
X230866Y484922D01*
X229939Y484800D01*
X229074Y484442D01*
X228332Y483872D01*
X227763Y483130D01*
X227405Y482266D01*
X227283Y481339D01*
X227405Y480411D01*
X227763Y479547D01*
X228332Y478805D01*
X229074Y478235D01*
X229939Y477877D01*
X230866Y477755D01*
X231794Y477877D01*
X232658Y478235D01*
X233400Y478805D01*
X233969Y479547D01*
X234247Y480217D01*
X238031D01*
X238032Y480217D01*
X238461Y480302D01*
X238825Y480546D01*
X243706Y485427D01*
X243706Y485427D01*
X243950Y485791D01*
X244035Y486221D01*
X244035Y486221D01*
Y492913D01*
X243950Y493343D01*
X243706Y493707D01*
X243706Y493707D01*
X241024Y496388D01*
X241216Y496850D01*
X275197D01*
Y481102D01*
X259842Y465748D01*
Y456693D01*
X271654Y468504D01*
X295276D01*
Y614173D01*
X299213Y618110D01*
X374016D01*
X377953Y614173D01*
D02*
G37*
G36*
X146211Y270825D02*
Y269980D01*
X127913D01*
X127484Y269895D01*
X127120Y269651D01*
X127120Y269651D01*
X118572Y261103D01*
X118110Y261295D01*
Y272500D01*
X131688D01*
X131951Y272108D01*
X132645Y271644D01*
X133465Y271481D01*
X134284Y271644D01*
X134979Y272108D01*
X135443Y272803D01*
X135606Y273622D01*
X135443Y274441D01*
X135009Y275091D01*
X135130Y275590D01*
X141445D01*
X146211Y270825D01*
D02*
G37*
G36*
X499272Y185362D02*
Y126772D01*
X499272Y126772D01*
X499358Y126342D01*
X499601Y125979D01*
X514881Y110698D01*
X514690Y110236D01*
X480192D01*
X480001Y110698D01*
X496856Y127553D01*
X496856Y127553D01*
X497099Y127917D01*
X497185Y128347D01*
X497185Y128347D01*
Y182677D01*
X497099Y183106D01*
X496856Y183470D01*
X496856Y183470D01*
X480714Y199612D01*
X480350Y199855D01*
X479921Y199941D01*
X479921Y199941D01*
X473273D01*
X472989Y200441D01*
X472997Y200453D01*
X484181D01*
X499272Y185362D01*
D02*
G37*
%LPC*%
G36*
X332920Y614218D02*
Y610636D01*
X336502D01*
X336417Y611280D01*
X336014Y612254D01*
X335372Y613089D01*
X334537Y613730D01*
X333564Y614133D01*
X332920Y614218D01*
D02*
G37*
G36*
X332120D02*
X331475Y614133D01*
X330502Y613730D01*
X329667Y613089D01*
X329026Y612254D01*
X328623Y611280D01*
X328538Y610636D01*
X332120D01*
Y614218D01*
D02*
G37*
G36*
X356120Y613836D02*
X348920D01*
Y606636D01*
X356120D01*
Y613836D01*
D02*
G37*
G36*
X342520Y613867D02*
X341580Y613743D01*
X340704Y613381D01*
X339952Y612804D01*
X339375Y612052D01*
X339012Y611176D01*
X338889Y610236D01*
X339012Y609296D01*
X339375Y608421D01*
X339952Y607669D01*
X340704Y607092D01*
X341580Y606729D01*
X342520Y606605D01*
X343460Y606729D01*
X344335Y607092D01*
X345087Y607669D01*
X345664Y608421D01*
X346027Y609296D01*
X346151Y610236D01*
X346027Y611176D01*
X345664Y612052D01*
X345087Y612804D01*
X344335Y613381D01*
X343460Y613743D01*
X342520Y613867D01*
D02*
G37*
G36*
X322520D02*
X321580Y613743D01*
X320704Y613381D01*
X319952Y612804D01*
X319375Y612052D01*
X319012Y611176D01*
X318889Y610236D01*
X319012Y609296D01*
X319375Y608421D01*
X319952Y607669D01*
X320704Y607092D01*
X321580Y606729D01*
X322520Y606605D01*
X323460Y606729D01*
X324335Y607092D01*
X325087Y607669D01*
X325664Y608421D01*
X326027Y609296D01*
X326151Y610236D01*
X326027Y611176D01*
X325664Y612052D01*
X325087Y612804D01*
X324335Y613381D01*
X323460Y613743D01*
X322520Y613867D01*
D02*
G37*
G36*
X332120Y609836D02*
X328538D01*
X328623Y609192D01*
X329026Y608219D01*
X329667Y607383D01*
X330502Y606742D01*
X331475Y606339D01*
X332120Y606254D01*
Y609836D01*
D02*
G37*
G36*
X336502D02*
X332920D01*
Y606254D01*
X333564Y606339D01*
X334537Y606742D01*
X335372Y607383D01*
X336014Y608219D01*
X336417Y609192D01*
X336502Y609836D01*
D02*
G37*
G36*
X358268Y594182D02*
X357328Y594059D01*
X356452Y593696D01*
X355700Y593119D01*
X355123Y592367D01*
X354760Y591491D01*
X354637Y590551D01*
X354760Y589611D01*
X355123Y588736D01*
X355700Y587984D01*
X356452Y587407D01*
X357328Y587044D01*
X358268Y586920D01*
X359208Y587044D01*
X360083Y587407D01*
X360835Y587984D01*
X361412Y588736D01*
X361775Y589611D01*
X361899Y590551D01*
X361775Y591491D01*
X361412Y592367D01*
X360835Y593119D01*
X360083Y593696D01*
X359208Y594059D01*
X358268Y594182D01*
D02*
G37*
G36*
X496463Y584061D02*
Y579534D01*
X500990D01*
X500873Y580423D01*
X500376Y581624D01*
X499584Y582655D01*
X498553Y583446D01*
X497352Y583944D01*
X496463Y584061D01*
D02*
G37*
G36*
X495663D02*
X494774Y583944D01*
X493573Y583446D01*
X492542Y582655D01*
X491750Y581624D01*
X491253Y580423D01*
X491136Y579534D01*
X495663D01*
Y584061D01*
D02*
G37*
G36*
X517323Y583710D02*
X516138Y583554D01*
X515035Y583097D01*
X514087Y582370D01*
X513360Y581422D01*
X512903Y580318D01*
X512747Y579134D01*
X512903Y577949D01*
X513360Y576846D01*
X514087Y575898D01*
X515035Y575171D01*
X516138Y574714D01*
X517323Y574558D01*
X518507Y574714D01*
X519611Y575171D01*
X520559Y575898D01*
X521286Y576846D01*
X521743Y577949D01*
X521899Y579134D01*
X521743Y580318D01*
X521286Y581422D01*
X520559Y582370D01*
X519611Y583097D01*
X518507Y583554D01*
X517323Y583710D01*
D02*
G37*
G36*
X500990Y578734D02*
X496463D01*
Y574207D01*
X497352Y574324D01*
X498553Y574821D01*
X499584Y575613D01*
X500376Y576644D01*
X500873Y577845D01*
X500990Y578734D01*
D02*
G37*
G36*
X495663D02*
X491136D01*
X491253Y577845D01*
X491750Y576644D01*
X492542Y575613D01*
X493573Y574821D01*
X494774Y574324D01*
X495663Y574207D01*
Y578734D01*
D02*
G37*
G36*
X358668Y555163D02*
Y551581D01*
X362250D01*
X362165Y552225D01*
X361762Y553198D01*
X361121Y554034D01*
X360285Y554675D01*
X359312Y555078D01*
X358668Y555163D01*
D02*
G37*
G36*
X357868D02*
X357224Y555078D01*
X356251Y554675D01*
X355415Y554034D01*
X354774Y553198D01*
X354371Y552225D01*
X354286Y551581D01*
X357868D01*
Y555163D01*
D02*
G37*
G36*
X362250Y550781D02*
X358668D01*
Y547199D01*
X359312Y547284D01*
X360285Y547687D01*
X361121Y548328D01*
X361762Y549164D01*
X362165Y550137D01*
X362250Y550781D01*
D02*
G37*
G36*
X357868D02*
X354286D01*
X354371Y550137D01*
X354774Y549164D01*
X355415Y548328D01*
X356251Y547687D01*
X357224Y547284D01*
X357868Y547199D01*
Y550781D01*
D02*
G37*
G36*
X266305Y492123D02*
Y488589D01*
X269840D01*
X269757Y489221D01*
X269358Y490182D01*
X268725Y491008D01*
X267899Y491642D01*
X266937Y492040D01*
X266305Y492123D01*
D02*
G37*
G36*
X265506D02*
X264874Y492040D01*
X263912Y491642D01*
X263086Y491008D01*
X262453Y490182D01*
X262054Y489221D01*
X261971Y488589D01*
X265506D01*
Y492123D01*
D02*
G37*
G36*
X259458Y491742D02*
X252353D01*
Y484636D01*
X259458D01*
Y491742D01*
D02*
G37*
G36*
X269840Y487789D02*
X266305D01*
Y484255D01*
X266937Y484338D01*
X267899Y484736D01*
X268725Y485370D01*
X269358Y486196D01*
X269757Y487157D01*
X269840Y487789D01*
D02*
G37*
G36*
X265506D02*
X261971D01*
X262054Y487157D01*
X262453Y486196D01*
X263086Y485370D01*
X263912Y484736D01*
X264874Y484338D01*
X265506Y484255D01*
Y487789D01*
D02*
G37*
G36*
X211266Y485273D02*
Y481739D01*
X214800D01*
X214717Y482371D01*
X214319Y483332D01*
X213685Y484158D01*
X212860Y484791D01*
X211898Y485190D01*
X211266Y485273D01*
D02*
G37*
G36*
X210466D02*
X209834Y485190D01*
X208873Y484791D01*
X208047Y484158D01*
X207413Y483332D01*
X207015Y482371D01*
X206932Y481739D01*
X210466D01*
Y485273D01*
D02*
G37*
G36*
X510236Y487883D02*
X509296Y487759D01*
X508421Y487397D01*
X507669Y486820D01*
X507092Y486067D01*
X506729Y485192D01*
X506605Y484252D01*
X506729Y483312D01*
X507092Y482436D01*
X507669Y481684D01*
X508421Y481107D01*
X509296Y480745D01*
X510236Y480621D01*
X511176Y480745D01*
X512052Y481107D01*
X512804Y481684D01*
X513381Y482436D01*
X513743Y483312D01*
X513867Y484252D01*
X513743Y485192D01*
X513381Y486067D01*
X512804Y486820D01*
X512052Y487397D01*
X511176Y487759D01*
X510236Y487883D01*
D02*
G37*
G36*
X220866Y484922D02*
X219939Y484800D01*
X219074Y484442D01*
X218332Y483872D01*
X217763Y483130D01*
X217405Y482266D01*
X217283Y481339D01*
X217405Y480411D01*
X217763Y479547D01*
X218332Y478805D01*
X219074Y478235D01*
X219939Y477877D01*
X220866Y477755D01*
X221794Y477877D01*
X222658Y478235D01*
X223400Y478805D01*
X223970Y479547D01*
X224327Y480411D01*
X224449Y481339D01*
X224327Y482266D01*
X223970Y483130D01*
X223400Y483872D01*
X222658Y484442D01*
X221794Y484800D01*
X220866Y484922D01*
D02*
G37*
G36*
X214800Y480938D02*
X211266D01*
Y477404D01*
X211898Y477488D01*
X212860Y477886D01*
X213685Y478519D01*
X214319Y479345D01*
X214717Y480307D01*
X214800Y480938D01*
D02*
G37*
G36*
X210466D02*
X206932D01*
X207015Y480307D01*
X207413Y479345D01*
X208047Y478519D01*
X208873Y477886D01*
X209834Y477488D01*
X210466Y477404D01*
Y480938D01*
D02*
G37*
G36*
X118913Y477710D02*
X115361D01*
Y474157D01*
X118913D01*
Y477710D01*
D02*
G37*
G36*
X383077Y476423D02*
Y472841D01*
X386659D01*
X386574Y473485D01*
X386171Y474458D01*
X385530Y475294D01*
X384694Y475935D01*
X383721Y476338D01*
X383077Y476423D01*
D02*
G37*
G36*
X382277D02*
X381633Y476338D01*
X380660Y475935D01*
X379824Y475294D01*
X379183Y474458D01*
X378780Y473485D01*
X378695Y472841D01*
X382277D01*
Y476423D01*
D02*
G37*
G36*
X382677Y472441D02*
D01*
D01*
D01*
D01*
D02*
G37*
G36*
X499213Y479615D02*
X498273Y479492D01*
X497397Y479129D01*
X496645Y478552D01*
X496068Y477800D01*
X495705Y476924D01*
X495581Y475984D01*
X495705Y475044D01*
X496068Y474169D01*
X496645Y473417D01*
X497397Y472840D01*
X498273Y472477D01*
X499213Y472353D01*
X500152Y472477D01*
X501028Y472840D01*
X501780Y473417D01*
X502357Y474169D01*
X502720Y475044D01*
X502844Y475984D01*
X502720Y476924D01*
X502357Y477800D01*
X501780Y478552D01*
X501028Y479129D01*
X500152Y479492D01*
X499213Y479615D01*
D02*
G37*
G36*
X382277Y472041D02*
X378695D01*
X378780Y471397D01*
X379183Y470424D01*
X379824Y469588D01*
X380660Y468947D01*
X381633Y468544D01*
X382277Y468459D01*
Y472041D01*
D02*
G37*
G36*
X386659D02*
X383077D01*
Y468459D01*
X383721Y468544D01*
X384694Y468947D01*
X385530Y469588D01*
X386171Y470424D01*
X386574Y471397D01*
X386659Y472041D01*
D02*
G37*
G36*
X527953Y473710D02*
X527013Y473586D01*
X526137Y473223D01*
X525385Y472646D01*
X524808Y471894D01*
X524445Y471019D01*
X524322Y470079D01*
X524445Y469139D01*
X524808Y468263D01*
X525385Y467511D01*
X526137Y466934D01*
X527013Y466571D01*
X527953Y466448D01*
X528893Y466571D01*
X529768Y466934D01*
X530520Y467511D01*
X531097Y468263D01*
X531460Y469139D01*
X531584Y470079D01*
X531460Y471019D01*
X531097Y471894D01*
X530520Y472646D01*
X529768Y473223D01*
X528893Y473586D01*
X527953Y473710D01*
D02*
G37*
G36*
X114961Y471694D02*
X114033Y471572D01*
X113169Y471214D01*
X112427Y470644D01*
X111857Y469902D01*
X111499Y469038D01*
X111377Y468110D01*
X111499Y467183D01*
X111857Y466319D01*
X112427Y465576D01*
X113169Y465007D01*
X114033Y464649D01*
X114961Y464527D01*
X115888Y464649D01*
X116752Y465007D01*
X117494Y465576D01*
X118064Y466319D01*
X118422Y467183D01*
X118544Y468110D01*
X118422Y469038D01*
X118064Y469902D01*
X117494Y470644D01*
X116752Y471214D01*
X115888Y471572D01*
X114961Y471694D01*
D02*
G37*
G36*
X441739Y466580D02*
Y462998D01*
X445320D01*
X445236Y463643D01*
X444833Y464616D01*
X444191Y465451D01*
X443356Y466092D01*
X442383Y466496D01*
X441739Y466580D01*
D02*
G37*
G36*
X440939Y466580D02*
X440294Y466496D01*
X439321Y466092D01*
X438486Y465451D01*
X437845Y464616D01*
X437441Y463643D01*
X437357Y462998D01*
X440939D01*
Y466580D01*
D02*
G37*
G36*
X386277Y466198D02*
X379077D01*
Y458998D01*
X386277D01*
Y466198D01*
D02*
G37*
G36*
X401968Y466229D02*
X401029Y466106D01*
X400153Y465743D01*
X399401Y465166D01*
X398824Y464414D01*
X398461Y463538D01*
X398337Y462598D01*
X398461Y461659D01*
X398824Y460783D01*
X399401Y460031D01*
X400153Y459454D01*
X401029Y459091D01*
X401968Y458967D01*
X402908Y459091D01*
X403784Y459454D01*
X404536Y460031D01*
X405113Y460783D01*
X405476Y461659D01*
X405600Y462598D01*
X405476Y463538D01*
X405113Y464414D01*
X404536Y465166D01*
X403784Y465743D01*
X402908Y466106D01*
X401968Y466229D01*
D02*
G37*
G36*
X440939Y462198D02*
X437357D01*
X437441Y461554D01*
X437845Y460581D01*
X438486Y459746D01*
X439321Y459104D01*
X440294Y458701D01*
X440939Y458617D01*
Y462198D01*
D02*
G37*
G36*
X445320D02*
X441739D01*
Y458617D01*
X442383Y458701D01*
X443356Y459104D01*
X444191Y459746D01*
X444833Y460581D01*
X445236Y461554D01*
X445320Y462198D01*
D02*
G37*
G36*
X599219Y460281D02*
Y456699D01*
X602801D01*
X602716Y457343D01*
X602313Y458317D01*
X601672Y459152D01*
X600836Y459793D01*
X599863Y460196D01*
X599219Y460281D01*
D02*
G37*
G36*
X598419Y460281D02*
X597775Y460196D01*
X596802Y459793D01*
X595966Y459152D01*
X595325Y458317D01*
X594922Y457343D01*
X594837Y456699D01*
X598419D01*
Y460281D01*
D02*
G37*
G36*
X142520Y462292D02*
X141580Y462169D01*
X140704Y461806D01*
X139952Y461229D01*
X139375Y460477D01*
X139012Y459601D01*
X138889Y458661D01*
X139012Y457722D01*
X139375Y456846D01*
X139952Y456094D01*
X140704Y455517D01*
X141580Y455154D01*
X142520Y455030D01*
X143459Y455154D01*
X144335Y455517D01*
X145087Y456094D01*
X145664Y456846D01*
X146027Y457722D01*
X146151Y458661D01*
X146027Y459601D01*
X145664Y460477D01*
X145087Y461229D01*
X144335Y461806D01*
X143459Y462169D01*
X142520Y462292D01*
D02*
G37*
G36*
X114961Y461694D02*
X114033Y461572D01*
X113169Y461214D01*
X112427Y460644D01*
X111857Y459902D01*
X111499Y459038D01*
X111377Y458110D01*
X111499Y457183D01*
X111857Y456319D01*
X112427Y455576D01*
X113169Y455007D01*
X114033Y454649D01*
X114961Y454527D01*
X115888Y454649D01*
X116752Y455007D01*
X117494Y455576D01*
X118064Y456319D01*
X118422Y457183D01*
X118544Y458110D01*
X118422Y459038D01*
X118064Y459902D01*
X117494Y460644D01*
X116752Y461214D01*
X115888Y461572D01*
X114961Y461694D01*
D02*
G37*
G36*
X559449Y459930D02*
X558509Y459806D01*
X557633Y459444D01*
X556881Y458867D01*
X556304Y458115D01*
X555941Y457239D01*
X555818Y456299D01*
X555941Y455359D01*
X556304Y454484D01*
X556881Y453732D01*
X557633Y453155D01*
X558509Y452792D01*
X559449Y452668D01*
X560389Y452792D01*
X561264Y453155D01*
X562016Y453732D01*
X562593Y454484D01*
X562956Y455359D01*
X563080Y456299D01*
X562956Y457239D01*
X562593Y458115D01*
X562016Y458867D01*
X561264Y459444D01*
X560389Y459806D01*
X559449Y459930D01*
D02*
G37*
G36*
X499213D02*
X498273Y459806D01*
X497397Y459444D01*
X496645Y458867D01*
X496068Y458115D01*
X495705Y457239D01*
X495581Y456299D01*
X495705Y455359D01*
X496068Y454484D01*
X496645Y453732D01*
X497397Y453155D01*
X498273Y452792D01*
X499213Y452668D01*
X500152Y452792D01*
X501028Y453155D01*
X501780Y453732D01*
X502357Y454484D01*
X502720Y455359D01*
X502844Y456299D01*
X502720Y457239D01*
X502357Y458115D01*
X501780Y458867D01*
X501028Y459444D01*
X500152Y459806D01*
X499213Y459930D01*
D02*
G37*
G36*
X523986Y459498D02*
X516880D01*
Y452392D01*
X523986D01*
Y459498D01*
D02*
G37*
G36*
X550433Y459528D02*
X549506Y459406D01*
X548641Y459048D01*
X547899Y458479D01*
X547330Y457737D01*
X546972Y456872D01*
X546850Y455945D01*
X546972Y455017D01*
X547330Y454153D01*
X547899Y453411D01*
X548641Y452842D01*
X549506Y452484D01*
X550433Y452361D01*
X551361Y452484D01*
X552225Y452842D01*
X552967Y453411D01*
X553536Y454153D01*
X553894Y455017D01*
X554016Y455945D01*
X553894Y456872D01*
X553536Y457737D01*
X552967Y458479D01*
X552225Y459048D01*
X551361Y459406D01*
X550433Y459528D01*
D02*
G37*
G36*
X598419Y455899D02*
X594837D01*
X594922Y455255D01*
X595325Y454282D01*
X595966Y453446D01*
X596802Y452805D01*
X597775Y452402D01*
X598419Y452317D01*
Y455899D01*
D02*
G37*
G36*
X602801D02*
X599219D01*
Y452317D01*
X599863Y452402D01*
X600836Y452805D01*
X601672Y453446D01*
X602313Y454282D01*
X602716Y455255D01*
X602801Y455899D01*
D02*
G37*
G36*
X550433Y449528D02*
X549506Y449406D01*
X548641Y449048D01*
X547899Y448479D01*
X547330Y447737D01*
X546972Y446872D01*
X546850Y445945D01*
X546972Y445017D01*
X547330Y444153D01*
X547899Y443411D01*
X548641Y442842D01*
X549506Y442484D01*
X550433Y442361D01*
X551361Y442484D01*
X552225Y442842D01*
X552967Y443411D01*
X553536Y444153D01*
X553894Y445017D01*
X554016Y445945D01*
X553894Y446872D01*
X553536Y447737D01*
X552967Y448479D01*
X552225Y449048D01*
X551361Y449406D01*
X550433Y449528D01*
D02*
G37*
G36*
X520433D02*
X519506Y449406D01*
X518641Y449048D01*
X517899Y448479D01*
X517330Y447737D01*
X516972Y446872D01*
X516850Y445945D01*
X516972Y445017D01*
X517330Y444153D01*
X517899Y443411D01*
X518641Y442842D01*
X519506Y442484D01*
X520433Y442361D01*
X521360Y442484D01*
X522225Y442842D01*
X522967Y443411D01*
X523536Y444153D01*
X523894Y445017D01*
X524017Y445945D01*
X523894Y446872D01*
X523536Y447737D01*
X522967Y448479D01*
X522225Y449048D01*
X521360Y449406D01*
X520433Y449528D01*
D02*
G37*
G36*
X510236Y448513D02*
X509296Y448389D01*
X508421Y448027D01*
X507669Y447449D01*
X507092Y446697D01*
X506729Y445822D01*
X506605Y444882D01*
X506729Y443942D01*
X507092Y443066D01*
X507669Y442314D01*
X508421Y441737D01*
X509296Y441375D01*
X510236Y441251D01*
X511176Y441375D01*
X512052Y441737D01*
X512804Y442314D01*
X513381Y443066D01*
X513743Y443942D01*
X513867Y444882D01*
X513743Y445822D01*
X513381Y446697D01*
X512804Y447449D01*
X512052Y448027D01*
X511176Y448389D01*
X510236Y448513D01*
D02*
G37*
G36*
X567323Y473710D02*
X566383Y473586D01*
X565507Y473223D01*
X564755Y472646D01*
X564178Y471894D01*
X563815Y471019D01*
X563692Y470079D01*
X563815Y469139D01*
X564178Y468263D01*
X564755Y467511D01*
X565507Y466934D01*
X566340Y466589D01*
Y453798D01*
X551776Y439234D01*
X551361Y439406D01*
X550433Y439528D01*
X549506Y439406D01*
X548641Y439048D01*
X547899Y438479D01*
X547330Y437737D01*
X546972Y436872D01*
X546850Y435945D01*
X546972Y435017D01*
X547330Y434153D01*
X547899Y433411D01*
X548641Y432842D01*
X549506Y432484D01*
X550433Y432362D01*
X551361Y432484D01*
X552225Y432842D01*
X552967Y433411D01*
X553536Y434153D01*
X553894Y435017D01*
X554016Y435945D01*
X553894Y436872D01*
X553722Y437288D01*
X568690Y452255D01*
X568988Y452702D01*
X569093Y453228D01*
X569093Y453228D01*
Y466915D01*
X569138Y466934D01*
X569890Y467511D01*
X570467Y468263D01*
X570830Y469139D01*
X570954Y470079D01*
X570830Y471019D01*
X570467Y471894D01*
X569890Y472646D01*
X569138Y473223D01*
X568263Y473586D01*
X567323Y473710D01*
D02*
G37*
G36*
X301181Y456078D02*
X300362Y455915D01*
X299667Y455451D01*
X299203Y454756D01*
X299040Y453937D01*
X299203Y453118D01*
X299667Y452423D01*
X300240Y452040D01*
X300097Y451540D01*
X293332D01*
X292903Y451455D01*
X292539Y451212D01*
X292539Y451212D01*
X286290Y444962D01*
X285827Y445054D01*
X285007Y444892D01*
X284313Y444427D01*
X283849Y443733D01*
X283686Y442913D01*
X283849Y442094D01*
X284313Y441399D01*
X285007Y440935D01*
X285827Y440772D01*
X286646Y440935D01*
X287341Y441399D01*
X287805Y442094D01*
X287968Y442913D01*
X287876Y443376D01*
X289027Y444528D01*
X289416Y444209D01*
X289360Y444127D01*
X289197Y443307D01*
X289360Y442488D01*
X289825Y441793D01*
X290519Y441329D01*
X291339Y441166D01*
X292158Y441329D01*
X292853Y441793D01*
X293317Y442488D01*
X293480Y443307D01*
X293388Y443770D01*
X294484Y444867D01*
X295276Y444709D01*
X296095Y444872D01*
X296790Y445336D01*
X297254Y446031D01*
X297417Y446850D01*
X297254Y447670D01*
X296790Y448364D01*
X296536Y448534D01*
X296416Y449214D01*
X296476Y449297D01*
X332885D01*
X333076Y448835D01*
X324339Y440098D01*
X278548D01*
X278286Y440490D01*
X277591Y440954D01*
X276772Y441117D01*
X275952Y440954D01*
X275258Y440490D01*
X274794Y439796D01*
X274630Y438976D01*
X274794Y438157D01*
X275258Y437462D01*
X275952Y436998D01*
X276772Y436835D01*
X277591Y436998D01*
X278286Y437462D01*
X278548Y437855D01*
X282611D01*
X282878Y437355D01*
X282667Y437040D01*
X282505Y436221D01*
X282667Y435401D01*
X283132Y434706D01*
X283742Y434299D01*
X283700Y433909D01*
X283659Y433799D01*
X278548D01*
X278286Y434191D01*
X277591Y434655D01*
X276772Y434818D01*
X275952Y434655D01*
X275258Y434191D01*
X274794Y433497D01*
X274630Y432677D01*
X274794Y431858D01*
X275258Y431163D01*
X275952Y430699D01*
X276772Y430536D01*
X277591Y430699D01*
X278286Y431163D01*
X278548Y431556D01*
X319220D01*
X338971Y411805D01*
X338971Y411805D01*
X339335Y411562D01*
X339764Y411477D01*
X339764Y411477D01*
X343106D01*
X343368Y411084D01*
X344062Y410620D01*
X344882Y410457D01*
X345701Y410620D01*
X346396Y411084D01*
X346860Y411779D01*
X347023Y412598D01*
X346860Y413418D01*
X346396Y414112D01*
X345701Y414577D01*
X344882Y414740D01*
X344062Y414577D01*
X343368Y414112D01*
X343106Y413720D01*
X340228D01*
X320478Y433470D01*
X320114Y433713D01*
X319685Y433799D01*
X319685Y433799D01*
X285633D01*
X285591Y433909D01*
X285549Y434299D01*
X286160Y434706D01*
X286422Y435099D01*
X325590D01*
X325590Y435099D01*
X326020Y435184D01*
X326384Y435427D01*
X336685Y445729D01*
X387724D01*
X391634Y441819D01*
Y439217D01*
X390666Y438816D01*
X389801Y438152D01*
X389137Y437286D01*
X388719Y436278D01*
X388577Y435197D01*
X388719Y434115D01*
X389137Y433107D01*
X389801Y432242D01*
X390666Y431578D01*
X391674Y431160D01*
X392756Y431018D01*
X393837Y431160D01*
X394845Y431578D01*
X395711Y432242D01*
X396375Y433107D01*
X396793Y434115D01*
X396935Y435197D01*
X396793Y436278D01*
X396375Y437286D01*
X395711Y438152D01*
X394845Y438816D01*
X393878Y439217D01*
Y442283D01*
X393792Y442713D01*
X393549Y443077D01*
X393549Y443077D01*
X389428Y447197D01*
X389635Y447697D01*
X397961D01*
X401634Y444024D01*
Y439217D01*
X400666Y438816D01*
X399801Y438152D01*
X399137Y437286D01*
X398719Y436278D01*
X398577Y435197D01*
X398719Y434115D01*
X399137Y433107D01*
X399801Y432242D01*
X400666Y431578D01*
X401674Y431160D01*
X402756Y431018D01*
X403837Y431160D01*
X404845Y431578D01*
X405711Y432242D01*
X406375Y433107D01*
X406793Y434115D01*
X406935Y435197D01*
X406793Y436278D01*
X406375Y437286D01*
X405711Y438152D01*
X404845Y438816D01*
X403877Y439217D01*
Y444488D01*
X403877Y444488D01*
X403792Y444917D01*
X403549Y445281D01*
X403549Y445281D01*
X400020Y448810D01*
X400211Y449272D01*
X405047D01*
X411634Y442685D01*
Y439217D01*
X410666Y438816D01*
X409801Y438152D01*
X409137Y437286D01*
X408719Y436278D01*
X408577Y435197D01*
X408719Y434115D01*
X409137Y433107D01*
X409801Y432242D01*
X410666Y431578D01*
X411674Y431160D01*
X412756Y431018D01*
X413837Y431160D01*
X414845Y431578D01*
X415711Y432242D01*
X416375Y433107D01*
X416793Y434115D01*
X416935Y435197D01*
X416793Y436278D01*
X416375Y437286D01*
X415711Y438152D01*
X414845Y438816D01*
X413877Y439217D01*
Y443150D01*
X413792Y443579D01*
X413549Y443943D01*
X413549Y443943D01*
X406305Y451187D01*
X405941Y451430D01*
X405512Y451515D01*
X405512Y451515D01*
X399215D01*
X399088Y451541D01*
X399088Y451540D01*
X302265D01*
X302123Y452040D01*
X302695Y452423D01*
X302957Y452815D01*
X425520D01*
X426831Y451504D01*
Y437484D01*
X426531Y437354D01*
X426331Y437344D01*
X425711Y438152D01*
X424845Y438816D01*
X423838Y439233D01*
X422756Y439376D01*
X421674Y439233D01*
X420666Y438816D01*
X419801Y438152D01*
X419137Y437286D01*
X418719Y436278D01*
X418577Y435197D01*
X418719Y434115D01*
X419120Y433147D01*
X417317Y431344D01*
X417074Y430980D01*
X416989Y430551D01*
X416989Y430551D01*
Y427111D01*
X416489Y427012D01*
X416375Y427286D01*
X415711Y428152D01*
X414845Y428816D01*
X413837Y429234D01*
X412756Y429376D01*
X411674Y429234D01*
X410666Y428816D01*
X409801Y428152D01*
X409256Y427441D01*
X409036Y427398D01*
X408672Y427154D01*
X408429Y426791D01*
X408344Y426362D01*
X408429Y425932D01*
X408633Y425627D01*
X408577Y425197D01*
X408719Y424115D01*
X409137Y423107D01*
X409801Y422242D01*
X410666Y421578D01*
X411674Y421160D01*
X412756Y421018D01*
X413837Y421160D01*
X414845Y421578D01*
X415711Y422242D01*
X416375Y423107D01*
X416489Y423382D01*
X416989Y423282D01*
Y412406D01*
X416596Y412144D01*
X416132Y411449D01*
X415969Y410630D01*
X416132Y409810D01*
X416596Y409116D01*
X417291Y408652D01*
X418110Y408489D01*
X418930Y408652D01*
X419624Y409116D01*
X420088Y409810D01*
X420251Y410630D01*
X420088Y411449D01*
X419624Y412144D01*
X419232Y412406D01*
Y422206D01*
X419705Y422366D01*
X419801Y422242D01*
X420666Y421578D01*
X421674Y421160D01*
X422756Y421018D01*
X423838Y421160D01*
X424845Y421578D01*
X425711Y422242D01*
X426375Y423107D01*
X426793Y424115D01*
X426935Y425197D01*
X426793Y426278D01*
X426392Y427246D01*
X428746Y429601D01*
X428746Y429601D01*
X428989Y429964D01*
X429074Y430394D01*
X429074Y430394D01*
Y432367D01*
X429574Y432537D01*
X429801Y432242D01*
X430666Y431578D01*
X431674Y431160D01*
X432756Y431018D01*
X433838Y431160D01*
X434845Y431578D01*
X435711Y432242D01*
X436375Y433107D01*
X436793Y434115D01*
X436935Y435197D01*
X436793Y436278D01*
X436375Y437286D01*
X435711Y438152D01*
X434845Y438816D01*
X433838Y439233D01*
X432756Y439376D01*
X431674Y439233D01*
X430666Y438816D01*
X429801Y438152D01*
X429574Y437857D01*
X429074Y438026D01*
Y451968D01*
X428989Y452398D01*
X428746Y452762D01*
X428746Y452762D01*
X426777Y454730D01*
X426413Y454973D01*
X425984Y455059D01*
X425984Y455059D01*
X302957D01*
X302695Y455451D01*
X302000Y455915D01*
X301181Y456078D01*
D02*
G37*
G36*
X520833Y439879D02*
Y436345D01*
X524367D01*
X524284Y436977D01*
X523886Y437938D01*
X523252Y438764D01*
X522427Y439398D01*
X521465Y439796D01*
X520833Y439879D01*
D02*
G37*
G36*
X520033D02*
X519401Y439796D01*
X518440Y439398D01*
X517614Y438764D01*
X516980Y437938D01*
X516582Y436977D01*
X516499Y436345D01*
X520033D01*
Y439879D01*
D02*
G37*
G36*
X524367Y435545D02*
X520833D01*
Y432011D01*
X521465Y432094D01*
X522427Y432492D01*
X523252Y433126D01*
X523886Y433952D01*
X524284Y434913D01*
X524367Y435545D01*
D02*
G37*
G36*
X520033D02*
X516499D01*
X516582Y434913D01*
X516980Y433952D01*
X517614Y433126D01*
X518440Y432492D01*
X519401Y432094D01*
X520033Y432011D01*
Y435545D01*
D02*
G37*
G36*
X452756Y439376D02*
X451674Y439233D01*
X450666Y438816D01*
X449801Y438152D01*
X449137Y437286D01*
X448719Y436278D01*
X448577Y435197D01*
X448719Y434115D01*
X449137Y433107D01*
X449801Y432242D01*
X450666Y431578D01*
X451674Y431160D01*
X452756Y431018D01*
X453837Y431160D01*
X454845Y431578D01*
X455711Y432242D01*
X456375Y433107D01*
X456793Y434115D01*
X456935Y435197D01*
X456793Y436278D01*
X456375Y437286D01*
X455711Y438152D01*
X454845Y438816D01*
X453837Y439233D01*
X452756Y439376D01*
D02*
G37*
G36*
X442756D02*
X441674Y439233D01*
X440666Y438816D01*
X439801Y438152D01*
X439137Y437286D01*
X438719Y436278D01*
X438577Y435197D01*
X438719Y434115D01*
X439137Y433107D01*
X439801Y432242D01*
X440666Y431578D01*
X441674Y431160D01*
X442756Y431018D01*
X443837Y431160D01*
X444845Y431578D01*
X445711Y432242D01*
X446375Y433107D01*
X446793Y434115D01*
X446935Y435197D01*
X446793Y436278D01*
X446375Y437286D01*
X445711Y438152D01*
X444845Y438816D01*
X443837Y439233D01*
X442756Y439376D01*
D02*
G37*
G36*
X382756D02*
X381674Y439233D01*
X380666Y438816D01*
X379801Y438152D01*
X379137Y437286D01*
X378719Y436278D01*
X378577Y435197D01*
X378719Y434115D01*
X379137Y433107D01*
X379801Y432242D01*
X380666Y431578D01*
X381674Y431160D01*
X382756Y431018D01*
X383838Y431160D01*
X384845Y431578D01*
X385711Y432242D01*
X386375Y433107D01*
X386793Y434115D01*
X386935Y435197D01*
X386793Y436278D01*
X386375Y437286D01*
X385711Y438152D01*
X384845Y438816D01*
X383838Y439233D01*
X382756Y439376D01*
D02*
G37*
G36*
X550833Y429879D02*
Y426345D01*
X554367D01*
X554284Y426977D01*
X553886Y427938D01*
X553252Y428764D01*
X552426Y429398D01*
X551465Y429796D01*
X550833Y429879D01*
D02*
G37*
G36*
X550033D02*
X549401Y429796D01*
X548440Y429398D01*
X547614Y428764D01*
X546980Y427938D01*
X546582Y426977D01*
X546499Y426345D01*
X550033D01*
Y429879D01*
D02*
G37*
G36*
X387299Y429740D02*
X383156D01*
Y425597D01*
X387299D01*
Y429740D01*
D02*
G37*
G36*
X382356D02*
X378213D01*
Y425597D01*
X382356D01*
Y429740D01*
D02*
G37*
G36*
X560630Y431978D02*
X559690Y431854D01*
X558814Y431491D01*
X558062Y430914D01*
X557485Y430162D01*
X557123Y429286D01*
X556999Y428346D01*
X557123Y427407D01*
X557485Y426531D01*
X558062Y425779D01*
X558814Y425202D01*
X559690Y424839D01*
X560630Y424715D01*
X561570Y424839D01*
X562445Y425202D01*
X563198Y425779D01*
X563774Y426531D01*
X564137Y427407D01*
X564261Y428346D01*
X564137Y429286D01*
X563774Y430162D01*
X563198Y430914D01*
X562445Y431491D01*
X561570Y431854D01*
X560630Y431978D01*
D02*
G37*
G36*
X114961Y431694D02*
X114033Y431572D01*
X113169Y431214D01*
X112427Y430644D01*
X111857Y429902D01*
X111499Y429038D01*
X111377Y428110D01*
X111499Y427183D01*
X111857Y426319D01*
X112427Y425576D01*
X113169Y425007D01*
X114033Y424649D01*
X114961Y424527D01*
X115888Y424649D01*
X116752Y425007D01*
X117494Y425576D01*
X118064Y426319D01*
X118422Y427183D01*
X118544Y428110D01*
X118422Y429038D01*
X118064Y429902D01*
X117494Y430644D01*
X116752Y431214D01*
X115888Y431572D01*
X114961Y431694D01*
D02*
G37*
G36*
X341929Y436714D02*
X340654Y436588D01*
X339427Y436217D01*
X338297Y435612D01*
X337307Y434799D01*
X336494Y433809D01*
X335890Y432679D01*
X335518Y431453D01*
X335392Y430177D01*
X335518Y428902D01*
X335890Y427676D01*
X336494Y426545D01*
X337307Y425555D01*
X338297Y424742D01*
X339427Y424138D01*
X340654Y423766D01*
X341929Y423640D01*
X343204Y423766D01*
X344431Y424138D01*
X345561Y424742D01*
X346551Y425555D01*
X347364Y426545D01*
X347969Y427676D01*
X348341Y428902D01*
X348466Y430177D01*
X348341Y431453D01*
X347969Y432679D01*
X347364Y433809D01*
X346551Y434799D01*
X345561Y435612D01*
X344431Y436217D01*
X343204Y436588D01*
X341929Y436714D01*
D02*
G37*
G36*
X520433Y429528D02*
X519506Y429406D01*
X518641Y429048D01*
X517899Y428479D01*
X517330Y427737D01*
X516972Y426872D01*
X516850Y425945D01*
X516972Y425017D01*
X517330Y424153D01*
X517899Y423411D01*
X518641Y422842D01*
X519506Y422484D01*
X520433Y422362D01*
X521360Y422484D01*
X522225Y422842D01*
X522967Y423411D01*
X523536Y424153D01*
X523894Y425017D01*
X524017Y425945D01*
X523894Y426872D01*
X523536Y427737D01*
X522967Y428479D01*
X522225Y429048D01*
X521360Y429406D01*
X520433Y429528D01*
D02*
G37*
G36*
X554367Y425545D02*
X550833D01*
Y422011D01*
X551465Y422094D01*
X552426Y422492D01*
X553252Y423126D01*
X553886Y423951D01*
X554284Y424913D01*
X554367Y425545D01*
D02*
G37*
G36*
X550033D02*
X546499D01*
X546582Y424913D01*
X546980Y423951D01*
X547614Y423126D01*
X548440Y422492D01*
X549401Y422094D01*
X550033Y422011D01*
Y425545D01*
D02*
G37*
G36*
X509449Y429222D02*
X508509Y429098D01*
X507633Y428735D01*
X506881Y428158D01*
X506304Y427406D01*
X505941Y426530D01*
X505818Y425591D01*
X505941Y424651D01*
X506304Y423775D01*
X506881Y423023D01*
X507633Y422446D01*
X508509Y422083D01*
X509449Y421959D01*
X510389Y422083D01*
X511264Y422446D01*
X512016Y423023D01*
X512593Y423775D01*
X512956Y424651D01*
X513080Y425591D01*
X512956Y426530D01*
X512593Y427406D01*
X512016Y428158D01*
X511264Y428735D01*
X510389Y429098D01*
X509449Y429222D01*
D02*
G37*
G36*
X452756Y429376D02*
X451674Y429234D01*
X450666Y428816D01*
X449801Y428152D01*
X449137Y427286D01*
X448719Y426278D01*
X448577Y425197D01*
X448719Y424115D01*
X449137Y423107D01*
X449801Y422242D01*
X450666Y421578D01*
X451674Y421160D01*
X452756Y421018D01*
X453837Y421160D01*
X454845Y421578D01*
X455711Y422242D01*
X456375Y423107D01*
X456793Y424115D01*
X456935Y425197D01*
X456793Y426278D01*
X456375Y427286D01*
X455711Y428152D01*
X454845Y428816D01*
X453837Y429234D01*
X452756Y429376D01*
D02*
G37*
G36*
X442756D02*
X441674Y429234D01*
X440666Y428816D01*
X439801Y428152D01*
X439137Y427286D01*
X438719Y426278D01*
X438577Y425197D01*
X438719Y424115D01*
X439137Y423107D01*
X439801Y422242D01*
X440666Y421578D01*
X441674Y421160D01*
X442756Y421018D01*
X443837Y421160D01*
X444845Y421578D01*
X445711Y422242D01*
X446375Y423107D01*
X446793Y424115D01*
X446935Y425197D01*
X446793Y426278D01*
X446375Y427286D01*
X445711Y428152D01*
X444845Y428816D01*
X443837Y429234D01*
X442756Y429376D01*
D02*
G37*
G36*
X432756D02*
X431674Y429234D01*
X430666Y428816D01*
X429801Y428152D01*
X429137Y427286D01*
X428719Y426278D01*
X428577Y425197D01*
X428719Y424115D01*
X429137Y423107D01*
X429801Y422242D01*
X430666Y421578D01*
X431674Y421160D01*
X432756Y421018D01*
X433838Y421160D01*
X434845Y421578D01*
X435711Y422242D01*
X436375Y423107D01*
X436793Y424115D01*
X436935Y425197D01*
X436793Y426278D01*
X436375Y427286D01*
X435711Y428152D01*
X434845Y428816D01*
X433838Y429234D01*
X432756Y429376D01*
D02*
G37*
G36*
X402756D02*
X401674Y429234D01*
X400666Y428816D01*
X399801Y428152D01*
X399137Y427286D01*
X398719Y426278D01*
X398577Y425197D01*
X398719Y424115D01*
X399137Y423107D01*
X399801Y422242D01*
X400666Y421578D01*
X401674Y421160D01*
X402756Y421018D01*
X403837Y421160D01*
X404845Y421578D01*
X405711Y422242D01*
X406375Y423107D01*
X406793Y424115D01*
X406935Y425197D01*
X406793Y426278D01*
X406375Y427286D01*
X405711Y428152D01*
X404845Y428816D01*
X403837Y429234D01*
X402756Y429376D01*
D02*
G37*
G36*
X392756D02*
X391674Y429234D01*
X390666Y428816D01*
X389801Y428152D01*
X389137Y427286D01*
X388719Y426278D01*
X388577Y425197D01*
X388719Y424115D01*
X389137Y423107D01*
X389801Y422242D01*
X390666Y421578D01*
X391674Y421160D01*
X392756Y421018D01*
X393837Y421160D01*
X394845Y421578D01*
X395711Y422242D01*
X396375Y423107D01*
X396793Y424115D01*
X396935Y425197D01*
X396793Y426278D01*
X396375Y427286D01*
X395711Y428152D01*
X394845Y428816D01*
X393837Y429234D01*
X392756Y429376D01*
D02*
G37*
G36*
X387299Y424797D02*
X383156D01*
Y420653D01*
X387299D01*
Y424797D01*
D02*
G37*
G36*
X382356D02*
X378213D01*
Y420653D01*
X382356D01*
Y424797D01*
D02*
G37*
G36*
X142520Y422922D02*
X141580Y422799D01*
X140704Y422436D01*
X139952Y421859D01*
X139375Y421107D01*
X139012Y420231D01*
X138889Y419291D01*
X139012Y418352D01*
X139375Y417476D01*
X139952Y416724D01*
X140704Y416147D01*
X141580Y415784D01*
X142520Y415660D01*
X143459Y415784D01*
X144335Y416147D01*
X145087Y416724D01*
X145664Y417476D01*
X146027Y418352D01*
X146151Y419291D01*
X146027Y420231D01*
X145664Y421107D01*
X145087Y421859D01*
X144335Y422436D01*
X143459Y422799D01*
X142520Y422922D01*
D02*
G37*
G36*
X264961Y434818D02*
X264141Y434655D01*
X263447Y434191D01*
X262983Y433497D01*
X262820Y432677D01*
X262983Y431858D01*
X263447Y431163D01*
X264141Y430699D01*
X264961Y430536D01*
X265424Y430628D01*
X268892Y427160D01*
X268892Y427160D01*
X269256Y426917D01*
X269685Y426831D01*
X318433D01*
X338971Y406294D01*
X338971Y406294D01*
X339335Y406050D01*
X339764Y405965D01*
X343499D01*
X343762Y405573D01*
X344456Y405108D01*
X345276Y404946D01*
X346095Y405108D01*
X346790Y405573D01*
X347254Y406267D01*
X347417Y407087D01*
X347254Y407906D01*
X346790Y408601D01*
X346095Y409065D01*
X345276Y409228D01*
X344456Y409065D01*
X343762Y408601D01*
X343499Y408208D01*
X340228D01*
X319691Y428746D01*
X319327Y428989D01*
X318898Y429074D01*
X318898Y429074D01*
X270150D01*
X267010Y432214D01*
X267102Y432677D01*
X266939Y433497D01*
X266475Y434191D01*
X265780Y434655D01*
X264961Y434818D01*
D02*
G37*
G36*
X560243Y402168D02*
Y398038D01*
X564372D01*
X564269Y398824D01*
X563811Y399929D01*
X563083Y400878D01*
X562134Y401606D01*
X561029Y402064D01*
X560243Y402168D01*
D02*
G37*
G36*
X559443D02*
X558657Y402064D01*
X557551Y401606D01*
X556602Y400878D01*
X555874Y399929D01*
X555416Y398824D01*
X555313Y398038D01*
X559443D01*
Y402168D01*
D02*
G37*
G36*
X600000Y431978D02*
X599060Y431854D01*
X598184Y431491D01*
X597432Y430914D01*
X596855Y430162D01*
X596493Y429286D01*
X596369Y428346D01*
X596493Y427407D01*
X596855Y426531D01*
X597432Y425779D01*
X598184Y425202D01*
X598624Y425020D01*
Y401739D01*
X598131Y401674D01*
X597123Y401257D01*
X596258Y400593D01*
X595593Y399727D01*
X595176Y398719D01*
X595034Y397638D01*
X595176Y396556D01*
X595593Y395548D01*
X596258Y394683D01*
X597123Y394019D01*
X598131Y393601D01*
X599213Y393459D01*
X600294Y393601D01*
X601302Y394019D01*
X602168Y394683D01*
X602832Y395548D01*
X603249Y396556D01*
X603392Y397638D01*
X603249Y398719D01*
X602832Y399727D01*
X602168Y400593D01*
X601376Y401200D01*
Y425020D01*
X601816Y425202D01*
X602568Y425779D01*
X603145Y426531D01*
X603507Y427407D01*
X603631Y428346D01*
X603507Y429286D01*
X603145Y430162D01*
X602568Y430914D01*
X601816Y431491D01*
X600940Y431854D01*
X600000Y431978D01*
D02*
G37*
G36*
X119691Y396895D02*
Y393313D01*
X123273D01*
X123188Y393958D01*
X122785Y394931D01*
X122144Y395766D01*
X121309Y396407D01*
X120335Y396810D01*
X119691Y396895D01*
D02*
G37*
G36*
X118891D02*
X118247Y396810D01*
X117274Y396407D01*
X116438Y395766D01*
X115797Y394931D01*
X115394Y393958D01*
X115310Y393313D01*
X118891D01*
Y396895D01*
D02*
G37*
G36*
X564372Y397238D02*
X560243D01*
Y393108D01*
X561029Y393211D01*
X562134Y393669D01*
X563083Y394397D01*
X563811Y395346D01*
X564269Y396452D01*
X564372Y397238D01*
D02*
G37*
G36*
X559443D02*
X555313D01*
X555416Y396452D01*
X555874Y395346D01*
X556602Y394397D01*
X557551Y393669D01*
X558657Y393211D01*
X559443Y393108D01*
Y397238D01*
D02*
G37*
G36*
X158661Y396545D02*
X157722Y396421D01*
X156846Y396058D01*
X156094Y395481D01*
X155517Y394729D01*
X155154Y393853D01*
X155030Y392913D01*
X155154Y391974D01*
X155517Y391098D01*
X156094Y390346D01*
X156846Y389769D01*
X157722Y389406D01*
X158661Y389282D01*
X159601Y389406D01*
X160477Y389769D01*
X161229Y390346D01*
X161806Y391098D01*
X162169Y391974D01*
X162293Y392913D01*
X162169Y393853D01*
X161806Y394729D01*
X161229Y395481D01*
X160477Y396058D01*
X159601Y396421D01*
X158661Y396545D01*
D02*
G37*
G36*
X123273Y392513D02*
X119691D01*
Y388931D01*
X120335Y389016D01*
X121309Y389419D01*
X122144Y390061D01*
X122785Y390896D01*
X123188Y391869D01*
X123273Y392513D01*
D02*
G37*
G36*
X118891D02*
X115310D01*
X115394Y391869D01*
X115797Y390896D01*
X116438Y390061D01*
X117274Y389419D01*
X118247Y389016D01*
X118891Y388931D01*
Y392513D01*
D02*
G37*
G36*
X199613Y391572D02*
Y388038D01*
X203147D01*
X203064Y388670D01*
X202665Y389631D01*
X202032Y390457D01*
X201206Y391090D01*
X200244Y391489D01*
X199613Y391572D01*
D02*
G37*
G36*
X198813D02*
X198181Y391489D01*
X197219Y391090D01*
X196394Y390457D01*
X195760Y389631D01*
X195362Y388670D01*
X195278Y388038D01*
X198813D01*
Y391572D01*
D02*
G37*
G36*
X509849Y390202D02*
Y386620D01*
X513431D01*
X513346Y387265D01*
X512943Y388238D01*
X512302Y389073D01*
X511466Y389715D01*
X510493Y390118D01*
X509849Y390202D01*
D02*
G37*
G36*
X509049D02*
X508405Y390118D01*
X507432Y389715D01*
X506596Y389073D01*
X505955Y388238D01*
X505552Y387265D01*
X505467Y386620D01*
X509049D01*
Y390202D01*
D02*
G37*
G36*
X203147Y387238D02*
X199613D01*
Y383704D01*
X200244Y383787D01*
X201206Y384185D01*
X202032Y384819D01*
X202665Y385644D01*
X203064Y386606D01*
X203147Y387238D01*
D02*
G37*
G36*
X198813D02*
X195278D01*
X195362Y386606D01*
X195760Y385644D01*
X196394Y384819D01*
X197219Y384185D01*
X198181Y383787D01*
X198813Y383704D01*
Y387238D01*
D02*
G37*
G36*
X509049Y385821D02*
X505467D01*
X505552Y385176D01*
X505955Y384203D01*
X506596Y383368D01*
X507432Y382727D01*
X508405Y382323D01*
X509049Y382239D01*
Y385821D01*
D02*
G37*
G36*
X513431D02*
X509849D01*
Y382239D01*
X510493Y382323D01*
X511466Y382727D01*
X512302Y383368D01*
X512943Y384203D01*
X513346Y385176D01*
X513431Y385821D01*
D02*
G37*
G36*
X169613Y381572D02*
Y378038D01*
X173147D01*
X173064Y378670D01*
X172665Y379631D01*
X172032Y380457D01*
X171206Y381090D01*
X170245Y381489D01*
X169613Y381572D01*
D02*
G37*
G36*
X168813D02*
X168181Y381489D01*
X167219Y381090D01*
X166393Y380457D01*
X165760Y379631D01*
X165362Y378670D01*
X165278Y378038D01*
X168813D01*
Y381572D01*
D02*
G37*
G36*
X146463Y381147D02*
Y377565D01*
X150045D01*
X149960Y378210D01*
X149557Y379183D01*
X148916Y380018D01*
X148080Y380659D01*
X147107Y381062D01*
X146463Y381147D01*
D02*
G37*
G36*
X145663D02*
X145019Y381062D01*
X144046Y380659D01*
X143210Y380018D01*
X142569Y379183D01*
X142166Y378210D01*
X142081Y377565D01*
X145663D01*
Y381147D01*
D02*
G37*
G36*
X173147Y377238D02*
X169613D01*
Y373704D01*
X170245Y373787D01*
X171206Y374185D01*
X172032Y374819D01*
X172665Y375644D01*
X173064Y376606D01*
X173147Y377238D01*
D02*
G37*
G36*
X168813D02*
X165278D01*
X165362Y376606D01*
X165760Y375644D01*
X166393Y374819D01*
X167219Y374185D01*
X168181Y373787D01*
X168813Y373704D01*
Y377238D01*
D02*
G37*
G36*
X145663Y376765D02*
X142081D01*
X142166Y376121D01*
X142569Y375148D01*
X143210Y374312D01*
X144046Y373671D01*
X145019Y373268D01*
X145663Y373183D01*
Y376765D01*
D02*
G37*
G36*
X150045D02*
X146463D01*
Y373183D01*
X147107Y373268D01*
X148080Y373671D01*
X148916Y374312D01*
X149557Y375148D01*
X149960Y376121D01*
X150045Y376765D01*
D02*
G37*
G36*
X654337Y374061D02*
Y370479D01*
X657919D01*
X657834Y371123D01*
X657431Y372096D01*
X656790Y372932D01*
X655954Y373573D01*
X654981Y373976D01*
X654337Y374061D01*
D02*
G37*
G36*
X653537D02*
X652893Y373976D01*
X651920Y373573D01*
X651084Y372932D01*
X650443Y372096D01*
X650040Y371123D01*
X649955Y370479D01*
X653537D01*
Y374061D01*
D02*
G37*
G36*
X128740Y375206D02*
X127800Y375082D01*
X126925Y374719D01*
X126173Y374142D01*
X125596Y373390D01*
X125233Y372515D01*
X125109Y371575D01*
X125233Y370635D01*
X125596Y369759D01*
X126173Y369007D01*
X126925Y368430D01*
X127800Y368068D01*
X128740Y367944D01*
X129680Y368068D01*
X130556Y368430D01*
X131308Y369007D01*
X131885Y369759D01*
X132247Y370635D01*
X132371Y371575D01*
X132247Y372515D01*
X131885Y373390D01*
X131308Y374142D01*
X130556Y374719D01*
X129680Y375082D01*
X128740Y375206D01*
D02*
G37*
G36*
X653537Y369679D02*
X649955D01*
X650040Y369035D01*
X650443Y368061D01*
X651084Y367226D01*
X651920Y366585D01*
X652893Y366182D01*
X653537Y366097D01*
Y369679D01*
D02*
G37*
G36*
X657919D02*
X654337D01*
Y366097D01*
X654981Y366182D01*
X655954Y366585D01*
X656790Y367226D01*
X657431Y368061D01*
X657834Y369035D01*
X657919Y369679D01*
D02*
G37*
G36*
X628386Y371733D02*
X627458Y371611D01*
X626594Y371253D01*
X625852Y370683D01*
X625282Y369941D01*
X624925Y369077D01*
X624802Y368150D01*
X624925Y367222D01*
X625282Y366358D01*
X625852Y365616D01*
X626594Y365046D01*
X627458Y364688D01*
X628386Y364566D01*
X629313Y364688D01*
X630177Y365046D01*
X630920Y365616D01*
X631489Y366358D01*
X631847Y367222D01*
X631969Y368150D01*
X631847Y369077D01*
X631489Y369941D01*
X630920Y370683D01*
X630177Y371253D01*
X629313Y371611D01*
X628386Y371733D01*
D02*
G37*
G36*
X251181Y371348D02*
X250241Y371224D01*
X249366Y370861D01*
X248614Y370284D01*
X248037Y369532D01*
X247674Y368656D01*
X247550Y367717D01*
X247674Y366777D01*
X248037Y365901D01*
X248614Y365149D01*
X249366Y364572D01*
X250241Y364209D01*
X251181Y364086D01*
X252121Y364209D01*
X252997Y364572D01*
X253749Y365149D01*
X254326Y365901D01*
X254688Y366777D01*
X254812Y367717D01*
X254688Y368656D01*
X254326Y369532D01*
X253749Y370284D01*
X252997Y370861D01*
X252121Y371224D01*
X251181Y371348D01*
D02*
G37*
G36*
X157874D02*
X156934Y371224D01*
X156059Y370861D01*
X155306Y370284D01*
X154729Y369532D01*
X154367Y368656D01*
X154243Y367717D01*
X154367Y366777D01*
X154729Y365901D01*
X155306Y365149D01*
X156059Y364572D01*
X156934Y364209D01*
X157874Y364086D01*
X158814Y364209D01*
X159690Y364572D01*
X160442Y365149D01*
X161019Y365901D01*
X161381Y366777D01*
X161505Y367717D01*
X161381Y368656D01*
X161019Y369532D01*
X160442Y370284D01*
X159690Y370861D01*
X158814Y371224D01*
X157874Y371348D01*
D02*
G37*
G36*
X169213Y371221D02*
X168285Y371099D01*
X167421Y370741D01*
X166679Y370172D01*
X166109Y369429D01*
X165751Y368565D01*
X165629Y367638D01*
X165751Y366710D01*
X166109Y365846D01*
X166679Y365104D01*
X167421Y364534D01*
X168285Y364177D01*
X169213Y364054D01*
X170140Y364177D01*
X171004Y364534D01*
X171747Y365104D01*
X172316Y365846D01*
X172674Y366710D01*
X172796Y367638D01*
X172674Y368565D01*
X172316Y369429D01*
X171747Y370172D01*
X171004Y370741D01*
X170140Y371099D01*
X169213Y371221D01*
D02*
G37*
G36*
X251581Y360281D02*
Y356699D01*
X255163D01*
X255078Y357343D01*
X254675Y358316D01*
X254034Y359152D01*
X253489Y359571D01*
D01*
X253198Y359793D01*
X252225Y360196D01*
X251581Y360281D01*
D02*
G37*
G36*
X250781D02*
X250137Y360196D01*
X249164Y359793D01*
X248328Y359152D01*
X247687Y358316D01*
X247284Y357343D01*
X247199Y356699D01*
X250781D01*
Y360281D01*
D02*
G37*
G36*
X628386Y361733D02*
X627458Y361611D01*
X626594Y361253D01*
X625852Y360683D01*
X625282Y359941D01*
X624925Y359077D01*
X624802Y358150D01*
X624925Y357222D01*
X625282Y356358D01*
X625852Y355616D01*
X626594Y355046D01*
X627458Y354688D01*
X628386Y354566D01*
X629313Y354688D01*
X630177Y355046D01*
X630920Y355616D01*
X631489Y356358D01*
X631847Y357222D01*
X631969Y358150D01*
X631847Y359077D01*
X631489Y359941D01*
X630920Y360683D01*
X630177Y361253D01*
X629313Y361611D01*
X628386Y361733D01*
D02*
G37*
G36*
X598386D02*
X597458Y361611D01*
X596594Y361253D01*
X595852Y360683D01*
X595283Y359941D01*
X594924Y359077D01*
X594802Y358150D01*
X594924Y357222D01*
X595283Y356358D01*
X595852Y355616D01*
X596594Y355046D01*
X597458Y354688D01*
X598386Y354566D01*
X599313Y354688D01*
X600177Y355046D01*
X600920Y355616D01*
X601489Y356358D01*
X601847Y357222D01*
X601969Y358150D01*
X601847Y359077D01*
X601489Y359941D01*
X600920Y360683D01*
X600177Y361253D01*
X599313Y361611D01*
X598386Y361733D01*
D02*
G37*
G36*
X169213Y361221D02*
X168285Y361099D01*
X167421Y360741D01*
X166679Y360172D01*
X166109Y359430D01*
X165751Y358565D01*
X165629Y357638D01*
X165751Y356710D01*
X166109Y355846D01*
X166679Y355104D01*
X167421Y354535D01*
X168285Y354176D01*
X169213Y354054D01*
X170140Y354176D01*
X171004Y354535D01*
X171747Y355104D01*
X172316Y355846D01*
X172674Y356710D01*
X172796Y357638D01*
X172674Y358565D01*
X172316Y359430D01*
X171747Y360172D01*
X171004Y360741D01*
X170140Y361099D01*
X169213Y361221D01*
D02*
G37*
G36*
X146063Y361111D02*
X145123Y360988D01*
X144247Y360625D01*
X143495Y360048D01*
X142918Y359296D01*
X142556Y358420D01*
X142432Y357480D01*
X142556Y356540D01*
X142918Y355665D01*
X143495Y354913D01*
X144247Y354336D01*
X145123Y353973D01*
X146063Y353849D01*
X147003Y353973D01*
X147879Y354336D01*
X148630Y354913D01*
X149208Y355665D01*
X149570Y356540D01*
X149694Y357480D01*
X149570Y358420D01*
X149208Y359296D01*
X148630Y360048D01*
X147879Y360625D01*
X147003Y360988D01*
X146063Y361111D01*
D02*
G37*
G36*
X250781Y355899D02*
X247199D01*
X247284Y355255D01*
X247667Y354331D01*
X247687Y354282D01*
X248328Y353446D01*
X249164Y352805D01*
X250137Y352402D01*
X250781Y352317D01*
Y355899D01*
D02*
G37*
G36*
X255163D02*
X251581D01*
Y352317D01*
X252225Y352402D01*
X253198Y352805D01*
X253200Y352807D01*
X253489Y353028D01*
D01*
X254034Y353446D01*
X254675Y354282D01*
X255078Y355255D01*
X255163Y355899D01*
D02*
G37*
G36*
X128740Y355993D02*
X127800Y355870D01*
X126925Y355507D01*
X126173Y354930D01*
X125596Y354178D01*
X125233Y353302D01*
X125109Y352362D01*
X125233Y351422D01*
X125596Y350547D01*
X126173Y349795D01*
X126925Y349218D01*
X127800Y348855D01*
X128740Y348731D01*
X129680Y348855D01*
X130556Y349218D01*
X131308Y349795D01*
X131885Y350547D01*
X132247Y351422D01*
X132371Y352362D01*
X132247Y353302D01*
X131885Y354178D01*
X131308Y354930D01*
X130556Y355507D01*
X129680Y355870D01*
X128740Y355993D01*
D02*
G37*
G36*
X598786Y352084D02*
Y348550D01*
X602320D01*
X602237Y349182D01*
X601839Y350143D01*
X601205Y350969D01*
X600379Y351602D01*
X599418Y352001D01*
X598786Y352084D01*
D02*
G37*
G36*
X597986D02*
X597354Y352001D01*
X596392Y351602D01*
X595567Y350969D01*
X594933Y350143D01*
X594535Y349182D01*
X594452Y348550D01*
X597986D01*
Y352084D01*
D02*
G37*
G36*
X157474Y352013D02*
X156830Y351928D01*
X155857Y351525D01*
X155021Y350884D01*
X154380Y350049D01*
X153977Y349076D01*
X153892Y348431D01*
X157474D01*
Y352013D01*
D02*
G37*
G36*
X581159Y355569D02*
X573959D01*
Y348369D01*
X581159D01*
Y355569D01*
D02*
G37*
G36*
X628386Y351733D02*
X627458Y351611D01*
X626594Y351253D01*
X625852Y350683D01*
X625282Y349941D01*
X624925Y349077D01*
X624802Y348150D01*
X624925Y347222D01*
X625282Y346358D01*
X625852Y345616D01*
X626594Y345046D01*
X627458Y344688D01*
X628386Y344566D01*
X629313Y344688D01*
X630177Y345046D01*
X630920Y345616D01*
X631489Y346358D01*
X631847Y347222D01*
X631969Y348150D01*
X631847Y349077D01*
X631489Y349941D01*
X630920Y350683D01*
X630177Y351253D01*
X629313Y351611D01*
X628386Y351733D01*
D02*
G37*
G36*
X602320Y347750D02*
X598786D01*
Y344215D01*
X599418Y344299D01*
X600379Y344697D01*
X601205Y345331D01*
X601839Y346156D01*
X602237Y347118D01*
X602320Y347750D01*
D02*
G37*
G36*
X597986D02*
X594452D01*
X594535Y347118D01*
X594933Y346156D01*
X595567Y345331D01*
X596392Y344697D01*
X597354Y344299D01*
X597986Y344215D01*
Y347750D01*
D02*
G37*
G36*
X157474Y347632D02*
X153892D01*
X153977Y346987D01*
X154380Y346014D01*
X155021Y345179D01*
X155857Y344537D01*
X156830Y344134D01*
X157474Y344050D01*
Y347632D01*
D02*
G37*
G36*
X301187Y348433D02*
Y343707D01*
X305913D01*
X305789Y344647D01*
X305272Y345896D01*
X304449Y346969D01*
X303377Y347792D01*
X302128Y348309D01*
X301187Y348433D01*
D02*
G37*
G36*
X300387D02*
X299447Y348309D01*
X298198Y347792D01*
X297126Y346969D01*
X296303Y345896D01*
X295786Y344647D01*
X295662Y343707D01*
X300387D01*
Y348433D01*
D02*
G37*
G36*
X657543Y342583D02*
X653943D01*
Y338983D01*
X657543D01*
Y342583D01*
D02*
G37*
G36*
X653143D02*
X649543D01*
Y338983D01*
X653143D01*
Y342583D01*
D02*
G37*
G36*
X320472Y348082D02*
X319237Y347919D01*
X318085Y347442D01*
X317096Y346683D01*
X316337Y345694D01*
X315860Y344543D01*
X315698Y343307D01*
X315860Y342071D01*
X316337Y340920D01*
X317096Y339931D01*
X318085Y339172D01*
X319237Y338695D01*
X320472Y338532D01*
X321708Y338695D01*
X322860Y339172D01*
X323849Y339931D01*
X324607Y340920D01*
X325084Y342071D01*
X325247Y343307D01*
X325084Y344543D01*
X324607Y345694D01*
X323849Y346683D01*
X322860Y347442D01*
X321708Y347919D01*
X320472Y348082D01*
D02*
G37*
G36*
X577559Y345757D02*
X576619Y345633D01*
X575743Y345271D01*
X574992Y344693D01*
X574414Y343941D01*
X574052Y343066D01*
X573928Y342126D01*
X574052Y341186D01*
X574414Y340311D01*
X574992Y339558D01*
X575743Y338981D01*
X576619Y338619D01*
X577559Y338495D01*
X578499Y338619D01*
X579375Y338981D01*
X580127Y339558D01*
X580704Y340311D01*
X581066Y341186D01*
X581190Y342126D01*
X581066Y343066D01*
X580704Y343941D01*
X580127Y344693D01*
X579375Y345271D01*
X578499Y345633D01*
X577559Y345757D01*
D02*
G37*
G36*
X305913Y342907D02*
X301187D01*
Y338182D01*
X302128Y338305D01*
X303377Y338823D01*
X304449Y339646D01*
X305272Y340718D01*
X305789Y341967D01*
X305913Y342907D01*
D02*
G37*
G36*
X300387D02*
X295662D01*
X295786Y341967D01*
X296303Y340718D01*
X297126Y339646D01*
X298198Y338823D01*
X299447Y338305D01*
X300387Y338182D01*
Y342907D01*
D02*
G37*
G36*
X643701Y342214D02*
X642761Y342090D01*
X641885Y341727D01*
X641133Y341150D01*
X640556Y340398D01*
X640194Y339523D01*
X640070Y338583D01*
X640194Y337643D01*
X640556Y336767D01*
X641133Y336015D01*
X641885Y335438D01*
X642761Y335075D01*
X643701Y334952D01*
X644641Y335075D01*
X645516Y335438D01*
X646268Y336015D01*
X646845Y336767D01*
X647208Y337643D01*
X647332Y338583D01*
X647208Y339523D01*
X646845Y340398D01*
X646268Y341150D01*
X645516Y341727D01*
X644641Y342090D01*
X643701Y342214D01*
D02*
G37*
G36*
X657543Y338183D02*
X653943D01*
Y334583D01*
X657543D01*
Y338183D01*
D02*
G37*
G36*
X653143D02*
X649543D01*
Y334583D01*
X653143D01*
Y338183D01*
D02*
G37*
G36*
X628386Y341733D02*
X627458Y341611D01*
X626594Y341253D01*
X625852Y340683D01*
X625282Y339941D01*
X624925Y339077D01*
X624802Y338150D01*
X624925Y337222D01*
X625282Y336358D01*
X625852Y335616D01*
X626594Y335046D01*
X627458Y334688D01*
X628386Y334566D01*
X629313Y334688D01*
X630177Y335046D01*
X630920Y335616D01*
X631489Y336358D01*
X631847Y337222D01*
X631969Y338150D01*
X631847Y339077D01*
X631489Y339941D01*
X630920Y340683D01*
X630177Y341253D01*
X629313Y341611D01*
X628386Y341733D01*
D02*
G37*
G36*
X598386D02*
X597458Y341611D01*
X596594Y341253D01*
X595852Y340683D01*
X595283Y339941D01*
X594924Y339077D01*
X594802Y338150D01*
X594924Y337222D01*
X595283Y336358D01*
X595852Y335616D01*
X596594Y335046D01*
X597458Y334688D01*
X598386Y334566D01*
X599313Y334688D01*
X600177Y335046D01*
X600920Y335616D01*
X601489Y336358D01*
X601847Y337222D01*
X601969Y338150D01*
X601847Y339077D01*
X601489Y339941D01*
X600920Y340683D01*
X600177Y341253D01*
X599313Y341611D01*
X598386Y341733D01*
D02*
G37*
G36*
X310630Y338239D02*
X309394Y338077D01*
X308243Y337600D01*
X307254Y336841D01*
X306495Y335852D01*
X306018Y334700D01*
X305855Y333465D01*
X306018Y332229D01*
X306495Y331077D01*
X307254Y330088D01*
X308243Y329330D01*
X309394Y328853D01*
X310630Y328690D01*
X311866Y328853D01*
X313017Y329330D01*
X314006Y330088D01*
X314765Y331077D01*
X315242Y332229D01*
X315405Y333465D01*
X315242Y334700D01*
X314765Y335852D01*
X314006Y336841D01*
X313017Y337600D01*
X311866Y338077D01*
X310630Y338239D01*
D02*
G37*
G36*
X259842Y413386D02*
Y379528D01*
Y348425D01*
Y299213D01*
X279528Y279528D01*
Y293377D01*
X280028Y293664D01*
X280709Y293528D01*
X281528Y293691D01*
X282223Y294155D01*
X282687Y294850D01*
X282816Y295498D01*
X283328Y295631D01*
X283525Y295336D01*
X284220Y294872D01*
X285039Y294709D01*
X285859Y294872D01*
X286553Y295336D01*
X287017Y296031D01*
X287180Y296850D01*
X287017Y297670D01*
X286553Y298364D01*
X285859Y298829D01*
X285039Y298991D01*
X284576Y298899D01*
X279528Y303948D01*
Y319197D01*
X279914Y319514D01*
X279921Y319512D01*
X280741Y319675D01*
X281435Y320140D01*
X281899Y320834D01*
X282062Y321654D01*
X281899Y322473D01*
X281435Y323167D01*
X280741Y323632D01*
X279921Y323795D01*
X279914Y323793D01*
X279528Y324110D01*
Y331556D01*
X282082D01*
X282344Y331163D01*
X283039Y330699D01*
X283858Y330536D01*
X284678Y330699D01*
X285372Y331163D01*
X285780Y331773D01*
X286170Y331732D01*
X286280Y331690D01*
Y327761D01*
X285888Y327498D01*
X285423Y326804D01*
X285260Y325984D01*
X285423Y325165D01*
X285888Y324470D01*
X286582Y324006D01*
X287402Y323843D01*
X288221Y324006D01*
X288916Y324470D01*
X289380Y325165D01*
X289543Y325984D01*
X289380Y326804D01*
X288916Y327498D01*
X288523Y327761D01*
Y340945D01*
X288523Y340945D01*
X288438Y341374D01*
X288195Y341738D01*
X288195Y341738D01*
X285439Y344494D01*
X285075Y344737D01*
X284646Y344822D01*
X284646Y344822D01*
X279528D01*
Y393701D01*
X259842Y413386D01*
D02*
G37*
G36*
X341929Y317423D02*
X340654Y317297D01*
X339427Y316925D01*
X338297Y316321D01*
X337307Y315508D01*
X336494Y314518D01*
X335890Y313387D01*
X335518Y312161D01*
X335392Y310886D01*
X335518Y309611D01*
X335890Y308384D01*
X336494Y307254D01*
X337307Y306263D01*
X338297Y305451D01*
X339427Y304846D01*
X340654Y304474D01*
X341929Y304349D01*
X343204Y304474D01*
X344431Y304846D01*
X345561Y305451D01*
X346551Y306263D01*
X347364Y307254D01*
X347969Y308384D01*
X348341Y309611D01*
X348466Y310886D01*
X348341Y312161D01*
X347969Y313387D01*
X347364Y314518D01*
X346551Y315508D01*
X345561Y316321D01*
X344431Y316925D01*
X343204Y317297D01*
X341929Y317423D01*
D02*
G37*
G36*
X326772Y303150D02*
Y299606D01*
X385827D01*
Y303150D01*
X326772D01*
D02*
G37*
G36*
X230164Y272793D02*
Y269258D01*
X233698D01*
X233615Y269890D01*
X233217Y270852D01*
X232583Y271677D01*
X231757Y272311D01*
X230796Y272709D01*
X230164Y272793D01*
D02*
G37*
G36*
X190164D02*
Y269258D01*
X193698D01*
X193615Y269890D01*
X193217Y270852D01*
X192583Y271677D01*
X191757Y272311D01*
X190796Y272709D01*
X190164Y272793D01*
D02*
G37*
G36*
X180164D02*
Y269258D01*
X183698D01*
X183615Y269890D01*
X183217Y270852D01*
X182583Y271677D01*
X181757Y272311D01*
X180796Y272709D01*
X180164Y272793D01*
D02*
G37*
G36*
X170164D02*
Y269258D01*
X173698D01*
X173615Y269890D01*
X173216Y270852D01*
X172583Y271677D01*
X171757Y272311D01*
X170796Y272709D01*
X170164Y272793D01*
D02*
G37*
G36*
X229364D02*
X228732Y272709D01*
X227770Y272311D01*
X226945Y271677D01*
X226311Y270852D01*
X225913Y269890D01*
X225830Y269258D01*
X229364D01*
Y272793D01*
D02*
G37*
G36*
X189364D02*
X188732Y272709D01*
X187770Y272311D01*
X186945Y271677D01*
X186311Y270852D01*
X185913Y269890D01*
X185830Y269258D01*
X189364D01*
Y272793D01*
D02*
G37*
G36*
X179364D02*
X178732Y272709D01*
X177770Y272311D01*
X176945Y271677D01*
X176311Y270852D01*
X175913Y269890D01*
X175830Y269258D01*
X179364D01*
Y272793D01*
D02*
G37*
G36*
X169364D02*
X168732Y272709D01*
X167770Y272311D01*
X166945Y271677D01*
X166311Y270852D01*
X165913Y269890D01*
X165830Y269258D01*
X169364D01*
Y272793D01*
D02*
G37*
G36*
X179764Y268858D02*
D01*
D01*
D01*
D02*
G37*
G36*
X219764Y272442D02*
X218836Y272320D01*
X217972Y271962D01*
X217230Y271392D01*
X216660Y270650D01*
X216302Y269786D01*
X216180Y268858D01*
X216302Y267931D01*
X216660Y267067D01*
X217230Y266324D01*
X217972Y265755D01*
X218836Y265397D01*
X219764Y265275D01*
X220691Y265397D01*
X221555Y265755D01*
X222298Y266324D01*
X222867Y267067D01*
X223225Y267931D01*
X223347Y268858D01*
X223225Y269786D01*
X222867Y270650D01*
X222298Y271392D01*
X221555Y271962D01*
X220691Y272320D01*
X219764Y272442D01*
D02*
G37*
G36*
X209764D02*
X208836Y272320D01*
X207972Y271962D01*
X207230Y271392D01*
X206661Y270650D01*
X206302Y269786D01*
X206180Y268858D01*
X206302Y267931D01*
X206661Y267067D01*
X207230Y266324D01*
X207972Y265755D01*
X208836Y265397D01*
X209764Y265275D01*
X210691Y265397D01*
X211556Y265755D01*
X212298Y266324D01*
X212867Y267067D01*
X213225Y267931D01*
X213347Y268858D01*
X213225Y269786D01*
X212867Y270650D01*
X212298Y271392D01*
X211556Y271962D01*
X210691Y272320D01*
X209764Y272442D01*
D02*
G37*
G36*
X199764D02*
X198836Y272320D01*
X197972Y271962D01*
X197230Y271392D01*
X196660Y270650D01*
X196302Y269786D01*
X196180Y268858D01*
X196302Y267931D01*
X196660Y267067D01*
X197230Y266324D01*
X197972Y265755D01*
X198836Y265397D01*
X199764Y265275D01*
X200691Y265397D01*
X201555Y265755D01*
X202298Y266324D01*
X202867Y267067D01*
X203225Y267931D01*
X203347Y268858D01*
X203225Y269786D01*
X202867Y270650D01*
X202298Y271392D01*
X201555Y271962D01*
X200691Y272320D01*
X199764Y272442D01*
D02*
G37*
G36*
X233698Y268458D02*
X230164D01*
Y264924D01*
X230796Y265007D01*
X231757Y265406D01*
X232583Y266039D01*
X233217Y266865D01*
X233615Y267826D01*
X233698Y268458D01*
D02*
G37*
G36*
X183698D02*
X180164D01*
Y264924D01*
X180796Y265007D01*
X181757Y265406D01*
X182583Y266039D01*
X183217Y266865D01*
X183615Y267826D01*
X183698Y268458D01*
D02*
G37*
G36*
X193698D02*
X190164D01*
Y264924D01*
X190796Y265007D01*
X191757Y265406D01*
X192583Y266039D01*
X193217Y266865D01*
X193615Y267826D01*
X193698Y268458D01*
D02*
G37*
G36*
X173698D02*
X170164D01*
Y264924D01*
X170796Y265007D01*
X171757Y265406D01*
X172583Y266039D01*
X173216Y266865D01*
X173615Y267826D01*
X173698Y268458D01*
D02*
G37*
G36*
X189364D02*
X185830D01*
X185913Y267826D01*
X186311Y266865D01*
X186945Y266039D01*
X187770Y265406D01*
X188732Y265007D01*
X189364Y264924D01*
Y268458D01*
D02*
G37*
G36*
X169364D02*
X165830D01*
X165913Y267826D01*
X166311Y266865D01*
X166945Y266039D01*
X167770Y265406D01*
X168732Y265007D01*
X169364Y264924D01*
Y268458D01*
D02*
G37*
G36*
X229364D02*
X225830D01*
X225913Y267826D01*
X226311Y266865D01*
X226945Y266039D01*
X227770Y265406D01*
X228732Y265007D01*
X229364Y264924D01*
Y268458D01*
D02*
G37*
G36*
X179364D02*
X175830D01*
X175913Y267826D01*
X176311Y266865D01*
X176945Y266039D01*
X177770Y265406D01*
X178732Y265007D01*
X179364Y264924D01*
Y268458D01*
D02*
G37*
G36*
X131896Y263431D02*
Y259849D01*
X135478D01*
X135393Y260493D01*
X134990Y261466D01*
X134349Y262302D01*
X133513Y262943D01*
X132540Y263346D01*
X131896Y263431D01*
D02*
G37*
G36*
X131096D02*
X130452Y263346D01*
X129479Y262943D01*
X128643Y262302D01*
X128002Y261466D01*
X127599Y260493D01*
X127514Y259849D01*
X131096D01*
Y263431D01*
D02*
G37*
G36*
X135478Y259049D02*
X131896D01*
Y255467D01*
X132540Y255552D01*
X133513Y255955D01*
X134349Y256596D01*
X134990Y257432D01*
X135393Y258405D01*
X135478Y259049D01*
D02*
G37*
G36*
X131096D02*
X127514D01*
X127599Y258405D01*
X128002Y257432D01*
X128643Y256596D01*
X129479Y255955D01*
X130452Y255552D01*
X131096Y255467D01*
Y259049D01*
D02*
G37*
G36*
X638828Y259065D02*
X631723D01*
Y251959D01*
X638828D01*
Y259065D01*
D02*
G37*
G36*
X471584D02*
X464479D01*
Y251959D01*
X471584D01*
Y259065D01*
D02*
G37*
G36*
X625276Y259095D02*
X624348Y258973D01*
X623484Y258615D01*
X622742Y258046D01*
X622172Y257304D01*
X621814Y256439D01*
X621692Y255512D01*
X621814Y254584D01*
X622172Y253720D01*
X622742Y252978D01*
X623484Y252409D01*
X624348Y252050D01*
X625276Y251928D01*
X626203Y252050D01*
X627067Y252409D01*
X627809Y252978D01*
X628379Y253720D01*
X628737Y254584D01*
X628859Y255512D01*
X628737Y256439D01*
X628379Y257304D01*
X627809Y258046D01*
X627067Y258615D01*
X626203Y258973D01*
X625276Y259095D01*
D02*
G37*
G36*
X615276D02*
X614348Y258973D01*
X613484Y258615D01*
X612742Y258046D01*
X612172Y257304D01*
X611814Y256439D01*
X611692Y255512D01*
X611814Y254584D01*
X612172Y253720D01*
X612742Y252978D01*
X613484Y252409D01*
X614348Y252050D01*
X615276Y251928D01*
X616203Y252050D01*
X617067Y252409D01*
X617809Y252978D01*
X618379Y253720D01*
X618737Y254584D01*
X618859Y255512D01*
X618737Y256439D01*
X618379Y257304D01*
X617809Y258046D01*
X617067Y258615D01*
X616203Y258973D01*
X615276Y259095D01*
D02*
G37*
G36*
X605276D02*
X604348Y258973D01*
X603484Y258615D01*
X602742Y258046D01*
X602172Y257304D01*
X601814Y256439D01*
X601692Y255512D01*
X601814Y254584D01*
X602172Y253720D01*
X602742Y252978D01*
X603484Y252409D01*
X604348Y252050D01*
X605276Y251928D01*
X606203Y252050D01*
X607067Y252409D01*
X607809Y252978D01*
X608379Y253720D01*
X608737Y254584D01*
X608859Y255512D01*
X608737Y256439D01*
X608379Y257304D01*
X607809Y258046D01*
X607067Y258615D01*
X606203Y258973D01*
X605276Y259095D01*
D02*
G37*
G36*
X595276D02*
X594348Y258973D01*
X593484Y258615D01*
X592742Y258046D01*
X592172Y257304D01*
X591814Y256439D01*
X591692Y255512D01*
X591814Y254584D01*
X592172Y253720D01*
X592742Y252978D01*
X593484Y252409D01*
X594348Y252050D01*
X595276Y251928D01*
X596203Y252050D01*
X597067Y252409D01*
X597810Y252978D01*
X598379Y253720D01*
X598737Y254584D01*
X598859Y255512D01*
X598737Y256439D01*
X598379Y257304D01*
X597810Y258046D01*
X597067Y258615D01*
X596203Y258973D01*
X595276Y259095D01*
D02*
G37*
G36*
X585276D02*
X584348Y258973D01*
X583484Y258615D01*
X582742Y258046D01*
X582172Y257304D01*
X581814Y256439D01*
X581692Y255512D01*
X581814Y254584D01*
X582172Y253720D01*
X582742Y252978D01*
X583484Y252409D01*
X584348Y252050D01*
X585276Y251928D01*
X586203Y252050D01*
X587067Y252409D01*
X587810Y252978D01*
X588379Y253720D01*
X588737Y254584D01*
X588859Y255512D01*
X588737Y256439D01*
X588379Y257304D01*
X587810Y258046D01*
X587067Y258615D01*
X586203Y258973D01*
X585276Y259095D01*
D02*
G37*
G36*
X575276D02*
X574348Y258973D01*
X573484Y258615D01*
X572742Y258046D01*
X572172Y257304D01*
X571814Y256439D01*
X571692Y255512D01*
X571814Y254584D01*
X572172Y253720D01*
X572742Y252978D01*
X573484Y252409D01*
X574348Y252050D01*
X575276Y251928D01*
X576203Y252050D01*
X577067Y252409D01*
X577809Y252978D01*
X578379Y253720D01*
X578737Y254584D01*
X578859Y255512D01*
X578737Y256439D01*
X578379Y257304D01*
X577809Y258046D01*
X577067Y258615D01*
X576203Y258973D01*
X575276Y259095D01*
D02*
G37*
G36*
X565276D02*
X564348Y258973D01*
X563484Y258615D01*
X562742Y258046D01*
X562172Y257304D01*
X561814Y256439D01*
X561692Y255512D01*
X561814Y254584D01*
X562172Y253720D01*
X562742Y252978D01*
X563484Y252409D01*
X564348Y252050D01*
X565276Y251928D01*
X566203Y252050D01*
X567067Y252409D01*
X567809Y252978D01*
X568379Y253720D01*
X568737Y254584D01*
X568859Y255512D01*
X568737Y256439D01*
X568379Y257304D01*
X567809Y258046D01*
X567067Y258615D01*
X566203Y258973D01*
X565276Y259095D01*
D02*
G37*
G36*
X555276D02*
X554348Y258973D01*
X553484Y258615D01*
X552742Y258046D01*
X552172Y257304D01*
X551814Y256439D01*
X551692Y255512D01*
X551814Y254584D01*
X552092Y253914D01*
X550388Y252210D01*
X550145Y251847D01*
X550060Y251417D01*
X550060Y251417D01*
Y231102D01*
X550060Y231102D01*
X550145Y230673D01*
X550388Y230309D01*
X562264Y218433D01*
Y209449D01*
X562264Y209449D01*
X562350Y209020D01*
X562593Y208656D01*
X564093Y207156D01*
X564001Y206693D01*
X564164Y205873D01*
X564628Y205179D01*
X565322Y204715D01*
X566142Y204552D01*
X566961Y204715D01*
X567656Y205179D01*
X568120Y205873D01*
X568283Y206693D01*
X568120Y207512D01*
X567656Y208207D01*
X566961Y208671D01*
X566142Y208834D01*
X565679Y208742D01*
X564507Y209913D01*
Y214643D01*
X565007Y214744D01*
X565576Y214002D01*
X566319Y213432D01*
X567183Y213074D01*
X568110Y212952D01*
X569038Y213074D01*
X569902Y213432D01*
X570644Y214002D01*
X571214Y214744D01*
X571572Y215608D01*
X571694Y216535D01*
X571572Y217463D01*
X571214Y218327D01*
X570644Y219069D01*
X569902Y219639D01*
X569038Y219997D01*
X568110Y220119D01*
X567183Y219997D01*
X566319Y219639D01*
X565576Y219069D01*
X565007Y218327D01*
X564507Y218428D01*
Y218898D01*
X564422Y219327D01*
X564179Y219691D01*
X564179Y219691D01*
X552303Y231567D01*
Y242180D01*
X552803Y242427D01*
X553282Y242059D01*
X554244Y241661D01*
X554876Y241578D01*
Y245512D01*
Y249446D01*
X554244Y249363D01*
X553282Y248965D01*
X552803Y248597D01*
X552303Y248843D01*
Y250953D01*
X553678Y252328D01*
X554348Y252050D01*
X555276Y251928D01*
X556203Y252050D01*
X557067Y252409D01*
X557809Y252978D01*
X558379Y253720D01*
X558737Y254584D01*
X558859Y255512D01*
X558737Y256439D01*
X558379Y257304D01*
X557809Y258046D01*
X557067Y258615D01*
X556203Y258973D01*
X555276Y259095D01*
D02*
G37*
G36*
X545276D02*
X544348Y258973D01*
X543484Y258615D01*
X542742Y258046D01*
X542172Y257304D01*
X541814Y256439D01*
X541692Y255512D01*
X541814Y254584D01*
X542172Y253720D01*
X542742Y252978D01*
X543484Y252409D01*
X544348Y252050D01*
X545276Y251928D01*
X546203Y252050D01*
X547067Y252409D01*
X547810Y252978D01*
X548379Y253720D01*
X548737Y254584D01*
X548859Y255512D01*
X548737Y256439D01*
X548379Y257304D01*
X547810Y258046D01*
X547067Y258615D01*
X546203Y258973D01*
X545276Y259095D01*
D02*
G37*
G36*
X535276D02*
X534348Y258973D01*
X533484Y258615D01*
X532742Y258046D01*
X532172Y257304D01*
X531814Y256439D01*
X531692Y255512D01*
X531814Y254584D01*
X532172Y253720D01*
X532742Y252978D01*
X533484Y252409D01*
X534348Y252050D01*
X535276Y251928D01*
X536203Y252050D01*
X537067Y252409D01*
X537810Y252978D01*
X538379Y253720D01*
X538737Y254584D01*
X538859Y255512D01*
X538737Y256439D01*
X538379Y257304D01*
X537810Y258046D01*
X537067Y258615D01*
X536203Y258973D01*
X535276Y259095D01*
D02*
G37*
G36*
X525276D02*
X524348Y258973D01*
X523484Y258615D01*
X522742Y258046D01*
X522172Y257304D01*
X521814Y256439D01*
X521692Y255512D01*
X521814Y254584D01*
X522172Y253720D01*
X522742Y252978D01*
X523484Y252409D01*
X524348Y252050D01*
X525276Y251928D01*
X526203Y252050D01*
X527067Y252409D01*
X527809Y252978D01*
X528379Y253720D01*
X528737Y254584D01*
X528859Y255512D01*
X528737Y256439D01*
X528379Y257304D01*
X527809Y258046D01*
X527067Y258615D01*
X526203Y258973D01*
X525276Y259095D01*
D02*
G37*
G36*
X515276D02*
X514348Y258973D01*
X513484Y258615D01*
X512742Y258046D01*
X512172Y257304D01*
X511814Y256439D01*
X511692Y255512D01*
X511814Y254584D01*
X512172Y253720D01*
X512742Y252978D01*
X513484Y252409D01*
X514348Y252050D01*
X515276Y251928D01*
X516203Y252050D01*
X517067Y252409D01*
X517809Y252978D01*
X518379Y253720D01*
X518737Y254584D01*
X518859Y255512D01*
X518737Y256439D01*
X518379Y257304D01*
X517809Y258046D01*
X517067Y258615D01*
X516203Y258973D01*
X515276Y259095D01*
D02*
G37*
G36*
X505276D02*
X504348Y258973D01*
X503484Y258615D01*
X502742Y258046D01*
X502172Y257304D01*
X501814Y256439D01*
X501692Y255512D01*
X501814Y254584D01*
X502172Y253720D01*
X502742Y252978D01*
X503484Y252409D01*
X504348Y252050D01*
X505276Y251928D01*
X506203Y252050D01*
X507067Y252409D01*
X507809Y252978D01*
X508379Y253720D01*
X508737Y254584D01*
X508859Y255512D01*
X508737Y256439D01*
X508379Y257304D01*
X507809Y258046D01*
X507067Y258615D01*
X506203Y258973D01*
X505276Y259095D01*
D02*
G37*
G36*
X495276D02*
X494348Y258973D01*
X493484Y258615D01*
X492742Y258046D01*
X492172Y257304D01*
X491814Y256439D01*
X491692Y255512D01*
X491814Y254584D01*
X492172Y253720D01*
X492742Y252978D01*
X493484Y252409D01*
X494348Y252050D01*
X495276Y251928D01*
X496203Y252050D01*
X497067Y252409D01*
X497810Y252978D01*
X498379Y253720D01*
X498737Y254584D01*
X498859Y255512D01*
X498737Y256439D01*
X498379Y257304D01*
X497810Y258046D01*
X497067Y258615D01*
X496203Y258973D01*
X495276Y259095D01*
D02*
G37*
G36*
X485276D02*
X484348Y258973D01*
X483484Y258615D01*
X482742Y258046D01*
X482172Y257304D01*
X481814Y256439D01*
X481692Y255512D01*
X481814Y254584D01*
X482172Y253720D01*
X482742Y252978D01*
X483484Y252409D01*
X484348Y252050D01*
X485276Y251928D01*
X486203Y252050D01*
X487067Y252409D01*
X487810Y252978D01*
X488379Y253720D01*
X488737Y254584D01*
X488859Y255512D01*
X488737Y256439D01*
X488379Y257304D01*
X487810Y258046D01*
X487067Y258615D01*
X486203Y258973D01*
X485276Y259095D01*
D02*
G37*
G36*
X458032D02*
X457104Y258973D01*
X456240Y258615D01*
X455498Y258046D01*
X454928Y257304D01*
X454570Y256439D01*
X454448Y255512D01*
X454570Y254584D01*
X454928Y253720D01*
X455498Y252978D01*
X456240Y252409D01*
X457104Y252050D01*
X458032Y251928D01*
X458959Y252050D01*
X459823Y252409D01*
X460565Y252978D01*
X461135Y253720D01*
X461493Y254584D01*
X461615Y255512D01*
X461493Y256439D01*
X461135Y257304D01*
X460565Y258046D01*
X459823Y258615D01*
X458959Y258973D01*
X458032Y259095D01*
D02*
G37*
G36*
X448032D02*
X447104Y258973D01*
X446240Y258615D01*
X445498Y258046D01*
X444928Y257304D01*
X444570Y256439D01*
X444448Y255512D01*
X444570Y254584D01*
X444928Y253720D01*
X445498Y252978D01*
X446240Y252409D01*
X447104Y252050D01*
X448032Y251928D01*
X448959Y252050D01*
X449823Y252409D01*
X450565Y252978D01*
X451135Y253720D01*
X451493Y254584D01*
X451615Y255512D01*
X451493Y256439D01*
X451135Y257304D01*
X450565Y258046D01*
X449823Y258615D01*
X448959Y258973D01*
X448032Y259095D01*
D02*
G37*
G36*
X438031D02*
X437104Y258973D01*
X436240Y258615D01*
X435498Y258046D01*
X434928Y257304D01*
X434570Y256439D01*
X434448Y255512D01*
X434570Y254584D01*
X434928Y253720D01*
X435498Y252978D01*
X436240Y252409D01*
X437104Y252050D01*
X438031Y251928D01*
X438959Y252050D01*
X439823Y252409D01*
X440565Y252978D01*
X441135Y253720D01*
X441493Y254584D01*
X441615Y255512D01*
X441493Y256439D01*
X441135Y257304D01*
X440565Y258046D01*
X439823Y258615D01*
X438959Y258973D01*
X438031Y259095D01*
D02*
G37*
G36*
X428031D02*
X427104Y258973D01*
X426240Y258615D01*
X425498Y258046D01*
X424928Y257304D01*
X424570Y256439D01*
X424448Y255512D01*
X424570Y254584D01*
X424928Y253720D01*
X425498Y252978D01*
X426240Y252409D01*
X427104Y252050D01*
X428031Y251928D01*
X428959Y252050D01*
X429823Y252409D01*
X430565Y252978D01*
X431135Y253720D01*
X431493Y254584D01*
X431615Y255512D01*
X431493Y256439D01*
X431135Y257304D01*
X430565Y258046D01*
X429823Y258615D01*
X428959Y258973D01*
X428031Y259095D01*
D02*
G37*
G36*
X418032D02*
X417104Y258973D01*
X416240Y258615D01*
X415498Y258046D01*
X414928Y257304D01*
X414570Y256439D01*
X414448Y255512D01*
X414570Y254584D01*
X414928Y253720D01*
X415498Y252978D01*
X416240Y252409D01*
X417104Y252050D01*
X418032Y251928D01*
X418959Y252050D01*
X419823Y252409D01*
X420565Y252978D01*
X421135Y253720D01*
X421493Y254584D01*
X421615Y255512D01*
X421493Y256439D01*
X421135Y257304D01*
X420565Y258046D01*
X419823Y258615D01*
X418959Y258973D01*
X418032Y259095D01*
D02*
G37*
G36*
X408032D02*
X407104Y258973D01*
X406240Y258615D01*
X405498Y258046D01*
X404928Y257304D01*
X404570Y256439D01*
X404448Y255512D01*
X404570Y254584D01*
X404928Y253720D01*
X405498Y252978D01*
X406240Y252409D01*
X407104Y252050D01*
X408032Y251928D01*
X408959Y252050D01*
X409823Y252409D01*
X410565Y252978D01*
X411135Y253720D01*
X411493Y254584D01*
X411615Y255512D01*
X411493Y256439D01*
X411135Y257304D01*
X410565Y258046D01*
X409823Y258615D01*
X408959Y258973D01*
X408032Y259095D01*
D02*
G37*
G36*
X398031D02*
X397104Y258973D01*
X396240Y258615D01*
X395498Y258046D01*
X394928Y257304D01*
X394570Y256439D01*
X394448Y255512D01*
X394570Y254584D01*
X394928Y253720D01*
X395498Y252978D01*
X396240Y252409D01*
X397104Y252050D01*
X398031Y251928D01*
X398959Y252050D01*
X399823Y252409D01*
X400565Y252978D01*
X401135Y253720D01*
X401493Y254584D01*
X401615Y255512D01*
X401493Y256439D01*
X401135Y257304D01*
X400565Y258046D01*
X399823Y258615D01*
X398959Y258973D01*
X398031Y259095D01*
D02*
G37*
G36*
X328031D02*
X327104Y258973D01*
X326240Y258615D01*
X325498Y258046D01*
X324928Y257304D01*
X324570Y256439D01*
X324448Y255512D01*
X324570Y254584D01*
X324928Y253720D01*
X325498Y252978D01*
X326240Y252409D01*
X327104Y252050D01*
X328031Y251928D01*
X328959Y252050D01*
X329823Y252409D01*
X330565Y252978D01*
X331135Y253720D01*
X331493Y254584D01*
X331615Y255512D01*
X331493Y256439D01*
X331135Y257304D01*
X330565Y258046D01*
X329823Y258615D01*
X328959Y258973D01*
X328031Y259095D01*
D02*
G37*
G36*
X318032D02*
X317104Y258973D01*
X316240Y258615D01*
X315498Y258046D01*
X314928Y257304D01*
X314570Y256439D01*
X314448Y255512D01*
X314570Y254584D01*
X314928Y253720D01*
X315498Y252978D01*
X316240Y252409D01*
X317104Y252050D01*
X318032Y251928D01*
X318959Y252050D01*
X319823Y252409D01*
X320565Y252978D01*
X321135Y253720D01*
X321493Y254584D01*
X321615Y255512D01*
X321493Y256439D01*
X321135Y257304D01*
X320565Y258046D01*
X319823Y258615D01*
X318959Y258973D01*
X318032Y259095D01*
D02*
G37*
G36*
X232765Y256309D02*
X225660D01*
Y249203D01*
X232765D01*
Y256309D01*
D02*
G37*
G36*
X219213Y256339D02*
X218285Y256217D01*
X217421Y255859D01*
X216679Y255290D01*
X216109Y254548D01*
X215751Y253683D01*
X215629Y252756D01*
X215751Y251829D01*
X216109Y250964D01*
X216679Y250222D01*
X217421Y249653D01*
X218285Y249295D01*
X219213Y249172D01*
X220140Y249295D01*
X221004Y249653D01*
X221746Y250222D01*
X222316Y250964D01*
X222674Y251829D01*
X222796Y252756D01*
X222674Y253683D01*
X222316Y254548D01*
X221746Y255290D01*
X221004Y255859D01*
X220140Y256217D01*
X219213Y256339D01*
D02*
G37*
G36*
X209213D02*
X208285Y256217D01*
X207421Y255859D01*
X206679Y255290D01*
X206109Y254548D01*
X205751Y253683D01*
X205629Y252756D01*
X205751Y251829D01*
X206109Y250964D01*
X206679Y250222D01*
X207421Y249653D01*
X208285Y249295D01*
X209213Y249172D01*
X210140Y249295D01*
X211004Y249653D01*
X211747Y250222D01*
X212316Y250964D01*
X212674Y251829D01*
X212796Y252756D01*
X212674Y253683D01*
X212316Y254548D01*
X211747Y255290D01*
X211004Y255859D01*
X210140Y256217D01*
X209213Y256339D01*
D02*
G37*
G36*
X199213D02*
X198285Y256217D01*
X197421Y255859D01*
X196679Y255290D01*
X196109Y254548D01*
X195751Y253683D01*
X195629Y252756D01*
X195751Y251829D01*
X196109Y250964D01*
X196679Y250222D01*
X197421Y249653D01*
X198285Y249295D01*
X199213Y249172D01*
X200140Y249295D01*
X201004Y249653D01*
X201747Y250222D01*
X202316Y250964D01*
X202674Y251829D01*
X202796Y252756D01*
X202674Y253683D01*
X202316Y254548D01*
X201747Y255290D01*
X201004Y255859D01*
X200140Y256217D01*
X199213Y256339D01*
D02*
G37*
G36*
X189213D02*
X188285Y256217D01*
X187421Y255859D01*
X186679Y255290D01*
X186109Y254548D01*
X185751Y253683D01*
X185629Y252756D01*
X185751Y251829D01*
X186109Y250964D01*
X186679Y250222D01*
X187421Y249653D01*
X188285Y249295D01*
X189213Y249172D01*
X190140Y249295D01*
X191004Y249653D01*
X191746Y250222D01*
X192316Y250964D01*
X192674Y251829D01*
X192796Y252756D01*
X192674Y253683D01*
X192316Y254548D01*
X191746Y255290D01*
X191004Y255859D01*
X190140Y256217D01*
X189213Y256339D01*
D02*
G37*
G36*
X179213D02*
X178285Y256217D01*
X177421Y255859D01*
X176679Y255290D01*
X176109Y254548D01*
X175751Y253683D01*
X175629Y252756D01*
X175751Y251829D01*
X176109Y250964D01*
X176679Y250222D01*
X177421Y249653D01*
X178285Y249295D01*
X179213Y249172D01*
X180140Y249295D01*
X181004Y249653D01*
X181746Y250222D01*
X182316Y250964D01*
X182674Y251829D01*
X182796Y252756D01*
X182674Y253683D01*
X182316Y254548D01*
X181746Y255290D01*
X181004Y255859D01*
X180140Y256217D01*
X179213Y256339D01*
D02*
G37*
G36*
X169213D02*
X168285Y256217D01*
X167421Y255859D01*
X166679Y255290D01*
X166109Y254548D01*
X165751Y253683D01*
X165629Y252756D01*
X165751Y251829D01*
X166109Y250964D01*
X166679Y250222D01*
X167421Y249653D01*
X168285Y249295D01*
X169213Y249172D01*
X170140Y249295D01*
X171004Y249653D01*
X171747Y250222D01*
X172316Y250964D01*
X172674Y251829D01*
X172796Y252756D01*
X172674Y253683D01*
X172316Y254548D01*
X171747Y255290D01*
X171004Y255859D01*
X170140Y256217D01*
X169213Y256339D01*
D02*
G37*
G36*
X159213D02*
X158285Y256217D01*
X157421Y255859D01*
X156679Y255290D01*
X156109Y254548D01*
X155751Y253683D01*
X155629Y252756D01*
X155751Y251829D01*
X156109Y250964D01*
X156679Y250222D01*
X157421Y249653D01*
X158285Y249295D01*
X159213Y249172D01*
X160140Y249295D01*
X161004Y249653D01*
X161747Y250222D01*
X162316Y250964D01*
X162674Y251829D01*
X162796Y252756D01*
X162674Y253683D01*
X162316Y254548D01*
X161747Y255290D01*
X161004Y255859D01*
X160140Y256217D01*
X159213Y256339D01*
D02*
G37*
G36*
X368032Y259095D02*
X367104Y258973D01*
X366240Y258615D01*
X365498Y258046D01*
X364928Y257304D01*
X364570Y256439D01*
X364448Y255512D01*
X364570Y254584D01*
X364928Y253720D01*
X365498Y252978D01*
X366240Y252409D01*
X367104Y252050D01*
X368032Y251928D01*
X368959Y252050D01*
X369629Y252328D01*
X372107Y249850D01*
Y247309D01*
X371607Y247209D01*
X371484Y247505D01*
X370851Y248331D01*
X370025Y248965D01*
X369063Y249363D01*
X368431Y249446D01*
Y245512D01*
Y241578D01*
X369063Y241661D01*
X370025Y242059D01*
X370851Y242693D01*
X371484Y243518D01*
X371607Y243814D01*
X372107Y243715D01*
Y223838D01*
X371607Y223668D01*
X371510Y223794D01*
X370768Y224363D01*
X369904Y224721D01*
X368976Y224843D01*
X368049Y224721D01*
X367185Y224363D01*
X366442Y223794D01*
X365873Y223052D01*
X365600Y222393D01*
X365100Y222493D01*
Y242148D01*
X365600Y242395D01*
X366038Y242059D01*
X367000Y241661D01*
X367632Y241578D01*
Y245512D01*
Y249446D01*
X367000Y249363D01*
X366038Y248965D01*
X365600Y248629D01*
X365100Y248875D01*
Y249565D01*
X365100Y249565D01*
X365015Y249994D01*
X364772Y250358D01*
X364772Y250358D01*
X361215Y253914D01*
X361493Y254584D01*
X361615Y255512D01*
X361493Y256439D01*
X361135Y257304D01*
X360565Y258046D01*
X359823Y258615D01*
X358959Y258973D01*
X358032Y259095D01*
X357104Y258973D01*
X356240Y258615D01*
X355498Y258046D01*
X354928Y257304D01*
X354570Y256439D01*
X354448Y255512D01*
X354570Y254584D01*
X354928Y253720D01*
X355498Y252978D01*
X356240Y252409D01*
X357104Y252050D01*
X358032Y251928D01*
X358959Y252050D01*
X359629Y252328D01*
X362857Y249100D01*
Y222481D01*
X362357Y222382D01*
X362080Y223052D01*
X361510Y223794D01*
X360768Y224363D01*
X359904Y224721D01*
X358976Y224843D01*
X358049Y224721D01*
X357185Y224363D01*
X356442Y223794D01*
X355873Y223052D01*
X355600Y222393D01*
X355100Y222493D01*
Y242148D01*
X355600Y242395D01*
X356038Y242059D01*
X357000Y241661D01*
X357631Y241578D01*
Y245512D01*
Y249446D01*
X357000Y249363D01*
X356038Y248965D01*
X355600Y248629D01*
X355100Y248875D01*
Y249565D01*
X355100Y249565D01*
X355015Y249994D01*
X354772Y250358D01*
X354772Y250358D01*
X351215Y253914D01*
X351493Y254584D01*
X351615Y255512D01*
X351493Y256439D01*
X351135Y257304D01*
X350565Y258046D01*
X349823Y258615D01*
X348959Y258973D01*
X348031Y259095D01*
X347104Y258973D01*
X346240Y258615D01*
X345498Y258046D01*
X344928Y257304D01*
X344570Y256439D01*
X344448Y255512D01*
X344570Y254584D01*
X344928Y253720D01*
X345498Y252978D01*
X346240Y252409D01*
X347104Y252050D01*
X348031Y251928D01*
X348959Y252050D01*
X349629Y252328D01*
X352857Y249100D01*
Y222481D01*
X352357Y222382D01*
X352080Y223052D01*
X351510Y223794D01*
X350768Y224363D01*
X349904Y224721D01*
X348976Y224843D01*
X348049Y224721D01*
X347185Y224363D01*
X346443Y223794D01*
X345873Y223052D01*
X345515Y222187D01*
X345393Y221260D01*
X345515Y220332D01*
X345873Y219468D01*
X346443Y218726D01*
X347185Y218157D01*
X348049Y217798D01*
X348976Y217676D01*
X349904Y217798D01*
X350768Y218157D01*
X351510Y218726D01*
X352080Y219468D01*
X352357Y220138D01*
X352857Y220039D01*
Y215714D01*
X352817Y215687D01*
X352353Y214993D01*
X352190Y214173D01*
X352353Y213354D01*
X352817Y212659D01*
X353511Y212195D01*
X354331Y212032D01*
X355150Y212195D01*
X355845Y212659D01*
X356309Y213354D01*
X356472Y214173D01*
X356309Y214993D01*
X355845Y215687D01*
X355150Y216151D01*
X355100Y216161D01*
Y220027D01*
X355600Y220127D01*
X355873Y219468D01*
X356442Y218726D01*
X357185Y218157D01*
X358049Y217798D01*
X358976Y217676D01*
X359904Y217798D01*
X360768Y218157D01*
X361510Y218726D01*
X362080Y219468D01*
X362357Y220138D01*
X362857Y220039D01*
Y215394D01*
X362589Y214993D01*
X362426Y214173D01*
X362589Y213354D01*
X363053Y212659D01*
X363748Y212195D01*
X364567Y212032D01*
X365386Y212195D01*
X366081Y212659D01*
X366545Y213354D01*
X366708Y214173D01*
X366545Y214993D01*
X366081Y215687D01*
X365386Y216151D01*
X365100Y216208D01*
Y220027D01*
X365600Y220127D01*
X365873Y219468D01*
X366442Y218726D01*
X367185Y218157D01*
X368049Y217798D01*
X368976Y217676D01*
X369904Y217798D01*
X370768Y218157D01*
X371510Y218726D01*
X371607Y218852D01*
X372107Y218682D01*
Y216116D01*
X372107Y216116D01*
X372192Y215686D01*
X372435Y215323D01*
X372723Y215035D01*
X372431Y214599D01*
X372268Y213779D01*
X372431Y212960D01*
X372895Y212265D01*
X373590Y211801D01*
X374410Y211638D01*
X375229Y211801D01*
X375923Y212265D01*
X376388Y212960D01*
X376551Y213779D01*
X376388Y214599D01*
X375923Y215294D01*
X375229Y215758D01*
X375029Y215797D01*
X374820Y216110D01*
X374350Y216580D01*
Y242995D01*
X374850Y243165D01*
X375212Y242693D01*
X376038Y242059D01*
X377000Y241661D01*
X377631Y241578D01*
Y245512D01*
Y249446D01*
X377000Y249363D01*
X376038Y248965D01*
X375212Y248331D01*
X374850Y247859D01*
X374350Y248028D01*
Y250315D01*
X374350Y250315D01*
X374265Y250744D01*
X374021Y251108D01*
X374021Y251108D01*
X371215Y253914D01*
X371493Y254584D01*
X371615Y255512D01*
X371493Y256439D01*
X371135Y257304D01*
X370565Y258046D01*
X369823Y258615D01*
X368959Y258973D01*
X368032Y259095D01*
D02*
G37*
G36*
X378031D02*
X377104Y258973D01*
X376240Y258615D01*
X375498Y258046D01*
X374928Y257304D01*
X374570Y256439D01*
X374448Y255512D01*
X374570Y254584D01*
X374928Y253720D01*
X375498Y252978D01*
X376240Y252409D01*
X377104Y252050D01*
X378031Y251928D01*
X378959Y252050D01*
X379629Y252328D01*
X382343Y249614D01*
Y246739D01*
X381843Y246639D01*
X381484Y247505D01*
X380851Y248331D01*
X380025Y248965D01*
X379063Y249363D01*
X378432Y249446D01*
Y245512D01*
Y241578D01*
X379063Y241661D01*
X380025Y242059D01*
X380851Y242693D01*
X381484Y243518D01*
X381843Y244385D01*
X382343Y244285D01*
Y223530D01*
X381843Y223360D01*
X381510Y223794D01*
X380768Y224363D01*
X379904Y224721D01*
X378976Y224843D01*
X378049Y224721D01*
X377185Y224363D01*
X376443Y223794D01*
X375873Y223052D01*
X375515Y222187D01*
X375393Y221260D01*
X375515Y220332D01*
X375873Y219468D01*
X376443Y218726D01*
X377185Y218157D01*
X378049Y217798D01*
X378976Y217676D01*
X379904Y217798D01*
X380768Y218157D01*
X381510Y218726D01*
X381843Y219160D01*
X382343Y218990D01*
Y215896D01*
X382343Y215896D01*
X382428Y215466D01*
X382671Y215103D01*
X382713Y215061D01*
X382667Y214993D01*
X382505Y214173D01*
X382667Y213354D01*
X383132Y212659D01*
X383826Y212195D01*
X384646Y212032D01*
X385465Y212195D01*
X386160Y212659D01*
X386624Y213354D01*
X386787Y214173D01*
X386624Y214993D01*
X386160Y215687D01*
X385465Y216151D01*
X384646Y216314D01*
X384586Y216797D01*
Y242731D01*
X385060Y242892D01*
X385212Y242693D01*
X386038Y242059D01*
X387000Y241661D01*
X387632Y241578D01*
Y245512D01*
Y249446D01*
X387000Y249363D01*
X386038Y248965D01*
X385212Y248331D01*
X385060Y248132D01*
X384586Y248293D01*
Y250079D01*
X384586Y250079D01*
X384501Y250508D01*
X384258Y250872D01*
X384258Y250872D01*
X381215Y253914D01*
X381493Y254584D01*
X381615Y255512D01*
X381493Y256439D01*
X381135Y257304D01*
X380565Y258046D01*
X379823Y258615D01*
X378959Y258973D01*
X378031Y259095D01*
D02*
G37*
G36*
X448431Y249446D02*
Y245912D01*
X451966D01*
X451883Y246544D01*
X451484Y247505D01*
X450851Y248331D01*
X450025Y248965D01*
X449063Y249363D01*
X448431Y249446D01*
D02*
G37*
G36*
X358432D02*
Y245912D01*
X361966D01*
X361882Y246544D01*
X361484Y247505D01*
X360851Y248331D01*
X360025Y248965D01*
X359063Y249363D01*
X358432Y249446D01*
D02*
G37*
G36*
X458431D02*
Y245912D01*
X461966D01*
X461882Y246544D01*
X461484Y247505D01*
X460851Y248331D01*
X460025Y248965D01*
X459063Y249363D01*
X458431Y249446D01*
D02*
G37*
G36*
X438432D02*
Y245912D01*
X441966D01*
X441883Y246544D01*
X441484Y247505D01*
X440851Y248331D01*
X440025Y248965D01*
X439063Y249363D01*
X438432Y249446D01*
D02*
G37*
G36*
X408431D02*
Y245912D01*
X411966D01*
X411882Y246544D01*
X411484Y247505D01*
X410851Y248331D01*
X410025Y248965D01*
X409063Y249363D01*
X408431Y249446D01*
D02*
G37*
G36*
X348431D02*
Y245912D01*
X351966D01*
X351883Y246544D01*
X351484Y247505D01*
X350851Y248331D01*
X350025Y248965D01*
X349063Y249363D01*
X348431Y249446D01*
D02*
G37*
G36*
X318431D02*
Y245912D01*
X321966D01*
X321883Y246544D01*
X321484Y247505D01*
X320851Y248331D01*
X320025Y248965D01*
X319063Y249363D01*
X318431Y249446D01*
D02*
G37*
G36*
X468432D02*
Y245912D01*
X471966D01*
X471882Y246544D01*
X471484Y247505D01*
X470851Y248331D01*
X470025Y248965D01*
X469063Y249363D01*
X468432Y249446D01*
D02*
G37*
G36*
X418432D02*
Y245912D01*
X421966D01*
X421882Y246544D01*
X421484Y247505D01*
X420851Y248331D01*
X420025Y248965D01*
X419063Y249363D01*
X418432Y249446D01*
D02*
G37*
G36*
X398431D02*
Y245912D01*
X401966D01*
X401883Y246544D01*
X401484Y247505D01*
X400851Y248331D01*
X400025Y248965D01*
X399063Y249363D01*
X398431Y249446D01*
D02*
G37*
G36*
X328432D02*
Y245912D01*
X331966D01*
X331883Y246544D01*
X331484Y247505D01*
X330851Y248331D01*
X330025Y248965D01*
X329063Y249363D01*
X328432Y249446D01*
D02*
G37*
G36*
X428432D02*
Y245912D01*
X431966D01*
X431882Y246544D01*
X431484Y247505D01*
X430851Y248331D01*
X430025Y248965D01*
X429063Y249363D01*
X428432Y249446D01*
D02*
G37*
G36*
X388432D02*
Y245912D01*
X391966D01*
X391882Y246544D01*
X391484Y247505D01*
X390851Y248331D01*
X390025Y248965D01*
X389063Y249363D01*
X388432Y249446D01*
D02*
G37*
G36*
X338432D02*
Y245912D01*
X341966D01*
X341882Y246544D01*
X341484Y247505D01*
X340851Y248331D01*
X340025Y248965D01*
X339063Y249363D01*
X338432Y249446D01*
D02*
G37*
G36*
X625676D02*
Y245912D01*
X629210D01*
X629127Y246544D01*
X628728Y247505D01*
X628095Y248331D01*
X627269Y248965D01*
X626307Y249363D01*
X625676Y249446D01*
D02*
G37*
G36*
X585676D02*
Y245912D01*
X589210D01*
X589127Y246544D01*
X588728Y247505D01*
X588095Y248331D01*
X587269Y248965D01*
X586307Y249363D01*
X585676Y249446D01*
D02*
G37*
G36*
X535676D02*
Y245912D01*
X539210D01*
X539127Y246544D01*
X538728Y247505D01*
X538095Y248331D01*
X537269Y248965D01*
X536307Y249363D01*
X535676Y249446D01*
D02*
G37*
G36*
X495676D02*
Y245912D01*
X499210D01*
X499127Y246544D01*
X498728Y247505D01*
X498095Y248331D01*
X497269Y248965D01*
X496308Y249363D01*
X495676Y249446D01*
D02*
G37*
G36*
X635676D02*
Y245912D01*
X639210D01*
X639127Y246544D01*
X638728Y247505D01*
X638095Y248331D01*
X637269Y248965D01*
X636307Y249363D01*
X635676Y249446D01*
D02*
G37*
G36*
X615676D02*
Y245912D01*
X619210D01*
X619127Y246544D01*
X618728Y247505D01*
X618095Y248331D01*
X617269Y248965D01*
X616307Y249363D01*
X615676Y249446D01*
D02*
G37*
G36*
X595676D02*
Y245912D01*
X599210D01*
X599127Y246544D01*
X598728Y247505D01*
X598095Y248331D01*
X597269Y248965D01*
X596308Y249363D01*
X595676Y249446D01*
D02*
G37*
G36*
X575676D02*
Y245912D01*
X579210D01*
X579127Y246544D01*
X578728Y247505D01*
X578095Y248331D01*
X577269Y248965D01*
X576307Y249363D01*
X575676Y249446D01*
D02*
G37*
G36*
X555676D02*
Y245912D01*
X559210D01*
X559127Y246544D01*
X558728Y247505D01*
X558095Y248331D01*
X557269Y248965D01*
X556308Y249363D01*
X555676Y249446D01*
D02*
G37*
G36*
X545676D02*
Y245912D01*
X549210D01*
X549127Y246544D01*
X548728Y247505D01*
X548095Y248331D01*
X547269Y248965D01*
X546308Y249363D01*
X545676Y249446D01*
D02*
G37*
G36*
X525676D02*
Y245912D01*
X529210D01*
X529127Y246544D01*
X528728Y247505D01*
X528095Y248331D01*
X527269Y248965D01*
X526307Y249363D01*
X525676Y249446D01*
D02*
G37*
G36*
X505676D02*
Y245912D01*
X509210D01*
X509127Y246544D01*
X508728Y247505D01*
X508095Y248331D01*
X507269Y248965D01*
X506308Y249363D01*
X505676Y249446D01*
D02*
G37*
G36*
X485676D02*
Y245912D01*
X489210D01*
X489127Y246544D01*
X488728Y247505D01*
X488095Y248331D01*
X487269Y248965D01*
X486307Y249363D01*
X485676Y249446D01*
D02*
G37*
G36*
X605676D02*
Y245912D01*
X609210D01*
X609127Y246544D01*
X608728Y247505D01*
X608095Y248331D01*
X607269Y248965D01*
X606308Y249363D01*
X605676Y249446D01*
D02*
G37*
G36*
X565676D02*
Y245912D01*
X569210D01*
X569127Y246544D01*
X568728Y247505D01*
X568095Y248331D01*
X567269Y248965D01*
X566307Y249363D01*
X565676Y249446D01*
D02*
G37*
G36*
X515676D02*
Y245912D01*
X519210D01*
X519127Y246544D01*
X518728Y247505D01*
X518095Y248331D01*
X517269Y248965D01*
X516307Y249363D01*
X515676Y249446D01*
D02*
G37*
G36*
X624876D02*
X624244Y249363D01*
X623282Y248965D01*
X622457Y248331D01*
X621823Y247505D01*
X621425Y246544D01*
X621341Y245912D01*
X624876D01*
Y249446D01*
D02*
G37*
G36*
X534876D02*
X534244Y249363D01*
X533282Y248965D01*
X532456Y248331D01*
X531823Y247505D01*
X531425Y246544D01*
X531341Y245912D01*
X534876D01*
Y249446D01*
D02*
G37*
G36*
X634876D02*
X634244Y249363D01*
X633282Y248965D01*
X632456Y248331D01*
X631823Y247505D01*
X631425Y246544D01*
X631341Y245912D01*
X634876D01*
Y249446D01*
D02*
G37*
G36*
X614876D02*
X614244Y249363D01*
X613282Y248965D01*
X612457Y248331D01*
X611823Y247505D01*
X611425Y246544D01*
X611341Y245912D01*
X614876D01*
Y249446D01*
D02*
G37*
G36*
X584876D02*
X584244Y249363D01*
X583282Y248965D01*
X582456Y248331D01*
X581823Y247505D01*
X581425Y246544D01*
X581341Y245912D01*
X584876D01*
Y249446D01*
D02*
G37*
G36*
X544876D02*
X544244Y249363D01*
X543282Y248965D01*
X542456Y248331D01*
X541823Y247505D01*
X541425Y246544D01*
X541341Y245912D01*
X544876D01*
Y249446D01*
D02*
G37*
G36*
X524876D02*
X524244Y249363D01*
X523282Y248965D01*
X522457Y248331D01*
X521823Y247505D01*
X521425Y246544D01*
X521341Y245912D01*
X524876D01*
Y249446D01*
D02*
G37*
G36*
X494876D02*
X494244Y249363D01*
X493282Y248965D01*
X492456Y248331D01*
X491823Y247505D01*
X491425Y246544D01*
X491341Y245912D01*
X494876D01*
Y249446D01*
D02*
G37*
G36*
X594876D02*
X594244Y249363D01*
X593282Y248965D01*
X592456Y248331D01*
X591823Y247505D01*
X591425Y246544D01*
X591341Y245912D01*
X594876D01*
Y249446D01*
D02*
G37*
G36*
X574876D02*
X574244Y249363D01*
X573282Y248965D01*
X572457Y248331D01*
X571823Y247505D01*
X571425Y246544D01*
X571341Y245912D01*
X574876D01*
Y249446D01*
D02*
G37*
G36*
X504876D02*
X504244Y249363D01*
X503282Y248965D01*
X502457Y248331D01*
X501823Y247505D01*
X501425Y246544D01*
X501341Y245912D01*
X504876D01*
Y249446D01*
D02*
G37*
G36*
X484876D02*
X484244Y249363D01*
X483282Y248965D01*
X482456Y248331D01*
X481823Y247505D01*
X481425Y246544D01*
X481341Y245912D01*
X484876D01*
Y249446D01*
D02*
G37*
G36*
X604876D02*
X604244Y249363D01*
X603282Y248965D01*
X602457Y248331D01*
X601823Y247505D01*
X601425Y246544D01*
X601341Y245912D01*
X604876D01*
Y249446D01*
D02*
G37*
G36*
X564876D02*
X564244Y249363D01*
X563282Y248965D01*
X562457Y248331D01*
X561823Y247505D01*
X561425Y246544D01*
X561341Y245912D01*
X564876D01*
Y249446D01*
D02*
G37*
G36*
X514876D02*
X514244Y249363D01*
X513282Y248965D01*
X512457Y248331D01*
X511823Y247505D01*
X511425Y246544D01*
X511341Y245912D01*
X514876D01*
Y249446D01*
D02*
G37*
G36*
X447632D02*
X447000Y249363D01*
X446038Y248965D01*
X445212Y248331D01*
X444579Y247505D01*
X444180Y246544D01*
X444097Y245912D01*
X447632D01*
Y249446D01*
D02*
G37*
G36*
X407631D02*
X407000Y249363D01*
X406038Y248965D01*
X405212Y248331D01*
X404579Y247505D01*
X404180Y246544D01*
X404097Y245912D01*
X407631D01*
Y249446D01*
D02*
G37*
G36*
X317632D02*
X317000Y249363D01*
X316038Y248965D01*
X315212Y248331D01*
X314579Y247505D01*
X314180Y246544D01*
X314097Y245912D01*
X317632D01*
Y249446D01*
D02*
G37*
G36*
X457631D02*
X457000Y249363D01*
X456038Y248965D01*
X455212Y248331D01*
X454579Y247505D01*
X454180Y246544D01*
X454097Y245912D01*
X457631D01*
Y249446D01*
D02*
G37*
G36*
X437632D02*
X437000Y249363D01*
X436038Y248965D01*
X435212Y248331D01*
X434579Y247505D01*
X434180Y246544D01*
X434097Y245912D01*
X437632D01*
Y249446D01*
D02*
G37*
G36*
X417631D02*
X417000Y249363D01*
X416038Y248965D01*
X415212Y248331D01*
X414579Y247505D01*
X414181Y246544D01*
X414097Y245912D01*
X417631D01*
Y249446D01*
D02*
G37*
G36*
X327631D02*
X327000Y249363D01*
X326038Y248965D01*
X325212Y248331D01*
X324579Y247505D01*
X324181Y246544D01*
X324097Y245912D01*
X327631D01*
Y249446D01*
D02*
G37*
G36*
X467631D02*
X467000Y249363D01*
X466038Y248965D01*
X465212Y248331D01*
X464579Y247505D01*
X464181Y246544D01*
X464097Y245912D01*
X467631D01*
Y249446D01*
D02*
G37*
G36*
X427632D02*
X427000Y249363D01*
X426038Y248965D01*
X425212Y248331D01*
X424579Y247505D01*
X424181Y246544D01*
X424097Y245912D01*
X427632D01*
Y249446D01*
D02*
G37*
G36*
X337632D02*
X337000Y249363D01*
X336038Y248965D01*
X335212Y248331D01*
X334579Y247505D01*
X334180Y246544D01*
X334097Y245912D01*
X337632D01*
Y249446D01*
D02*
G37*
G36*
X438031Y245512D02*
D01*
D01*
D01*
D01*
D02*
G37*
G36*
X271654Y255906D02*
X259842D01*
X271654Y244094D01*
Y255906D01*
D02*
G37*
G36*
X219613Y246690D02*
Y243156D01*
X223147D01*
X223064Y243788D01*
X222665Y244749D01*
X222032Y245575D01*
X221206Y246209D01*
X220245Y246607D01*
X219613Y246690D01*
D02*
G37*
G36*
X179613D02*
Y243156D01*
X183147D01*
X183064Y243788D01*
X182665Y244749D01*
X182032Y245575D01*
X181206Y246209D01*
X180245Y246607D01*
X179613Y246690D01*
D02*
G37*
G36*
X229613D02*
Y243156D01*
X233147D01*
X233064Y243788D01*
X232665Y244749D01*
X232032Y245575D01*
X231206Y246209D01*
X230244Y246607D01*
X229613Y246690D01*
D02*
G37*
G36*
X209613D02*
Y243156D01*
X213147D01*
X213064Y243788D01*
X212665Y244749D01*
X212032Y245575D01*
X211206Y246209D01*
X210244Y246607D01*
X209613Y246690D01*
D02*
G37*
G36*
X189613D02*
Y243156D01*
X193147D01*
X193064Y243788D01*
X192665Y244749D01*
X192032Y245575D01*
X191206Y246209D01*
X190244Y246607D01*
X189613Y246690D01*
D02*
G37*
G36*
X169613D02*
Y243156D01*
X173147D01*
X173064Y243788D01*
X172665Y244749D01*
X172032Y245575D01*
X171206Y246209D01*
X170245Y246607D01*
X169613Y246690D01*
D02*
G37*
G36*
X199613D02*
Y243156D01*
X203147D01*
X203064Y243788D01*
X202665Y244749D01*
X202032Y245575D01*
X201206Y246209D01*
X200244Y246607D01*
X199613Y246690D01*
D02*
G37*
G36*
X159613D02*
Y243156D01*
X163147D01*
X163064Y243788D01*
X162665Y244749D01*
X162032Y245575D01*
X161206Y246209D01*
X160245Y246607D01*
X159613Y246690D01*
D02*
G37*
G36*
X218813D02*
X218181Y246607D01*
X217219Y246209D01*
X216393Y245575D01*
X215760Y244749D01*
X215362Y243788D01*
X215278Y243156D01*
X218813D01*
Y246690D01*
D02*
G37*
G36*
X178813D02*
X178181Y246607D01*
X177219Y246209D01*
X176393Y245575D01*
X175760Y244749D01*
X175362Y243788D01*
X175278Y243156D01*
X178813D01*
Y246690D01*
D02*
G37*
G36*
X228813D02*
X228181Y246607D01*
X227219Y246209D01*
X226394Y245575D01*
X225760Y244749D01*
X225362Y243788D01*
X225278Y243156D01*
X228813D01*
Y246690D01*
D02*
G37*
G36*
X208813D02*
X208181Y246607D01*
X207219Y246209D01*
X206394Y245575D01*
X205760Y244749D01*
X205362Y243788D01*
X205278Y243156D01*
X208813D01*
Y246690D01*
D02*
G37*
G36*
X188813D02*
X188181Y246607D01*
X187219Y246209D01*
X186393Y245575D01*
X185760Y244749D01*
X185362Y243788D01*
X185278Y243156D01*
X188813D01*
Y246690D01*
D02*
G37*
G36*
X168813D02*
X168181Y246607D01*
X167219Y246209D01*
X166393Y245575D01*
X165760Y244749D01*
X165362Y243788D01*
X165278Y243156D01*
X168813D01*
Y246690D01*
D02*
G37*
G36*
X198813D02*
X198181Y246607D01*
X197219Y246209D01*
X196394Y245575D01*
X195760Y244749D01*
X195362Y243788D01*
X195278Y243156D01*
X198813D01*
Y246690D01*
D02*
G37*
G36*
X158813D02*
X158181Y246607D01*
X157219Y246209D01*
X156394Y245575D01*
X155760Y244749D01*
X155362Y243788D01*
X155278Y243156D01*
X158813D01*
Y246690D01*
D02*
G37*
G36*
X471966Y245112D02*
X468432D01*
Y241578D01*
X469063Y241661D01*
X470025Y242059D01*
X470851Y242693D01*
X471484Y243518D01*
X471882Y244480D01*
X471966Y245112D01*
D02*
G37*
G36*
X461966D02*
X458431D01*
Y241578D01*
X459063Y241661D01*
X460025Y242059D01*
X460851Y242693D01*
X461484Y243518D01*
X461882Y244480D01*
X461966Y245112D01*
D02*
G37*
G36*
X451966D02*
X448431D01*
Y241578D01*
X449063Y241661D01*
X450025Y242059D01*
X450851Y242693D01*
X451484Y243518D01*
X451883Y244480D01*
X451966Y245112D01*
D02*
G37*
G36*
X441966D02*
X438432D01*
Y241578D01*
X439063Y241661D01*
X440025Y242059D01*
X440851Y242693D01*
X441484Y243518D01*
X441883Y244480D01*
X441966Y245112D01*
D02*
G37*
G36*
X431966D02*
X428432D01*
Y241578D01*
X429063Y241661D01*
X430025Y242059D01*
X430851Y242693D01*
X431484Y243518D01*
X431882Y244480D01*
X431966Y245112D01*
D02*
G37*
G36*
X421966D02*
X418432D01*
Y241578D01*
X419063Y241661D01*
X420025Y242059D01*
X420851Y242693D01*
X421484Y243518D01*
X421882Y244480D01*
X421966Y245112D01*
D02*
G37*
G36*
X411966D02*
X408431D01*
Y241578D01*
X409063Y241661D01*
X410025Y242059D01*
X410851Y242693D01*
X411484Y243518D01*
X411882Y244480D01*
X411966Y245112D01*
D02*
G37*
G36*
X401966D02*
X398431D01*
Y241578D01*
X399063Y241661D01*
X400025Y242059D01*
X400851Y242693D01*
X401484Y243518D01*
X401883Y244480D01*
X401966Y245112D01*
D02*
G37*
G36*
X391966D02*
X388432D01*
Y241578D01*
X389063Y241661D01*
X390025Y242059D01*
X390851Y242693D01*
X391484Y243518D01*
X391882Y244480D01*
X391966Y245112D01*
D02*
G37*
G36*
X361966D02*
X358432D01*
Y241578D01*
X359063Y241661D01*
X360025Y242059D01*
X360851Y242693D01*
X361484Y243518D01*
X361882Y244480D01*
X361966Y245112D01*
D02*
G37*
G36*
X351966D02*
X348431D01*
Y241578D01*
X349063Y241661D01*
X350025Y242059D01*
X350851Y242693D01*
X351484Y243518D01*
X351883Y244480D01*
X351966Y245112D01*
D02*
G37*
G36*
X341966D02*
X338432D01*
Y241578D01*
X339063Y241661D01*
X340025Y242059D01*
X340851Y242693D01*
X341484Y243518D01*
X341882Y244480D01*
X341966Y245112D01*
D02*
G37*
G36*
X331966D02*
X328432D01*
Y241578D01*
X329063Y241661D01*
X330025Y242059D01*
X330851Y242693D01*
X331484Y243518D01*
X331883Y244480D01*
X331966Y245112D01*
D02*
G37*
G36*
X321966D02*
X318431D01*
Y241578D01*
X319063Y241661D01*
X320025Y242059D01*
X320851Y242693D01*
X321484Y243518D01*
X321883Y244480D01*
X321966Y245112D01*
D02*
G37*
G36*
X639210D02*
X635676D01*
Y241578D01*
X636307Y241661D01*
X637269Y242059D01*
X638095Y242693D01*
X638728Y243518D01*
X639127Y244480D01*
X639210Y245112D01*
D02*
G37*
G36*
X629210D02*
X625676D01*
Y241578D01*
X626307Y241661D01*
X627269Y242059D01*
X628095Y242693D01*
X628728Y243518D01*
X629127Y244480D01*
X629210Y245112D01*
D02*
G37*
G36*
X619210D02*
X615676D01*
Y241578D01*
X616307Y241661D01*
X617269Y242059D01*
X618095Y242693D01*
X618728Y243518D01*
X619127Y244480D01*
X619210Y245112D01*
D02*
G37*
G36*
X609210D02*
X605676D01*
Y241578D01*
X606308Y241661D01*
X607269Y242059D01*
X608095Y242693D01*
X608728Y243518D01*
X609127Y244480D01*
X609210Y245112D01*
D02*
G37*
G36*
X599210D02*
X595676D01*
Y241578D01*
X596308Y241661D01*
X597269Y242059D01*
X598095Y242693D01*
X598728Y243518D01*
X599127Y244480D01*
X599210Y245112D01*
D02*
G37*
G36*
X589210D02*
X585676D01*
Y241578D01*
X586307Y241661D01*
X587269Y242059D01*
X588095Y242693D01*
X588728Y243518D01*
X589127Y244480D01*
X589210Y245112D01*
D02*
G37*
G36*
X579210D02*
X575676D01*
Y241578D01*
X576307Y241661D01*
X577269Y242059D01*
X578095Y242693D01*
X578728Y243518D01*
X579127Y244480D01*
X579210Y245112D01*
D02*
G37*
G36*
X569210D02*
X565676D01*
Y241578D01*
X566307Y241661D01*
X567269Y242059D01*
X568095Y242693D01*
X568728Y243518D01*
X569127Y244480D01*
X569210Y245112D01*
D02*
G37*
G36*
X559210D02*
X555676D01*
Y241578D01*
X556308Y241661D01*
X557269Y242059D01*
X558095Y242693D01*
X558728Y243518D01*
X559127Y244480D01*
X559210Y245112D01*
D02*
G37*
G36*
X549210D02*
X545676D01*
Y241578D01*
X546308Y241661D01*
X547269Y242059D01*
X548095Y242693D01*
X548728Y243518D01*
X549127Y244480D01*
X549210Y245112D01*
D02*
G37*
G36*
X539210D02*
X535676D01*
Y241578D01*
X536307Y241661D01*
X537269Y242059D01*
X538095Y242693D01*
X538728Y243518D01*
X539127Y244480D01*
X539210Y245112D01*
D02*
G37*
G36*
X529210D02*
X525676D01*
Y241578D01*
X526307Y241661D01*
X527269Y242059D01*
X528095Y242693D01*
X528728Y243518D01*
X529127Y244480D01*
X529210Y245112D01*
D02*
G37*
G36*
X519210D02*
X515676D01*
Y241578D01*
X516307Y241661D01*
X517269Y242059D01*
X518095Y242693D01*
X518728Y243518D01*
X519127Y244480D01*
X519210Y245112D01*
D02*
G37*
G36*
X509210D02*
X505676D01*
Y241578D01*
X506308Y241661D01*
X507269Y242059D01*
X508095Y242693D01*
X508728Y243518D01*
X509127Y244480D01*
X509210Y245112D01*
D02*
G37*
G36*
X499210D02*
X495676D01*
Y241578D01*
X496308Y241661D01*
X497269Y242059D01*
X498095Y242693D01*
X498728Y243518D01*
X499127Y244480D01*
X499210Y245112D01*
D02*
G37*
G36*
X489210D02*
X485676D01*
Y241578D01*
X486307Y241661D01*
X487269Y242059D01*
X488095Y242693D01*
X488728Y243518D01*
X489127Y244480D01*
X489210Y245112D01*
D02*
G37*
G36*
X634876D02*
X631341D01*
X631425Y244480D01*
X631823Y243518D01*
X632456Y242693D01*
X633282Y242059D01*
X634244Y241661D01*
X634876Y241578D01*
Y245112D01*
D02*
G37*
G36*
X624876D02*
X621341D01*
X621425Y244480D01*
X621823Y243518D01*
X622457Y242693D01*
X623282Y242059D01*
X624244Y241661D01*
X624876Y241578D01*
Y245112D01*
D02*
G37*
G36*
X614876D02*
X611341D01*
X611425Y244480D01*
X611823Y243518D01*
X612457Y242693D01*
X613282Y242059D01*
X614244Y241661D01*
X614876Y241578D01*
Y245112D01*
D02*
G37*
G36*
X604876D02*
X601341D01*
X601425Y244480D01*
X601823Y243518D01*
X602457Y242693D01*
X603282Y242059D01*
X604244Y241661D01*
X604876Y241578D01*
Y245112D01*
D02*
G37*
G36*
X594876D02*
X591341D01*
X591425Y244480D01*
X591823Y243518D01*
X592456Y242693D01*
X593282Y242059D01*
X594244Y241661D01*
X594876Y241578D01*
Y245112D01*
D02*
G37*
G36*
X584876D02*
X581341D01*
X581425Y244480D01*
X581823Y243518D01*
X582456Y242693D01*
X583282Y242059D01*
X584244Y241661D01*
X584876Y241578D01*
Y245112D01*
D02*
G37*
G36*
X574876D02*
X571341D01*
X571425Y244480D01*
X571823Y243518D01*
X572457Y242693D01*
X573282Y242059D01*
X574244Y241661D01*
X574876Y241578D01*
Y245112D01*
D02*
G37*
G36*
X564876D02*
X561341D01*
X561425Y244480D01*
X561823Y243518D01*
X562457Y242693D01*
X563282Y242059D01*
X564244Y241661D01*
X564876Y241578D01*
Y245112D01*
D02*
G37*
G36*
X544876D02*
X541341D01*
X541425Y244480D01*
X541823Y243518D01*
X542456Y242693D01*
X543282Y242059D01*
X544244Y241661D01*
X544876Y241578D01*
Y245112D01*
D02*
G37*
G36*
X534876D02*
X531341D01*
X531425Y244480D01*
X531823Y243518D01*
X532456Y242693D01*
X533282Y242059D01*
X534244Y241661D01*
X534876Y241578D01*
Y245112D01*
D02*
G37*
G36*
X524876D02*
X521341D01*
X521425Y244480D01*
X521823Y243518D01*
X522457Y242693D01*
X523282Y242059D01*
X524244Y241661D01*
X524876Y241578D01*
Y245112D01*
D02*
G37*
G36*
X514876D02*
X511341D01*
X511425Y244480D01*
X511823Y243518D01*
X512457Y242693D01*
X513282Y242059D01*
X514244Y241661D01*
X514876Y241578D01*
Y245112D01*
D02*
G37*
G36*
X504876D02*
X501341D01*
X501425Y244480D01*
X501823Y243518D01*
X502457Y242693D01*
X503282Y242059D01*
X504244Y241661D01*
X504876Y241578D01*
Y245112D01*
D02*
G37*
G36*
X494876D02*
X491341D01*
X491425Y244480D01*
X491823Y243518D01*
X492456Y242693D01*
X493282Y242059D01*
X494244Y241661D01*
X494876Y241578D01*
Y245112D01*
D02*
G37*
G36*
X484876D02*
X481341D01*
X481425Y244480D01*
X481823Y243518D01*
X482456Y242693D01*
X483282Y242059D01*
X484244Y241661D01*
X484876Y241578D01*
Y245112D01*
D02*
G37*
G36*
X467631D02*
X464097D01*
X464181Y244480D01*
X464579Y243518D01*
X465212Y242693D01*
X466038Y242059D01*
X467000Y241661D01*
X467631Y241578D01*
Y245112D01*
D02*
G37*
G36*
X457631D02*
X454097D01*
X454180Y244480D01*
X454579Y243518D01*
X455212Y242693D01*
X456038Y242059D01*
X457000Y241661D01*
X457631Y241578D01*
Y245112D01*
D02*
G37*
G36*
X447632D02*
X444097D01*
X444180Y244480D01*
X444579Y243518D01*
X445212Y242693D01*
X446038Y242059D01*
X447000Y241661D01*
X447632Y241578D01*
Y245112D01*
D02*
G37*
G36*
X437632D02*
X434097D01*
X434180Y244480D01*
X434579Y243518D01*
X435212Y242693D01*
X436038Y242059D01*
X437000Y241661D01*
X437632Y241578D01*
Y245112D01*
D02*
G37*
G36*
X427632D02*
X424097D01*
X424181Y244480D01*
X424579Y243518D01*
X425212Y242693D01*
X426038Y242059D01*
X427000Y241661D01*
X427632Y241578D01*
Y245112D01*
D02*
G37*
G36*
X417631D02*
X414097D01*
X414181Y244480D01*
X414579Y243518D01*
X415212Y242693D01*
X416038Y242059D01*
X417000Y241661D01*
X417631Y241578D01*
Y245112D01*
D02*
G37*
G36*
X407631D02*
X404097D01*
X404180Y244480D01*
X404579Y243518D01*
X405212Y242693D01*
X406038Y242059D01*
X407000Y241661D01*
X407631Y241578D01*
Y245112D01*
D02*
G37*
G36*
X388032Y259095D02*
X387104Y258973D01*
X386240Y258615D01*
X385498Y258046D01*
X384928Y257304D01*
X384570Y256439D01*
X384448Y255512D01*
X384570Y254584D01*
X384928Y253720D01*
X385498Y252978D01*
X386240Y252409D01*
X387104Y252050D01*
X388032Y251928D01*
X388959Y252050D01*
X389629Y252328D01*
X392857Y249100D01*
Y222481D01*
X392357Y222382D01*
X392080Y223052D01*
X391510Y223794D01*
X390768Y224363D01*
X389904Y224721D01*
X388976Y224843D01*
X388049Y224721D01*
X387185Y224363D01*
X386442Y223794D01*
X385873Y223052D01*
X385515Y222187D01*
X385393Y221260D01*
X385515Y220332D01*
X385873Y219468D01*
X386442Y218726D01*
X387185Y218157D01*
X388049Y217798D01*
X388976Y217676D01*
X389904Y217798D01*
X390768Y218157D01*
X391510Y218726D01*
X392080Y219468D01*
X392357Y220138D01*
X392857Y220039D01*
Y215512D01*
X392510Y214993D01*
X392347Y214173D01*
X392510Y213354D01*
X392974Y212659D01*
X393669Y212195D01*
X394488Y212032D01*
X395308Y212195D01*
X396002Y212659D01*
X396466Y213354D01*
X396629Y214173D01*
X396466Y214993D01*
X396002Y215687D01*
X395308Y216151D01*
X395100Y216193D01*
Y220027D01*
X395600Y220127D01*
X395873Y219468D01*
X396443Y218726D01*
X397185Y218157D01*
X398049Y217798D01*
X398976Y217676D01*
X399904Y217798D01*
X400768Y218157D01*
X401510Y218726D01*
X402080Y219468D01*
X402438Y220332D01*
X402560Y221260D01*
X402438Y222187D01*
X402080Y223052D01*
X401510Y223794D01*
X400768Y224363D01*
X399904Y224721D01*
X398976Y224843D01*
X398049Y224721D01*
X397185Y224363D01*
X396443Y223794D01*
X395873Y223052D01*
X395600Y222393D01*
X395100Y222493D01*
Y242148D01*
X395600Y242395D01*
X396038Y242059D01*
X397000Y241661D01*
X397632Y241578D01*
Y245512D01*
Y249446D01*
X397000Y249363D01*
X396038Y248965D01*
X395600Y248629D01*
X395100Y248875D01*
Y249565D01*
X395100Y249565D01*
X395015Y249994D01*
X394772Y250358D01*
X394772Y250358D01*
X391215Y253914D01*
X391493Y254584D01*
X391615Y255512D01*
X391493Y256439D01*
X391135Y257304D01*
X390565Y258046D01*
X389823Y258615D01*
X388959Y258973D01*
X388032Y259095D01*
D02*
G37*
G36*
X338032D02*
X337104Y258973D01*
X336240Y258615D01*
X335498Y258046D01*
X334928Y257304D01*
X334570Y256439D01*
X334448Y255512D01*
X334570Y254584D01*
X334928Y253720D01*
X335498Y252978D01*
X336240Y252409D01*
X337104Y252050D01*
X338032Y251928D01*
X338959Y252050D01*
X339629Y252328D01*
X342579Y249378D01*
Y223152D01*
X342080Y223052D01*
X341510Y223794D01*
X340768Y224363D01*
X339904Y224721D01*
X338976Y224843D01*
X338049Y224721D01*
X337185Y224363D01*
X336442Y223794D01*
X335873Y223052D01*
X335515Y222187D01*
X335393Y221260D01*
X335515Y220332D01*
X335873Y219468D01*
X336442Y218726D01*
X337185Y218157D01*
X338049Y217798D01*
X338976Y217676D01*
X339904Y217798D01*
X340768Y218157D01*
X341510Y218726D01*
X342080Y219468D01*
X342579Y219368D01*
Y215354D01*
X342579Y215354D01*
X342665Y214925D01*
X342839Y214665D01*
X342741Y214173D01*
X342904Y213354D01*
X343368Y212659D01*
X344062Y212195D01*
X344882Y212032D01*
X345701Y212195D01*
X346396Y212659D01*
X346860Y213354D01*
X347023Y214173D01*
X346860Y214993D01*
X346396Y215687D01*
X345701Y216151D01*
X344882Y216314D01*
X344822Y216363D01*
Y242444D01*
X345322Y242608D01*
X346038Y242059D01*
X347000Y241661D01*
X347632Y241578D01*
Y245512D01*
Y249446D01*
X347000Y249363D01*
X346038Y248965D01*
X345322Y248415D01*
X344822Y248579D01*
Y249843D01*
X344737Y250272D01*
X344494Y250636D01*
X344494Y250636D01*
X341215Y253914D01*
X341493Y254584D01*
X341615Y255512D01*
X341493Y256439D01*
X341135Y257304D01*
X340565Y258046D01*
X339823Y258615D01*
X338959Y258973D01*
X338032Y259095D01*
D02*
G37*
G36*
X337632Y245112D02*
X334097D01*
X334180Y244480D01*
X334579Y243518D01*
X335212Y242693D01*
X336038Y242059D01*
X337000Y241661D01*
X337632Y241578D01*
Y245112D01*
D02*
G37*
G36*
X327631D02*
X324097D01*
X324181Y244480D01*
X324579Y243518D01*
X325212Y242693D01*
X326038Y242059D01*
X327000Y241661D01*
X327631Y241578D01*
Y245112D01*
D02*
G37*
G36*
X317632D02*
X314097D01*
X314180Y244480D01*
X314579Y243518D01*
X315212Y242693D01*
X316038Y242059D01*
X317000Y241661D01*
X317632Y241578D01*
Y245112D01*
D02*
G37*
G36*
X233147Y242356D02*
X229613D01*
Y238822D01*
X230244Y238905D01*
X231206Y239303D01*
X232032Y239937D01*
X232665Y240762D01*
X233064Y241724D01*
X233147Y242356D01*
D02*
G37*
G36*
X223147D02*
X219613D01*
Y238822D01*
X220245Y238905D01*
X221206Y239303D01*
X222032Y239937D01*
X222665Y240762D01*
X223064Y241724D01*
X223147Y242356D01*
D02*
G37*
G36*
X213147D02*
X209613D01*
Y238822D01*
X210244Y238905D01*
X211206Y239303D01*
X212032Y239937D01*
X212665Y240762D01*
X213064Y241724D01*
X213147Y242356D01*
D02*
G37*
G36*
X203147D02*
X199613D01*
Y238822D01*
X200244Y238905D01*
X201206Y239303D01*
X202032Y239937D01*
X202665Y240762D01*
X203064Y241724D01*
X203147Y242356D01*
D02*
G37*
G36*
X193147D02*
X189613D01*
Y238822D01*
X190244Y238905D01*
X191206Y239303D01*
X192032Y239937D01*
X192665Y240762D01*
X193064Y241724D01*
X193147Y242356D01*
D02*
G37*
G36*
X183147D02*
X179613D01*
Y238822D01*
X180245Y238905D01*
X181206Y239303D01*
X182032Y239937D01*
X182665Y240762D01*
X183064Y241724D01*
X183147Y242356D01*
D02*
G37*
G36*
X173147D02*
X169613D01*
Y238822D01*
X170245Y238905D01*
X171206Y239303D01*
X172032Y239937D01*
X172665Y240762D01*
X173064Y241724D01*
X173147Y242356D01*
D02*
G37*
G36*
X163147D02*
X159613D01*
Y238822D01*
X160245Y238905D01*
X161206Y239303D01*
X162032Y239937D01*
X162665Y240762D01*
X163064Y241724D01*
X163147Y242356D01*
D02*
G37*
G36*
X228813D02*
X225278D01*
X225362Y241724D01*
X225760Y240762D01*
X226394Y239937D01*
X227219Y239303D01*
X228181Y238905D01*
X228813Y238822D01*
Y242356D01*
D02*
G37*
G36*
X218813D02*
X215278D01*
X215362Y241724D01*
X215760Y240762D01*
X216393Y239937D01*
X217219Y239303D01*
X218181Y238905D01*
X218813Y238822D01*
Y242356D01*
D02*
G37*
G36*
X208813D02*
X205278D01*
X205362Y241724D01*
X205760Y240762D01*
X206394Y239937D01*
X207219Y239303D01*
X208181Y238905D01*
X208813Y238822D01*
Y242356D01*
D02*
G37*
G36*
X198813D02*
X195278D01*
X195362Y241724D01*
X195760Y240762D01*
X196394Y239937D01*
X197219Y239303D01*
X198181Y238905D01*
X198813Y238822D01*
Y242356D01*
D02*
G37*
G36*
X188813D02*
X185278D01*
X185362Y241724D01*
X185760Y240762D01*
X186393Y239937D01*
X187219Y239303D01*
X188181Y238905D01*
X188813Y238822D01*
Y242356D01*
D02*
G37*
G36*
X178813D02*
X175278D01*
X175362Y241724D01*
X175760Y240762D01*
X176393Y239937D01*
X177219Y239303D01*
X178181Y238905D01*
X178813Y238822D01*
Y242356D01*
D02*
G37*
G36*
X168813D02*
X165278D01*
X165362Y241724D01*
X165760Y240762D01*
X166393Y239937D01*
X167219Y239303D01*
X168181Y238905D01*
X168813Y238822D01*
Y242356D01*
D02*
G37*
G36*
X158813D02*
X155278D01*
X155362Y241724D01*
X155760Y240762D01*
X156394Y239937D01*
X157219Y239303D01*
X158181Y238905D01*
X158813Y238822D01*
Y242356D01*
D02*
G37*
G36*
X469376Y225194D02*
Y221660D01*
X472911D01*
X472827Y222292D01*
X472429Y223253D01*
X471796Y224079D01*
X470970Y224713D01*
X470008Y225111D01*
X469376Y225194D01*
D02*
G37*
G36*
X449376D02*
Y221660D01*
X452911D01*
X452827Y222292D01*
X452429Y223253D01*
X451795Y224079D01*
X450970Y224713D01*
X450008Y225111D01*
X449376Y225194D01*
D02*
G37*
G36*
X468576D02*
X467944Y225111D01*
X466983Y224713D01*
X466157Y224079D01*
X465524Y223253D01*
X465125Y222292D01*
X465042Y221660D01*
X468576D01*
Y225194D01*
D02*
G37*
G36*
X448576D02*
X447944Y225111D01*
X446983Y224713D01*
X446157Y224079D01*
X445524Y223253D01*
X445125Y222292D01*
X445042Y221660D01*
X448576D01*
Y225194D01*
D02*
G37*
G36*
X458976Y224843D02*
X458049Y224721D01*
X457185Y224363D01*
X456442Y223794D01*
X455873Y223052D01*
X455515Y222187D01*
X455393Y221260D01*
X455515Y220332D01*
X455873Y219468D01*
X456442Y218726D01*
X457185Y218157D01*
X458049Y217798D01*
X458976Y217676D01*
X459904Y217798D01*
X460768Y218157D01*
X461510Y218726D01*
X462080Y219468D01*
X462438Y220332D01*
X462560Y221260D01*
X462438Y222187D01*
X462080Y223052D01*
X461510Y223794D01*
X460768Y224363D01*
X459904Y224721D01*
X458976Y224843D01*
D02*
G37*
G36*
X438976D02*
X438049Y224721D01*
X437185Y224363D01*
X436443Y223794D01*
X435873Y223052D01*
X435515Y222187D01*
X435393Y221260D01*
X435515Y220332D01*
X435873Y219468D01*
X436443Y218726D01*
X437185Y218157D01*
X438049Y217798D01*
X438976Y217676D01*
X439904Y217798D01*
X440768Y218157D01*
X441510Y218726D01*
X442080Y219468D01*
X442438Y220332D01*
X442560Y221260D01*
X442438Y222187D01*
X442080Y223052D01*
X441510Y223794D01*
X440768Y224363D01*
X439904Y224721D01*
X438976Y224843D01*
D02*
G37*
G36*
X428976D02*
X428049Y224721D01*
X427185Y224363D01*
X426442Y223794D01*
X425873Y223052D01*
X425515Y222187D01*
X425393Y221260D01*
X425515Y220332D01*
X425873Y219468D01*
X426442Y218726D01*
X427185Y218157D01*
X428049Y217798D01*
X428976Y217676D01*
X429904Y217798D01*
X430768Y218157D01*
X431510Y218726D01*
X432080Y219468D01*
X432438Y220332D01*
X432560Y221260D01*
X432438Y222187D01*
X432080Y223052D01*
X431510Y223794D01*
X430768Y224363D01*
X429904Y224721D01*
X428976Y224843D01*
D02*
G37*
G36*
X418976D02*
X418049Y224721D01*
X417185Y224363D01*
X416442Y223794D01*
X415873Y223052D01*
X415515Y222187D01*
X415393Y221260D01*
X415515Y220332D01*
X415873Y219468D01*
X416442Y218726D01*
X417185Y218157D01*
X418049Y217798D01*
X418976Y217676D01*
X419904Y217798D01*
X420768Y218157D01*
X421510Y218726D01*
X422080Y219468D01*
X422438Y220332D01*
X422560Y221260D01*
X422438Y222187D01*
X422080Y223052D01*
X421510Y223794D01*
X420768Y224363D01*
X419904Y224721D01*
X418976Y224843D01*
D02*
G37*
G36*
X408976D02*
X408049Y224721D01*
X407185Y224363D01*
X406442Y223794D01*
X405873Y223052D01*
X405515Y222187D01*
X405393Y221260D01*
X405515Y220332D01*
X405873Y219468D01*
X406442Y218726D01*
X407185Y218157D01*
X408049Y217798D01*
X408976Y217676D01*
X409904Y217798D01*
X410768Y218157D01*
X411510Y218726D01*
X412080Y219468D01*
X412438Y220332D01*
X412560Y221260D01*
X412438Y222187D01*
X412080Y223052D01*
X411510Y223794D01*
X410768Y224363D01*
X409904Y224721D01*
X408976Y224843D01*
D02*
G37*
G36*
X472911Y220860D02*
X469376D01*
Y217326D01*
X470008Y217409D01*
X470970Y217807D01*
X471796Y218441D01*
X472429Y219266D01*
X472827Y220228D01*
X472911Y220860D01*
D02*
G37*
G36*
X452911D02*
X449376D01*
Y217326D01*
X450008Y217409D01*
X450970Y217807D01*
X451795Y218441D01*
X452429Y219266D01*
X452827Y220228D01*
X452911Y220860D01*
D02*
G37*
G36*
X468576D02*
X465042D01*
X465125Y220228D01*
X465524Y219266D01*
X466157Y218441D01*
X466983Y217807D01*
X467944Y217409D01*
X468576Y217326D01*
Y220860D01*
D02*
G37*
G36*
X448576D02*
X445042D01*
X445125Y220228D01*
X445524Y219266D01*
X446157Y218441D01*
X446983Y217807D01*
X447944Y217409D01*
X448576Y217326D01*
Y220860D01*
D02*
G37*
G36*
X638510Y220470D02*
Y216935D01*
X642044D01*
X641961Y217567D01*
X641563Y218529D01*
X640929Y219355D01*
X640104Y219988D01*
X639142Y220386D01*
X638510Y220470D01*
D02*
G37*
G36*
X628510D02*
Y216935D01*
X632044D01*
X631961Y217567D01*
X631563Y218529D01*
X630929Y219355D01*
X630104Y219988D01*
X629142Y220386D01*
X628510Y220470D01*
D02*
G37*
G36*
X637710D02*
X637078Y220386D01*
X636117Y219988D01*
X635291Y219355D01*
X634657Y218529D01*
X634259Y217567D01*
X634176Y216935D01*
X637710D01*
Y220470D01*
D02*
G37*
G36*
X627710D02*
X627078Y220386D01*
X626117Y219988D01*
X625291Y219355D01*
X624657Y218529D01*
X624259Y217567D01*
X624176Y216935D01*
X627710D01*
Y220470D01*
D02*
G37*
G36*
X648110Y220119D02*
X647183Y219997D01*
X646318Y219639D01*
X645576Y219069D01*
X645007Y218327D01*
X644649Y217463D01*
X644527Y216535D01*
X644649Y215608D01*
X645007Y214744D01*
X645576Y214002D01*
X646318Y213432D01*
X647183Y213074D01*
X648110Y212952D01*
X649038Y213074D01*
X649902Y213432D01*
X650644Y214002D01*
X651214Y214744D01*
X651572Y215608D01*
X651694Y216535D01*
X651572Y217463D01*
X651214Y218327D01*
X650644Y219069D01*
X649902Y219639D01*
X649038Y219997D01*
X648110Y220119D01*
D02*
G37*
G36*
X618110D02*
X617183Y219997D01*
X616319Y219639D01*
X615576Y219069D01*
X615007Y218327D01*
X614649Y217463D01*
X614527Y216535D01*
X614649Y215608D01*
X615007Y214744D01*
X615576Y214002D01*
X616319Y213432D01*
X617183Y213074D01*
X618110Y212952D01*
X619038Y213074D01*
X619902Y213432D01*
X620644Y214002D01*
X621214Y214744D01*
X621572Y215608D01*
X621694Y216535D01*
X621572Y217463D01*
X621214Y218327D01*
X620644Y219069D01*
X619902Y219639D01*
X619038Y219997D01*
X618110Y220119D01*
D02*
G37*
G36*
X608110D02*
X607183Y219997D01*
X606319Y219639D01*
X605576Y219069D01*
X605007Y218327D01*
X604649Y217463D01*
X604527Y216535D01*
X604649Y215608D01*
X605007Y214744D01*
X605576Y214002D01*
X606319Y213432D01*
X607183Y213074D01*
X608110Y212952D01*
X609038Y213074D01*
X609902Y213432D01*
X610644Y214002D01*
X611214Y214744D01*
X611572Y215608D01*
X611694Y216535D01*
X611572Y217463D01*
X611214Y218327D01*
X610644Y219069D01*
X609902Y219639D01*
X609038Y219997D01*
X608110Y220119D01*
D02*
G37*
G36*
X598110D02*
X597183Y219997D01*
X596318Y219639D01*
X595576Y219069D01*
X595007Y218327D01*
X594649Y217463D01*
X594527Y216535D01*
X594649Y215608D01*
X595007Y214744D01*
X595576Y214002D01*
X596318Y213432D01*
X597183Y213074D01*
X598110Y212952D01*
X599038Y213074D01*
X599902Y213432D01*
X600644Y214002D01*
X601214Y214744D01*
X601572Y215608D01*
X601694Y216535D01*
X601572Y217463D01*
X601214Y218327D01*
X600644Y219069D01*
X599902Y219639D01*
X599038Y219997D01*
X598110Y220119D01*
D02*
G37*
G36*
X588110D02*
X587183Y219997D01*
X586318Y219639D01*
X585576Y219069D01*
X585007Y218327D01*
X584649Y217463D01*
X584527Y216535D01*
X584649Y215608D01*
X585007Y214744D01*
X585576Y214002D01*
X586318Y213432D01*
X587183Y213074D01*
X588110Y212952D01*
X589038Y213074D01*
X589902Y213432D01*
X590644Y214002D01*
X591214Y214744D01*
X591572Y215608D01*
X591694Y216535D01*
X591572Y217463D01*
X591214Y218327D01*
X590644Y219069D01*
X589902Y219639D01*
X589038Y219997D01*
X588110Y220119D01*
D02*
G37*
G36*
X578110D02*
X577183Y219997D01*
X576319Y219639D01*
X575576Y219069D01*
X575007Y218327D01*
X574649Y217463D01*
X574527Y216535D01*
X574649Y215608D01*
X575007Y214744D01*
X575576Y214002D01*
X576319Y213432D01*
X577183Y213074D01*
X578110Y212952D01*
X579038Y213074D01*
X579902Y213432D01*
X580644Y214002D01*
X581214Y214744D01*
X581572Y215608D01*
X581694Y216535D01*
X581572Y217463D01*
X581214Y218327D01*
X580644Y219069D01*
X579902Y219639D01*
X579038Y219997D01*
X578110Y220119D01*
D02*
G37*
G36*
X538583Y239543D02*
X537763Y239380D01*
X537069Y238916D01*
X536604Y238221D01*
X536442Y237402D01*
X536604Y236582D01*
X537069Y235888D01*
X537763Y235423D01*
X538583Y235260D01*
X539046Y235352D01*
X552422Y221976D01*
Y209843D01*
X552422Y209842D01*
X552507Y209413D01*
X552750Y209049D01*
X554250Y207550D01*
X554158Y207087D01*
X554321Y206267D01*
X554785Y205573D01*
X555480Y205108D01*
X556299Y204945D01*
X557119Y205108D01*
X557813Y205573D01*
X558277Y206267D01*
X558440Y207087D01*
X558277Y207906D01*
X557813Y208601D01*
X557119Y209065D01*
X556299Y209228D01*
X555836Y209136D01*
X554665Y210307D01*
Y214368D01*
X555165Y214538D01*
X555576Y214002D01*
X556319Y213432D01*
X557183Y213074D01*
X558110Y212952D01*
X559038Y213074D01*
X559902Y213432D01*
X560644Y214002D01*
X561214Y214744D01*
X561572Y215608D01*
X561694Y216535D01*
X561572Y217463D01*
X561214Y218327D01*
X560644Y219069D01*
X559902Y219639D01*
X559038Y219997D01*
X558110Y220119D01*
X557183Y219997D01*
X556319Y219639D01*
X555576Y219069D01*
X555165Y218533D01*
X554665Y218703D01*
Y222441D01*
X554665Y222441D01*
X554579Y222870D01*
X554336Y223234D01*
X554336Y223234D01*
X540632Y236939D01*
X540724Y237402D01*
X540561Y238221D01*
X540097Y238916D01*
X539402Y239380D01*
X538583Y239543D01*
D02*
G37*
G36*
X548110Y220119D02*
X547183Y219997D01*
X546318Y219639D01*
X545576Y219069D01*
X545007Y218327D01*
X544649Y217463D01*
X544527Y216535D01*
X544649Y215608D01*
X545007Y214744D01*
X545576Y214002D01*
X546318Y213432D01*
X547183Y213074D01*
X548110Y212952D01*
X549038Y213074D01*
X549902Y213432D01*
X550644Y214002D01*
X551214Y214744D01*
X551572Y215608D01*
X551694Y216535D01*
X551572Y217463D01*
X551214Y218327D01*
X550644Y219069D01*
X549902Y219639D01*
X549038Y219997D01*
X548110Y220119D01*
D02*
G37*
G36*
X520079Y228519D02*
X519259Y228356D01*
X518565Y227892D01*
X518101Y227197D01*
X517938Y226378D01*
X518101Y225559D01*
X518565Y224864D01*
X519259Y224400D01*
X520079Y224237D01*
X520542Y224329D01*
X522894Y221976D01*
Y209055D01*
X522894Y209055D01*
X522980Y208626D01*
X523223Y208262D01*
X526372Y205113D01*
X526372Y205112D01*
X526736Y204869D01*
X527165Y204784D01*
X527165Y204784D01*
X530114D01*
X530376Y204392D01*
X531070Y203927D01*
X531890Y203764D01*
X532709Y203927D01*
X533404Y204392D01*
X533868Y205086D01*
X534031Y205906D01*
X533868Y206725D01*
X533404Y207419D01*
X532709Y207884D01*
X531890Y208047D01*
X531070Y207884D01*
X530376Y207419D01*
X530114Y207027D01*
X527630D01*
X525137Y209520D01*
Y213838D01*
X525637Y213955D01*
X526319Y213432D01*
X527183Y213074D01*
X528110Y212952D01*
X529038Y213074D01*
X529902Y213432D01*
X530644Y214002D01*
X531214Y214744D01*
X531572Y215608D01*
X531694Y216535D01*
X531572Y217463D01*
X531214Y218327D01*
X530644Y219069D01*
X529902Y219639D01*
X529038Y219997D01*
X528110Y220119D01*
X527183Y219997D01*
X526319Y219639D01*
X525637Y219116D01*
X525137Y219233D01*
Y222441D01*
X525052Y222870D01*
X524809Y223234D01*
X524809Y223234D01*
X522128Y225915D01*
X522220Y226378D01*
X522057Y227197D01*
X521593Y227892D01*
X520898Y228356D01*
X520079Y228519D01*
D02*
G37*
G36*
X518110Y220119D02*
X517183Y219997D01*
X516319Y219639D01*
X515576Y219069D01*
X515007Y218327D01*
X514649Y217463D01*
X514527Y216535D01*
X514649Y215608D01*
X515007Y214744D01*
X515576Y214002D01*
X516319Y213432D01*
X517183Y213074D01*
X518110Y212952D01*
X519038Y213074D01*
X519902Y213432D01*
X520644Y214002D01*
X521214Y214744D01*
X521572Y215608D01*
X521694Y216535D01*
X521572Y217463D01*
X521214Y218327D01*
X520644Y219069D01*
X519902Y219639D01*
X519038Y219997D01*
X518110Y220119D01*
D02*
G37*
G36*
X642044Y216135D02*
X638510D01*
Y212601D01*
X639142Y212684D01*
X640104Y213083D01*
X640929Y213716D01*
X641563Y214542D01*
X641961Y215504D01*
X642044Y216135D01*
D02*
G37*
G36*
X632044D02*
X628510D01*
Y212601D01*
X629142Y212684D01*
X630104Y213083D01*
X630929Y213716D01*
X631563Y214542D01*
X631961Y215504D01*
X632044Y216135D01*
D02*
G37*
G36*
X637710D02*
X634176D01*
X634259Y215504D01*
X634657Y214542D01*
X635291Y213716D01*
X636117Y213083D01*
X637078Y212684D01*
X637710Y212601D01*
Y216135D01*
D02*
G37*
G36*
X627710D02*
X624176D01*
X624259Y215504D01*
X624657Y214542D01*
X625291Y213716D01*
X626117Y213083D01*
X627078Y212684D01*
X627710Y212601D01*
Y216135D01*
D02*
G37*
G36*
X525197Y230881D02*
X524377Y230718D01*
X523683Y230254D01*
X523219Y229559D01*
X523056Y228740D01*
X523219Y227921D01*
X523683Y227226D01*
X524377Y226762D01*
X525197Y226599D01*
X526016Y226762D01*
X526711Y227226D01*
X526973Y227619D01*
X531172D01*
X538225Y220566D01*
X537982Y220102D01*
X537183Y219997D01*
X536318Y219639D01*
X535576Y219069D01*
X535007Y218327D01*
X534649Y217463D01*
X534527Y216535D01*
X534649Y215608D01*
X535007Y214744D01*
X535576Y214002D01*
X536318Y213432D01*
X537183Y213074D01*
X538110Y212952D01*
X539038Y213074D01*
X539902Y213432D01*
X540541Y213923D01*
X541041Y213766D01*
Y210987D01*
X541041Y210987D01*
X541127Y210557D01*
X541370Y210193D01*
X543620Y207943D01*
X543528Y207480D01*
X543691Y206661D01*
X544155Y205966D01*
X544850Y205502D01*
X545669Y205339D01*
X546489Y205502D01*
X547183Y205966D01*
X547647Y206661D01*
X547810Y207480D01*
X547647Y208300D01*
X547183Y208994D01*
X546489Y209458D01*
X545669Y209622D01*
X545206Y209529D01*
X543285Y211451D01*
Y218214D01*
X543199Y218643D01*
X542956Y219007D01*
X542956Y219007D01*
X532430Y229533D01*
X532066Y229776D01*
X531637Y229862D01*
X531637Y229862D01*
X526973D01*
X526711Y230254D01*
X526016Y230718D01*
X525197Y230881D01*
D02*
G37*
G36*
X429376Y195194D02*
Y191660D01*
X432911D01*
X432827Y192292D01*
X432429Y193253D01*
X431796Y194079D01*
X430970Y194713D01*
X430008Y195111D01*
X429376Y195194D01*
D02*
G37*
G36*
X428576D02*
X427945Y195111D01*
X426983Y194713D01*
X426157Y194079D01*
X425524Y193253D01*
X425125Y192292D01*
X425042Y191660D01*
X428576D01*
Y195194D01*
D02*
G37*
G36*
X342529Y194813D02*
X335424D01*
Y187707D01*
X342529D01*
Y194813D01*
D02*
G37*
G36*
X468976Y194843D02*
X468049Y194721D01*
X467185Y194363D01*
X466442Y193794D01*
X465873Y193052D01*
X465515Y192187D01*
X465393Y191260D01*
X465515Y190332D01*
X465873Y189468D01*
X466442Y188726D01*
X467185Y188156D01*
X468049Y187799D01*
X468976Y187676D01*
X469904Y187799D01*
X470768Y188156D01*
X471510Y188726D01*
X472080Y189468D01*
X472438Y190332D01*
X472560Y191260D01*
X472438Y192187D01*
X472080Y193052D01*
X471510Y193794D01*
X470768Y194363D01*
X469904Y194721D01*
X468976Y194843D01*
D02*
G37*
G36*
X438976D02*
X438049Y194721D01*
X437185Y194363D01*
X436443Y193794D01*
X435873Y193052D01*
X435515Y192187D01*
X435393Y191260D01*
X435515Y190332D01*
X435873Y189468D01*
X436443Y188726D01*
X437185Y188156D01*
X438049Y187799D01*
X438976Y187676D01*
X439904Y187799D01*
X440768Y188156D01*
X441510Y188726D01*
X442080Y189468D01*
X442438Y190332D01*
X442560Y191260D01*
X442438Y192187D01*
X442080Y193052D01*
X441510Y193794D01*
X440768Y194363D01*
X439904Y194721D01*
X438976Y194843D01*
D02*
G37*
G36*
X418976D02*
X418049Y194721D01*
X417185Y194363D01*
X416442Y193794D01*
X415873Y193052D01*
X415515Y192187D01*
X415393Y191260D01*
X415515Y190332D01*
X415873Y189468D01*
X416442Y188726D01*
X417185Y188156D01*
X418049Y187799D01*
X418976Y187676D01*
X419904Y187799D01*
X420768Y188156D01*
X421510Y188726D01*
X422080Y189468D01*
X422438Y190332D01*
X422560Y191260D01*
X422438Y192187D01*
X422080Y193052D01*
X421510Y193794D01*
X420768Y194363D01*
X419904Y194721D01*
X418976Y194843D01*
D02*
G37*
G36*
X408976D02*
X408049Y194721D01*
X407185Y194363D01*
X406442Y193794D01*
X405873Y193052D01*
X405515Y192187D01*
X405393Y191260D01*
X405515Y190332D01*
X405873Y189468D01*
X406442Y188726D01*
X407185Y188156D01*
X408049Y187799D01*
X408976Y187676D01*
X409904Y187799D01*
X410768Y188156D01*
X411510Y188726D01*
X412080Y189468D01*
X412438Y190332D01*
X412560Y191260D01*
X412438Y192187D01*
X412080Y193052D01*
X411510Y193794D01*
X410768Y194363D01*
X409904Y194721D01*
X408976Y194843D01*
D02*
G37*
G36*
X398976D02*
X398049Y194721D01*
X397185Y194363D01*
X396443Y193794D01*
X395873Y193052D01*
X395515Y192187D01*
X395393Y191260D01*
X395515Y190332D01*
X395873Y189468D01*
X396443Y188726D01*
X397185Y188156D01*
X398049Y187799D01*
X398976Y187676D01*
X399904Y187799D01*
X400768Y188156D01*
X401510Y188726D01*
X402080Y189468D01*
X402438Y190332D01*
X402560Y191260D01*
X402438Y192187D01*
X402080Y193052D01*
X401510Y193794D01*
X400768Y194363D01*
X399904Y194721D01*
X398976Y194843D01*
D02*
G37*
G36*
X388976D02*
X388049Y194721D01*
X387185Y194363D01*
X386442Y193794D01*
X385873Y193052D01*
X385515Y192187D01*
X385393Y191260D01*
X385515Y190332D01*
X385873Y189468D01*
X386442Y188726D01*
X387185Y188156D01*
X388049Y187799D01*
X388976Y187676D01*
X389904Y187799D01*
X390768Y188156D01*
X391510Y188726D01*
X392080Y189468D01*
X392438Y190332D01*
X392560Y191260D01*
X392438Y192187D01*
X392080Y193052D01*
X391510Y193794D01*
X390768Y194363D01*
X389904Y194721D01*
X388976Y194843D01*
D02*
G37*
G36*
X378976D02*
X378049Y194721D01*
X377185Y194363D01*
X376443Y193794D01*
X375873Y193052D01*
X375515Y192187D01*
X375393Y191260D01*
X375515Y190332D01*
X375873Y189468D01*
X376443Y188726D01*
X377185Y188156D01*
X378049Y187799D01*
X378976Y187676D01*
X379904Y187799D01*
X380768Y188156D01*
X381510Y188726D01*
X382080Y189468D01*
X382438Y190332D01*
X382560Y191260D01*
X382438Y192187D01*
X382080Y193052D01*
X381510Y193794D01*
X380768Y194363D01*
X379904Y194721D01*
X378976Y194843D01*
D02*
G37*
G36*
X368976D02*
X368049Y194721D01*
X367185Y194363D01*
X366442Y193794D01*
X365873Y193052D01*
X365515Y192187D01*
X365393Y191260D01*
X365515Y190332D01*
X365873Y189468D01*
X366442Y188726D01*
X367185Y188156D01*
X368049Y187799D01*
X368976Y187676D01*
X369904Y187799D01*
X370768Y188156D01*
X371510Y188726D01*
X372080Y189468D01*
X372438Y190332D01*
X372560Y191260D01*
X372438Y192187D01*
X372080Y193052D01*
X371510Y193794D01*
X370768Y194363D01*
X369904Y194721D01*
X368976Y194843D01*
D02*
G37*
G36*
X358976D02*
X358049Y194721D01*
X357185Y194363D01*
X356442Y193794D01*
X355873Y193052D01*
X355515Y192187D01*
X355393Y191260D01*
X355515Y190332D01*
X355873Y189468D01*
X356442Y188726D01*
X357185Y188156D01*
X358049Y187799D01*
X358976Y187676D01*
X359904Y187799D01*
X360768Y188156D01*
X361510Y188726D01*
X362080Y189468D01*
X362438Y190332D01*
X362560Y191260D01*
X362438Y192187D01*
X362080Y193052D01*
X361510Y193794D01*
X360768Y194363D01*
X359904Y194721D01*
X358976Y194843D01*
D02*
G37*
G36*
X348976D02*
X348049Y194721D01*
X347185Y194363D01*
X346443Y193794D01*
X345873Y193052D01*
X345515Y192187D01*
X345393Y191260D01*
X345515Y190332D01*
X345873Y189468D01*
X346443Y188726D01*
X347185Y188156D01*
X348049Y187799D01*
X348976Y187676D01*
X349904Y187799D01*
X350768Y188156D01*
X351510Y188726D01*
X352080Y189468D01*
X352438Y190332D01*
X352560Y191260D01*
X352438Y192187D01*
X352080Y193052D01*
X351510Y193794D01*
X350768Y194363D01*
X349904Y194721D01*
X348976Y194843D01*
D02*
G37*
G36*
X432911Y190860D02*
X429376D01*
Y187326D01*
X430008Y187409D01*
X430970Y187807D01*
X431796Y188441D01*
X432429Y189266D01*
X432827Y190228D01*
X432911Y190860D01*
D02*
G37*
G36*
X428576D02*
X425042D01*
X425125Y190228D01*
X425524Y189266D01*
X426157Y188441D01*
X426983Y187807D01*
X427945Y187409D01*
X428576Y187326D01*
Y190860D01*
D02*
G37*
G36*
X608510Y190470D02*
Y186935D01*
X612044D01*
X611961Y187567D01*
X611563Y188529D01*
X610929Y189355D01*
X610104Y189988D01*
X609142Y190386D01*
X608510Y190470D01*
D02*
G37*
G36*
X607710D02*
X607078Y190386D01*
X606117Y189988D01*
X605291Y189355D01*
X604658Y188529D01*
X604259Y187567D01*
X604176Y186935D01*
X607710D01*
Y190470D01*
D02*
G37*
G36*
X521663Y190088D02*
X514558D01*
Y182983D01*
X521663D01*
Y190088D01*
D02*
G37*
G36*
X648110Y190119D02*
X647183Y189997D01*
X646318Y189639D01*
X645576Y189069D01*
X645007Y188327D01*
X644649Y187463D01*
X644527Y186535D01*
X644649Y185608D01*
X645007Y184744D01*
X645576Y184002D01*
X646318Y183432D01*
X647183Y183074D01*
X648110Y182952D01*
X649038Y183074D01*
X649902Y183432D01*
X650644Y184002D01*
X651214Y184744D01*
X651572Y185608D01*
X651694Y186535D01*
X651572Y187463D01*
X651214Y188327D01*
X650644Y189069D01*
X649902Y189639D01*
X649038Y189997D01*
X648110Y190119D01*
D02*
G37*
G36*
X618110D02*
X617183Y189997D01*
X616319Y189639D01*
X615576Y189069D01*
X615007Y188327D01*
X614649Y187463D01*
X614527Y186535D01*
X614649Y185608D01*
X615007Y184744D01*
X615576Y184002D01*
X616319Y183432D01*
X617183Y183074D01*
X618110Y182952D01*
X619038Y183074D01*
X619902Y183432D01*
X620644Y184002D01*
X621214Y184744D01*
X621572Y185608D01*
X621694Y186535D01*
X621572Y187463D01*
X621214Y188327D01*
X620644Y189069D01*
X619902Y189639D01*
X619038Y189997D01*
X618110Y190119D01*
D02*
G37*
G36*
X598110D02*
X597183Y189997D01*
X596318Y189639D01*
X595576Y189069D01*
X595007Y188327D01*
X594649Y187463D01*
X594527Y186535D01*
X594649Y185608D01*
X595007Y184744D01*
X595576Y184002D01*
X596318Y183432D01*
X597183Y183074D01*
X598110Y182952D01*
X599038Y183074D01*
X599902Y183432D01*
X600644Y184002D01*
X601214Y184744D01*
X601572Y185608D01*
X601694Y186535D01*
X601572Y187463D01*
X601214Y188327D01*
X600644Y189069D01*
X599902Y189639D01*
X599038Y189997D01*
X598110Y190119D01*
D02*
G37*
G36*
X588110D02*
X587183Y189997D01*
X586318Y189639D01*
X585576Y189069D01*
X585007Y188327D01*
X584649Y187463D01*
X584527Y186535D01*
X584649Y185608D01*
X585007Y184744D01*
X585576Y184002D01*
X586318Y183432D01*
X587183Y183074D01*
X588110Y182952D01*
X589038Y183074D01*
X589902Y183432D01*
X590644Y184002D01*
X591214Y184744D01*
X591572Y185608D01*
X591694Y186535D01*
X591572Y187463D01*
X591214Y188327D01*
X590644Y189069D01*
X589902Y189639D01*
X589038Y189997D01*
X588110Y190119D01*
D02*
G37*
G36*
X578110D02*
X577183Y189997D01*
X576319Y189639D01*
X575576Y189069D01*
X575007Y188327D01*
X574649Y187463D01*
X574527Y186535D01*
X574649Y185608D01*
X575007Y184744D01*
X575576Y184002D01*
X576319Y183432D01*
X577183Y183074D01*
X578110Y182952D01*
X579038Y183074D01*
X579902Y183432D01*
X580644Y184002D01*
X581214Y184744D01*
X581572Y185608D01*
X581694Y186535D01*
X581572Y187463D01*
X581214Y188327D01*
X580644Y189069D01*
X579902Y189639D01*
X579038Y189997D01*
X578110Y190119D01*
D02*
G37*
G36*
X568110D02*
X567183Y189997D01*
X566319Y189639D01*
X565576Y189069D01*
X565007Y188327D01*
X564649Y187463D01*
X564527Y186535D01*
X564649Y185608D01*
X565007Y184744D01*
X565576Y184002D01*
X566319Y183432D01*
X567183Y183074D01*
X568110Y182952D01*
X569038Y183074D01*
X569902Y183432D01*
X570644Y184002D01*
X571214Y184744D01*
X571572Y185608D01*
X571694Y186535D01*
X571572Y187463D01*
X571214Y188327D01*
X570644Y189069D01*
X569902Y189639D01*
X569038Y189997D01*
X568110Y190119D01*
D02*
G37*
G36*
X558110D02*
X557183Y189997D01*
X556319Y189639D01*
X555576Y189069D01*
X555007Y188327D01*
X554649Y187463D01*
X554527Y186535D01*
X554649Y185608D01*
X555007Y184744D01*
X555576Y184002D01*
X556319Y183432D01*
X557183Y183074D01*
X558110Y182952D01*
X559038Y183074D01*
X559902Y183432D01*
X560644Y184002D01*
X561214Y184744D01*
X561572Y185608D01*
X561694Y186535D01*
X561572Y187463D01*
X561214Y188327D01*
X560644Y189069D01*
X559902Y189639D01*
X559038Y189997D01*
X558110Y190119D01*
D02*
G37*
G36*
X548110D02*
X547183Y189997D01*
X546318Y189639D01*
X545576Y189069D01*
X545007Y188327D01*
X544649Y187463D01*
X544527Y186535D01*
X544649Y185608D01*
X545007Y184744D01*
X545576Y184002D01*
X546318Y183432D01*
X547183Y183074D01*
X548110Y182952D01*
X549038Y183074D01*
X549902Y183432D01*
X550644Y184002D01*
X551214Y184744D01*
X551572Y185608D01*
X551694Y186535D01*
X551572Y187463D01*
X551214Y188327D01*
X550644Y189069D01*
X549902Y189639D01*
X549038Y189997D01*
X548110Y190119D01*
D02*
G37*
G36*
X538110D02*
X537183Y189997D01*
X536318Y189639D01*
X535576Y189069D01*
X535007Y188327D01*
X534649Y187463D01*
X534527Y186535D01*
X534649Y185608D01*
X535007Y184744D01*
X535576Y184002D01*
X536318Y183432D01*
X537183Y183074D01*
X538110Y182952D01*
X539038Y183074D01*
X539902Y183432D01*
X540644Y184002D01*
X541214Y184744D01*
X541572Y185608D01*
X541694Y186535D01*
X541572Y187463D01*
X541214Y188327D01*
X540644Y189069D01*
X539902Y189639D01*
X539038Y189997D01*
X538110Y190119D01*
D02*
G37*
G36*
X528110D02*
X527183Y189997D01*
X526319Y189639D01*
X525576Y189069D01*
X525007Y188327D01*
X524649Y187463D01*
X524527Y186535D01*
X524649Y185608D01*
X525007Y184744D01*
X525576Y184002D01*
X526319Y183432D01*
X527183Y183074D01*
X528110Y182952D01*
X529038Y183074D01*
X529902Y183432D01*
X530644Y184002D01*
X531214Y184744D01*
X531572Y185608D01*
X531694Y186535D01*
X531572Y187463D01*
X531214Y188327D01*
X530644Y189069D01*
X529902Y189639D01*
X529038Y189997D01*
X528110Y190119D01*
D02*
G37*
G36*
X612044Y186135D02*
X608510D01*
Y182601D01*
X609142Y182684D01*
X610104Y183083D01*
X610929Y183716D01*
X611563Y184542D01*
X611961Y185503D01*
X612044Y186135D01*
D02*
G37*
G36*
X607710D02*
X604176D01*
X604259Y185503D01*
X604658Y184542D01*
X605291Y183716D01*
X606117Y183083D01*
X607078Y182684D01*
X607710Y182601D01*
Y186135D01*
D02*
G37*
G36*
X458668Y181935D02*
Y178353D01*
X462250D01*
X462165Y178997D01*
X461762Y179970D01*
X461121Y180806D01*
X460285Y181447D01*
X459312Y181850D01*
X458668Y181935D01*
D02*
G37*
G36*
X457868D02*
X457224Y181850D01*
X456250Y181447D01*
X455415Y180806D01*
X454774Y179970D01*
X454371Y178997D01*
X454286Y178353D01*
X457868D01*
Y181935D01*
D02*
G37*
G36*
X418898Y181584D02*
X417958Y181460D01*
X417082Y181097D01*
X416330Y180520D01*
X415753Y179768D01*
X415390Y178893D01*
X415267Y177953D01*
X415390Y177013D01*
X415753Y176137D01*
X416330Y175385D01*
X417082Y174808D01*
X417958Y174445D01*
X418898Y174322D01*
X419837Y174445D01*
X420713Y174808D01*
X421465Y175385D01*
X422042Y176137D01*
X422405Y177013D01*
X422529Y177953D01*
X422405Y178893D01*
X422042Y179768D01*
X421465Y180520D01*
X420713Y181097D01*
X419837Y181460D01*
X418898Y181584D01*
D02*
G37*
G36*
X462250Y177553D02*
X458668D01*
Y173971D01*
X459312Y174056D01*
X460285Y174459D01*
X461121Y175100D01*
X461762Y175935D01*
X462165Y176909D01*
X462250Y177553D01*
D02*
G37*
G36*
X457868D02*
X454286D01*
X454371Y176909D01*
X454774Y175935D01*
X455415Y175100D01*
X456250Y174459D01*
X457224Y174056D01*
X457868Y173971D01*
Y177553D01*
D02*
G37*
G36*
X638195Y177210D02*
Y173628D01*
X641777D01*
X641692Y174273D01*
X641289Y175246D01*
X640648Y176081D01*
X639813Y176722D01*
X638839Y177125D01*
X638195Y177210D01*
D02*
G37*
G36*
X637395D02*
X636751Y177125D01*
X635778Y176722D01*
X634942Y176081D01*
X634301Y175246D01*
X633898Y174273D01*
X633813Y173628D01*
X637395D01*
Y177210D01*
D02*
G37*
G36*
X598425Y176859D02*
X597485Y176736D01*
X596610Y176373D01*
X595858Y175796D01*
X595281Y175044D01*
X594918Y174168D01*
X594794Y173228D01*
X594918Y172289D01*
X595281Y171413D01*
X595858Y170661D01*
X596610Y170084D01*
X597485Y169721D01*
X598425Y169597D01*
X599365Y169721D01*
X600241Y170084D01*
X600993Y170661D01*
X601570Y171413D01*
X601932Y172289D01*
X602056Y173228D01*
X601932Y174168D01*
X601570Y175044D01*
X600993Y175796D01*
X600241Y176373D01*
X599365Y176736D01*
X598425Y176859D01*
D02*
G37*
G36*
X641777Y172828D02*
X638195D01*
Y169246D01*
X638839Y169331D01*
X639813Y169734D01*
X640648Y170376D01*
X641289Y171211D01*
X641692Y172184D01*
X641777Y172828D01*
D02*
G37*
G36*
X637395D02*
X633813D01*
X633898Y172184D01*
X634301Y171211D01*
X634942Y170376D01*
X635778Y169734D01*
X636751Y169331D01*
X637395Y169246D01*
Y172828D01*
D02*
G37*
G36*
X342535Y155685D02*
X338983D01*
Y152132D01*
X342535D01*
Y155685D01*
D02*
G37*
G36*
X338183D02*
X334630D01*
Y152132D01*
X338183D01*
Y155685D01*
D02*
G37*
G36*
X403150Y160478D02*
X402068Y160336D01*
X401060Y159918D01*
X400195Y159254D01*
X399531Y158389D01*
X399113Y157381D01*
X398971Y156299D01*
X399113Y155218D01*
X399531Y154210D01*
X400195Y153344D01*
X401060Y152680D01*
X402068Y152263D01*
X403150Y152120D01*
X404231Y152263D01*
X405239Y152680D01*
X406105Y153344D01*
X406769Y154210D01*
X407186Y155218D01*
X407329Y156299D01*
X407186Y157381D01*
X406769Y158389D01*
X406105Y159254D01*
X405239Y159918D01*
X404231Y160336D01*
X403150Y160478D01*
D02*
G37*
G36*
X376772Y159294D02*
X375793Y159165D01*
X374881Y158787D01*
X374097Y158186D01*
X373496Y157403D01*
X373119Y156491D01*
X372990Y155512D01*
X373119Y154533D01*
X373496Y153621D01*
X374097Y152838D01*
X374881Y152236D01*
X375793Y151859D01*
X376772Y151730D01*
X377750Y151859D01*
X378663Y152236D01*
X379446Y152838D01*
X380047Y153621D01*
X380425Y154533D01*
X380554Y155512D01*
X380425Y156491D01*
X380047Y157403D01*
X379446Y158186D01*
X378663Y158787D01*
X377750Y159165D01*
X376772Y159294D01*
D02*
G37*
G36*
X363779D02*
X362801Y159165D01*
X361889Y158787D01*
X361105Y158186D01*
X360504Y157403D01*
X360126Y156491D01*
X359998Y155512D01*
X360126Y154533D01*
X360504Y153621D01*
X361105Y152838D01*
X361889Y152236D01*
X362801Y151859D01*
X363779Y151730D01*
X364758Y151859D01*
X365670Y152236D01*
X366454Y152838D01*
X367055Y153621D01*
X367433Y154533D01*
X367562Y155512D01*
X367433Y156491D01*
X367055Y157403D01*
X366454Y158186D01*
X365670Y158787D01*
X364758Y159165D01*
X363779Y159294D01*
D02*
G37*
G36*
X342535Y151332D02*
X338983D01*
Y147780D01*
X342535D01*
Y151332D01*
D02*
G37*
G36*
X338183D02*
X334630D01*
Y147780D01*
X338183D01*
Y151332D01*
D02*
G37*
G36*
X437408Y149651D02*
Y146069D01*
X440990D01*
X440905Y146713D01*
X440502Y147687D01*
X439861Y148522D01*
X439025Y149163D01*
X438052Y149566D01*
X437408Y149651D01*
D02*
G37*
G36*
X436608D02*
X435964Y149566D01*
X434991Y149163D01*
X434155Y148522D01*
X433514Y147687D01*
X433111Y146713D01*
X433026Y146069D01*
X436608D01*
Y149651D01*
D02*
G37*
G36*
X430765Y149269D02*
X423565D01*
Y142069D01*
X430765D01*
Y149269D01*
D02*
G37*
G36*
X376772Y149451D02*
X375793Y149322D01*
X374881Y148945D01*
X374097Y148344D01*
X373496Y147560D01*
X373119Y146648D01*
X372990Y145669D01*
X373119Y144691D01*
X373496Y143778D01*
X374097Y142995D01*
X374881Y142394D01*
X375793Y142016D01*
X376772Y141887D01*
X377750Y142016D01*
X378663Y142394D01*
X379446Y142995D01*
X380047Y143778D01*
X380425Y144691D01*
X380554Y145669D01*
X380425Y146648D01*
X380047Y147560D01*
X379446Y148344D01*
X378663Y148945D01*
X377750Y149322D01*
X376772Y149451D01*
D02*
G37*
G36*
X363779D02*
X362801Y149322D01*
X361889Y148945D01*
X361105Y148344D01*
X360504Y147560D01*
X360126Y146648D01*
X359998Y145669D01*
X360126Y144691D01*
X360504Y143778D01*
X361105Y142995D01*
X361889Y142394D01*
X362801Y142016D01*
X363779Y141887D01*
X364758Y142016D01*
X365670Y142394D01*
X366454Y142995D01*
X367055Y143778D01*
X367433Y144691D01*
X367562Y145669D01*
X367433Y146648D01*
X367055Y147560D01*
X366454Y148344D01*
X365670Y148945D01*
X364758Y149322D01*
X363779Y149451D01*
D02*
G37*
G36*
X440990Y145269D02*
X437408D01*
Y141687D01*
X438052Y141772D01*
X439025Y142175D01*
X439861Y142816D01*
X440502Y143652D01*
X440905Y144625D01*
X440990Y145269D01*
D02*
G37*
G36*
X436608D02*
X433026D01*
X433111Y144625D01*
X433514Y143652D01*
X434155Y142816D01*
X434991Y142175D01*
X435964Y141772D01*
X436608Y141687D01*
Y145269D01*
D02*
G37*
G36*
X338583Y145316D02*
X337655Y145194D01*
X336791Y144836D01*
X336049Y144266D01*
X335479Y143524D01*
X335121Y142660D01*
X334999Y141732D01*
X335121Y140805D01*
X335479Y139941D01*
X336049Y139198D01*
X336791Y138629D01*
X337655Y138271D01*
X338583Y138149D01*
X339510Y138271D01*
X340374Y138629D01*
X341116Y139198D01*
X341686Y139941D01*
X342044Y140805D01*
X342166Y141732D01*
X342044Y142660D01*
X341686Y143524D01*
X341116Y144266D01*
X340374Y144836D01*
X339510Y145194D01*
X338583Y145316D01*
D02*
G37*
G36*
X376772Y139609D02*
X375793Y139480D01*
X374881Y139102D01*
X374097Y138501D01*
X373496Y137718D01*
X373119Y136806D01*
X372990Y135827D01*
X373119Y134848D01*
X373496Y133936D01*
X374097Y133152D01*
X374881Y132552D01*
X375793Y132174D01*
X376772Y132045D01*
X377750Y132174D01*
X378663Y132552D01*
X379446Y133152D01*
X380047Y133936D01*
X380425Y134848D01*
X380554Y135827D01*
X380425Y136806D01*
X380047Y137718D01*
X379446Y138501D01*
X378663Y139102D01*
X377750Y139480D01*
X376772Y139609D01*
D02*
G37*
G36*
X363779D02*
X362801Y139480D01*
X361889Y139102D01*
X361105Y138501D01*
X360504Y137718D01*
X360126Y136806D01*
X359998Y135827D01*
X360126Y134848D01*
X360504Y133936D01*
X361105Y133152D01*
X361889Y132552D01*
X362801Y132174D01*
X363779Y132045D01*
X364758Y132174D01*
X365670Y132552D01*
X366454Y133152D01*
X367055Y133936D01*
X367433Y134848D01*
X367562Y135827D01*
X367433Y136806D01*
X367055Y137718D01*
X366454Y138501D01*
X365670Y139102D01*
X364758Y139480D01*
X363779Y139609D01*
D02*
G37*
G36*
X565748Y135672D02*
X564769Y135543D01*
X563857Y135165D01*
X563074Y134564D01*
X562473Y133781D01*
X562095Y132869D01*
X561966Y131890D01*
X562095Y130911D01*
X562473Y129999D01*
X563074Y129216D01*
X563857Y128614D01*
X564769Y128237D01*
X565748Y128108D01*
X566727Y128237D01*
X567639Y128614D01*
X568422Y129216D01*
X569023Y129999D01*
X569401Y130911D01*
X569530Y131890D01*
X569401Y132869D01*
X569023Y133781D01*
X568422Y134564D01*
X567639Y135165D01*
X566727Y135543D01*
X565748Y135672D01*
D02*
G37*
G36*
X552756D02*
X551777Y135543D01*
X550865Y135165D01*
X550082Y134564D01*
X549481Y133781D01*
X549103Y132869D01*
X548974Y131890D01*
X549103Y130911D01*
X549481Y129999D01*
X550082Y129216D01*
X550865Y128614D01*
X551777Y128237D01*
X552756Y128108D01*
X553735Y128237D01*
X554647Y128614D01*
X555430Y129216D01*
X556031Y129999D01*
X556409Y130911D01*
X556538Y131890D01*
X556409Y132869D01*
X556031Y133781D01*
X555430Y134564D01*
X554647Y135165D01*
X553735Y135543D01*
X552756Y135672D01*
D02*
G37*
G36*
X466935Y129966D02*
Y126384D01*
X470517D01*
X470433Y127029D01*
X470029Y128001D01*
X469388Y128837D01*
X468553Y129478D01*
X467580Y129881D01*
X466935Y129966D01*
D02*
G37*
G36*
X466135D02*
X465491Y129881D01*
X464518Y129478D01*
X463683Y128837D01*
X463041Y128001D01*
X462638Y127029D01*
X462554Y126384D01*
X466135D01*
Y129966D01*
D02*
G37*
G36*
X429534Y125783D02*
Y122447D01*
X432869D01*
X432793Y123028D01*
X432415Y123941D01*
X431813Y124726D01*
X431028Y125328D01*
X430114Y125707D01*
X429534Y125783D01*
D02*
G37*
G36*
X428734D02*
X428153Y125707D01*
X427240Y125328D01*
X426455Y124726D01*
X425853Y123941D01*
X425475Y123028D01*
X425398Y122447D01*
X428734D01*
Y125783D01*
D02*
G37*
G36*
X460293Y129584D02*
X453093D01*
Y122384D01*
X460293D01*
Y129584D01*
D02*
G37*
G36*
X470517Y125584D02*
X466935D01*
Y122002D01*
X467580Y122087D01*
X468553Y122490D01*
X469388Y123131D01*
X470029Y123967D01*
X470433Y124940D01*
X470517Y125584D01*
D02*
G37*
G36*
X466135D02*
X462554D01*
X462638Y124940D01*
X463041Y123967D01*
X463683Y123131D01*
X464518Y122490D01*
X465491Y122087D01*
X466135Y122002D01*
Y125584D01*
D02*
G37*
G36*
X441697Y125419D02*
X436571D01*
X436262Y125357D01*
X435999Y125182D01*
X435824Y124920D01*
X435762Y124610D01*
Y119484D01*
X435824Y119175D01*
X435999Y118913D01*
X436262Y118737D01*
X436571Y118676D01*
X441697D01*
X442006Y118737D01*
X442269Y118913D01*
X442444Y119175D01*
X442505Y119484D01*
Y124610D01*
X442444Y124920D01*
X442269Y125182D01*
X442006Y125357D01*
X441697Y125419D01*
D02*
G37*
G36*
X419134Y125432D02*
X418258Y125317D01*
X417441Y124979D01*
X416740Y124441D01*
X416202Y123740D01*
X415864Y122923D01*
X415749Y122047D01*
X415864Y121171D01*
X416202Y120355D01*
X416740Y119654D01*
X417441Y119116D01*
X418258Y118778D01*
X419134Y118662D01*
X420010Y118778D01*
X420826Y119116D01*
X421527Y119654D01*
X422065Y120355D01*
X422403Y121171D01*
X422519Y122047D01*
X422403Y122923D01*
X422065Y123740D01*
X421527Y124441D01*
X420826Y124979D01*
X420010Y125317D01*
X419134Y125432D01*
D02*
G37*
G36*
X428734Y121647D02*
X425398D01*
X425475Y121067D01*
X425853Y120153D01*
X426455Y119369D01*
X427240Y118766D01*
X428153Y118388D01*
X428734Y118312D01*
Y121647D01*
D02*
G37*
G36*
X432869D02*
X429534D01*
Y118312D01*
X430114Y118388D01*
X431028Y118766D01*
X431813Y119369D01*
X432415Y120153D01*
X432793Y121067D01*
X432869Y121647D01*
D02*
G37*
G36*
X565748Y125829D02*
X564769Y125700D01*
X563857Y125322D01*
X563074Y124722D01*
X562473Y123938D01*
X562095Y123026D01*
X561966Y122047D01*
X562095Y121068D01*
X562473Y120156D01*
X563074Y119373D01*
X563857Y118772D01*
X564769Y118394D01*
X565748Y118265D01*
X566727Y118394D01*
X567639Y118772D01*
X568422Y119373D01*
X569023Y120156D01*
X569401Y121068D01*
X569530Y122047D01*
X569401Y123026D01*
X569023Y123938D01*
X568422Y124722D01*
X567639Y125322D01*
X566727Y125700D01*
X565748Y125829D01*
D02*
G37*
G36*
X552756D02*
X551777Y125700D01*
X550865Y125322D01*
X550082Y124722D01*
X549481Y123938D01*
X549103Y123026D01*
X548974Y122047D01*
X549103Y121068D01*
X549481Y120156D01*
X550082Y119373D01*
X550865Y118772D01*
X551777Y118394D01*
X552756Y118265D01*
X553735Y118394D01*
X554647Y118772D01*
X555430Y119373D01*
X556031Y120156D01*
X556409Y121068D01*
X556538Y122047D01*
X556409Y123026D01*
X556031Y123938D01*
X555430Y124722D01*
X554647Y125322D01*
X553735Y125700D01*
X552756Y125829D01*
D02*
G37*
G36*
X403150Y121108D02*
X402068Y120966D01*
X401060Y120548D01*
X400195Y119884D01*
X399531Y119019D01*
X399113Y118011D01*
X398971Y116929D01*
X399113Y115848D01*
X399531Y114840D01*
X400195Y113974D01*
X401060Y113310D01*
X402068Y112892D01*
X403150Y112750D01*
X404231Y112892D01*
X405239Y113310D01*
X406105Y113974D01*
X406769Y114840D01*
X407186Y115848D01*
X407329Y116929D01*
X407186Y118011D01*
X406769Y119019D01*
X406105Y119884D01*
X405239Y120548D01*
X404231Y120966D01*
X403150Y121108D01*
D02*
G37*
G36*
X566148Y116338D02*
Y112605D01*
X569881D01*
X569791Y113288D01*
X569373Y114297D01*
X568708Y115164D01*
X567841Y115829D01*
X566831Y116247D01*
X566148Y116338D01*
D02*
G37*
G36*
X565348D02*
X564665Y116247D01*
X563655Y115829D01*
X562788Y115164D01*
X562123Y114297D01*
X561705Y113288D01*
X561615Y112605D01*
X565348D01*
Y116338D01*
D02*
G37*
%LPD*%
D13*
X239370Y496457D02*
X242913Y492913D01*
X139764Y496457D02*
X239370D01*
X132677Y489370D02*
X139764Y496457D01*
X147882Y303887D02*
X175735D01*
X147219Y305487D02*
X175072D01*
X146556Y307087D02*
X174409D01*
X142519Y298524D02*
X147882Y303887D01*
X140551Y298819D02*
X147219Y305487D01*
X137795Y298326D02*
X146556Y307087D01*
X269312Y307066D02*
X280709Y295669D01*
X265354Y306692D02*
X268110D01*
X268483Y307066D01*
X269312D01*
X343701Y215354D02*
X344882Y214173D01*
X343701Y215354D02*
Y249843D01*
X338032Y255512D02*
X343701Y249843D01*
X353979Y214525D02*
X354331Y214173D01*
X353979Y214525D02*
Y249565D01*
X348031Y255512D02*
X353979Y249565D01*
X364567Y214173D02*
Y214714D01*
X363979Y215303D02*
X364567Y214714D01*
X363979Y215303D02*
Y249565D01*
X358032Y255512D02*
X363979Y249565D01*
X368032Y255512D02*
X373228Y250315D01*
Y216116D02*
Y250315D01*
Y216116D02*
X374027Y215317D01*
X378031Y255512D02*
X383465Y250079D01*
Y215896D02*
Y250079D01*
Y215896D02*
X384646Y214714D01*
X374027Y214162D02*
Y215317D01*
Y214162D02*
X374410Y213779D01*
X384646Y214173D02*
Y214714D01*
X394488Y214173D02*
Y214714D01*
X393979Y215224D02*
X394488Y214714D01*
X393979Y215224D02*
Y249565D01*
X388032Y255512D02*
X393979Y249565D01*
X470669Y201575D02*
X484646D01*
X500394Y185827D01*
X479921Y198819D02*
X496063Y182677D01*
X456535Y198819D02*
X479921D01*
X563386Y209449D02*
X566142Y206693D01*
X563386Y209449D02*
Y218898D01*
X551181Y231102D02*
X563386Y218898D01*
X551181Y231102D02*
Y251417D01*
X555276Y255512D01*
X527165Y205906D02*
X531890D01*
X524016Y209055D02*
X527165Y205906D01*
X542163Y210987D02*
X545669Y207480D01*
X553543Y209842D02*
X556299Y207087D01*
X553543Y209842D02*
Y222441D01*
X538583Y237402D02*
X553543Y222441D01*
X525197Y228740D02*
X531637D01*
X542163Y218214D01*
Y210987D02*
Y218214D01*
X520079Y226378D02*
X524016Y222441D01*
Y209055D02*
Y222441D01*
X191339Y323228D02*
X195346Y327235D01*
X198810D01*
X199213Y327638D01*
X191339Y311811D02*
Y323228D01*
X184252Y304724D02*
X191339Y311811D01*
X111811Y273622D02*
X133465D01*
X109055Y270866D02*
X111811Y273622D01*
X169213Y447638D02*
X176299Y454724D01*
X205906D01*
X115748Y411417D02*
X159449D01*
X111074Y406743D02*
X115748Y411417D01*
X111074Y323572D02*
Y406743D01*
X159449Y411417D02*
X161417Y413386D01*
X111074Y323572D02*
X114173Y320472D01*
X109474Y313673D02*
Y481521D01*
X107874Y313011D02*
Y482383D01*
X109474Y313673D02*
X134171Y288976D01*
X109474Y481521D02*
X111761Y483808D01*
X107874Y313011D02*
X134664Y286221D01*
X107874Y482383D02*
X110899Y485408D01*
X284646Y343701D02*
X287402Y340945D01*
X265354Y343701D02*
X284646D01*
X266535Y310630D02*
X271260D01*
X285039Y296850D01*
X266142Y322441D02*
X279134D01*
X287402Y325984D02*
Y340945D01*
X265748Y333071D02*
X266142Y332677D01*
X283858D01*
X265748Y338189D02*
X284646D01*
X339764Y407087D02*
X345276D01*
X318898Y427953D02*
X339764Y407087D01*
X339764Y412598D02*
X344882D01*
X301181Y453937D02*
X425984D01*
X427953Y451968D01*
Y430394D02*
Y451968D01*
X422756Y425197D02*
X427953Y430394D01*
X123228Y250000D02*
X123622Y249606D01*
X116142Y250000D02*
X123228D01*
X418110Y430551D02*
X422756Y435197D01*
X418110Y410630D02*
Y430551D01*
X279134Y322441D02*
X279921Y321654D01*
X174016Y467323D02*
X203543D01*
X161074Y480265D02*
X174016Y467323D01*
X134589Y480265D02*
X161074D01*
X166347Y482078D02*
X172047Y476378D01*
X134375Y480478D02*
X134589Y480265D01*
X130979Y480478D02*
X134375D01*
X130765Y480265D02*
X130979Y480478D01*
X122297Y480265D02*
X130765D01*
X122746Y482078D02*
X166347D01*
X123409Y483678D02*
X166355D01*
X119416Y485408D02*
X122746Y482078D01*
X120079Y487008D02*
X123409Y483678D01*
X166355D02*
X172047Y489370D01*
X118753Y483808D02*
X122297Y480265D01*
X111761Y483808D02*
X118753D01*
X140551Y290685D02*
Y298819D01*
X139919Y290053D02*
X140551Y290685D01*
X138976Y288976D02*
X139919Y289919D01*
X134171Y288976D02*
X138976D01*
X139919Y289919D02*
Y290053D01*
X134664Y286221D02*
X142402D01*
X159764Y268858D01*
X142519Y288976D02*
Y298524D01*
X137795Y292126D02*
Y298326D01*
X175072Y305487D02*
X187820Y318235D01*
Y336246D01*
X199213Y347638D01*
X189420Y317572D02*
Y327846D01*
X199213Y337638D01*
X175735Y303887D02*
X189420Y317572D01*
X294882Y446850D02*
X295276D01*
X291339Y443307D02*
X294882Y446850D01*
X334646Y448819D02*
X398425D01*
X324803Y438976D02*
X334646Y448819D01*
X336221Y446850D02*
X388189D01*
X325590Y436221D02*
X336221Y446850D01*
X388189D02*
X392756Y442283D01*
X398425Y448819D02*
X402756Y444488D01*
X399113Y450394D02*
X405512D01*
X399088Y450419D02*
X399113Y450394D01*
X293332Y450419D02*
X399088D01*
X285827Y442913D02*
X293332Y450419D01*
X405512Y450394D02*
X412756Y443150D01*
Y435197D02*
Y443150D01*
X276772Y438976D02*
X324803D01*
X276772Y432677D02*
X319685D01*
X264961D02*
X269685Y427953D01*
X318898D01*
X409465Y426362D02*
X411591D01*
X412756Y425197D01*
X392756Y435197D02*
Y442283D01*
X284646Y436221D02*
X325590D01*
X319685Y432677D02*
X339764Y412598D01*
X402756Y435197D02*
Y444488D01*
X121653Y279134D02*
X122047Y278740D01*
X111822Y279134D02*
X121653D01*
X110247Y280709D02*
X111822Y279134D01*
X110236Y280709D02*
X110247D01*
X186221Y353150D02*
X190709Y357638D01*
X199213D01*
X186221Y318898D02*
Y353150D01*
X174409Y307087D02*
X186221Y318898D01*
X109449Y287795D02*
X122835D01*
X107087Y290158D02*
X109449Y287795D01*
X500394Y126772D02*
Y185827D01*
Y126772D02*
X521753Y105412D01*
X629134D01*
X673990Y150269D01*
Y178865D01*
X659180Y193676D02*
X673990Y178865D01*
X645250Y193676D02*
X659180D01*
X638110Y186535D02*
X645250Y193676D01*
X628960Y189983D02*
X634252Y195276D01*
X628960Y187385D02*
Y189983D01*
X628110Y186535D02*
X628960Y187385D01*
X634252Y195276D02*
X659842D01*
X675591Y179528D01*
Y149606D02*
Y179528D01*
X629134Y103150D02*
X675591Y149606D01*
X470866Y103150D02*
X629134D01*
X106718Y240576D02*
X116142Y250000D01*
X106718Y113261D02*
Y240576D01*
X105118Y246063D02*
X127913Y268858D01*
X149764D01*
X105118Y112598D02*
Y246063D01*
Y112598D02*
X112992Y104724D01*
X106718Y113261D02*
X113655Y106324D01*
X349875D01*
X351450Y104750D01*
X470203D01*
X112992Y104724D02*
X349213D01*
X470203Y104750D02*
X494463Y129009D01*
X350787Y103150D02*
X470866D01*
X496063Y128347D01*
X349213Y104724D02*
X350787Y103150D01*
X496063Y128347D02*
Y182677D01*
X494463Y129009D02*
Y174828D01*
X483858Y185433D02*
X494463Y174828D01*
X464803Y185433D02*
X483858D01*
X458976Y191260D02*
X464803Y185433D01*
X448976Y191260D02*
X456535Y198819D01*
X154409Y438110D02*
X164882Y427638D01*
X114961Y438110D02*
X154409D01*
X158740Y448110D02*
X169213Y437638D01*
X114961Y448110D02*
X158740D01*
X110899Y485408D02*
X119416D01*
X110236Y487008D02*
X120079D01*
X105905Y482677D02*
X110236Y487008D01*
X105905Y312717D02*
Y482677D01*
Y312717D02*
X149764Y268858D01*
X164882Y427638D02*
X169213D01*
X230866Y481339D02*
X238032D01*
X242913Y486221D01*
Y492913D01*
D32*
X644095Y370079D02*
Y386614D01*
X650394Y392913D01*
X685039D01*
X358268Y475197D02*
Y503543D01*
D33*
X599213Y397638D02*
X600000Y398425D01*
X567717Y453228D02*
Y469685D01*
X567323Y470079D02*
X567717Y469685D01*
X600000Y398425D02*
Y428346D01*
X457874Y490945D02*
X469685Y479134D01*
Y418898D02*
Y479134D01*
Y418898D02*
X475984Y412598D01*
X490945D01*
X498425Y405118D01*
X550433Y435945D02*
X567717Y453228D01*
D35*
X510236Y484252D02*
D03*
Y444882D02*
D03*
X527953Y470079D02*
D03*
X567323D02*
D03*
X560630Y428346D02*
D03*
X600000D02*
D03*
X559449Y456299D02*
D03*
X598819D02*
D03*
X509449Y425591D02*
D03*
Y386221D02*
D03*
X643701Y338583D02*
D03*
X577559Y342126D02*
D03*
X653937Y370079D02*
D03*
X499213Y456299D02*
D03*
Y475984D02*
D03*
X342520Y610236D02*
D03*
X332520D02*
D03*
X322520D02*
D03*
X358268Y590551D02*
D03*
Y551181D02*
D03*
X401968Y462598D02*
D03*
X441339D02*
D03*
X382677Y472441D02*
D03*
X142520Y419291D02*
D03*
Y458661D02*
D03*
X158661Y392913D02*
D03*
X119291D02*
D03*
X157874Y367717D02*
D03*
Y348031D02*
D03*
X146063Y357480D02*
D03*
Y377165D02*
D03*
X128740Y352362D02*
D03*
Y371575D02*
D03*
X132677Y476378D02*
D03*
X172047D02*
D03*
X132677Y489370D02*
D03*
X172047D02*
D03*
X211811Y356299D02*
D03*
X251181D02*
D03*
X211811Y367717D02*
D03*
X251181D02*
D03*
X418898Y177953D02*
D03*
X458268D02*
D03*
X598425Y173228D02*
D03*
X637795D02*
D03*
X131496Y298819D02*
D03*
Y259449D02*
D03*
X466535Y125984D02*
D03*
X437008Y145669D02*
D03*
D36*
X559842Y397638D02*
D03*
X599213D02*
D03*
X403150Y156299D02*
D03*
Y116929D02*
D03*
X382756Y435197D02*
D03*
X392756Y425197D02*
D03*
Y435197D02*
D03*
X402756Y425197D02*
D03*
Y435197D02*
D03*
X412756Y425197D02*
D03*
Y435197D02*
D03*
X452756D02*
D03*
Y425197D02*
D03*
X442756Y435197D02*
D03*
Y425197D02*
D03*
X432756Y435197D02*
D03*
Y425197D02*
D03*
X422756Y435197D02*
D03*
Y425197D02*
D03*
D37*
X550433Y425945D02*
D03*
Y435945D02*
D03*
Y445945D02*
D03*
Y455945D02*
D03*
X520433Y425945D02*
D03*
Y435945D02*
D03*
Y445945D02*
D03*
X338583Y141732D02*
D03*
X265905Y488189D02*
D03*
X199213Y317638D02*
D03*
Y327638D02*
D03*
Y337638D02*
D03*
Y347638D02*
D03*
Y357638D02*
D03*
Y367638D02*
D03*
Y377638D02*
D03*
Y387638D02*
D03*
Y397638D02*
D03*
Y407638D02*
D03*
Y417638D02*
D03*
Y427638D02*
D03*
Y437638D02*
D03*
Y447638D02*
D03*
X169213Y317638D02*
D03*
Y327638D02*
D03*
Y337638D02*
D03*
Y347638D02*
D03*
Y357638D02*
D03*
Y367638D02*
D03*
Y377638D02*
D03*
Y387638D02*
D03*
Y397638D02*
D03*
Y407638D02*
D03*
Y417638D02*
D03*
Y427638D02*
D03*
Y437638D02*
D03*
X230866Y481339D02*
D03*
X220866Y491339D02*
D03*
Y481339D02*
D03*
X210866Y491339D02*
D03*
Y481339D02*
D03*
X528110Y186535D02*
D03*
X538110D02*
D03*
X548110D02*
D03*
X558110D02*
D03*
X568110D02*
D03*
X578110D02*
D03*
X588110D02*
D03*
X598110D02*
D03*
X608110D02*
D03*
X618110D02*
D03*
X628110D02*
D03*
X638110D02*
D03*
X648110D02*
D03*
X518110Y216535D02*
D03*
X528110D02*
D03*
X538110D02*
D03*
X548110D02*
D03*
X558110D02*
D03*
X568110D02*
D03*
X578110D02*
D03*
X588110D02*
D03*
X598110D02*
D03*
X608110D02*
D03*
X618110D02*
D03*
X628110D02*
D03*
X638110D02*
D03*
X648110D02*
D03*
X348976Y191260D02*
D03*
X358976D02*
D03*
X368976D02*
D03*
X378976D02*
D03*
X388976D02*
D03*
X398976D02*
D03*
X408976D02*
D03*
X418976D02*
D03*
X428976D02*
D03*
X438976D02*
D03*
X448976D02*
D03*
X458976D02*
D03*
X468976D02*
D03*
X338976Y221260D02*
D03*
X348976D02*
D03*
X358976D02*
D03*
X368976D02*
D03*
X378976D02*
D03*
X388976D02*
D03*
X398976D02*
D03*
X408976D02*
D03*
X418976D02*
D03*
X428976D02*
D03*
X438976D02*
D03*
X448976D02*
D03*
X458976D02*
D03*
X468976D02*
D03*
X159764Y268858D02*
D03*
X169764D02*
D03*
X179764D02*
D03*
X189764D02*
D03*
X199764D02*
D03*
X209764D02*
D03*
X219764D02*
D03*
X229764D02*
D03*
X149764Y298858D02*
D03*
X159764D02*
D03*
X169764D02*
D03*
X179764D02*
D03*
X189764D02*
D03*
X199764D02*
D03*
X209764D02*
D03*
X219764D02*
D03*
X229764D02*
D03*
X229213Y242756D02*
D03*
X219213Y252756D02*
D03*
Y242756D02*
D03*
X209213Y252756D02*
D03*
Y242756D02*
D03*
X199213Y252756D02*
D03*
Y242756D02*
D03*
X189213Y252756D02*
D03*
Y242756D02*
D03*
X179213Y252756D02*
D03*
Y242756D02*
D03*
X169213Y252756D02*
D03*
Y242756D02*
D03*
X159213Y252756D02*
D03*
Y242756D02*
D03*
X485276Y245512D02*
D03*
Y255512D02*
D03*
X495276Y245512D02*
D03*
Y255512D02*
D03*
X505276Y245512D02*
D03*
Y255512D02*
D03*
X515276Y245512D02*
D03*
Y255512D02*
D03*
X525276Y245512D02*
D03*
Y255512D02*
D03*
X535276Y245512D02*
D03*
Y255512D02*
D03*
X545276Y245512D02*
D03*
Y255512D02*
D03*
X555276Y245512D02*
D03*
Y255512D02*
D03*
X565276Y245512D02*
D03*
Y255512D02*
D03*
X575276Y245512D02*
D03*
Y255512D02*
D03*
X585276Y245512D02*
D03*
Y255512D02*
D03*
X595276Y245512D02*
D03*
Y255512D02*
D03*
X605276Y245512D02*
D03*
Y255512D02*
D03*
X615276Y245512D02*
D03*
Y255512D02*
D03*
X625276Y245512D02*
D03*
Y255512D02*
D03*
X635276Y245512D02*
D03*
X318032D02*
D03*
Y255512D02*
D03*
X328031Y245512D02*
D03*
Y255512D02*
D03*
X338032Y245512D02*
D03*
Y255512D02*
D03*
X348031Y245512D02*
D03*
Y255512D02*
D03*
X358032Y245512D02*
D03*
Y255512D02*
D03*
X368032Y245512D02*
D03*
Y255512D02*
D03*
X378031Y245512D02*
D03*
Y255512D02*
D03*
X388032Y245512D02*
D03*
Y255512D02*
D03*
X398031Y245512D02*
D03*
Y255512D02*
D03*
X408032Y245512D02*
D03*
Y255512D02*
D03*
X418032Y245512D02*
D03*
Y255512D02*
D03*
X428031Y245512D02*
D03*
Y255512D02*
D03*
X438031Y245512D02*
D03*
Y255512D02*
D03*
X448032Y245512D02*
D03*
Y255512D02*
D03*
X458032Y245512D02*
D03*
Y255512D02*
D03*
X468032Y245512D02*
D03*
X598386Y358150D02*
D03*
Y348150D02*
D03*
Y338150D02*
D03*
X628386Y368150D02*
D03*
Y358150D02*
D03*
Y348150D02*
D03*
Y338150D02*
D03*
X114961Y468110D02*
D03*
Y458110D02*
D03*
Y448110D02*
D03*
Y438110D02*
D03*
Y428110D02*
D03*
D38*
X520433Y455945D02*
D03*
X255906Y488189D02*
D03*
X169213Y447638D02*
D03*
X230866Y491339D02*
D03*
X229213Y252756D02*
D03*
X635276Y255512D02*
D03*
X468032D02*
D03*
X598386Y368150D02*
D03*
D39*
X208661Y118110D02*
D03*
X153543Y204724D02*
D03*
D40*
X263779D02*
D03*
X341929Y430177D02*
D03*
X483661D02*
D03*
Y310886D02*
D03*
X341929D02*
D03*
D41*
X338583Y151732D02*
D03*
X518110Y186535D02*
D03*
X338976Y191260D02*
D03*
X149764Y268858D02*
D03*
X114961Y478110D02*
D03*
D42*
X653543Y338583D02*
D03*
X644095Y370079D02*
D03*
X456693Y125984D02*
D03*
X427165Y145669D02*
D03*
D43*
X577559Y351969D02*
D03*
X352520Y610236D02*
D03*
X382677Y462598D02*
D03*
D44*
X320472Y343307D02*
D03*
X300787D02*
D03*
X310630Y333465D02*
D03*
D45*
X565748Y131890D02*
D03*
Y122047D02*
D03*
Y112205D02*
D03*
X552756D02*
D03*
Y122047D02*
D03*
Y131890D02*
D03*
X363779Y135827D02*
D03*
Y145669D02*
D03*
Y155512D02*
D03*
X376772D02*
D03*
Y145669D02*
D03*
Y135827D02*
D03*
D46*
X439134Y122047D02*
D03*
D47*
X419134D02*
D03*
X429134D02*
D03*
D48*
X517323Y579134D02*
D03*
X496063D02*
D03*
D49*
X382756Y425197D02*
D03*
D50*
X457874Y490945D02*
D03*
X498425Y405118D02*
D03*
X685039Y392913D02*
D03*
X265354Y306692D02*
D03*
X280709Y295669D02*
D03*
X344882Y214173D02*
D03*
X354331D02*
D03*
X364567D02*
D03*
X374410Y213779D02*
D03*
X384646Y214173D02*
D03*
X394488D02*
D03*
X470669Y201575D02*
D03*
X566142Y206693D02*
D03*
X531890Y205906D02*
D03*
X545669Y207480D02*
D03*
X556299Y207087D02*
D03*
X538583Y237402D02*
D03*
X525197Y228740D02*
D03*
X520079Y226378D02*
D03*
X184252Y304724D02*
D03*
X133465Y273622D02*
D03*
X109055Y270866D02*
D03*
X205906Y454724D02*
D03*
X161417Y413386D02*
D03*
X114173Y320472D02*
D03*
X265354Y343701D02*
D03*
X266535Y310630D02*
D03*
X266142Y322441D02*
D03*
X287402Y325984D02*
D03*
X265748Y333071D02*
D03*
X283858Y332677D02*
D03*
X284646Y338189D02*
D03*
X265748D02*
D03*
X345276Y407087D02*
D03*
X344882Y412598D02*
D03*
X123622Y249606D02*
D03*
X358268Y503543D02*
D03*
Y475197D02*
D03*
X418110Y410630D02*
D03*
X279921Y321654D02*
D03*
X285039Y296850D02*
D03*
X203543Y467323D02*
D03*
X142519Y288976D02*
D03*
X137795Y292126D02*
D03*
X301181Y453937D02*
D03*
X295276Y446850D02*
D03*
X291339Y443307D02*
D03*
X276772Y432677D02*
D03*
Y438976D02*
D03*
X285827Y442913D02*
D03*
X264961Y432677D02*
D03*
X284646Y436221D02*
D03*
X122047Y278740D02*
D03*
X110236Y280709D02*
D03*
X122835Y287795D02*
D03*
X107087Y290158D02*
D03*
M02*
