G04*
G04 #@! TF.GenerationSoftware,Altium Limited,Altium Designer,20.0.13 (296)*
G04*
G04 Layer_Color=16711935*
%FSLAX25Y25*%
%MOIN*%
G70*
G01*
G75*
%ADD13C,0.01000*%
%ADD51C,0.00700*%
G36*
X618110Y355718D02*
X618105D01*
X618094D01*
X618077D01*
X618055D01*
X618021D01*
X617988Y355723D01*
X617899Y355729D01*
X617805Y355740D01*
X617694Y355756D01*
X617577Y355784D01*
X617461Y355823D01*
X617455D01*
X617439Y355834D01*
X617411Y355845D01*
X617372Y355862D01*
X617322Y355878D01*
X617267Y355906D01*
X617206Y355940D01*
X617139Y355973D01*
X617061Y356012D01*
X616984Y356062D01*
X616812Y356167D01*
X616628Y356295D01*
X616440Y356445D01*
X616434Y356450D01*
X616418Y356467D01*
X616390Y356489D01*
X616351Y356522D01*
X616301Y356567D01*
X616245Y356622D01*
X616179Y356683D01*
X616107Y356761D01*
X616023Y356844D01*
X615935Y356933D01*
X615840Y357033D01*
X615735Y357144D01*
X615629Y357266D01*
X615518Y357394D01*
X615402Y357532D01*
X615280Y357677D01*
X615274Y357682D01*
X615269Y357693D01*
X615252Y357710D01*
X615235Y357732D01*
X615208Y357760D01*
X615180Y357793D01*
X615108Y357876D01*
X615024Y357982D01*
X614919Y358093D01*
X614808Y358221D01*
X614686Y358354D01*
X614558Y358498D01*
X614425Y358637D01*
X614292Y358781D01*
X614153Y358914D01*
X614020Y359048D01*
X613892Y359164D01*
X613765Y359275D01*
X613648Y359364D01*
X613643Y359369D01*
X613620Y359381D01*
X613587Y359403D01*
X613548Y359436D01*
X613493Y359469D01*
X613432Y359503D01*
X613359Y359547D01*
X613282Y359586D01*
X613199Y359625D01*
X613110Y359669D01*
X612915Y359741D01*
X612816Y359769D01*
X612716Y359791D01*
X612616Y359802D01*
X612516Y359808D01*
X612510D01*
X612488D01*
X612460D01*
X612422Y359802D01*
X612371Y359797D01*
X612316Y359786D01*
X612255Y359775D01*
X612188Y359758D01*
X612116Y359736D01*
X612039Y359708D01*
X611961Y359675D01*
X611883Y359636D01*
X611800Y359592D01*
X611722Y359536D01*
X611645Y359475D01*
X611572Y359403D01*
X611567Y359397D01*
X611556Y359386D01*
X611539Y359364D01*
X611511Y359331D01*
X611483Y359292D01*
X611450Y359242D01*
X611411Y359186D01*
X611378Y359125D01*
X611339Y359053D01*
X611306Y358975D01*
X611273Y358887D01*
X611245Y358798D01*
X611217Y358698D01*
X611201Y358593D01*
X611189Y358482D01*
X611184Y358365D01*
Y358298D01*
X611189Y358254D01*
X611195Y358193D01*
X611206Y358126D01*
X611217Y358054D01*
X611234Y357971D01*
X611256Y357888D01*
X611284Y357799D01*
X611317Y357710D01*
X611356Y357616D01*
X611406Y357527D01*
X611461Y357438D01*
X611522Y357349D01*
X611594Y357272D01*
X611600Y357266D01*
X611611Y357255D01*
X611639Y357233D01*
X611667Y357210D01*
X611711Y357177D01*
X611761Y357144D01*
X611822Y357105D01*
X611889Y357072D01*
X611961Y357033D01*
X612050Y356994D01*
X612138Y356961D01*
X612238Y356927D01*
X612349Y356905D01*
X612466Y356883D01*
X612588Y356872D01*
X612721Y356866D01*
X612621Y355895D01*
X612616D01*
X612610D01*
X612594Y355901D01*
X612571D01*
X612516Y355906D01*
X612444Y355923D01*
X612355Y355940D01*
X612249Y355962D01*
X612133Y355990D01*
X612011Y356023D01*
X611878Y356067D01*
X611744Y356117D01*
X611606Y356178D01*
X611467Y356250D01*
X611334Y356328D01*
X611206Y356422D01*
X611084Y356522D01*
X610973Y356639D01*
X610967Y356644D01*
X610951Y356667D01*
X610917Y356705D01*
X610884Y356755D01*
X610840Y356822D01*
X610790Y356900D01*
X610740Y356994D01*
X610684Y357100D01*
X610634Y357222D01*
X610584Y357349D01*
X610534Y357494D01*
X610490Y357649D01*
X610451Y357816D01*
X610424Y357993D01*
X610407Y358182D01*
X610401Y358382D01*
Y358432D01*
X610407Y358487D01*
X610412Y358565D01*
X610418Y358659D01*
X610435Y358765D01*
X610451Y358887D01*
X610479Y359014D01*
X610512Y359153D01*
X610551Y359292D01*
X610601Y359442D01*
X610662Y359586D01*
X610734Y359730D01*
X610812Y359869D01*
X610906Y360002D01*
X611017Y360130D01*
X611023Y360135D01*
X611045Y360158D01*
X611078Y360191D01*
X611128Y360230D01*
X611184Y360280D01*
X611256Y360335D01*
X611339Y360396D01*
X611434Y360457D01*
X611539Y360513D01*
X611656Y360574D01*
X611783Y360629D01*
X611916Y360679D01*
X612061Y360718D01*
X612211Y360751D01*
X612371Y360774D01*
X612538Y360779D01*
X612544D01*
X612560D01*
X612582D01*
X612616D01*
X612660Y360774D01*
X612705Y360768D01*
X612760Y360763D01*
X612821Y360757D01*
X612960Y360735D01*
X613115Y360701D01*
X613276Y360651D01*
X613443Y360591D01*
X613448D01*
X613465Y360579D01*
X613487Y360568D01*
X613520Y360552D01*
X613559Y360535D01*
X613609Y360507D01*
X613665Y360479D01*
X613726Y360441D01*
X613792Y360402D01*
X613865Y360357D01*
X614025Y360246D01*
X614109Y360185D01*
X614197Y360119D01*
X614286Y360041D01*
X614381Y359963D01*
X614386Y359958D01*
X614403Y359941D01*
X614431Y359919D01*
X614469Y359880D01*
X614519Y359830D01*
X614580Y359769D01*
X614653Y359702D01*
X614736Y359619D01*
X614825Y359525D01*
X614924Y359414D01*
X615035Y359297D01*
X615158Y359164D01*
X615285Y359020D01*
X615424Y358864D01*
X615574Y358692D01*
X615729Y358509D01*
X615735Y358498D01*
X615763Y358470D01*
X615796Y358432D01*
X615846Y358376D01*
X615901Y358304D01*
X615968Y358232D01*
X616040Y358149D01*
X616118Y358060D01*
X616279Y357871D01*
X616362Y357782D01*
X616440Y357693D01*
X616517Y357610D01*
X616584Y357538D01*
X616645Y357471D01*
X616701Y357421D01*
X616712Y357410D01*
X616745Y357383D01*
X616795Y357338D01*
X616856Y357283D01*
X616934Y357222D01*
X617017Y357155D01*
X617111Y357088D01*
X617206Y357027D01*
Y360790D01*
X618110D01*
Y355718D01*
D02*
G37*
G36*
Y352476D02*
X612105D01*
X612111Y352471D01*
X612122Y352460D01*
X612138Y352443D01*
X612161Y352415D01*
X612188Y352382D01*
X612227Y352338D01*
X612266Y352288D01*
X612311Y352238D01*
X612355Y352171D01*
X612410Y352104D01*
X612460Y352032D01*
X612521Y351955D01*
X612577Y351866D01*
X612638Y351777D01*
X612760Y351577D01*
X612766Y351572D01*
X612777Y351555D01*
X612793Y351522D01*
X612810Y351483D01*
X612838Y351438D01*
X612871Y351383D01*
X612904Y351316D01*
X612943Y351250D01*
X613021Y351094D01*
X613099Y350928D01*
X613176Y350756D01*
X613243Y350589D01*
X612333D01*
X612327Y350601D01*
X612316Y350623D01*
X612294Y350667D01*
X612266Y350723D01*
X612233Y350789D01*
X612188Y350872D01*
X612138Y350961D01*
X612083Y351056D01*
X612016Y351161D01*
X611950Y351272D01*
X611794Y351505D01*
X611622Y351744D01*
X611434Y351971D01*
X611428Y351977D01*
X611411Y351999D01*
X611384Y352027D01*
X611345Y352066D01*
X611295Y352116D01*
X611239Y352171D01*
X611173Y352232D01*
X611106Y352299D01*
X611028Y352365D01*
X610945Y352437D01*
X610773Y352576D01*
X610590Y352704D01*
X610496Y352759D01*
X610401Y352809D01*
Y353420D01*
X618110D01*
Y352476D01*
D02*
G37*
G36*
X615058Y348552D02*
X615158D01*
X615269Y348547D01*
X615396Y348536D01*
X615529Y348525D01*
X615674Y348508D01*
X615824Y348492D01*
X616129Y348447D01*
X616284Y348414D01*
X616429Y348380D01*
X616573Y348336D01*
X616706Y348292D01*
X616712Y348286D01*
X616734Y348281D01*
X616773Y348264D01*
X616817Y348242D01*
X616878Y348208D01*
X616945Y348175D01*
X617017Y348131D01*
X617100Y348075D01*
X617189Y348014D01*
X617278Y347948D01*
X617367Y347870D01*
X617461Y347781D01*
X617555Y347687D01*
X617644Y347587D01*
X617733Y347470D01*
X617816Y347348D01*
X617822Y347343D01*
X617833Y347315D01*
X617855Y347276D01*
X617883Y347226D01*
X617916Y347154D01*
X617949Y347076D01*
X617988Y346976D01*
X618027Y346871D01*
X618066Y346743D01*
X618105Y346610D01*
X618138Y346466D01*
X618171Y346305D01*
X618199Y346133D01*
X618221Y345950D01*
X618232Y345761D01*
X618238Y345555D01*
Y345450D01*
X618232Y345378D01*
X618227Y345284D01*
X618216Y345178D01*
X618205Y345056D01*
X618193Y344928D01*
X618171Y344790D01*
X618149Y344645D01*
X618116Y344501D01*
X618083Y344351D01*
X618038Y344207D01*
X617988Y344057D01*
X617933Y343918D01*
X617866Y343785D01*
X617861Y343779D01*
X617849Y343757D01*
X617827Y343719D01*
X617799Y343674D01*
X617761Y343619D01*
X617711Y343552D01*
X617655Y343485D01*
X617594Y343408D01*
X617522Y343330D01*
X617439Y343247D01*
X617355Y343163D01*
X617255Y343086D01*
X617156Y343008D01*
X617039Y342936D01*
X616923Y342869D01*
X616795Y342808D01*
X616784Y342803D01*
X616762Y342797D01*
X616723Y342780D01*
X616667Y342764D01*
X616595Y342742D01*
X616506Y342720D01*
X616406Y342692D01*
X616290Y342664D01*
X616157Y342636D01*
X616012Y342608D01*
X615857Y342586D01*
X615685Y342564D01*
X615502Y342547D01*
X615302Y342531D01*
X615091Y342525D01*
X614869Y342520D01*
X610429D01*
Y343535D01*
X614863D01*
X614875D01*
X614908D01*
X614958D01*
X615024Y343541D01*
X615108D01*
X615202Y343546D01*
X615308Y343552D01*
X615424Y343558D01*
X615541Y343569D01*
X615663Y343580D01*
X615907Y343613D01*
X616023Y343635D01*
X616140Y343657D01*
X616245Y343685D01*
X616340Y343719D01*
X616345D01*
X616362Y343730D01*
X616384Y343741D01*
X616418Y343757D01*
X616456Y343774D01*
X616501Y343802D01*
X616606Y343868D01*
X616723Y343957D01*
X616784Y344007D01*
X616845Y344068D01*
X616906Y344129D01*
X616961Y344201D01*
X617017Y344273D01*
X617067Y344357D01*
Y344362D01*
X617078Y344379D01*
X617089Y344401D01*
X617106Y344440D01*
X617128Y344484D01*
X617150Y344534D01*
X617172Y344595D01*
X617195Y344668D01*
X617217Y344745D01*
X617239Y344829D01*
X617261Y344917D01*
X617283Y345017D01*
X617300Y345123D01*
X617311Y345234D01*
X617317Y345345D01*
X617322Y345467D01*
Y345517D01*
X617317Y345572D01*
Y345650D01*
X617306Y345744D01*
X617294Y345844D01*
X617278Y345961D01*
X617261Y346088D01*
X617233Y346216D01*
X617200Y346349D01*
X617156Y346482D01*
X617111Y346616D01*
X617050Y346743D01*
X616984Y346860D01*
X616906Y346971D01*
X616817Y347065D01*
X616812Y347071D01*
X616795Y347087D01*
X616762Y347110D01*
X616717Y347137D01*
X616656Y347176D01*
X616578Y347215D01*
X616490Y347259D01*
X616379Y347304D01*
X616257Y347348D01*
X616118Y347393D01*
X615957Y347431D01*
X615779Y347470D01*
X615579Y347498D01*
X615363Y347520D01*
X615124Y347537D01*
X614863Y347542D01*
X610429D01*
Y348558D01*
X614869D01*
X614875D01*
X614880D01*
X614897D01*
X614919D01*
X614947D01*
X614980D01*
X615058Y348552D01*
D02*
G37*
D13*
X100000Y100000D02*
Y500000D01*
Y100000D02*
X700000D01*
Y500000D01*
X566142D02*
X700000D01*
X566142D02*
Y599213D01*
X532677Y632677D02*
X566142Y599213D01*
X482677Y632677D02*
X532677D01*
X448425Y598425D02*
X482677Y632677D01*
X448425Y500000D02*
Y598425D01*
X381890Y500000D02*
X448425D01*
X381890D02*
Y614173D01*
X374016Y622047D02*
X381890Y614173D01*
X299213Y622047D02*
X374016D01*
X291339Y614173D02*
X299213Y622047D01*
X291339Y500000D02*
Y614173D01*
X100000Y500000D02*
X291339D01*
D51*
X529433Y442944D02*
Y439611D01*
X530099Y438945D01*
X531432D01*
X532099Y439611D01*
Y442944D01*
X533432Y438945D02*
X534765D01*
X534098D01*
Y442944D01*
X533432Y442277D01*
X536764Y438945D02*
X538097D01*
X537430D01*
Y442944D01*
X536764Y442277D01*
M02*
