G04*
G04 #@! TF.GenerationSoftware,Altium Limited,Altium Designer,20.0.13 (296)*
G04*
G04 Layer_Color=16711935*
%FSLAX25Y25*%
%MOIN*%
G70*
G01*
G75*
%ADD52C,0.00394*%
D52*
X527953Y457382D02*
G03*
X527953Y457382I-1969J0D01*
G01*
X175551Y448583D02*
G03*
X175551Y448583I-1969J0D01*
G01*
X517362Y191102D02*
G03*
X517362Y191102I-1969J0D01*
G01*
X338228Y195827D02*
G03*
X338228Y195827I-1969J0D01*
G01*
X148819Y273228D02*
G03*
X148819Y273228I-1969J0D01*
G01*
X419636Y122264D02*
G03*
X438632Y122264I9498J0D01*
G01*
X605905Y369587D02*
G03*
X605905Y369587I-1969J0D01*
G01*
X522441Y420965D02*
X548425D01*
X522441Y460925D02*
X548425D01*
Y420965D02*
Y460925D01*
X522441Y420965D02*
Y460925D01*
X170039Y313150D02*
X198386D01*
X170039Y452126D02*
X198386D01*
Y313150D02*
Y452126D01*
X170039Y313150D02*
Y452126D01*
X511850Y187559D02*
X654370D01*
X511850Y215512D02*
X654370D01*
X511850Y187559D02*
Y215512D01*
X654370Y187559D02*
Y215512D01*
X332716Y192283D02*
X475236D01*
X332716Y220236D02*
X475236D01*
X332716Y192283D02*
Y220236D01*
X475236Y192283D02*
Y220236D01*
X143307Y269685D02*
X236221D01*
X143307Y298031D02*
X236221D01*
X143307Y269685D02*
Y298031D01*
X236221Y269685D02*
Y298031D01*
X438081Y127264D02*
X438632Y122776D01*
X420187Y127264D02*
X438081D01*
X438632Y122264D02*
Y122776D01*
X419636Y122264D02*
Y122776D01*
X420187Y127264D01*
X417992Y121280D02*
Y122776D01*
X418419D01*
Y121280D02*
X419687D01*
X418419Y122776D02*
X419636D01*
X417992Y121280D02*
X418419D01*
X440276D02*
Y122776D01*
X439849Y121280D02*
X440276D01*
X438632Y122776D02*
X439849D01*
X438581Y121280D02*
X439849D01*
Y122776D02*
X440276D01*
X600394Y333169D02*
Y373130D01*
X626378Y333169D02*
Y373130D01*
X600394D02*
X626378D01*
X600394Y333169D02*
X626378D01*
M02*
