G04*
G04 #@! TF.GenerationSoftware,Altium Limited,Altium Designer,20.0.13 (296)*
G04*
G04 Layer_Physical_Order=1*
G04 Layer_Color=255*
%FSLAX25Y25*%
%MOIN*%
G70*
G01*
G75*
%ADD13C,0.01000*%
%ADD32C,0.04000*%
%ADD33C,0.01500*%
%ADD34C,0.00600*%
%ADD35C,0.06000*%
%ADD36C,0.07087*%
%ADD37C,0.05906*%
%ADD38R,0.05906X0.05906*%
%ADD39C,0.09055*%
%ADD40C,0.08661*%
%ADD41R,0.05906X0.05906*%
%ADD42R,0.06000X0.06000*%
%ADD43R,0.06000X0.06000*%
%ADD44C,0.08268*%
%ADD45C,0.06299*%
G04:AMPARAMS|DCode=46|XSize=55.12mil|YSize=55.12mil|CornerRadius=1.93mil|HoleSize=0mil|Usage=FLASHONLY|Rotation=270.000|XOffset=0mil|YOffset=0mil|HoleType=Round|Shape=RoundedRectangle|*
%AMROUNDEDRECTD46*
21,1,0.05512,0.05126,0,0,270.0*
21,1,0.05126,0.05512,0,0,270.0*
1,1,0.00386,-0.02563,-0.02563*
1,1,0.00386,-0.02563,0.02563*
1,1,0.00386,0.02563,0.02563*
1,1,0.00386,0.02563,-0.02563*
%
%ADD46ROUNDEDRECTD46*%
%ADD47C,0.05512*%
%ADD48C,0.07874*%
%ADD49R,0.07087X0.07087*%
%ADD50C,0.03000*%
G36*
X173622Y378259D02*
X173122Y378226D01*
X173064Y378670D01*
X172665Y379631D01*
X172032Y380457D01*
X171206Y381090D01*
X170245Y381489D01*
X169613Y381572D01*
Y377638D01*
Y373704D01*
X170245Y373787D01*
X171206Y374185D01*
X172032Y374819D01*
X172665Y375644D01*
X173064Y376606D01*
X173122Y377050D01*
X173622Y377017D01*
Y352362D01*
X164567D01*
X162205Y350000D01*
X162205D01*
Y349335D01*
X161705Y349236D01*
X161368Y350049D01*
X160727Y350884D01*
X159891Y351525D01*
X158918Y351928D01*
X158274Y352013D01*
Y348031D01*
Y344050D01*
X158918Y344134D01*
X159891Y344537D01*
X160727Y345179D01*
X161368Y346014D01*
X161705Y346827D01*
X162205Y346728D01*
Y338583D01*
X113779D01*
Y383071D01*
X173622D01*
Y378259D01*
D02*
G37*
G36*
X546850Y455950D02*
X546850Y455945D01*
X546850Y455939D01*
Y445950D01*
X546850Y445945D01*
X546850Y445939D01*
Y435950D01*
X546850Y435945D01*
X546850Y435939D01*
Y430709D01*
X494488D01*
Y435827D01*
X480315Y450000D01*
X480315Y594488D01*
X546850Y594488D01*
Y455950D01*
D02*
G37*
%LPC*%
G36*
X168813Y381572D02*
X168181Y381489D01*
X167219Y381090D01*
X166393Y380457D01*
X165760Y379631D01*
X165362Y378670D01*
X165278Y378038D01*
X168813D01*
Y381572D01*
D02*
G37*
G36*
X146463Y381147D02*
Y377565D01*
X150045D01*
X149960Y378210D01*
X149557Y379183D01*
X148916Y380018D01*
X148080Y380659D01*
X147107Y381062D01*
X146463Y381147D01*
D02*
G37*
G36*
X145663D02*
X145019Y381062D01*
X144046Y380659D01*
X143210Y380018D01*
X142569Y379183D01*
X142166Y378210D01*
X142081Y377565D01*
X145663D01*
Y381147D01*
D02*
G37*
G36*
X168813Y377238D02*
X165278D01*
X165362Y376606D01*
X165760Y375644D01*
X166393Y374819D01*
X167219Y374185D01*
X168181Y373787D01*
X168813Y373704D01*
Y377238D01*
D02*
G37*
G36*
X145663Y376765D02*
X142081D01*
X142166Y376121D01*
X142569Y375148D01*
X143210Y374312D01*
X144046Y373671D01*
X145019Y373268D01*
X145663Y373183D01*
Y376765D01*
D02*
G37*
G36*
X150045D02*
X146463D01*
Y373183D01*
X147107Y373268D01*
X148080Y373671D01*
X148916Y374312D01*
X149557Y375148D01*
X149960Y376121D01*
X150045Y376765D01*
D02*
G37*
G36*
X128740Y375206D02*
X127800Y375082D01*
X126925Y374719D01*
X126173Y374142D01*
X125596Y373390D01*
X125233Y372515D01*
X125109Y371575D01*
X125233Y370635D01*
X125596Y369759D01*
X126173Y369007D01*
X126925Y368430D01*
X127800Y368068D01*
X128740Y367944D01*
X129680Y368068D01*
X130119Y368249D01*
X131625Y366743D01*
X131625Y366743D01*
X132072Y366445D01*
X132598Y366340D01*
X154548D01*
X154729Y365901D01*
X155306Y365149D01*
X156059Y364572D01*
X156934Y364209D01*
X157874Y364086D01*
X158814Y364209D01*
X159690Y364572D01*
X160442Y365149D01*
X161019Y365901D01*
X161200Y366340D01*
X165905D01*
X166109Y365846D01*
X166679Y365104D01*
X167421Y364534D01*
X168285Y364177D01*
X169213Y364054D01*
X170140Y364177D01*
X171004Y364534D01*
X171747Y365104D01*
X172316Y365846D01*
X172674Y366710D01*
X172796Y367638D01*
X172674Y368565D01*
X172316Y369429D01*
X171747Y370172D01*
X171004Y370741D01*
X170140Y371099D01*
X169213Y371221D01*
X168285Y371099D01*
X167421Y370741D01*
X166679Y370172D01*
X166109Y369429D01*
X165970Y369093D01*
X161200D01*
X161019Y369532D01*
X160442Y370284D01*
X159690Y370861D01*
X158814Y371224D01*
X157874Y371348D01*
X156934Y371224D01*
X156059Y370861D01*
X155306Y370284D01*
X154729Y369532D01*
X154548Y369093D01*
X133169D01*
X132066Y370196D01*
X132247Y370635D01*
X132371Y371575D01*
X132247Y372515D01*
X131885Y373390D01*
X131308Y374142D01*
X130556Y374719D01*
X129680Y375082D01*
X128740Y375206D01*
D02*
G37*
G36*
X169213Y361221D02*
X168285Y361099D01*
X167421Y360741D01*
X166679Y360172D01*
X166109Y359430D01*
X165937Y359014D01*
X149370D01*
X149328Y359006D01*
X149208Y359296D01*
X148630Y360048D01*
X147879Y360625D01*
X147003Y360988D01*
X146063Y361111D01*
X145123Y360988D01*
X144247Y360625D01*
X143495Y360048D01*
X142918Y359296D01*
X142736Y358857D01*
X133858D01*
X133332Y358752D01*
X132885Y358454D01*
X130119Y355688D01*
X129680Y355870D01*
X128740Y355993D01*
X127800Y355870D01*
X126925Y355507D01*
X126173Y354930D01*
X125596Y354178D01*
X125233Y353302D01*
X125109Y352362D01*
X125233Y351422D01*
X125596Y350547D01*
X126173Y349795D01*
X126925Y349218D01*
X127800Y348855D01*
X128740Y348731D01*
X129680Y348855D01*
X130556Y349218D01*
X131308Y349795D01*
X131885Y350547D01*
X132247Y351422D01*
X132371Y352362D01*
X132247Y353302D01*
X132066Y353741D01*
X134428Y356104D01*
X142736D01*
X142918Y355665D01*
X143495Y354913D01*
X144247Y354336D01*
X145123Y353973D01*
X146063Y353849D01*
X147003Y353973D01*
X147879Y354336D01*
X148630Y354913D01*
X149208Y355665D01*
X149405Y356142D01*
X149739Y356209D01*
X149818Y356261D01*
X165937D01*
X166109Y355846D01*
X166679Y355104D01*
X167421Y354535D01*
X168285Y354176D01*
X169213Y354054D01*
X170140Y354176D01*
X171004Y354535D01*
X171747Y355104D01*
X172316Y355846D01*
X172674Y356710D01*
X172796Y357638D01*
X172674Y358565D01*
X172316Y359430D01*
X171747Y360172D01*
X171004Y360741D01*
X170140Y361099D01*
X169213Y361221D01*
D02*
G37*
G36*
X157474Y352013D02*
X156830Y351928D01*
X155857Y351525D01*
X155021Y350884D01*
X154380Y350049D01*
X153977Y349076D01*
X153892Y348431D01*
X157474D01*
Y352013D01*
D02*
G37*
G36*
Y347632D02*
X153892D01*
X153977Y346987D01*
X154380Y346014D01*
X155021Y345179D01*
X155857Y344537D01*
X156830Y344134D01*
X157474Y344050D01*
Y347632D01*
D02*
G37*
G36*
X496063Y583710D02*
X494879Y583554D01*
X493775Y583097D01*
X492827Y582370D01*
X492100Y581422D01*
X491643Y580318D01*
X491487Y579134D01*
X491643Y577949D01*
X492100Y576846D01*
X492827Y575898D01*
X493775Y575171D01*
X494879Y574714D01*
X496063Y574558D01*
X497247Y574714D01*
X498351Y575171D01*
X499299Y575898D01*
X500026Y576846D01*
X500483Y577949D01*
X500639Y579134D01*
X500483Y580318D01*
X500026Y581422D01*
X499299Y582370D01*
X498351Y583097D01*
X497247Y583554D01*
X496063Y583710D01*
D02*
G37*
G36*
X510236Y487883D02*
X509296Y487759D01*
X508421Y487397D01*
X507669Y486820D01*
X507092Y486067D01*
X506824Y485422D01*
X506460Y485178D01*
X500592Y479310D01*
X500152Y479492D01*
X499213Y479615D01*
X498273Y479492D01*
X497397Y479129D01*
X496645Y478552D01*
X496068Y477800D01*
X495705Y476924D01*
X495581Y475984D01*
X495705Y475044D01*
X496068Y474169D01*
X496645Y473417D01*
X497397Y472840D01*
X498273Y472477D01*
X499213Y472353D01*
X500152Y472477D01*
X501028Y472840D01*
X501780Y473417D01*
X502357Y474169D01*
X502720Y475044D01*
X502844Y475984D01*
X502720Y476924D01*
X502538Y477363D01*
X507049Y481874D01*
X507548Y481842D01*
X507669Y481684D01*
X508421Y481107D01*
X509296Y480745D01*
X510236Y480621D01*
X511176Y480745D01*
X512052Y481107D01*
X512593Y481523D01*
X519057Y475060D01*
Y459498D01*
X516880D01*
Y452392D01*
X523986D01*
Y457551D01*
X528643Y462208D01*
X528941Y462655D01*
X529046Y463181D01*
Y466635D01*
X529768Y466934D01*
X530520Y467511D01*
X531097Y468263D01*
X531460Y469139D01*
X531584Y470079D01*
X531460Y471019D01*
X531097Y471894D01*
X530520Y472646D01*
X529768Y473223D01*
X528893Y473586D01*
X527953Y473710D01*
X527013Y473586D01*
X526137Y473223D01*
X525385Y472646D01*
X524808Y471894D01*
X524445Y471019D01*
X524322Y470079D01*
X524445Y469139D01*
X524808Y468263D01*
X525385Y467511D01*
X526137Y466934D01*
X526293Y466870D01*
Y463752D01*
X522309Y459768D01*
X521809Y459975D01*
Y475630D01*
X521705Y476157D01*
X521406Y476603D01*
X513855Y484155D01*
X513867Y484252D01*
X513743Y485192D01*
X513381Y486067D01*
X512804Y486820D01*
X512052Y487397D01*
X511176Y487759D01*
X510236Y487883D01*
D02*
G37*
G36*
X517323Y583710D02*
X516138Y583554D01*
X515035Y583097D01*
X514087Y582370D01*
X513360Y581422D01*
X512903Y580318D01*
X512747Y579134D01*
X512903Y577949D01*
X513360Y576846D01*
X514087Y575898D01*
X515035Y575171D01*
X515946Y574793D01*
Y521043D01*
X485641Y490737D01*
X485343Y490290D01*
X485238Y489764D01*
Y453543D01*
X485343Y453017D01*
X485641Y452570D01*
X493515Y444696D01*
X493515Y444696D01*
X493961Y444398D01*
X494488Y444293D01*
X494488Y444293D01*
X505905D01*
X505905Y444293D01*
X505906Y444293D01*
X506683D01*
X506729Y443942D01*
X507092Y443066D01*
X507669Y442314D01*
X508421Y441737D01*
X509296Y441375D01*
X510236Y441251D01*
X511176Y441375D01*
X512052Y441737D01*
X512804Y442314D01*
X513381Y443066D01*
X513433Y443192D01*
X518185D01*
X518641Y442842D01*
X519506Y442484D01*
X520433Y442361D01*
X521360Y442484D01*
X522225Y442842D01*
X522967Y443411D01*
X523536Y444153D01*
X523894Y445017D01*
X524017Y445945D01*
X523894Y446872D01*
X523536Y447737D01*
X522967Y448479D01*
X522225Y449048D01*
X521360Y449406D01*
X520433Y449528D01*
X519506Y449406D01*
X518641Y449048D01*
X517899Y448479D01*
X517330Y447737D01*
X516972Y446872D01*
X516850Y445945D01*
X513693D01*
X513381Y446697D01*
X512804Y447449D01*
X512052Y448027D01*
X511176Y448389D01*
X510236Y448513D01*
X509296Y448389D01*
X508421Y448027D01*
X507669Y447449D01*
X507359Y447046D01*
X506476D01*
X501030Y452492D01*
Y453156D01*
X501780Y453732D01*
X502357Y454484D01*
X502720Y455359D01*
X502844Y456299D01*
X502720Y457239D01*
X502357Y458115D01*
X501780Y458867D01*
X501028Y459444D01*
X500152Y459806D01*
X499213Y459930D01*
X498273Y459806D01*
X497397Y459444D01*
X496645Y458867D01*
X496068Y458115D01*
X495705Y457239D01*
X495581Y456299D01*
X495705Y455359D01*
X496068Y454484D01*
X496645Y453732D01*
X497397Y453155D01*
X498273Y452792D01*
X498277Y452791D01*
Y451922D01*
X498382Y451395D01*
X498680Y450948D01*
X502120Y447508D01*
X501929Y447046D01*
X495058D01*
X487991Y454113D01*
Y489194D01*
X518296Y519499D01*
X518296Y519499D01*
X518595Y519946D01*
X518699Y520472D01*
Y574793D01*
X519611Y575171D01*
X520559Y575898D01*
X521286Y576846D01*
X521743Y577949D01*
X521899Y579134D01*
X521743Y580318D01*
X521286Y581422D01*
X520559Y582370D01*
X519611Y583097D01*
X518507Y583554D01*
X517323Y583710D01*
D02*
G37*
G36*
X520433Y439528D02*
X519506Y439406D01*
X518641Y439048D01*
X517899Y438479D01*
X517330Y437737D01*
X516972Y436872D01*
X516850Y435945D01*
X516972Y435017D01*
X517330Y434153D01*
X517899Y433411D01*
X518641Y432842D01*
X519506Y432484D01*
X520433Y432362D01*
X521360Y432484D01*
X522225Y432842D01*
X522967Y433411D01*
X523536Y434153D01*
X523894Y435017D01*
X524017Y435945D01*
X523894Y436872D01*
X523536Y437737D01*
X522967Y438479D01*
X522225Y439048D01*
X521360Y439406D01*
X520433Y439528D01*
D02*
G37*
%LPD*%
D13*
X455905Y445276D02*
X459055Y442126D01*
Y332283D02*
Y442126D01*
X423622Y296850D02*
X459055Y332283D01*
X569611Y121334D02*
X577165Y113779D01*
Y105905D02*
Y113779D01*
X565748Y122047D02*
X566461Y121334D01*
X569611D01*
X574409Y103150D02*
X577165Y105905D01*
X164764Y263583D02*
Y295472D01*
X159213Y258032D02*
X164764Y263583D01*
X161378Y298858D02*
X164764Y295472D01*
X159764Y298858D02*
X161378D01*
X198031Y306692D02*
X265354D01*
X194882Y303543D02*
X198031Y306692D01*
X281102Y295669D02*
X303150Y273622D01*
X280709Y295669D02*
X281102D01*
X303150Y273622D02*
X490158D01*
X438976Y221260D02*
X439550Y221834D01*
Y224983D01*
X441339Y226772D01*
X469685D01*
X476378Y233465D02*
Y259842D01*
X469685Y226772D02*
X476378Y233465D01*
X490158Y273622D02*
X642520D01*
X476378Y259842D02*
X490158Y273622D01*
X648425Y235827D02*
Y267717D01*
X642520Y273622D02*
X648425Y267717D01*
X624803Y223228D02*
X635827D01*
X648425Y235827D01*
X618110Y216535D02*
X624803Y223228D01*
X318032Y255512D02*
X322835Y250709D01*
Y236614D02*
Y250709D01*
X328346Y216929D02*
Y231102D01*
X322835Y236614D02*
X328346Y231102D01*
X338976Y191260D02*
Y206299D01*
X328346Y216929D02*
X338976Y206299D01*
X328031Y255512D02*
X328970Y254573D01*
Y252526D02*
Y254573D01*
Y252526D02*
X333071Y248425D01*
Y216929D02*
Y248425D01*
X348976Y191260D02*
Y201024D01*
X333071Y216929D02*
X348976Y201024D01*
X344882Y214173D02*
X358976Y200079D01*
X158661Y305118D02*
X183858D01*
X358976Y191260D02*
Y200079D01*
X354331Y214173D02*
X368976Y199528D01*
Y191260D02*
Y199528D01*
X364567Y214173D02*
X378976Y199764D01*
Y191260D02*
Y199764D01*
X374410Y213779D02*
X388976Y199213D01*
Y191260D02*
Y199213D01*
X384646Y214173D02*
X385039D01*
X398976Y200236D01*
Y191260D02*
Y200236D01*
X394488Y214173D02*
X408976Y199685D01*
Y191260D02*
Y199685D01*
X458976Y191260D02*
X469291Y201575D01*
X470669D01*
X393307Y242122D02*
Y250787D01*
X389056Y237871D02*
X393307Y242122D01*
X379902Y237871D02*
X389056D01*
X393999Y240551D02*
X400394D01*
X389719Y236271D02*
X393999Y240551D01*
X374708Y232677D02*
X379902Y237871D01*
X350394Y232677D02*
X374708D01*
X360236Y229921D02*
X374215D01*
X380564Y236271D02*
X389719D01*
X374215Y229921D02*
X380564Y236271D01*
X381227Y234671D02*
X390382D01*
X373722Y227165D02*
X381227Y234671D01*
X364882Y227165D02*
X373722D01*
X381890Y233071D02*
X391044D01*
X370079Y221260D02*
X381890Y233071D01*
X390382Y234671D02*
X394344Y238633D01*
X391044Y233071D02*
X395007Y237033D01*
X393307Y250787D02*
X398031Y255512D01*
X338976Y221260D02*
X350394Y232677D01*
X403150Y243307D02*
Y250630D01*
X400394Y240551D02*
X403150Y243307D01*
Y250630D02*
X408032Y255512D01*
X352424Y222109D02*
X360236Y229921D01*
X349826Y222109D02*
X352424D01*
X348976Y221260D02*
X349826Y222109D01*
X407531Y238633D02*
X413386Y244488D01*
X394344Y238633D02*
X407531D01*
X358976Y221260D02*
X364882Y227165D01*
X416167Y237033D02*
X423622Y244488D01*
X395007Y237033D02*
X416167D01*
X425984Y235433D02*
X433465Y242913D01*
X395669Y235433D02*
X425984D01*
X382385Y222149D02*
X395669Y235433D01*
X434252Y233465D02*
X443307Y242520D01*
X401181Y233465D02*
X434252D01*
X388976Y221260D02*
X401181Y233465D01*
X445276Y231102D02*
X453150Y238976D01*
X411417Y231102D02*
X445276D01*
X402424Y222109D02*
X411417Y231102D01*
X413386Y244488D02*
Y250866D01*
X418032Y255512D01*
X368976Y221260D02*
X370079D01*
X423622Y244488D02*
Y251102D01*
X428031Y255512D01*
X433465Y242913D02*
Y250945D01*
X438031Y255512D01*
X379865Y222149D02*
X382385D01*
X378976Y221260D02*
X379865Y222149D01*
X443307Y242520D02*
Y250787D01*
X448032Y255512D01*
X453150Y250787D02*
X457874Y255512D01*
X458032D01*
X453150Y238976D02*
Y250787D01*
X399826Y222109D02*
X402424D01*
X398976Y221260D02*
X399826Y222109D01*
X462992Y238583D02*
Y250472D01*
X468032Y255512D01*
X453543Y229134D02*
X462992Y238583D01*
X416850Y229134D02*
X453543D01*
X408976Y221260D02*
X416850Y229134D01*
X568169Y206477D02*
X588110Y186535D01*
X566358Y206477D02*
X568169D01*
X566142Y206693D02*
X566358Y206477D01*
X538740Y205906D02*
X558110Y186535D01*
X531890Y205906D02*
X538740D01*
X546043Y207107D02*
X547539D01*
X545669Y207480D02*
X546043Y207107D01*
X547539D02*
X568110Y186535D01*
X556682Y206704D02*
X557942D01*
X556299Y207087D02*
X556682Y206704D01*
X557942D02*
X578110Y186535D01*
X538583Y237402D02*
X540551Y239370D01*
Y250787D01*
X545276Y255512D01*
X530315Y240945D02*
Y250551D01*
X535276Y255512D01*
X525197Y235827D02*
X530315Y240945D01*
X525197Y228740D02*
Y235827D01*
X520079Y250315D02*
X525276Y255512D01*
X520079Y226378D02*
Y250315D01*
X537087Y186535D02*
X538110D01*
X500787Y222835D02*
X537087Y186535D01*
X500787Y222835D02*
Y250394D01*
X510236Y250472D02*
X515276Y255512D01*
X510236Y216672D02*
Y250472D01*
Y216672D02*
X524940Y201969D01*
X531890D01*
X547323Y186535D01*
X548110D01*
X500787Y250394D02*
X505276Y254882D01*
Y255512D01*
X490158Y224488D02*
Y250394D01*
X495276Y255512D01*
X490158Y224488D02*
X528110Y186535D01*
X479528Y216535D02*
X509528Y186535D01*
X518110D01*
X479528Y216535D02*
Y249764D01*
X485276Y255512D01*
X560157Y250394D02*
X565276Y255512D01*
X551575Y250394D02*
X560157D01*
X550787Y249606D02*
X551575Y250394D01*
X550787Y243701D02*
Y249606D01*
X540945Y233858D02*
X550787Y243701D01*
X552545Y240970D02*
X567323D01*
X528110Y216535D02*
X552545Y240970D01*
X535433Y233858D02*
X540945D01*
X518110Y216535D02*
X535433Y233858D01*
X570866Y250394D02*
X575276Y254803D01*
Y255512D01*
X570866Y244513D02*
Y250394D01*
X567323Y240970D02*
X570866Y244513D01*
X580315Y241339D02*
Y250551D01*
X585276Y255512D01*
X578346Y239370D02*
X580315Y241339D01*
X560945Y239370D02*
X578346D01*
X538110Y216535D02*
X560945Y239370D01*
X590158Y241339D02*
Y250394D01*
X595276Y255512D01*
X586221Y237402D02*
X590158Y241339D01*
X568976Y237402D02*
X586221D01*
X548110Y216535D02*
X568976Y237402D01*
X600394Y248819D02*
X604337Y252762D01*
Y254573D01*
X605276Y255512D01*
X600394Y237795D02*
Y248819D01*
X597638Y235039D02*
X600394Y237795D01*
X576614Y235039D02*
X597638D01*
X558110Y216535D02*
X576614Y235039D01*
X610236Y250472D02*
X615276Y255512D01*
X610236Y238189D02*
Y250472D01*
X605118Y233071D02*
X610236Y238189D01*
X584646Y233071D02*
X605118D01*
X568110Y216535D02*
X584646Y233071D01*
X620079Y238583D02*
Y250315D01*
X625276Y255512D01*
X612205Y230709D02*
X620079Y238583D01*
X592283Y230709D02*
X612205D01*
X578110Y216535D02*
X592283Y230709D01*
X630709Y250945D02*
X635276Y255512D01*
X630709Y230709D02*
Y250945D01*
X627165Y227165D02*
X630709Y230709D01*
X598032Y227165D02*
X627165D01*
X588110Y217244D02*
X598032Y227165D01*
X588110Y216535D02*
Y217244D01*
X183858Y305118D02*
X184252Y304724D01*
X154724Y301181D02*
X158661Y305118D01*
X154724Y289370D02*
Y301181D01*
X146063Y280709D02*
X154724Y289370D01*
X140551Y280709D02*
X146063D01*
X133465Y273622D02*
X140551Y280709D01*
X104724Y266535D02*
X109055Y270866D01*
X104724Y259055D02*
Y266535D01*
X104724Y113386D02*
X114567Y103543D01*
X104724Y259055D02*
X104724Y113386D01*
X105931Y296431D02*
X110236Y292126D01*
X105931Y296431D02*
Y486345D01*
X110236Y280709D02*
Y292126D01*
X105931Y486345D02*
X113779Y494194D01*
X104331Y292913D02*
Y487008D01*
Y292913D02*
X107087Y290158D01*
X104331Y487008D02*
X113386Y496063D01*
X114567Y103543D02*
X512205D01*
X512598Y103150D01*
X574409D01*
X205906Y454724D02*
X222441D01*
X255906Y488189D01*
X199213Y437638D02*
X203307Y441732D01*
X265748D01*
X342520Y518504D01*
Y610236D01*
X303543Y485827D02*
Y591260D01*
X322520Y610236D01*
X265354Y447638D02*
X303543Y485827D01*
X199213Y447638D02*
X265354D01*
X162953Y453898D02*
X169213Y447638D01*
X158189Y458661D02*
X162953Y453898D01*
X161417Y452362D02*
X162953Y453898D01*
X161417Y413386D02*
Y452362D01*
X114173Y320472D02*
X124016Y310630D01*
X146850D01*
X149606Y307874D01*
X190551D01*
X194882Y303543D01*
Y296063D02*
Y303543D01*
X181496Y322441D02*
X266142D01*
X176693Y317638D02*
X181496Y322441D01*
X194882Y296063D02*
X199764Y291181D01*
Y268858D02*
Y291181D01*
X229764Y298858D02*
X235433Y293189D01*
Y261811D02*
Y293189D01*
X230245Y256623D02*
X235433Y261811D01*
X230245Y253788D02*
Y256623D01*
X229213Y252756D02*
X230245Y253788D01*
X219764Y298858D02*
X224803Y293819D01*
Y260630D02*
Y293819D01*
X220151Y255978D02*
X224803Y260630D01*
X220151Y253695D02*
Y255978D01*
X219213Y252756D02*
X220151Y253695D01*
X209764Y298858D02*
X214961Y293661D01*
Y261417D02*
Y293661D01*
X209905Y256361D02*
X214961Y261417D01*
X209905Y253448D02*
Y256361D01*
X209213Y252756D02*
X209905Y253448D01*
X199764Y298858D02*
X204724Y293898D01*
Y260236D02*
Y293898D01*
X200151Y255663D02*
X204724Y260236D01*
X200151Y253695D02*
Y255663D01*
X199213Y252756D02*
X200151Y253695D01*
X189764Y298858D02*
X194882Y293740D01*
Y261811D02*
Y293740D01*
X189668Y256597D02*
X194882Y261811D01*
X189668Y253212D02*
Y256597D01*
X189213Y252756D02*
X189668Y253212D01*
X179764Y298858D02*
X184646Y293976D01*
Y261417D02*
Y293976D01*
X179747Y256519D02*
X184646Y261417D01*
X179747Y253290D02*
Y256519D01*
X179213Y252756D02*
X179747Y253290D01*
X175197Y263779D02*
Y293425D01*
X169764Y298858D02*
X175197Y293425D01*
X169213Y257795D02*
X175197Y263779D01*
X169213Y252756D02*
Y257795D01*
X159213Y252756D02*
Y258032D01*
X213779Y343701D02*
X265354D01*
X213386Y343307D02*
X213779Y343701D01*
X204331Y352362D02*
X213386Y343307D01*
X242598Y317638D02*
X249606Y310630D01*
X266535D01*
X287402Y325984D02*
X290132Y323253D01*
X291339D01*
X195276Y333071D02*
X265748D01*
X189842Y327638D02*
X195276Y333071D01*
X283858Y332677D02*
X286221D01*
X294044Y324853D01*
X284646Y338189D02*
X296381Y326453D01*
X211811Y338189D02*
X265748D01*
X394646Y407087D02*
X412756Y425197D01*
X345276Y407087D02*
X394646D01*
X390158Y412598D02*
X402756Y425197D01*
X344882Y412598D02*
X390158D01*
X159764Y268032D02*
Y268858D01*
X141339Y249606D02*
X159764Y268032D01*
X123622Y249606D02*
X141339D01*
X432677Y420866D02*
Y425118D01*
X432756Y425197D01*
X429528Y417717D02*
X432677Y420866D01*
X414567Y417717D02*
X429528D01*
X403937Y407087D02*
X414567Y417717D01*
X403937Y342520D02*
Y407087D01*
X387871Y326453D02*
X403937Y342520D01*
X296381Y326453D02*
X387871D01*
X409842Y342520D02*
Y409449D01*
X392176Y324853D02*
X409842Y342520D01*
Y409449D02*
X415354Y414961D01*
X294044Y324853D02*
X392176D01*
X207480Y342520D02*
X211811Y338189D01*
X194095Y342520D02*
X207480D01*
X189213Y337638D02*
X194095Y342520D01*
X169213Y337638D02*
X189213D01*
X433465Y414961D02*
X438113Y419609D01*
Y429840D01*
X432756Y435197D02*
X438113Y429840D01*
X415354Y414961D02*
X433465D01*
X419291Y342913D02*
Y409449D01*
X418110Y410630D02*
X419291Y409449D01*
X399632Y323253D02*
X419291Y342913D01*
X291339Y323253D02*
X399632Y323253D01*
X169213Y327638D02*
X189842D01*
X194488Y352362D02*
X204331D01*
X189764Y347638D02*
X194488Y352362D01*
X169213Y347638D02*
X189764D01*
X442913Y356693D02*
Y425039D01*
X442756Y425197D02*
X442913Y425039D01*
X407874Y321654D02*
X442913Y356693D01*
X279921Y321654D02*
X407874D01*
X169213Y317638D02*
X176693D01*
X443307Y435748D02*
Y440945D01*
X442756Y435197D02*
X443307Y435748D01*
Y440945D02*
X447638Y445276D01*
X455905D01*
X285039Y296850D02*
X423622D01*
X199213Y317638D02*
X242598D01*
X225590Y476772D02*
Y486063D01*
X230866Y491339D01*
X216142Y467323D02*
X225590Y476772D01*
X203543Y467323D02*
X216142D01*
X122047Y278740D02*
X132284D01*
X142519Y288976D01*
X133465Y287795D02*
X137795Y292126D01*
X310630Y333465D02*
X320472Y343307D01*
Y410236D02*
X328740Y418504D01*
X320472Y343307D02*
Y410236D01*
X328740Y418504D02*
X386063D01*
X392756Y425197D01*
X295658Y448414D02*
X301181Y453937D01*
X295658Y447233D02*
Y448414D01*
X295276Y446850D02*
X295658Y447233D01*
X286852Y438821D02*
X291339Y443307D01*
X283569Y438821D02*
X286852D01*
X279372Y434623D02*
X283569Y438821D01*
X199213Y407638D02*
X257672D01*
X279372Y431600D02*
Y434623D01*
X260370Y412598D02*
X279372Y431600D01*
X193701Y412598D02*
X260370D01*
X257672Y407638D02*
X281387Y431353D01*
Y432962D01*
X284646Y436221D01*
X277763Y435277D02*
X285399Y442913D01*
X285827D01*
X275695Y435277D02*
X277763D01*
X261732Y417638D02*
X276772Y432677D01*
X262859Y422441D02*
X275695Y435277D01*
X265433Y427638D02*
X276772Y438976D01*
X199213Y417638D02*
X261732D01*
X178740Y397638D02*
X193701Y412598D01*
X169213Y397638D02*
X178740D01*
X195669Y422441D02*
X262859D01*
X180866Y407638D02*
X195669Y422441D01*
X169213Y407638D02*
X180866D01*
X195669Y432677D02*
X264961D01*
X180630Y417638D02*
X195669Y432677D01*
X169213Y417638D02*
X180630D01*
X199213Y427638D02*
X265433D01*
X113779Y494194D02*
X182283D01*
X113386Y496063D02*
X182677D01*
X192126Y486614D01*
X182283Y494194D02*
X200887Y475591D01*
X215118D01*
X220866Y481339D01*
X192126Y486614D02*
X216142D01*
X220866Y491339D01*
X215984Y496457D02*
X247638D01*
X255906Y488189D01*
X210866Y491339D02*
X215984Y496457D01*
X122835Y287795D02*
X133465D01*
X185827Y446063D02*
X194252Y437638D01*
X199213D01*
X185827Y446063D02*
Y462598D01*
X172047Y476378D02*
X185827Y462598D01*
X199213Y447638D02*
Y468110D01*
X177953Y489370D02*
X199213Y468110D01*
X172047Y489370D02*
X177953D01*
X142520Y458661D02*
X158189D01*
D32*
X321654Y179134D02*
Y222047D01*
X311024Y232677D02*
X321654Y222047D01*
X628386Y368150D02*
X628901D01*
X630831Y370079D01*
X644095D01*
X520433Y425945D02*
X534173Y412205D01*
X652756D01*
X662598Y402362D01*
Y360236D02*
Y402362D01*
X644083Y341721D02*
X662598Y360236D01*
X644083Y338965D02*
Y341721D01*
X643701Y338583D02*
X644083Y338965D01*
X629335Y338583D02*
X643701D01*
X628386Y338150D02*
X628901D01*
X629335Y338583D01*
X559094Y455945D02*
X559449Y456299D01*
X550433Y455945D02*
X559094D01*
X570472Y445276D02*
X637008D01*
X559449Y456299D02*
X570472Y445276D01*
X509066Y425208D02*
X509449Y425591D01*
X509803Y425945D02*
X520433D01*
X509449Y425591D02*
X509803Y425945D01*
X685039Y166142D02*
Y392913D01*
X666142Y147244D02*
X685039Y166142D01*
X543307Y147244D02*
X666142D01*
X505118Y109055D02*
X543307Y147244D01*
X415748Y109055D02*
X505118D01*
X411811Y112992D02*
X415748Y109055D01*
X411811Y112992D02*
Y139370D01*
X403150Y148031D02*
X411811Y139370D01*
X403150Y148031D02*
Y156299D01*
X385433Y155512D02*
X392913Y148031D01*
Y127165D02*
Y148031D01*
Y127165D02*
X403150Y116929D01*
X376772Y155512D02*
X385433D01*
X416535Y156299D02*
X427165Y145669D01*
X403150Y156299D02*
X416535D01*
X350394Y145669D02*
X363779D01*
X346457Y141732D02*
X350394Y145669D01*
X338583Y141732D02*
X346457D01*
X381890Y462598D02*
X401968D01*
X381890D02*
X382756Y461732D01*
X131349Y299606D02*
X132136Y298819D01*
X494095Y166535D02*
X591732D01*
X446063D02*
X494095D01*
X458976Y213071D02*
X461811Y210236D01*
X458976Y213071D02*
Y221260D01*
X461811Y210236D02*
X472441D01*
X494095Y188583D01*
Y166535D02*
Y188583D01*
X109449Y299213D02*
X115748Y292913D01*
X109449Y299213D02*
Y400394D01*
X132136Y298819D02*
X132530Y298425D01*
X115748Y241732D02*
Y292913D01*
Y241732D02*
X124803Y232677D01*
X352520Y596299D02*
X358268Y590551D01*
X352520Y596299D02*
Y610236D01*
X577559Y342126D02*
X581535Y338150D01*
X598386D01*
X590551Y358268D02*
X598268D01*
X598386Y358150D01*
X584252Y351969D02*
X590551Y358268D01*
X577559Y351969D02*
X584252D01*
X199213Y367638D02*
Y377638D01*
X358268Y462598D02*
X381890D01*
X339370D02*
X358268D01*
Y590551D02*
X369291Y579528D01*
Y532677D02*
Y579528D01*
X358268Y521654D02*
X369291Y532677D01*
X358268Y503543D02*
Y521654D01*
Y462598D02*
Y475197D01*
X132136Y298819D02*
X149724D01*
X131496D02*
X132136D01*
X149724D02*
X149764Y298858D01*
X211811Y356299D02*
Y367717D01*
X199213Y367638D02*
X199291Y367717D01*
X211811D01*
X382756Y435197D02*
Y461732D01*
X273622Y396850D02*
X339370Y462598D01*
X273622Y354331D02*
Y396850D01*
X158661Y392913D02*
Y403150D01*
X142520Y419291D02*
X158661Y403150D01*
X124016Y467717D02*
X132677Y476378D01*
X124016Y423622D02*
Y467717D01*
Y423622D02*
X128347Y419291D01*
X132677Y476378D02*
Y489370D01*
X109449Y400394D02*
X128347Y419291D01*
X142520D01*
X158661Y392913D02*
X163937Y387638D01*
X169213D01*
X273622Y232677D02*
X311024D01*
X124803D02*
X273622D01*
X252989Y368110D02*
X259842D01*
X252978Y368099D02*
X252989Y368110D01*
X251564Y368099D02*
X252978D01*
X251181Y367717D02*
X251564Y368099D01*
X259842Y368110D02*
X273622Y354331D01*
Y232677D02*
Y354331D01*
X637008Y445276D02*
X672835Y409449D01*
Y181890D02*
Y409449D01*
X423622Y166535D02*
X446063D01*
X334252D02*
X423622D01*
X122441Y299606D02*
X131349D01*
X115748Y292913D02*
X122441Y299606D01*
X321654Y179134D02*
X334252Y166535D01*
X657480D02*
X672835Y181890D01*
X591732Y166535D02*
X657480D01*
X598110Y173543D02*
X598425Y173228D01*
X598110Y173543D02*
Y186535D01*
X591732Y166535D02*
X598425Y173228D01*
X418898Y177953D02*
X418976Y178032D01*
Y191260D01*
X418898Y171260D02*
Y177953D01*
Y171260D02*
X423622Y166535D01*
X446063D02*
X456693Y155905D01*
Y125984D02*
Y155905D01*
X452756Y122047D02*
X456693Y125984D01*
X439134Y122047D02*
X452756D01*
X419134D02*
Y137638D01*
X427165Y145669D01*
X363779Y155512D02*
X376772D01*
X363779Y145669D02*
X376772D01*
D33*
X505905Y445669D02*
X511024D01*
X512124Y444568D01*
X494488Y445669D02*
X505905D01*
X486614Y453543D02*
X494488Y445669D01*
X499653Y451922D02*
X505905Y445669D01*
X499653Y451922D02*
Y455859D01*
X519057Y444568D02*
X520433Y445945D01*
X512124Y444568D02*
X519057D01*
X547244Y384252D02*
X585827D01*
X599213Y397638D01*
X531890Y368898D02*
X547244Y384252D01*
X504724Y368898D02*
X531890D01*
X498425Y375197D02*
X504724Y368898D01*
X527670Y463181D02*
Y469796D01*
X527953Y470079D01*
X486614Y489764D02*
X517323Y520472D01*
X486614Y453543D02*
Y489764D01*
X353937Y490945D02*
X457874D01*
X498425Y375197D02*
Y405118D01*
X599213Y397638D02*
X599606Y398031D01*
X517323Y520472D02*
Y579134D01*
X551276Y435102D02*
X553874D01*
X560630Y428346D01*
X550433Y435945D02*
X551276Y435102D01*
X550709Y445669D02*
X556299D01*
X550433Y445945D02*
X550709Y445669D01*
X556299D02*
X564567Y437402D01*
X590945D01*
X600000Y428346D01*
X520433Y455945D02*
X527670Y463181D01*
X510189Y484205D02*
X511024Y485039D01*
X507433Y484205D02*
X510189D01*
X499213Y475984D02*
X507433Y484205D01*
X499213Y456299D02*
X499653Y455859D01*
X511024Y485039D02*
X520433Y475630D01*
Y455945D02*
Y475630D01*
X260630Y397638D02*
X353937Y490945D01*
X199213Y397638D02*
X260630D01*
X128740Y371575D02*
X132598Y367717D01*
X157874D01*
X128740Y352362D02*
X133858Y357480D01*
X146063D01*
X145276Y358268D02*
X146063Y357480D01*
X157874Y367717D02*
X169134D01*
X128740Y371575D02*
X128780D01*
X149213Y357480D02*
X149370Y357638D01*
X169213D01*
X169134Y367717D02*
X169213Y367638D01*
D34*
X648110Y209370D02*
X648177Y209304D01*
Y208807D02*
Y209304D01*
X648110Y209370D02*
Y216535D01*
X639764Y200394D02*
X648177Y208807D01*
X605512Y200394D02*
X639764D01*
X598110Y192992D02*
X605512Y200394D01*
X598110Y186535D02*
Y192992D01*
D35*
X510236Y484252D02*
D03*
Y444882D02*
D03*
X527953Y470079D02*
D03*
X567323D02*
D03*
X560630Y428346D02*
D03*
X600000D02*
D03*
X559449Y456299D02*
D03*
X598819D02*
D03*
X509449Y425591D02*
D03*
Y386221D02*
D03*
X643701Y338583D02*
D03*
X577559Y342126D02*
D03*
X653937Y370079D02*
D03*
X499213Y456299D02*
D03*
Y475984D02*
D03*
X342520Y610236D02*
D03*
X332520D02*
D03*
X322520D02*
D03*
X358268Y590551D02*
D03*
Y551181D02*
D03*
X401968Y462598D02*
D03*
X441339D02*
D03*
X382677Y472441D02*
D03*
X142520Y419291D02*
D03*
Y458661D02*
D03*
X158661Y392913D02*
D03*
X119291D02*
D03*
X157874Y367717D02*
D03*
Y348031D02*
D03*
X146063Y357480D02*
D03*
Y377165D02*
D03*
X128740Y352362D02*
D03*
Y371575D02*
D03*
X132677Y476378D02*
D03*
X172047D02*
D03*
X132677Y489370D02*
D03*
X172047D02*
D03*
X211811Y356299D02*
D03*
X251181D02*
D03*
X211811Y367717D02*
D03*
X251181D02*
D03*
X418898Y177953D02*
D03*
X458268D02*
D03*
X598425Y173228D02*
D03*
X637795D02*
D03*
X131496Y298819D02*
D03*
Y259449D02*
D03*
X466535Y125984D02*
D03*
X437008Y145669D02*
D03*
D36*
X559842Y397638D02*
D03*
X599213D02*
D03*
X403150Y156299D02*
D03*
Y116929D02*
D03*
X382756Y435197D02*
D03*
X392756Y425197D02*
D03*
Y435197D02*
D03*
X402756Y425197D02*
D03*
Y435197D02*
D03*
X412756Y425197D02*
D03*
Y435197D02*
D03*
X452756D02*
D03*
Y425197D02*
D03*
X442756Y435197D02*
D03*
Y425197D02*
D03*
X432756Y435197D02*
D03*
Y425197D02*
D03*
X422756Y435197D02*
D03*
Y425197D02*
D03*
D37*
X550433Y425945D02*
D03*
Y435945D02*
D03*
Y445945D02*
D03*
Y455945D02*
D03*
X520433Y425945D02*
D03*
Y435945D02*
D03*
Y445945D02*
D03*
X338583Y141732D02*
D03*
X265905Y488189D02*
D03*
X199213Y317638D02*
D03*
Y327638D02*
D03*
Y337638D02*
D03*
Y347638D02*
D03*
Y357638D02*
D03*
Y367638D02*
D03*
Y377638D02*
D03*
Y387638D02*
D03*
Y397638D02*
D03*
Y407638D02*
D03*
Y417638D02*
D03*
Y427638D02*
D03*
Y437638D02*
D03*
Y447638D02*
D03*
X169213Y317638D02*
D03*
Y327638D02*
D03*
Y337638D02*
D03*
Y347638D02*
D03*
Y357638D02*
D03*
Y367638D02*
D03*
Y377638D02*
D03*
Y387638D02*
D03*
Y397638D02*
D03*
Y407638D02*
D03*
Y417638D02*
D03*
Y427638D02*
D03*
Y437638D02*
D03*
X230866Y481339D02*
D03*
X220866Y491339D02*
D03*
Y481339D02*
D03*
X210866Y491339D02*
D03*
Y481339D02*
D03*
X528110Y186535D02*
D03*
X538110D02*
D03*
X548110D02*
D03*
X558110D02*
D03*
X568110D02*
D03*
X578110D02*
D03*
X588110D02*
D03*
X598110D02*
D03*
X608110D02*
D03*
X618110D02*
D03*
X628110D02*
D03*
X638110D02*
D03*
X648110D02*
D03*
X518110Y216535D02*
D03*
X528110D02*
D03*
X538110D02*
D03*
X548110D02*
D03*
X558110D02*
D03*
X568110D02*
D03*
X578110D02*
D03*
X588110D02*
D03*
X598110D02*
D03*
X608110D02*
D03*
X618110D02*
D03*
X628110D02*
D03*
X638110D02*
D03*
X648110D02*
D03*
X348976Y191260D02*
D03*
X358976D02*
D03*
X368976D02*
D03*
X378976D02*
D03*
X388976D02*
D03*
X398976D02*
D03*
X408976D02*
D03*
X418976D02*
D03*
X428976D02*
D03*
X438976D02*
D03*
X448976D02*
D03*
X458976D02*
D03*
X468976D02*
D03*
X338976Y221260D02*
D03*
X348976D02*
D03*
X358976D02*
D03*
X368976D02*
D03*
X378976D02*
D03*
X388976D02*
D03*
X398976D02*
D03*
X408976D02*
D03*
X418976D02*
D03*
X428976D02*
D03*
X438976D02*
D03*
X448976D02*
D03*
X458976D02*
D03*
X468976D02*
D03*
X159764Y268858D02*
D03*
X169764D02*
D03*
X179764D02*
D03*
X189764D02*
D03*
X199764D02*
D03*
X209764D02*
D03*
X219764D02*
D03*
X229764D02*
D03*
X149764Y298858D02*
D03*
X159764D02*
D03*
X169764D02*
D03*
X179764D02*
D03*
X189764D02*
D03*
X199764D02*
D03*
X209764D02*
D03*
X219764D02*
D03*
X229764D02*
D03*
X229213Y242756D02*
D03*
X219213Y252756D02*
D03*
Y242756D02*
D03*
X209213Y252756D02*
D03*
Y242756D02*
D03*
X199213Y252756D02*
D03*
Y242756D02*
D03*
X189213Y252756D02*
D03*
Y242756D02*
D03*
X179213Y252756D02*
D03*
Y242756D02*
D03*
X169213Y252756D02*
D03*
Y242756D02*
D03*
X159213Y252756D02*
D03*
Y242756D02*
D03*
X485276Y245512D02*
D03*
Y255512D02*
D03*
X495276Y245512D02*
D03*
Y255512D02*
D03*
X505276Y245512D02*
D03*
Y255512D02*
D03*
X515276Y245512D02*
D03*
Y255512D02*
D03*
X525276Y245512D02*
D03*
Y255512D02*
D03*
X535276Y245512D02*
D03*
Y255512D02*
D03*
X545276Y245512D02*
D03*
Y255512D02*
D03*
X555276Y245512D02*
D03*
Y255512D02*
D03*
X565276Y245512D02*
D03*
Y255512D02*
D03*
X575276Y245512D02*
D03*
Y255512D02*
D03*
X585276Y245512D02*
D03*
Y255512D02*
D03*
X595276Y245512D02*
D03*
Y255512D02*
D03*
X605276Y245512D02*
D03*
Y255512D02*
D03*
X615276Y245512D02*
D03*
Y255512D02*
D03*
X625276Y245512D02*
D03*
Y255512D02*
D03*
X635276Y245512D02*
D03*
X318032D02*
D03*
Y255512D02*
D03*
X328031Y245512D02*
D03*
Y255512D02*
D03*
X338032Y245512D02*
D03*
Y255512D02*
D03*
X348031Y245512D02*
D03*
Y255512D02*
D03*
X358032Y245512D02*
D03*
Y255512D02*
D03*
X368032Y245512D02*
D03*
Y255512D02*
D03*
X378031Y245512D02*
D03*
Y255512D02*
D03*
X388032Y245512D02*
D03*
Y255512D02*
D03*
X398031Y245512D02*
D03*
Y255512D02*
D03*
X408032Y245512D02*
D03*
Y255512D02*
D03*
X418032Y245512D02*
D03*
Y255512D02*
D03*
X428031Y245512D02*
D03*
Y255512D02*
D03*
X438031Y245512D02*
D03*
Y255512D02*
D03*
X448032Y245512D02*
D03*
Y255512D02*
D03*
X458032Y245512D02*
D03*
Y255512D02*
D03*
X468032Y245512D02*
D03*
X598386Y358150D02*
D03*
Y348150D02*
D03*
Y338150D02*
D03*
X628386Y368150D02*
D03*
Y358150D02*
D03*
Y348150D02*
D03*
Y338150D02*
D03*
X114961Y468110D02*
D03*
Y458110D02*
D03*
Y448110D02*
D03*
Y438110D02*
D03*
Y428110D02*
D03*
D38*
X520433Y455945D02*
D03*
X255906Y488189D02*
D03*
X169213Y447638D02*
D03*
X230866Y491339D02*
D03*
X229213Y252756D02*
D03*
X635276Y255512D02*
D03*
X468032D02*
D03*
X598386Y368150D02*
D03*
D39*
X208661Y118110D02*
D03*
X153543Y204724D02*
D03*
D40*
X263779D02*
D03*
X341929Y430177D02*
D03*
X483661D02*
D03*
Y310886D02*
D03*
X341929D02*
D03*
D41*
X338583Y151732D02*
D03*
X518110Y186535D02*
D03*
X338976Y191260D02*
D03*
X149764Y268858D02*
D03*
X114961Y478110D02*
D03*
D42*
X653543Y338583D02*
D03*
X644095Y370079D02*
D03*
X456693Y125984D02*
D03*
X427165Y145669D02*
D03*
D43*
X577559Y351969D02*
D03*
X352520Y610236D02*
D03*
X382677Y462598D02*
D03*
D44*
X320472Y343307D02*
D03*
X300787D02*
D03*
X310630Y333465D02*
D03*
D45*
X565748Y131890D02*
D03*
Y122047D02*
D03*
Y112205D02*
D03*
X552756D02*
D03*
Y122047D02*
D03*
Y131890D02*
D03*
X363779Y135827D02*
D03*
Y145669D02*
D03*
Y155512D02*
D03*
X376772D02*
D03*
Y145669D02*
D03*
Y135827D02*
D03*
D46*
X439134Y122047D02*
D03*
D47*
X419134D02*
D03*
X429134D02*
D03*
D48*
X517323Y579134D02*
D03*
X496063D02*
D03*
D49*
X382756Y425197D02*
D03*
D50*
X457874Y490945D02*
D03*
X498425Y405118D02*
D03*
X685039Y392913D02*
D03*
X265354Y306692D02*
D03*
X280709Y295669D02*
D03*
X344882Y214173D02*
D03*
X354331D02*
D03*
X364567D02*
D03*
X374410Y213779D02*
D03*
X384646Y214173D02*
D03*
X394488D02*
D03*
X470669Y201575D02*
D03*
X566142Y206693D02*
D03*
X531890Y205906D02*
D03*
X545669Y207480D02*
D03*
X556299Y207087D02*
D03*
X538583Y237402D02*
D03*
X525197Y228740D02*
D03*
X520079Y226378D02*
D03*
X184252Y304724D02*
D03*
X133465Y273622D02*
D03*
X109055Y270866D02*
D03*
X205906Y454724D02*
D03*
X161417Y413386D02*
D03*
X114173Y320472D02*
D03*
X265354Y343701D02*
D03*
X266535Y310630D02*
D03*
X266142Y322441D02*
D03*
X287402Y325984D02*
D03*
X265748Y333071D02*
D03*
X283858Y332677D02*
D03*
X284646Y338189D02*
D03*
X265748D02*
D03*
X345276Y407087D02*
D03*
X344882Y412598D02*
D03*
X123622Y249606D02*
D03*
X358268Y503543D02*
D03*
Y475197D02*
D03*
X418110Y410630D02*
D03*
X279921Y321654D02*
D03*
X285039Y296850D02*
D03*
X203543Y467323D02*
D03*
X142519Y288976D02*
D03*
X137795Y292126D02*
D03*
X301181Y453937D02*
D03*
X295276Y446850D02*
D03*
X291339Y443307D02*
D03*
X276772Y432677D02*
D03*
Y438976D02*
D03*
X285827Y442913D02*
D03*
X264961Y432677D02*
D03*
X284646Y436221D02*
D03*
X122047Y278740D02*
D03*
X110236Y280709D02*
D03*
X122835Y287795D02*
D03*
X107087Y290158D02*
D03*
M02*
