M48
;Layer_Color=9474304
;FILE_FORMAT=2:5
INCH,LZ
;TYPE=PLATED
T1F00S00C0.01500
T2F00S00C0.03000
T3F00S00C0.03150
T4F00S00C0.03543
T5F00S00C0.03937
T6F00S00C0.08661
T7F00S00C0.09055
T8F00S00C0.11811
%
T01
X0470669Y0201575
X053189Y0205906
X0545669Y020748
X0556299Y0207087
X0566142Y0206693
X0538583Y0237402
X0525197Y022874
X0520079Y0226378
X0394488Y0214173
X0384646
X037441Y0213779
X0364567Y0214173
X0354331
X0344882
X0285039Y029685
X0280709Y0295669
X0265354Y0306692
X0266535Y031063
X0184252Y0304724
X0142519Y0288976
X0137795Y0292126
X0122835Y0287795
X0122047Y027874
X0110236Y0280709
X0109055Y0270866
X0107087Y0290158
X0133465Y0273622
X0123622Y0249606
X0114173Y0320472
X0161417Y0413386
X0205906Y0454724
X0203543Y0467323
X0264961Y0432677
X0276772
Y0438976
X0284646Y0436221
X0285827Y0442913
X0291339Y0443307
X0295276Y044685
X0301181Y0453937
X0284646Y0338189
X0283858Y0332677
X0287402Y0325984
X0279921Y0321654
X0266142Y0322441
X0265748Y0333071
Y0338189
X0265354Y0343701
X0345276Y0407087
X0344882Y0412598
X041811Y041063
X0498425Y0405118
X0685039Y0392913
X0457874Y0490945
X0358268Y0503543
Y0475197
T02
X0427165Y0145669
X0437008
X0456693Y0125984
X0466535
X0637795Y0173228
X0598425
X0458268Y0177953
X0418898
X0131496Y0259449
Y0298819
X012874Y0352362
Y0371575
X0146063Y0377165
Y035748
X0119291Y0392913
X014252Y0419291
Y0458661
X0158661Y0392913
X0157874Y0367717
Y0348031
X0211811Y0356299
Y0367717
X0251181
Y0356299
X0382677Y0462598
X0401968Y0462598
X0441339
X0499213Y0456299
X0510236Y0444882
X0509449Y0425591
Y0386221
X056063Y0428346
X0559449Y0456299
X0598819
X06Y0428346
X0577559Y0351969
Y0342126
X0643701Y0338583
X0653543
X0653937Y0370079
X0644095
X0567323Y0470079
X0527953
X0510236Y0484252
X0499213Y0475984
X0382677Y0472441
X0358268Y0551181
Y0590551
X035252Y0610236
X034252
X033252
X032252
X0172047Y048937
Y0476378
X0132677
Y048937
T03
X040315Y0116929
X0419134Y0122047
X0429134
X0439134
X040315Y0156299
X0559842Y0397638
X0599213
T04
X0338583Y0141732
Y0151732
X0363779Y0155512
Y0145669
Y0135827
X0376772
Y0145669
Y0155512
X0552756Y013189
Y0122047
Y0112205
X0565748
Y0122047
Y013189
X062811Y0186535
X063811
X064811
Y0216535
X063811
X062811
X0625276Y0245512
Y0255512
X0635276
Y0245512
X0615276
X0605276
X0595276
X0585276
X0575276
X0565276
X0555276
X0545276
X0535276
X0525276
X0515276
X0505276
X0495276
X0485276
Y0255512
X0495276
X0505276
X0515276
X0525276
X0535276
X0545276
X0555276
X0565276
X0575276
X0585276
X0595276
X0605276
X0615276
X061811Y0216535
X060811
X059811
X058811
X057811
X056811
X055811
X054811
X053811
X052811
X051811
Y0186535
X052811
X053811
X054811
X055811
X056811
X057811
X058811
X059811
X060811
X061811
X0468976Y019126
Y022126
X0458976
X0448976
X0438976
X0428976
X0418976
X0408976
X0398976
X0388976
X0378976
X0368976
X0358976
X0348976
X0338976
X0338032Y0245512
X0328031
X0318032
Y0255512
X0328031
X0338032
X0348031
Y0245512
X0358032
Y0255512
X0368032
Y0245512
X0378031
Y0255512
X0388032
Y0245512
X0398031
Y0255512
X0408032
Y0245512
X0418032
Y0255512
X0428031
Y0245512
X0438031
Y0255512
X0448032
Y0245512
X0458032
Y0255512
X0468032
Y0245512
X0458976Y019126
X0448976
X0438976
X0428976
X0418976
X0408976
X0398976
X0388976
X0378976
X0368976
X0358976
X0348976
X0338976
X0229213Y0242756
Y0252756
X0219213
Y0242756
X0209213
Y0252756
X0199213
Y0242756
X0189213
Y0252756
X0179213
Y0242756
X0169213
Y0252756
X0159213
Y0242756
X0159764Y0268858
X0169764
X0179764
X0189764
X0199764
X0209764
X0219764
X0229764
Y0298858
X0219764
X0209764
X0199764
X0189764
X0179764
X0169764
X0159764
X0149764
Y0268858
X0114961Y042811
Y043811
Y044811
Y045811
Y046811
X0169213Y0447638
Y0437638
Y0427638
Y0417638
Y0407638
Y0397638
Y0387638
Y0377638
Y0367638
Y0357638
Y0347638
Y0337638
Y0327638
Y0317638
X0199213
Y0327638
Y0337638
Y0347638
Y0357638
Y0367638
Y0377638
Y0387638
Y0397638
Y0407638
Y0417638
Y0427638
Y0437638
Y0447638
X0520433Y0445945
Y0435945
Y0425945
X0550433
Y0435945
Y0445945
Y0455945
X0520433
X0598386Y036815
Y035815
Y034815
Y033815
X0628386
Y034815
Y035815
Y036815
X0265905Y0488189
X0255906
X0230866Y0491339
Y0481339
X0220866
Y0491339
X0210866
Y0481339
X0114961Y047811
T05
X0300787Y0343307
X031063Y0333465
X0320472Y0343307
X0382756Y0425197
Y0435197
X0392756
Y0425197
X0402756
Y0435197
X0412756
Y0425197
X0422756
X0432756
X0442756
X0452756
Y0435197
X0442756
X0432756
X0422756
X0496063Y0579134
X0517323
T06
X0263779Y0204724
T07
X0208661Y011811
X0153543Y0204724
T08
X0483661Y0310886
X0341929
Y0430177
X0483661
M30
