G04*
G04 #@! TF.GenerationSoftware,Altium Limited,Altium Designer,20.0.13 (296)*
G04*
G04 Layer_Color=8388736*
%FSLAX25Y25*%
%MOIN*%
G70*
G01*
G75*
%ADD14C,0.04537*%
%ADD15C,0.06506*%
%ADD16R,0.06506X0.06506*%
%ADD17C,0.06600*%
%ADD18R,0.06506X0.06506*%
%ADD19C,0.08474*%
%ADD20C,0.13592*%
%ADD21C,0.07687*%
%ADD22R,0.07687X0.07687*%
D14*
X606500Y124256D02*
X685240D01*
X606500Y132130D02*
X685240D01*
X606500Y140004D02*
X685240D01*
X606500Y147878D02*
X685240D01*
X606500Y155752D02*
X685240D01*
X606500Y163626D02*
X685240D01*
X606500Y171500D02*
X685240D01*
X606500Y179374D02*
X685240D01*
X606500Y202996D02*
X685240D01*
X606500Y195122D02*
X685240D01*
X606500Y187248D02*
X685240D01*
D15*
X421000Y132000D02*
D03*
Y142000D02*
D03*
Y152000D02*
D03*
Y162000D02*
D03*
Y172000D02*
D03*
Y182000D02*
D03*
Y192000D02*
D03*
X391000Y132000D02*
D03*
Y142000D02*
D03*
Y152000D02*
D03*
Y162000D02*
D03*
Y172000D02*
D03*
Y182000D02*
D03*
X359500Y170500D02*
D03*
X503500Y166000D02*
D03*
D16*
X391000Y192000D02*
D03*
D17*
X476772Y133858D02*
D03*
X437402D02*
D03*
X535291Y192000D02*
D03*
X495921D02*
D03*
X431102Y192126D02*
D03*
X470472D02*
D03*
D18*
X359500Y160500D02*
D03*
X503500Y156000D02*
D03*
D19*
X123492Y138500D02*
D03*
Y197516D02*
D03*
D20*
X230500Y138500D02*
D03*
Y197516D02*
D03*
D21*
X496500Y133000D02*
D03*
D22*
X506500D02*
D03*
M02*
