M48
;Layer_Color=9474304
;FILE_FORMAT=2:5
INCH,LZ
;TYPE=PLATED
T1F00S00C0.03000
T2F00S00C0.03543
T3F00S00C0.04016
T4F00S00C0.12992
%
T01
X0437402Y0133858
X0476772
X06065Y013213
Y0140004
Y0147878
Y0155752
Y0124256
Y0163626
Y01715
Y0179374
Y0187248
Y0195122
Y0202996
X0535291Y0192
X0495921
X0470472Y0192126
X0431102
T02
X0391Y0132
Y0142
Y0152
X0421
Y0142
Y0132
X04965Y0133
X05065
X05035Y0156
Y0166
X0421Y0162
Y0172
Y0182
Y0192
X0391
Y0182
Y0172
Y0162
X03595Y01605
Y01705
T03
X0123492Y01385
Y0197516
T04
X02305Y01385
Y0197516
M30
