G04*
G04 #@! TF.GenerationSoftware,Altium Limited,Altium Designer,20.0.13 (296)*
G04*
G04 Layer_Physical_Order=2*
G04 Layer_Color=16711680*
%FSLAX25Y25*%
%MOIN*%
G70*
G01*
G75*
%ADD25C,0.05906*%
%ADD26R,0.05906X0.05906*%
%ADD27C,0.06000*%
%ADD28R,0.05906X0.05906*%
%ADD29C,0.07874*%
%ADD30C,0.12992*%
%ADD31C,0.07087*%
%ADD32R,0.07087X0.07087*%
G36*
X559055Y204724D02*
X602761D01*
X603039Y204309D01*
X602895Y203962D01*
X602768Y202996D01*
X602895Y202030D01*
X603268Y201130D01*
X603861Y200357D01*
X604634Y199764D01*
X605317Y199481D01*
X605291Y198951D01*
X604483Y198616D01*
X603647Y197975D01*
X603006Y197139D01*
X602603Y196166D01*
X602518Y195522D01*
X610482D01*
X610397Y196166D01*
X609994Y197139D01*
X609353Y197975D01*
X608517Y198616D01*
X607709Y198951D01*
X607683Y199481D01*
X608366Y199764D01*
X609139Y200357D01*
X609732Y201130D01*
X610105Y202030D01*
X610232Y202996D01*
X610105Y203962D01*
X609961Y204309D01*
X610239Y204724D01*
X688976D01*
Y122047D01*
X610043D01*
X609797Y122547D01*
X610105Y123290D01*
X610232Y124256D01*
X610105Y125222D01*
X609732Y126122D01*
X609139Y126895D01*
X608366Y127488D01*
X607683Y127771D01*
X607709Y128301D01*
X608517Y128636D01*
X609353Y129277D01*
X609994Y130113D01*
X610397Y131086D01*
X610482Y131730D01*
X602518D01*
X602603Y131086D01*
X603006Y130113D01*
X603647Y129277D01*
X604483Y128636D01*
X605291Y128301D01*
X605317Y127771D01*
X604634Y127488D01*
X603861Y126895D01*
X603268Y126122D01*
X602895Y125222D01*
X602768Y124256D01*
X602895Y123290D01*
X603203Y122547D01*
X602957Y122047D01*
X559055D01*
X539370Y102362D01*
X102362D01*
Y228346D01*
X535433D01*
X559055Y204724D01*
D02*
G37*
%LPC*%
G36*
X123492Y202193D02*
X122282Y202033D01*
X121154Y201566D01*
X120185Y200823D01*
X119442Y199854D01*
X118974Y198726D01*
X118815Y197516D01*
X118974Y196305D01*
X119442Y195177D01*
X120185Y194209D01*
X121154Y193465D01*
X122282Y192998D01*
X123492Y192839D01*
X124703Y192998D01*
X125831Y193465D01*
X126799Y194209D01*
X127543Y195177D01*
X128010Y196305D01*
X128169Y197516D01*
X128010Y198726D01*
X127543Y199854D01*
X126799Y200823D01*
X125831Y201566D01*
X124703Y202033D01*
X123492Y202193D01*
D02*
G37*
G36*
X470872Y196108D02*
Y192526D01*
X474454D01*
X474369Y193170D01*
X473966Y194143D01*
X473325Y194979D01*
X472490Y195620D01*
X471517Y196023D01*
X470872Y196108D01*
D02*
G37*
G36*
X470072D02*
X469428Y196023D01*
X468455Y195620D01*
X467620Y194979D01*
X466978Y194143D01*
X466575Y193170D01*
X466491Y192526D01*
X470072D01*
Y196108D01*
D02*
G37*
G36*
X230500Y204747D02*
X229089Y204608D01*
X227733Y204196D01*
X226483Y203528D01*
X225387Y202629D01*
X224488Y201533D01*
X223819Y200283D01*
X223408Y198926D01*
X223269Y197516D01*
X223408Y196105D01*
X223819Y194749D01*
X224488Y193499D01*
X225387Y192403D01*
X226483Y191504D01*
X227733Y190835D01*
X229089Y190424D01*
X230500Y190285D01*
X231911Y190424D01*
X233267Y190835D01*
X234517Y191504D01*
X235613Y192403D01*
X236512Y193499D01*
X237180Y194749D01*
X237592Y196105D01*
X237731Y197516D01*
X237592Y198926D01*
X237180Y200283D01*
X236512Y201533D01*
X235613Y202629D01*
X234517Y203528D01*
X233267Y204196D01*
X231911Y204608D01*
X230500Y204747D01*
D02*
G37*
G36*
X431102Y195858D02*
X430136Y195731D01*
X429236Y195358D01*
X428464Y194765D01*
X427870Y193992D01*
X427498Y193092D01*
X427370Y192126D01*
X427498Y191160D01*
X427870Y190260D01*
X428464Y189487D01*
X429236Y188894D01*
X430136Y188521D01*
X431102Y188394D01*
X432068Y188521D01*
X432968Y188894D01*
X433741Y189487D01*
X434334Y190260D01*
X434707Y191160D01*
X434834Y192126D01*
X434707Y193092D01*
X434334Y193992D01*
X433741Y194765D01*
X432968Y195358D01*
X432068Y195731D01*
X431102Y195858D01*
D02*
G37*
G36*
X394653Y195653D02*
X387347D01*
Y188347D01*
X394653D01*
Y195653D01*
D02*
G37*
G36*
X421000Y195684D02*
X420046Y195559D01*
X419158Y195191D01*
X418395Y194605D01*
X417809Y193842D01*
X417441Y192954D01*
X417316Y192000D01*
X417441Y191046D01*
X417809Y190158D01*
X418395Y189395D01*
X419158Y188809D01*
X420046Y188441D01*
X421000Y188316D01*
X421954Y188441D01*
X422842Y188809D01*
X423605Y189395D01*
X424191Y190158D01*
X424559Y191046D01*
X424684Y192000D01*
X424559Y192954D01*
X424191Y193842D01*
X423605Y194605D01*
X422842Y195191D01*
X421954Y195559D01*
X421000Y195684D01*
D02*
G37*
G36*
X535291Y195732D02*
X534326Y195605D01*
X533425Y195232D01*
X532653Y194639D01*
X532059Y193866D01*
X531687Y192966D01*
X531559Y192000D01*
X531687Y191034D01*
X532059Y190134D01*
X532653Y189361D01*
X533425Y188768D01*
X534326Y188395D01*
X535291Y188268D01*
X536257Y188395D01*
X537157Y188768D01*
X537930Y189361D01*
X538523Y190134D01*
X538896Y191034D01*
X539023Y192000D01*
X538896Y192966D01*
X538523Y193866D01*
X537930Y194639D01*
X537157Y195232D01*
X536257Y195605D01*
X535291Y195732D01*
D02*
G37*
G36*
X495921D02*
X494955Y195605D01*
X494055Y195232D01*
X493282Y194639D01*
X492689Y193866D01*
X492316Y192966D01*
X492189Y192000D01*
X492316Y191034D01*
X492689Y190134D01*
X493282Y189361D01*
X494055Y188768D01*
X494955Y188395D01*
X495921Y188268D01*
X496887Y188395D01*
X497787Y188768D01*
X498560Y189361D01*
X499153Y190134D01*
X499526Y191034D01*
X499653Y192000D01*
X499526Y192966D01*
X499153Y193866D01*
X498560Y194639D01*
X497787Y195232D01*
X496887Y195605D01*
X495921Y195732D01*
D02*
G37*
G36*
X474454Y191726D02*
X470872D01*
Y188144D01*
X471517Y188229D01*
X472490Y188632D01*
X473325Y189273D01*
X473966Y190109D01*
X474369Y191082D01*
X474454Y191726D01*
D02*
G37*
G36*
X470072D02*
X466491D01*
X466575Y191082D01*
X466978Y190109D01*
X467620Y189273D01*
X468455Y188632D01*
X469428Y188229D01*
X470072Y188144D01*
Y191726D01*
D02*
G37*
G36*
X610482Y194722D02*
X602518D01*
X602603Y194078D01*
X603006Y193105D01*
X603647Y192269D01*
X604483Y191628D01*
X605291Y191293D01*
X605317Y190763D01*
X604634Y190480D01*
X603861Y189887D01*
X603268Y189114D01*
X602895Y188214D01*
X602768Y187248D01*
X602895Y186282D01*
X603268Y185382D01*
X603861Y184609D01*
X604634Y184016D01*
X605317Y183733D01*
X605291Y183203D01*
X604483Y182868D01*
X603647Y182227D01*
X603006Y181391D01*
X602603Y180418D01*
X602518Y179774D01*
X610482D01*
X610397Y180418D01*
X609994Y181391D01*
X609353Y182227D01*
X608517Y182868D01*
X607709Y183203D01*
X607683Y183733D01*
X608366Y184016D01*
X609139Y184609D01*
X609732Y185382D01*
X610105Y186282D01*
X610232Y187248D01*
X610105Y188214D01*
X609732Y189114D01*
X609139Y189887D01*
X608366Y190480D01*
X607683Y190763D01*
X607709Y191293D01*
X608517Y191628D01*
X609353Y192269D01*
X609994Y193105D01*
X610397Y194078D01*
X610482Y194722D01*
D02*
G37*
G36*
X421000Y185684D02*
X420046Y185559D01*
X419158Y185191D01*
X418395Y184605D01*
X417809Y183842D01*
X417441Y182954D01*
X417316Y182000D01*
X417441Y181046D01*
X417809Y180158D01*
X418395Y179395D01*
X419158Y178809D01*
X420046Y178441D01*
X421000Y178316D01*
X421954Y178441D01*
X422842Y178809D01*
X423605Y179395D01*
X424191Y180158D01*
X424559Y181046D01*
X424684Y182000D01*
X424559Y182954D01*
X424191Y183842D01*
X423605Y184605D01*
X422842Y185191D01*
X421954Y185559D01*
X421000Y185684D01*
D02*
G37*
G36*
X391000D02*
X390046Y185559D01*
X389158Y185191D01*
X388395Y184605D01*
X387809Y183842D01*
X387441Y182954D01*
X387316Y182000D01*
X387441Y181046D01*
X387809Y180158D01*
X388395Y179395D01*
X389158Y178809D01*
X390046Y178441D01*
X391000Y178316D01*
X391954Y178441D01*
X392842Y178809D01*
X393605Y179395D01*
X394191Y180158D01*
X394559Y181046D01*
X394684Y182000D01*
X394559Y182954D01*
X394191Y183842D01*
X393605Y184605D01*
X392842Y185191D01*
X391954Y185559D01*
X391000Y185684D01*
D02*
G37*
G36*
X421000Y175684D02*
X420046Y175559D01*
X419158Y175191D01*
X418395Y174605D01*
X417809Y173842D01*
X417441Y172954D01*
X417316Y172000D01*
X417441Y171046D01*
X417809Y170158D01*
X418395Y169395D01*
X419158Y168809D01*
X420046Y168441D01*
X421000Y168316D01*
X421954Y168441D01*
X422842Y168809D01*
X423605Y169395D01*
X424191Y170158D01*
X424559Y171046D01*
X424684Y172000D01*
X424559Y172954D01*
X424191Y173842D01*
X423605Y174605D01*
X422842Y175191D01*
X421954Y175559D01*
X421000Y175684D01*
D02*
G37*
G36*
X391000D02*
X390046Y175559D01*
X389158Y175191D01*
X388395Y174605D01*
X387809Y173842D01*
X387441Y172954D01*
X387316Y172000D01*
X387441Y171046D01*
X387809Y170158D01*
X388395Y169395D01*
X389158Y168809D01*
X390046Y168441D01*
X391000Y168316D01*
X391954Y168441D01*
X392842Y168809D01*
X393605Y169395D01*
X394191Y170158D01*
X394559Y171046D01*
X394684Y172000D01*
X394559Y172954D01*
X394191Y173842D01*
X393605Y174605D01*
X392842Y175191D01*
X391954Y175559D01*
X391000Y175684D01*
D02*
G37*
G36*
X359500Y174184D02*
X358546Y174059D01*
X357658Y173691D01*
X356895Y173105D01*
X356309Y172342D01*
X355941Y171454D01*
X355816Y170500D01*
X355941Y169546D01*
X356309Y168658D01*
X356895Y167895D01*
X357658Y167309D01*
X358546Y166941D01*
X359500Y166816D01*
X360454Y166941D01*
X361342Y167309D01*
X362105Y167895D01*
X362691Y168658D01*
X363059Y169546D01*
X363184Y170500D01*
X363059Y171454D01*
X362691Y172342D01*
X362105Y173105D01*
X361342Y173691D01*
X360454Y174059D01*
X359500Y174184D01*
D02*
G37*
G36*
X610482Y178974D02*
X602518D01*
X602603Y178330D01*
X603006Y177357D01*
X603647Y176521D01*
X604483Y175880D01*
X605291Y175545D01*
X605317Y175015D01*
X604634Y174732D01*
X603861Y174139D01*
X603268Y173366D01*
X602895Y172466D01*
X602768Y171500D01*
X602895Y170534D01*
X603268Y169634D01*
X603861Y168861D01*
X604634Y168268D01*
X605317Y167985D01*
X605291Y167455D01*
X604483Y167120D01*
X603647Y166479D01*
X603006Y165643D01*
X602603Y164670D01*
X602518Y164026D01*
X610482D01*
X610397Y164670D01*
X609994Y165643D01*
X609353Y166479D01*
X608517Y167120D01*
X607709Y167455D01*
X607683Y167985D01*
X608366Y168268D01*
X609139Y168861D01*
X609732Y169634D01*
X610105Y170534D01*
X610232Y171500D01*
X610105Y172466D01*
X609732Y173366D01*
X609139Y174139D01*
X608366Y174732D01*
X607683Y175015D01*
X607709Y175545D01*
X608517Y175880D01*
X609353Y176521D01*
X609994Y177357D01*
X610397Y178330D01*
X610482Y178974D01*
D02*
G37*
G36*
X503500Y169684D02*
X502546Y169559D01*
X501658Y169191D01*
X500895Y168605D01*
X500309Y167842D01*
X499941Y166954D01*
X499816Y166000D01*
X499941Y165046D01*
X500309Y164158D01*
X500895Y163395D01*
X501658Y162809D01*
X502546Y162441D01*
X503500Y162316D01*
X504454Y162441D01*
X505342Y162809D01*
X506105Y163395D01*
X506691Y164158D01*
X507059Y165046D01*
X507184Y166000D01*
X507059Y166954D01*
X506691Y167842D01*
X506105Y168605D01*
X505342Y169191D01*
X504454Y169559D01*
X503500Y169684D01*
D02*
G37*
G36*
X363453Y164453D02*
X359900D01*
Y160900D01*
X363453D01*
Y164453D01*
D02*
G37*
G36*
X359100D02*
X355547D01*
Y160900D01*
X359100D01*
Y164453D01*
D02*
G37*
G36*
X421000Y165684D02*
X420046Y165559D01*
X419158Y165191D01*
X418395Y164605D01*
X417809Y163842D01*
X417441Y162954D01*
X417316Y162000D01*
X417441Y161046D01*
X417809Y160158D01*
X418395Y159395D01*
X419158Y158809D01*
X420046Y158441D01*
X421000Y158316D01*
X421954Y158441D01*
X422842Y158809D01*
X423605Y159395D01*
X424191Y160158D01*
X424559Y161046D01*
X424684Y162000D01*
X424559Y162954D01*
X424191Y163842D01*
X423605Y164605D01*
X422842Y165191D01*
X421954Y165559D01*
X421000Y165684D01*
D02*
G37*
G36*
X391000D02*
X390046Y165559D01*
X389158Y165191D01*
X388395Y164605D01*
X387809Y163842D01*
X387441Y162954D01*
X387316Y162000D01*
X387441Y161046D01*
X387809Y160158D01*
X388395Y159395D01*
X389158Y158809D01*
X390046Y158441D01*
X391000Y158316D01*
X391954Y158441D01*
X392842Y158809D01*
X393605Y159395D01*
X394191Y160158D01*
X394559Y161046D01*
X394684Y162000D01*
X394559Y162954D01*
X394191Y163842D01*
X393605Y164605D01*
X392842Y165191D01*
X391954Y165559D01*
X391000Y165684D01*
D02*
G37*
G36*
X363453Y160100D02*
X359900D01*
Y156547D01*
X363453D01*
Y160100D01*
D02*
G37*
G36*
X359100D02*
X355547D01*
Y156547D01*
X359100D01*
Y160100D01*
D02*
G37*
G36*
X507453Y159953D02*
X503900D01*
Y156400D01*
X507453D01*
Y159953D01*
D02*
G37*
G36*
X503100D02*
X499547D01*
Y156400D01*
X503100D01*
Y159953D01*
D02*
G37*
G36*
X507453Y155600D02*
X503900D01*
Y152047D01*
X507453D01*
Y155600D01*
D02*
G37*
G36*
X503100D02*
X499547D01*
Y152047D01*
X503100D01*
Y155600D01*
D02*
G37*
G36*
X421000Y155684D02*
X420046Y155559D01*
X419158Y155191D01*
X418395Y154605D01*
X417809Y153842D01*
X417441Y152954D01*
X417316Y152000D01*
X417441Y151046D01*
X417809Y150158D01*
X418395Y149395D01*
X419158Y148809D01*
X420046Y148441D01*
X421000Y148316D01*
X421954Y148441D01*
X422842Y148809D01*
X423605Y149395D01*
X424191Y150158D01*
X424559Y151046D01*
X424684Y152000D01*
X424559Y152954D01*
X424191Y153842D01*
X423605Y154605D01*
X422842Y155191D01*
X421954Y155559D01*
X421000Y155684D01*
D02*
G37*
G36*
X391000D02*
X390046Y155559D01*
X389158Y155191D01*
X388395Y154605D01*
X387809Y153842D01*
X387441Y152954D01*
X387316Y152000D01*
X387441Y151046D01*
X387809Y150158D01*
X388395Y149395D01*
X389158Y148809D01*
X390046Y148441D01*
X391000Y148316D01*
X391954Y148441D01*
X392842Y148809D01*
X393605Y149395D01*
X394191Y150158D01*
X394559Y151046D01*
X394684Y152000D01*
X394559Y152954D01*
X394191Y153842D01*
X393605Y154605D01*
X392842Y155191D01*
X391954Y155559D01*
X391000Y155684D01*
D02*
G37*
G36*
X610482Y163226D02*
X602518D01*
X602603Y162582D01*
X603006Y161609D01*
X603647Y160773D01*
X604483Y160132D01*
X605291Y159797D01*
X605317Y159267D01*
X604634Y158984D01*
X603861Y158391D01*
X603268Y157618D01*
X602895Y156718D01*
X602768Y155752D01*
X602895Y154786D01*
X603268Y153886D01*
X603861Y153113D01*
X604634Y152520D01*
X605317Y152237D01*
X605291Y151707D01*
X604483Y151372D01*
X603647Y150731D01*
X603006Y149895D01*
X602603Y148922D01*
X602518Y148278D01*
X610482D01*
X610397Y148922D01*
X609994Y149895D01*
X609353Y150731D01*
X608517Y151372D01*
X607709Y151707D01*
X607683Y152237D01*
X608366Y152520D01*
X609139Y153113D01*
X609732Y153886D01*
X610105Y154786D01*
X610232Y155752D01*
X610105Y156718D01*
X609732Y157618D01*
X609139Y158391D01*
X608366Y158984D01*
X607683Y159267D01*
X607709Y159797D01*
X608517Y160132D01*
X609353Y160773D01*
X609994Y161609D01*
X610397Y162582D01*
X610482Y163226D01*
D02*
G37*
G36*
X123892Y143427D02*
Y138900D01*
X128419D01*
X128302Y139789D01*
X127805Y140990D01*
X127013Y142021D01*
X125982Y142813D01*
X124781Y143310D01*
X123892Y143427D01*
D02*
G37*
G36*
X123092D02*
X122203Y143310D01*
X121002Y142813D01*
X119971Y142021D01*
X119180Y140990D01*
X118682Y139789D01*
X118565Y138900D01*
X123092D01*
Y143427D01*
D02*
G37*
G36*
X421000Y145684D02*
X420046Y145559D01*
X419158Y145191D01*
X418395Y144605D01*
X417809Y143842D01*
X417441Y142954D01*
X417316Y142000D01*
X417441Y141046D01*
X417809Y140158D01*
X418395Y139395D01*
X419158Y138809D01*
X420046Y138441D01*
X421000Y138316D01*
X421954Y138441D01*
X422842Y138809D01*
X423605Y139395D01*
X424191Y140158D01*
X424559Y141046D01*
X424684Y142000D01*
X424559Y142954D01*
X424191Y143842D01*
X423605Y144605D01*
X422842Y145191D01*
X421954Y145559D01*
X421000Y145684D01*
D02*
G37*
G36*
X391000D02*
X390046Y145559D01*
X389158Y145191D01*
X388395Y144605D01*
X387809Y143842D01*
X387441Y142954D01*
X387316Y142000D01*
X387441Y141046D01*
X387809Y140158D01*
X388395Y139395D01*
X389158Y138809D01*
X390046Y138441D01*
X391000Y138316D01*
X391954Y138441D01*
X392842Y138809D01*
X393605Y139395D01*
X394191Y140158D01*
X394559Y141046D01*
X394684Y142000D01*
X394559Y142954D01*
X394191Y143842D01*
X393605Y144605D01*
X392842Y145191D01*
X391954Y145559D01*
X391000Y145684D01*
D02*
G37*
G36*
X128419Y138100D02*
X123892D01*
Y133573D01*
X124781Y133690D01*
X125982Y134187D01*
X127013Y134979D01*
X127805Y136010D01*
X128302Y137211D01*
X128419Y138100D01*
D02*
G37*
G36*
X123092D02*
X118565D01*
X118682Y137211D01*
X119180Y136010D01*
X119971Y134979D01*
X121002Y134187D01*
X122203Y133690D01*
X123092Y133573D01*
Y138100D01*
D02*
G37*
G36*
X511043Y137543D02*
X506900D01*
Y133400D01*
X511043D01*
Y137543D01*
D02*
G37*
G36*
X506100D02*
X501957D01*
Y133400D01*
X506100D01*
Y137543D01*
D02*
G37*
G36*
X610482Y147478D02*
X602518D01*
X602603Y146834D01*
X603006Y145861D01*
X603647Y145025D01*
X604483Y144384D01*
X605291Y144049D01*
X605317Y143519D01*
X604634Y143236D01*
X603861Y142643D01*
X603268Y141870D01*
X602895Y140970D01*
X602768Y140004D01*
X602895Y139038D01*
X603268Y138138D01*
X603861Y137365D01*
X604634Y136772D01*
X605317Y136489D01*
X605291Y135959D01*
X604483Y135624D01*
X603647Y134983D01*
X603006Y134147D01*
X602603Y133174D01*
X602518Y132530D01*
X610482D01*
X610397Y133174D01*
X609994Y134147D01*
X609353Y134983D01*
X608517Y135624D01*
X607709Y135959D01*
X607683Y136489D01*
X608366Y136772D01*
X609139Y137365D01*
X609732Y138138D01*
X610105Y139038D01*
X610232Y140004D01*
X610105Y140970D01*
X609732Y141870D01*
X609139Y142643D01*
X608366Y143236D01*
X607683Y143519D01*
X607709Y144049D01*
X608517Y144384D01*
X609353Y145025D01*
X609994Y145861D01*
X610397Y146834D01*
X610482Y147478D01*
D02*
G37*
G36*
X391400Y135934D02*
Y132400D01*
X394934D01*
X394851Y133032D01*
X394453Y133993D01*
X393819Y134819D01*
X392993Y135453D01*
X392032Y135851D01*
X391400Y135934D01*
D02*
G37*
G36*
X390600D02*
X389968Y135851D01*
X389007Y135453D01*
X388181Y134819D01*
X387547Y133993D01*
X387149Y133032D01*
X387066Y132400D01*
X390600D01*
Y135934D01*
D02*
G37*
G36*
X230500Y145731D02*
X229089Y145592D01*
X227733Y145180D01*
X226483Y144512D01*
X225387Y143613D01*
X224488Y142517D01*
X223819Y141267D01*
X223408Y139911D01*
X223269Y138500D01*
X223408Y137089D01*
X223819Y135733D01*
X224488Y134483D01*
X225387Y133387D01*
X226483Y132488D01*
X227733Y131819D01*
X229089Y131408D01*
X230500Y131269D01*
X231911Y131408D01*
X233267Y131819D01*
X234517Y132488D01*
X235613Y133387D01*
X236512Y134483D01*
X237180Y135733D01*
X237592Y137089D01*
X237731Y138500D01*
X237592Y139911D01*
X237180Y141267D01*
X236512Y142517D01*
X235613Y143613D01*
X234517Y144512D01*
X233267Y145180D01*
X231911Y145592D01*
X230500Y145731D01*
D02*
G37*
G36*
X476772Y137590D02*
X475806Y137463D01*
X474906Y137090D01*
X474133Y136497D01*
X473540Y135724D01*
X473167Y134824D01*
X473040Y133858D01*
X473167Y132892D01*
X473540Y131992D01*
X474133Y131219D01*
X474906Y130626D01*
X475806Y130254D01*
X476772Y130126D01*
X477738Y130254D01*
X478638Y130626D01*
X479411Y131219D01*
X480004Y131992D01*
X480376Y132892D01*
X480504Y133858D01*
X480376Y134824D01*
X480004Y135724D01*
X479411Y136497D01*
X478638Y137090D01*
X477738Y137463D01*
X476772Y137590D01*
D02*
G37*
G36*
X437402D02*
X436436Y137463D01*
X435536Y137090D01*
X434763Y136497D01*
X434170Y135724D01*
X433797Y134824D01*
X433670Y133858D01*
X433797Y132892D01*
X434170Y131992D01*
X434763Y131219D01*
X435536Y130626D01*
X436436Y130254D01*
X437402Y130126D01*
X438368Y130254D01*
X439267Y130626D01*
X440040Y131219D01*
X440633Y131992D01*
X441006Y132892D01*
X441133Y133858D01*
X441006Y134824D01*
X440633Y135724D01*
X440040Y136497D01*
X439267Y137090D01*
X438368Y137463D01*
X437402Y137590D01*
D02*
G37*
G36*
X496500Y137280D02*
X495392Y137134D01*
X494360Y136706D01*
X493474Y136026D01*
X492794Y135140D01*
X492366Y134108D01*
X492220Y133000D01*
X492366Y131892D01*
X492794Y130860D01*
X493474Y129974D01*
X494360Y129294D01*
X495392Y128866D01*
X496500Y128720D01*
X497608Y128866D01*
X498640Y129294D01*
X499526Y129974D01*
X500207Y130860D01*
X500634Y131892D01*
X500780Y133000D01*
X500634Y134108D01*
X500207Y135140D01*
X499526Y136026D01*
X498640Y136706D01*
X497608Y137134D01*
X496500Y137280D01*
D02*
G37*
G36*
X511043Y132600D02*
X506900D01*
Y128457D01*
X511043D01*
Y132600D01*
D02*
G37*
G36*
X506100D02*
X501957D01*
Y128457D01*
X506100D01*
Y132600D01*
D02*
G37*
G36*
X421000Y135684D02*
X420046Y135559D01*
X419158Y135191D01*
X418395Y134605D01*
X417809Y133842D01*
X417441Y132954D01*
X417316Y132000D01*
X417441Y131046D01*
X417809Y130158D01*
X418395Y129395D01*
X419158Y128809D01*
X420046Y128441D01*
X421000Y128316D01*
X421954Y128441D01*
X422842Y128809D01*
X423605Y129395D01*
X424191Y130158D01*
X424559Y131046D01*
X424684Y132000D01*
X424559Y132954D01*
X424191Y133842D01*
X423605Y134605D01*
X422842Y135191D01*
X421954Y135559D01*
X421000Y135684D01*
D02*
G37*
G36*
X394934Y131600D02*
X391400D01*
Y128066D01*
X392032Y128149D01*
X392993Y128547D01*
X393819Y129181D01*
X394453Y130007D01*
X394851Y130968D01*
X394934Y131600D01*
D02*
G37*
G36*
X390600D02*
X387066D01*
X387149Y130968D01*
X387547Y130007D01*
X388181Y129181D01*
X389007Y128547D01*
X389968Y128149D01*
X390600Y128066D01*
Y131600D01*
D02*
G37*
%LPD*%
D25*
X421000Y132000D02*
D03*
Y142000D02*
D03*
Y152000D02*
D03*
Y162000D02*
D03*
Y172000D02*
D03*
Y182000D02*
D03*
Y192000D02*
D03*
X391000Y132000D02*
D03*
Y142000D02*
D03*
Y152000D02*
D03*
Y162000D02*
D03*
Y172000D02*
D03*
Y182000D02*
D03*
X359500Y170500D02*
D03*
X503500Y166000D02*
D03*
D26*
X391000Y192000D02*
D03*
D27*
X476772Y133858D02*
D03*
X437402D02*
D03*
X535291Y192000D02*
D03*
X495921D02*
D03*
X606500Y171500D02*
D03*
Y179374D02*
D03*
Y187248D02*
D03*
Y195122D02*
D03*
Y202996D02*
D03*
Y163626D02*
D03*
Y155752D02*
D03*
Y147878D02*
D03*
Y140004D02*
D03*
Y132130D02*
D03*
Y124256D02*
D03*
X431102Y192126D02*
D03*
X470472D02*
D03*
D28*
X359500Y160500D02*
D03*
X503500Y156000D02*
D03*
D29*
X123492Y138500D02*
D03*
Y197516D02*
D03*
D30*
X230500Y138500D02*
D03*
Y197516D02*
D03*
D31*
X496500Y133000D02*
D03*
D32*
X506500D02*
D03*
M02*
