G04*
G04 #@! TF.GenerationSoftware,Altium Limited,Altium Designer,20.0.13 (296)*
G04*
G04 Layer_Color=65535*
%FSLAX25Y25*%
%MOIN*%
G70*
G01*
G75*
%ADD10C,0.02362*%
%ADD11C,0.00984*%
%ADD12C,0.00787*%
%ADD13C,0.01000*%
G36*
X444064Y116148D02*
X442825D01*
Y117570D01*
X444064D01*
Y116148D01*
D02*
G37*
G36*
X469360Y117737D02*
X469455D01*
X469572Y117723D01*
X469696Y117716D01*
X469841Y117701D01*
X469987Y117679D01*
X470148Y117657D01*
X470476Y117592D01*
X470650Y117548D01*
X470818Y117504D01*
X470986Y117446D01*
X471146Y117380D01*
X471153Y117373D01*
X471183Y117366D01*
X471226Y117344D01*
X471285Y117315D01*
X471358Y117278D01*
X471438Y117227D01*
X471533Y117176D01*
X471627Y117110D01*
X471737Y117045D01*
X471839Y116965D01*
X471948Y116877D01*
X472057Y116782D01*
X472167Y116680D01*
X472269Y116564D01*
X472371Y116447D01*
X472458Y116316D01*
X472466Y116308D01*
X472480Y116287D01*
X472502Y116243D01*
X472531Y116192D01*
X472568Y116126D01*
X472612Y116046D01*
X472648Y115959D01*
X472699Y115857D01*
X472743Y115747D01*
X472787Y115623D01*
X472830Y115492D01*
X472867Y115354D01*
X472903Y115208D01*
X472932Y115055D01*
X472947Y114894D01*
X472961Y114734D01*
X471678Y114639D01*
Y114654D01*
X471671Y114683D01*
X471664Y114734D01*
X471649Y114799D01*
X471635Y114872D01*
X471613Y114967D01*
X471584Y115069D01*
X471547Y115179D01*
X471511Y115295D01*
X471460Y115412D01*
X471401Y115529D01*
X471336Y115652D01*
X471263Y115769D01*
X471175Y115878D01*
X471081Y115988D01*
X470979Y116083D01*
X470971Y116090D01*
X470949Y116104D01*
X470920Y116126D01*
X470869Y116163D01*
X470804Y116199D01*
X470731Y116236D01*
X470643Y116279D01*
X470541Y116330D01*
X470425Y116374D01*
X470293Y116418D01*
X470148Y116454D01*
X469994Y116498D01*
X469819Y116527D01*
X469637Y116549D01*
X469440Y116564D01*
X469229Y116571D01*
X469112D01*
X469032Y116564D01*
X468930Y116556D01*
X468821Y116549D01*
X468689Y116534D01*
X468558Y116513D01*
X468267Y116462D01*
X468121Y116425D01*
X467975Y116381D01*
X467837Y116330D01*
X467698Y116272D01*
X467574Y116206D01*
X467465Y116126D01*
X467457Y116119D01*
X467443Y116104D01*
X467414Y116083D01*
X467377Y116046D01*
X467341Y116002D01*
X467290Y115951D01*
X467246Y115893D01*
X467195Y115827D01*
X467144Y115754D01*
X467093Y115667D01*
X467005Y115485D01*
X466969Y115390D01*
X466940Y115281D01*
X466925Y115171D01*
X466918Y115055D01*
Y115047D01*
Y115033D01*
Y115004D01*
X466925Y114967D01*
X466933Y114916D01*
X466940Y114865D01*
X466969Y114741D01*
X467013Y114595D01*
X467078Y114450D01*
X467122Y114369D01*
X467180Y114296D01*
X467239Y114224D01*
X467304Y114158D01*
X467312Y114151D01*
X467326Y114143D01*
X467348Y114121D01*
X467392Y114100D01*
X467443Y114063D01*
X467516Y114027D01*
X467596Y113983D01*
X467698Y113932D01*
X467822Y113881D01*
X467961Y113823D01*
X468128Y113764D01*
X468310Y113699D01*
X468522Y113633D01*
X468755Y113567D01*
X469018Y113502D01*
X469309Y113429D01*
X469316D01*
X469331Y113422D01*
X469353D01*
X469382Y113414D01*
X469418Y113407D01*
X469462Y113392D01*
X469572Y113371D01*
X469703Y113334D01*
X469856Y113298D01*
X470024Y113261D01*
X470198Y113210D01*
X470570Y113116D01*
X470753Y113065D01*
X470935Y113006D01*
X471110Y112955D01*
X471270Y112897D01*
X471416Y112846D01*
X471540Y112795D01*
X471547Y112787D01*
X471576Y112773D01*
X471627Y112751D01*
X471686Y112722D01*
X471759Y112678D01*
X471839Y112634D01*
X471934Y112576D01*
X472036Y112510D01*
X472138Y112445D01*
X472247Y112365D01*
X472466Y112190D01*
X472670Y111986D01*
X472757Y111876D01*
X472845Y111759D01*
X472852Y111752D01*
X472867Y111730D01*
X472881Y111694D01*
X472910Y111650D01*
X472940Y111592D01*
X472976Y111519D01*
X473020Y111439D01*
X473056Y111351D01*
X473093Y111249D01*
X473136Y111140D01*
X473173Y111023D01*
X473202Y110892D01*
X473231Y110761D01*
X473253Y110622D01*
X473260Y110484D01*
X473268Y110331D01*
Y110323D01*
Y110294D01*
Y110250D01*
X473260Y110192D01*
X473253Y110119D01*
X473246Y110039D01*
X473231Y109944D01*
X473209Y109835D01*
X473187Y109726D01*
X473151Y109602D01*
X473114Y109478D01*
X473071Y109347D01*
X473020Y109215D01*
X472954Y109077D01*
X472881Y108946D01*
X472801Y108807D01*
X472794Y108800D01*
X472779Y108778D01*
X472750Y108741D01*
X472714Y108691D01*
X472670Y108632D01*
X472612Y108559D01*
X472546Y108486D01*
X472466Y108406D01*
X472378Y108319D01*
X472276Y108231D01*
X472167Y108136D01*
X472050Y108042D01*
X471926Y107954D01*
X471788Y107867D01*
X471642Y107787D01*
X471482Y107706D01*
X471474Y107699D01*
X471445Y107692D01*
X471394Y107670D01*
X471328Y107648D01*
X471248Y107619D01*
X471153Y107582D01*
X471044Y107546D01*
X470920Y107510D01*
X470782Y107473D01*
X470629Y107437D01*
X470468Y107407D01*
X470301Y107371D01*
X470126Y107349D01*
X469936Y107327D01*
X469739Y107320D01*
X469542Y107313D01*
X469411D01*
X469316Y107320D01*
X469200Y107327D01*
X469061Y107334D01*
X468908Y107349D01*
X468741Y107364D01*
X468566Y107386D01*
X468383Y107407D01*
X467997Y107480D01*
X467800Y107524D01*
X467611Y107575D01*
X467421Y107641D01*
X467246Y107706D01*
X467239Y107714D01*
X467202Y107728D01*
X467159Y107750D01*
X467093Y107779D01*
X467013Y107823D01*
X466925Y107874D01*
X466823Y107940D01*
X466721Y108005D01*
X466605Y108085D01*
X466488Y108173D01*
X466364Y108275D01*
X466247Y108384D01*
X466123Y108501D01*
X466007Y108625D01*
X465897Y108763D01*
X465795Y108909D01*
X465788Y108916D01*
X465773Y108946D01*
X465744Y108989D01*
X465715Y109048D01*
X465671Y109128D01*
X465628Y109215D01*
X465577Y109317D01*
X465533Y109434D01*
X465482Y109565D01*
X465431Y109704D01*
X465387Y109857D01*
X465343Y110010D01*
X465307Y110178D01*
X465278Y110353D01*
X465256Y110535D01*
X465249Y110724D01*
X466510Y110834D01*
Y110826D01*
X466517Y110797D01*
Y110761D01*
X466532Y110710D01*
X466539Y110644D01*
X466553Y110564D01*
X466575Y110484D01*
X466597Y110389D01*
X466648Y110192D01*
X466721Y109981D01*
X466809Y109777D01*
X466918Y109580D01*
X466925Y109573D01*
X466933Y109558D01*
X466955Y109536D01*
X466984Y109500D01*
X467013Y109456D01*
X467057Y109412D01*
X467108Y109361D01*
X467166Y109303D01*
X467232Y109245D01*
X467312Y109179D01*
X467392Y109113D01*
X467487Y109048D01*
X467581Y108982D01*
X467691Y108916D01*
X467807Y108858D01*
X467931Y108800D01*
X467939D01*
X467961Y108785D01*
X468004Y108771D01*
X468055Y108756D01*
X468121Y108734D01*
X468194Y108705D01*
X468289Y108676D01*
X468383Y108654D01*
X468493Y108625D01*
X468617Y108596D01*
X468741Y108574D01*
X468879Y108545D01*
X469171Y108516D01*
X469484Y108501D01*
X469557D01*
X469615Y108508D01*
X469681D01*
X469754Y108516D01*
X469841Y108523D01*
X469936Y108530D01*
X470148Y108559D01*
X470373Y108596D01*
X470600Y108654D01*
X470825Y108727D01*
X470833D01*
X470855Y108734D01*
X470884Y108749D01*
X470920Y108771D01*
X470971Y108792D01*
X471022Y108822D01*
X471153Y108887D01*
X471292Y108975D01*
X471438Y109084D01*
X471576Y109208D01*
X471693Y109347D01*
Y109354D01*
X471708Y109368D01*
X471722Y109390D01*
X471737Y109420D01*
X471759Y109456D01*
X471788Y109500D01*
X471839Y109609D01*
X471890Y109733D01*
X471941Y109879D01*
X471970Y110046D01*
X471985Y110214D01*
Y110221D01*
Y110236D01*
Y110258D01*
X471977Y110294D01*
Y110338D01*
X471970Y110382D01*
X471948Y110498D01*
X471919Y110622D01*
X471868Y110761D01*
X471795Y110899D01*
X471700Y111038D01*
Y111045D01*
X471686Y111052D01*
X471649Y111096D01*
X471576Y111162D01*
X471533Y111205D01*
X471482Y111249D01*
X471423Y111293D01*
X471358Y111344D01*
X471285Y111395D01*
X471197Y111446D01*
X471110Y111497D01*
X471008Y111548D01*
X470906Y111592D01*
X470789Y111643D01*
X470782D01*
X470767Y111650D01*
X470745Y111658D01*
X470702Y111672D01*
X470650Y111687D01*
X470592Y111708D01*
X470512Y111730D01*
X470417Y111759D01*
X470301Y111796D01*
X470177Y111832D01*
X470031Y111869D01*
X469863Y111913D01*
X469681Y111964D01*
X469469Y112015D01*
X469243Y112073D01*
X468996Y112131D01*
X468988D01*
X468981Y112139D01*
X468959D01*
X468937Y112146D01*
X468864Y112168D01*
X468770Y112190D01*
X468660Y112219D01*
X468529Y112255D01*
X468383Y112292D01*
X468237Y112335D01*
X467917Y112430D01*
X467596Y112540D01*
X467443Y112598D01*
X467297Y112656D01*
X467173Y112707D01*
X467057Y112766D01*
X467049Y112773D01*
X467027Y112780D01*
X466991Y112802D01*
X466940Y112831D01*
X466882Y112868D01*
X466809Y112919D01*
X466736Y112970D01*
X466648Y113028D01*
X466473Y113159D01*
X466298Y113320D01*
X466123Y113502D01*
X466050Y113604D01*
X465978Y113706D01*
X465970Y113713D01*
X465963Y113735D01*
X465948Y113764D01*
X465927Y113808D01*
X465897Y113859D01*
X465868Y113917D01*
X465839Y113990D01*
X465803Y114070D01*
X465773Y114165D01*
X465737Y114260D01*
X465686Y114471D01*
X465642Y114705D01*
X465635Y114829D01*
X465628Y114960D01*
Y114967D01*
Y114996D01*
Y115033D01*
X465635Y115091D01*
X465642Y115157D01*
X465650Y115237D01*
X465664Y115324D01*
X465679Y115426D01*
X465708Y115536D01*
X465730Y115645D01*
X465766Y115762D01*
X465810Y115886D01*
X465861Y116010D01*
X465919Y116133D01*
X465985Y116265D01*
X466058Y116389D01*
X466065Y116396D01*
X466080Y116418D01*
X466102Y116454D01*
X466138Y116498D01*
X466182Y116556D01*
X466240Y116615D01*
X466306Y116688D01*
X466379Y116761D01*
X466459Y116841D01*
X466553Y116928D01*
X466656Y117008D01*
X466772Y117096D01*
X466896Y117176D01*
X467027Y117256D01*
X467166Y117329D01*
X467319Y117395D01*
X467326Y117402D01*
X467355Y117409D01*
X467399Y117424D01*
X467465Y117453D01*
X467545Y117475D01*
X467632Y117504D01*
X467742Y117541D01*
X467866Y117570D01*
X467997Y117606D01*
X468135Y117635D01*
X468289Y117664D01*
X468449Y117694D01*
X468624Y117716D01*
X468799Y117730D01*
X468981Y117737D01*
X469171Y117745D01*
X469280D01*
X469360Y117737D01*
D02*
G37*
G36*
X486375Y114945D02*
X486448Y114938D01*
X486521Y114931D01*
X486608Y114923D01*
X486791Y114894D01*
X486995Y114850D01*
X487206Y114792D01*
X487418Y114712D01*
X487425D01*
X487439Y114705D01*
X487468Y114690D01*
X487512Y114668D01*
X487556Y114646D01*
X487607Y114617D01*
X487731Y114544D01*
X487862Y114457D01*
X488001Y114348D01*
X488132Y114224D01*
X488249Y114085D01*
Y114078D01*
X488263Y114070D01*
X488278Y114049D01*
X488292Y114019D01*
X488314Y113983D01*
X488343Y113939D01*
X488402Y113830D01*
X488467Y113699D01*
X488526Y113538D01*
X488584Y113363D01*
X488635Y113174D01*
Y113166D01*
Y113159D01*
X488642Y113137D01*
X488650Y113108D01*
Y113072D01*
X488657Y113021D01*
X488664Y112962D01*
X488671Y112897D01*
X488679Y112817D01*
X488686Y112729D01*
X488693Y112634D01*
Y112525D01*
X488701Y112401D01*
X488708Y112270D01*
Y112124D01*
Y111971D01*
Y107480D01*
X487468D01*
Y111920D01*
Y111927D01*
Y111956D01*
Y111993D01*
Y112044D01*
X487461Y112109D01*
Y112182D01*
X487454Y112263D01*
Y112343D01*
X487432Y112532D01*
X487410Y112715D01*
X487374Y112897D01*
X487352Y112977D01*
X487323Y113050D01*
Y113057D01*
X487316Y113065D01*
X487308Y113086D01*
X487294Y113116D01*
X487257Y113181D01*
X487206Y113269D01*
X487133Y113363D01*
X487046Y113465D01*
X486936Y113567D01*
X486805Y113655D01*
X486798D01*
X486791Y113662D01*
X486769Y113677D01*
X486739Y113691D01*
X486667Y113728D01*
X486565Y113772D01*
X486433Y113808D01*
X486288Y113845D01*
X486127Y113874D01*
X485945Y113881D01*
X485865D01*
X485814Y113874D01*
X485741Y113866D01*
X485661Y113852D01*
X485573Y113837D01*
X485478Y113815D01*
X485369Y113794D01*
X485260Y113757D01*
X485150Y113721D01*
X485034Y113670D01*
X484917Y113611D01*
X484800Y113546D01*
X484684Y113465D01*
X484574Y113378D01*
X484567Y113371D01*
X484552Y113356D01*
X484523Y113320D01*
X484487Y113276D01*
X484443Y113217D01*
X484392Y113145D01*
X484341Y113057D01*
X484290Y112948D01*
X484239Y112831D01*
X484188Y112693D01*
X484137Y112532D01*
X484093Y112357D01*
X484057Y112168D01*
X484028Y111956D01*
X484013Y111723D01*
X484006Y111468D01*
Y107480D01*
X482766D01*
Y114792D01*
X483882D01*
Y113750D01*
X483889Y113764D01*
X483918Y113801D01*
X483969Y113859D01*
X484028Y113939D01*
X484115Y114027D01*
X484217Y114129D01*
X484334Y114238D01*
X484472Y114355D01*
X484625Y114464D01*
X484800Y114574D01*
X484990Y114675D01*
X485201Y114763D01*
X485427Y114843D01*
X485668Y114901D01*
X485930Y114938D01*
X486207Y114953D01*
X486317D01*
X486375Y114945D01*
D02*
G37*
G36*
X457390D02*
X457463Y114938D01*
X457536Y114931D01*
X457623Y114923D01*
X457805Y114894D01*
X458010Y114850D01*
X458221Y114792D01*
X458432Y114712D01*
X458440D01*
X458454Y114705D01*
X458484Y114690D01*
X458527Y114668D01*
X458571Y114646D01*
X458622Y114617D01*
X458746Y114544D01*
X458877Y114457D01*
X459016Y114348D01*
X459147Y114224D01*
X459264Y114085D01*
Y114078D01*
X459278Y114070D01*
X459293Y114049D01*
X459307Y114019D01*
X459329Y113983D01*
X459358Y113939D01*
X459417Y113830D01*
X459482Y113699D01*
X459541Y113538D01*
X459599Y113363D01*
X459650Y113174D01*
Y113166D01*
Y113159D01*
X459657Y113137D01*
X459664Y113108D01*
Y113072D01*
X459672Y113021D01*
X459679Y112962D01*
X459686Y112897D01*
X459694Y112817D01*
X459701Y112729D01*
X459708Y112634D01*
Y112525D01*
X459716Y112401D01*
X459723Y112270D01*
Y112124D01*
Y111971D01*
Y107480D01*
X458484D01*
Y111920D01*
Y111927D01*
Y111956D01*
Y111993D01*
Y112044D01*
X458476Y112109D01*
Y112182D01*
X458469Y112263D01*
Y112343D01*
X458447Y112532D01*
X458425Y112715D01*
X458389Y112897D01*
X458367Y112977D01*
X458338Y113050D01*
Y113057D01*
X458330Y113065D01*
X458323Y113086D01*
X458309Y113116D01*
X458272Y113181D01*
X458221Y113269D01*
X458148Y113363D01*
X458061Y113465D01*
X457951Y113567D01*
X457820Y113655D01*
X457813D01*
X457805Y113662D01*
X457784Y113677D01*
X457755Y113691D01*
X457682Y113728D01*
X457580Y113772D01*
X457448Y113808D01*
X457303Y113845D01*
X457142Y113874D01*
X456960Y113881D01*
X456880D01*
X456829Y113874D01*
X456756Y113866D01*
X456676Y113852D01*
X456588Y113837D01*
X456493Y113815D01*
X456384Y113794D01*
X456275Y113757D01*
X456165Y113721D01*
X456049Y113670D01*
X455932Y113611D01*
X455815Y113546D01*
X455699Y113465D01*
X455589Y113378D01*
X455582Y113371D01*
X455568Y113356D01*
X455538Y113320D01*
X455502Y113276D01*
X455458Y113217D01*
X455407Y113145D01*
X455356Y113057D01*
X455305Y112948D01*
X455254Y112831D01*
X455203Y112693D01*
X455152Y112532D01*
X455108Y112357D01*
X455072Y112168D01*
X455043Y111956D01*
X455028Y111723D01*
X455021Y111468D01*
Y107480D01*
X453782D01*
Y114792D01*
X454897D01*
Y113750D01*
X454904Y113764D01*
X454933Y113801D01*
X454984Y113859D01*
X455043Y113939D01*
X455130Y114027D01*
X455232Y114129D01*
X455349Y114238D01*
X455487Y114355D01*
X455640Y114464D01*
X455815Y114574D01*
X456005Y114675D01*
X456216Y114763D01*
X456442Y114843D01*
X456683Y114901D01*
X456945Y114938D01*
X457222Y114953D01*
X457332D01*
X457390Y114945D01*
D02*
G37*
G36*
X508282D02*
X508340Y114938D01*
X508405Y114931D01*
X508478Y114916D01*
X508566Y114901D01*
X508661Y114880D01*
X508763Y114858D01*
X508974Y114785D01*
X509091Y114741D01*
X509207Y114683D01*
X509324Y114625D01*
X509448Y114552D01*
X509011Y113407D01*
X509003D01*
X508989Y113422D01*
X508967Y113429D01*
X508930Y113451D01*
X508894Y113465D01*
X508843Y113487D01*
X508726Y113538D01*
X508595Y113589D01*
X508442Y113626D01*
X508274Y113655D01*
X508107Y113670D01*
X508041D01*
X507961Y113655D01*
X507866Y113640D01*
X507757Y113611D01*
X507633Y113567D01*
X507509Y113502D01*
X507385Y113422D01*
X507370Y113407D01*
X507334Y113378D01*
X507275Y113320D01*
X507210Y113247D01*
X507130Y113152D01*
X507057Y113035D01*
X506984Y112897D01*
X506926Y112744D01*
Y112736D01*
X506918Y112715D01*
X506904Y112678D01*
X506896Y112627D01*
X506882Y112569D01*
X506860Y112496D01*
X506845Y112408D01*
X506823Y112321D01*
X506802Y112212D01*
X506787Y112102D01*
X506773Y111986D01*
X506751Y111862D01*
X506729Y111592D01*
X506721Y111300D01*
Y107480D01*
X505482D01*
Y114792D01*
X506598D01*
Y113670D01*
X506605Y113677D01*
X506619Y113706D01*
X506641Y113742D01*
X506670Y113794D01*
X506707Y113859D01*
X506751Y113932D01*
X506853Y114092D01*
X506977Y114260D01*
X507108Y114435D01*
X507173Y114508D01*
X507239Y114581D01*
X507312Y114646D01*
X507377Y114697D01*
X507385D01*
X507392Y114712D01*
X507414Y114719D01*
X507443Y114741D01*
X507516Y114778D01*
X507611Y114829D01*
X507735Y114872D01*
X507866Y114916D01*
X508012Y114945D01*
X508172Y114953D01*
X508238D01*
X508282Y114945D01*
D02*
G37*
G36*
X396271D02*
X396329Y114938D01*
X396395Y114931D01*
X396467Y114916D01*
X396555Y114901D01*
X396650Y114880D01*
X396752Y114858D01*
X396963Y114785D01*
X397080Y114741D01*
X397197Y114683D01*
X397313Y114625D01*
X397437Y114552D01*
X397000Y113407D01*
X396992D01*
X396978Y113422D01*
X396956Y113429D01*
X396919Y113451D01*
X396883Y113465D01*
X396832Y113487D01*
X396715Y113538D01*
X396584Y113589D01*
X396431Y113626D01*
X396263Y113655D01*
X396096Y113670D01*
X396030D01*
X395950Y113655D01*
X395855Y113640D01*
X395746Y113611D01*
X395622Y113567D01*
X395498Y113502D01*
X395374Y113422D01*
X395359Y113407D01*
X395323Y113378D01*
X395265Y113320D01*
X395199Y113247D01*
X395119Y113152D01*
X395046Y113035D01*
X394973Y112897D01*
X394915Y112744D01*
Y112736D01*
X394907Y112715D01*
X394893Y112678D01*
X394886Y112627D01*
X394871Y112569D01*
X394849Y112496D01*
X394834Y112408D01*
X394813Y112321D01*
X394791Y112212D01*
X394776Y112102D01*
X394762Y111986D01*
X394740Y111862D01*
X394718Y111592D01*
X394711Y111300D01*
Y107480D01*
X393471D01*
Y114792D01*
X394587D01*
Y113670D01*
X394594Y113677D01*
X394608Y113706D01*
X394630Y113742D01*
X394660Y113794D01*
X394696Y113859D01*
X394740Y113932D01*
X394842Y114092D01*
X394966Y114260D01*
X395097Y114435D01*
X395163Y114508D01*
X395228Y114581D01*
X395301Y114646D01*
X395367Y114697D01*
X395374D01*
X395381Y114712D01*
X395403Y114719D01*
X395432Y114741D01*
X395505Y114778D01*
X395600Y114829D01*
X395724Y114872D01*
X395855Y114916D01*
X396001Y114945D01*
X396161Y114953D01*
X396227D01*
X396271Y114945D01*
D02*
G37*
G36*
X493220D02*
X493308Y114938D01*
X493410Y114931D01*
X493519Y114923D01*
X493629Y114909D01*
X493752Y114894D01*
X494008Y114850D01*
X494270Y114785D01*
X494518Y114705D01*
X494525D01*
X494547Y114690D01*
X494584Y114683D01*
X494627Y114661D01*
X494678Y114632D01*
X494737Y114603D01*
X494882Y114530D01*
X495036Y114435D01*
X495196Y114318D01*
X495342Y114187D01*
X495415Y114114D01*
X495473Y114034D01*
X495480Y114027D01*
X495488Y114012D01*
X495502Y113990D01*
X495524Y113954D01*
X495553Y113917D01*
X495582Y113866D01*
X495611Y113801D01*
X495648Y113735D01*
X495684Y113655D01*
X495721Y113575D01*
X495757Y113480D01*
X495786Y113378D01*
X495823Y113269D01*
X495859Y113159D01*
X495910Y112904D01*
X494700Y112736D01*
Y112744D01*
X494693Y112758D01*
Y112787D01*
X494678Y112831D01*
X494671Y112875D01*
X494649Y112933D01*
X494605Y113057D01*
X494540Y113196D01*
X494460Y113341D01*
X494350Y113487D01*
X494285Y113553D01*
X494212Y113611D01*
X494205Y113619D01*
X494197Y113626D01*
X494168Y113640D01*
X494139Y113662D01*
X494095Y113684D01*
X494051Y113713D01*
X493993Y113742D01*
X493927Y113772D01*
X493847Y113801D01*
X493767Y113830D01*
X493672Y113859D01*
X493578Y113881D01*
X493468Y113903D01*
X493352Y113917D01*
X493228Y113932D01*
X493016D01*
X492958Y113925D01*
X492885D01*
X492805Y113917D01*
X492717Y113910D01*
X492623Y113895D01*
X492418Y113866D01*
X492214Y113815D01*
X492120Y113779D01*
X492032Y113742D01*
X491945Y113699D01*
X491872Y113648D01*
X491864D01*
X491857Y113633D01*
X491813Y113597D01*
X491755Y113538D01*
X491689Y113458D01*
X491624Y113363D01*
X491566Y113254D01*
X491522Y113130D01*
X491514Y113057D01*
X491507Y112992D01*
Y112984D01*
Y112948D01*
X491514Y112904D01*
X491529Y112846D01*
X491544Y112780D01*
X491566Y112707D01*
X491602Y112627D01*
X491653Y112554D01*
X491660Y112547D01*
X491682Y112525D01*
X491719Y112488D01*
X491770Y112437D01*
X491835Y112387D01*
X491923Y112335D01*
X492018Y112277D01*
X492134Y112226D01*
X492141D01*
X492156Y112219D01*
X492178Y112212D01*
X492207Y112204D01*
X492243Y112190D01*
X492287Y112182D01*
X492338Y112161D01*
X492404Y112146D01*
X492484Y112124D01*
X492572Y112095D01*
X492674Y112066D01*
X492790Y112037D01*
X492921Y112000D01*
X493075Y111956D01*
X493235Y111913D01*
X493242D01*
X493250Y111905D01*
X493293Y111898D01*
X493359Y111876D01*
X493446Y111854D01*
X493556Y111825D01*
X493680Y111789D01*
X493818Y111752D01*
X493957Y111708D01*
X494263Y111621D01*
X494569Y111519D01*
X494707Y111475D01*
X494846Y111424D01*
X494963Y111381D01*
X495072Y111337D01*
X495079D01*
X495094Y111329D01*
X495123Y111315D01*
X495159Y111293D01*
X495203Y111271D01*
X495254Y111242D01*
X495371Y111169D01*
X495502Y111074D01*
X495633Y110965D01*
X495765Y110834D01*
X495889Y110681D01*
Y110673D01*
X495903Y110659D01*
X495918Y110637D01*
X495932Y110608D01*
X495961Y110564D01*
X495983Y110513D01*
X496012Y110455D01*
X496042Y110389D01*
X496064Y110316D01*
X496093Y110236D01*
X496144Y110061D01*
X496173Y109857D01*
X496187Y109631D01*
Y109624D01*
Y109602D01*
Y109573D01*
X496180Y109529D01*
Y109470D01*
X496166Y109405D01*
X496158Y109332D01*
X496144Y109252D01*
X496100Y109077D01*
X496034Y108880D01*
X495991Y108778D01*
X495947Y108669D01*
X495889Y108566D01*
X495823Y108465D01*
X495816Y108457D01*
X495808Y108443D01*
X495786Y108413D01*
X495757Y108377D01*
X495721Y108326D01*
X495670Y108275D01*
X495619Y108217D01*
X495553Y108151D01*
X495488Y108085D01*
X495407Y108020D01*
X495320Y107947D01*
X495225Y107874D01*
X495123Y107808D01*
X495014Y107743D01*
X494897Y107677D01*
X494773Y107619D01*
X494766D01*
X494744Y107604D01*
X494707Y107590D01*
X494657Y107575D01*
X494591Y107553D01*
X494511Y107524D01*
X494423Y107495D01*
X494328Y107473D01*
X494219Y107444D01*
X494102Y107415D01*
X493971Y107393D01*
X493840Y107364D01*
X493548Y107334D01*
X493235Y107320D01*
X493169D01*
X493096Y107327D01*
X493002D01*
X492878Y107342D01*
X492746Y107349D01*
X492593Y107371D01*
X492426Y107393D01*
X492251Y107422D01*
X492076Y107466D01*
X491894Y107510D01*
X491711Y107568D01*
X491536Y107633D01*
X491361Y107714D01*
X491201Y107808D01*
X491055Y107910D01*
X491048Y107918D01*
X491026Y107940D01*
X490982Y107976D01*
X490939Y108020D01*
X490880Y108085D01*
X490807Y108158D01*
X490734Y108246D01*
X490662Y108355D01*
X490581Y108472D01*
X490494Y108596D01*
X490421Y108741D01*
X490341Y108902D01*
X490268Y109070D01*
X490210Y109259D01*
X490151Y109456D01*
X490107Y109667D01*
X491332Y109857D01*
Y109850D01*
X491339Y109828D01*
X491347Y109784D01*
X491354Y109733D01*
X491369Y109675D01*
X491391Y109602D01*
X491412Y109521D01*
X491442Y109441D01*
X491514Y109259D01*
X491617Y109070D01*
X491675Y108975D01*
X491741Y108887D01*
X491821Y108807D01*
X491901Y108727D01*
X491908Y108720D01*
X491923Y108712D01*
X491952Y108691D01*
X491988Y108669D01*
X492039Y108639D01*
X492098Y108603D01*
X492163Y108566D01*
X492243Y108537D01*
X492331Y108501D01*
X492433Y108465D01*
X492542Y108428D01*
X492659Y108399D01*
X492790Y108377D01*
X492929Y108355D01*
X493075Y108348D01*
X493228Y108341D01*
X493308D01*
X493366Y108348D01*
X493439D01*
X493519Y108362D01*
X493607Y108370D01*
X493709Y108384D01*
X493913Y108428D01*
X494124Y108486D01*
X494321Y108574D01*
X494416Y108625D01*
X494496Y108683D01*
X494503Y108691D01*
X494511Y108698D01*
X494533Y108720D01*
X494562Y108749D01*
X494627Y108822D01*
X494707Y108916D01*
X494780Y109033D01*
X494846Y109179D01*
X494875Y109252D01*
X494897Y109332D01*
X494904Y109412D01*
X494912Y109500D01*
Y109507D01*
Y109521D01*
Y109543D01*
X494904Y109565D01*
X494890Y109645D01*
X494868Y109740D01*
X494824Y109842D01*
X494759Y109952D01*
X494715Y110003D01*
X494664Y110061D01*
X494605Y110112D01*
X494540Y110156D01*
X494525Y110163D01*
X494511Y110170D01*
X494489Y110185D01*
X494452Y110199D01*
X494409Y110221D01*
X494350Y110243D01*
X494292Y110272D01*
X494212Y110301D01*
X494124Y110331D01*
X494015Y110367D01*
X493898Y110404D01*
X493767Y110440D01*
X493621Y110484D01*
X493454Y110528D01*
X493271Y110571D01*
X493264D01*
X493257Y110579D01*
X493213Y110586D01*
X493140Y110608D01*
X493053Y110630D01*
X492936Y110659D01*
X492812Y110695D01*
X492674Y110732D01*
X492521Y110775D01*
X492207Y110870D01*
X491894Y110972D01*
X491748Y111023D01*
X491609Y111074D01*
X491485Y111125D01*
X491376Y111169D01*
X491369D01*
X491354Y111184D01*
X491325Y111198D01*
X491289Y111213D01*
X491245Y111242D01*
X491194Y111271D01*
X491077Y111351D01*
X490953Y111446D01*
X490822Y111563D01*
X490691Y111701D01*
X490581Y111862D01*
Y111869D01*
X490567Y111883D01*
X490559Y111905D01*
X490538Y111942D01*
X490516Y111978D01*
X490494Y112029D01*
X490472Y112088D01*
X490450Y112153D01*
X490399Y112299D01*
X490355Y112467D01*
X490326Y112649D01*
X490312Y112846D01*
Y112853D01*
Y112868D01*
Y112897D01*
X490319Y112926D01*
Y112970D01*
X490326Y113021D01*
X490341Y113145D01*
X490363Y113283D01*
X490406Y113436D01*
X490457Y113589D01*
X490530Y113750D01*
Y113757D01*
X490538Y113772D01*
X490552Y113794D01*
X490574Y113823D01*
X490625Y113895D01*
X490691Y113990D01*
X490778Y114100D01*
X490888Y114216D01*
X491004Y114333D01*
X491143Y114442D01*
X491157Y114450D01*
X491194Y114479D01*
X491259Y114515D01*
X491354Y114566D01*
X491464Y114625D01*
X491595Y114683D01*
X491755Y114741D01*
X491930Y114799D01*
X491937D01*
X491952Y114807D01*
X491981Y114814D01*
X492018Y114821D01*
X492061Y114836D01*
X492120Y114850D01*
X492185Y114865D01*
X492251Y114880D01*
X492411Y114901D01*
X492593Y114931D01*
X492790Y114945D01*
X493002Y114953D01*
X493148D01*
X493220Y114945D01*
D02*
G37*
G36*
X434922D02*
X435002D01*
X435105Y114931D01*
X435221Y114923D01*
X435352Y114901D01*
X435498Y114880D01*
X435651Y114843D01*
X435804Y114807D01*
X435965Y114756D01*
X436132Y114697D01*
X436293Y114632D01*
X436453Y114544D01*
X436606Y114457D01*
X436752Y114348D01*
X436759Y114340D01*
X436789Y114318D01*
X436825Y114282D01*
X436876Y114238D01*
X436934Y114172D01*
X437007Y114100D01*
X437080Y114012D01*
X437160Y113910D01*
X437240Y113794D01*
X437321Y113662D01*
X437408Y113524D01*
X437481Y113371D01*
X437561Y113210D01*
X437627Y113028D01*
X437685Y112846D01*
X437729Y112642D01*
X436526Y112459D01*
Y112467D01*
X436519Y112488D01*
X436504Y112532D01*
X436490Y112576D01*
X436475Y112642D01*
X436446Y112707D01*
X436417Y112787D01*
X436387Y112868D01*
X436300Y113050D01*
X436191Y113232D01*
X436067Y113407D01*
X435994Y113487D01*
X435914Y113560D01*
X435906Y113567D01*
X435892Y113575D01*
X435870Y113597D01*
X435834Y113619D01*
X435797Y113648D01*
X435746Y113677D01*
X435688Y113713D01*
X435615Y113750D01*
X435462Y113815D01*
X435287Y113874D01*
X435083Y113917D01*
X434973Y113925D01*
X434857Y113932D01*
X434813D01*
X434769Y113925D01*
X434703D01*
X434623Y113910D01*
X434529Y113895D01*
X434426Y113874D01*
X434317Y113852D01*
X434200Y113815D01*
X434077Y113772D01*
X433953Y113713D01*
X433821Y113648D01*
X433698Y113575D01*
X433574Y113480D01*
X433457Y113378D01*
X433340Y113261D01*
X433333Y113254D01*
X433318Y113232D01*
X433289Y113188D01*
X433253Y113137D01*
X433202Y113065D01*
X433158Y112970D01*
X433100Y112868D01*
X433049Y112744D01*
X432998Y112605D01*
X432939Y112452D01*
X432896Y112277D01*
X432852Y112080D01*
X432808Y111876D01*
X432779Y111650D01*
X432764Y111402D01*
X432757Y111140D01*
Y111133D01*
Y111125D01*
Y111103D01*
Y111074D01*
X432764Y111001D01*
Y110899D01*
X432772Y110775D01*
X432786Y110637D01*
X432801Y110484D01*
X432830Y110323D01*
X432859Y110149D01*
X432896Y109974D01*
X432939Y109791D01*
X432998Y109616D01*
X433056Y109449D01*
X433136Y109288D01*
X433216Y109135D01*
X433318Y109004D01*
X433326Y108997D01*
X433348Y108975D01*
X433377Y108946D01*
X433421Y108902D01*
X433479Y108851D01*
X433544Y108792D01*
X433625Y108734D01*
X433712Y108676D01*
X433814Y108610D01*
X433923Y108552D01*
X434047Y108494D01*
X434179Y108443D01*
X434317Y108399D01*
X434463Y108370D01*
X434623Y108348D01*
X434791Y108341D01*
X434864D01*
X434915Y108348D01*
X434973Y108355D01*
X435046Y108362D01*
X435126Y108377D01*
X435214Y108399D01*
X435411Y108450D01*
X435513Y108486D01*
X435615Y108530D01*
X435717Y108581D01*
X435819Y108639D01*
X435914Y108705D01*
X436008Y108785D01*
X436016Y108792D01*
X436030Y108807D01*
X436052Y108836D01*
X436089Y108873D01*
X436125Y108916D01*
X436169Y108975D01*
X436220Y109048D01*
X436271Y109128D01*
X436322Y109215D01*
X436373Y109317D01*
X436424Y109427D01*
X436475Y109558D01*
X436526Y109689D01*
X436562Y109835D01*
X436599Y109995D01*
X436628Y110163D01*
X437846Y109995D01*
Y109981D01*
X437838Y109937D01*
X437824Y109871D01*
X437802Y109784D01*
X437773Y109682D01*
X437736Y109558D01*
X437692Y109427D01*
X437641Y109274D01*
X437576Y109121D01*
X437503Y108960D01*
X437423Y108800D01*
X437328Y108632D01*
X437219Y108472D01*
X437102Y108311D01*
X436963Y108166D01*
X436818Y108027D01*
X436810Y108020D01*
X436781Y107998D01*
X436737Y107961D01*
X436672Y107918D01*
X436592Y107867D01*
X436497Y107801D01*
X436387Y107743D01*
X436256Y107677D01*
X436118Y107604D01*
X435965Y107546D01*
X435797Y107488D01*
X435622Y107429D01*
X435432Y107386D01*
X435228Y107349D01*
X435017Y107327D01*
X434798Y107320D01*
X434733D01*
X434653Y107327D01*
X434550Y107334D01*
X434426Y107349D01*
X434281Y107371D01*
X434113Y107400D01*
X433938Y107444D01*
X433748Y107495D01*
X433552Y107561D01*
X433355Y107641D01*
X433151Y107736D01*
X432954Y107845D01*
X432757Y107976D01*
X432568Y108122D01*
X432393Y108297D01*
X432385Y108311D01*
X432356Y108341D01*
X432305Y108399D01*
X432254Y108479D01*
X432181Y108581D01*
X432101Y108705D01*
X432021Y108851D01*
X431941Y109011D01*
X431853Y109201D01*
X431773Y109412D01*
X431693Y109645D01*
X431627Y109893D01*
X431569Y110163D01*
X431518Y110455D01*
X431489Y110768D01*
X431481Y111103D01*
Y111118D01*
Y111154D01*
Y111220D01*
X431489Y111300D01*
X431496Y111402D01*
X431503Y111526D01*
X431510Y111658D01*
X431532Y111803D01*
X431547Y111964D01*
X431576Y112131D01*
X431642Y112474D01*
X431685Y112656D01*
X431744Y112831D01*
X431802Y113006D01*
X431868Y113174D01*
X431875Y113181D01*
X431890Y113210D01*
X431912Y113261D01*
X431941Y113320D01*
X431984Y113392D01*
X432035Y113480D01*
X432094Y113575D01*
X432167Y113677D01*
X432247Y113779D01*
X432334Y113888D01*
X432429Y114005D01*
X432538Y114114D01*
X432655Y114216D01*
X432779Y114326D01*
X432917Y114420D01*
X433063Y114508D01*
X433071Y114515D01*
X433100Y114530D01*
X433144Y114552D01*
X433202Y114581D01*
X433275Y114610D01*
X433369Y114646D01*
X433471Y114690D01*
X433581Y114734D01*
X433705Y114770D01*
X433843Y114814D01*
X433982Y114850D01*
X434135Y114887D01*
X434295Y114909D01*
X434463Y114931D01*
X434631Y114945D01*
X434806Y114953D01*
X434857D01*
X434922Y114945D01*
D02*
G37*
G36*
X370041Y107480D02*
X368744D01*
X366637Y115164D01*
Y115179D01*
X366622Y115208D01*
X366608Y115251D01*
X366593Y115317D01*
X366571Y115397D01*
X366549Y115477D01*
X366520Y115572D01*
X366491Y115674D01*
X366433Y115878D01*
X366411Y115973D01*
X366382Y116068D01*
X366360Y116155D01*
X366338Y116228D01*
X366323Y116294D01*
X366309Y116345D01*
Y116338D01*
X366301Y116316D01*
X366294Y116279D01*
X366280Y116228D01*
X366265Y116170D01*
X366250Y116097D01*
X366229Y116024D01*
X366207Y115937D01*
X366163Y115754D01*
X366112Y115558D01*
X366061Y115354D01*
X366010Y115164D01*
X363889Y107480D01*
X362503D01*
X359842Y117570D01*
X361206D01*
X362737Y110950D01*
Y110936D01*
X362751Y110907D01*
X362758Y110848D01*
X362780Y110775D01*
X362802Y110681D01*
X362824Y110571D01*
X362853Y110440D01*
X362882Y110301D01*
X362919Y110156D01*
X362948Y109995D01*
X362984Y109820D01*
X363021Y109645D01*
X363094Y109274D01*
X363167Y108887D01*
Y108895D01*
X363174Y108909D01*
Y108931D01*
X363181Y108960D01*
X363196Y108997D01*
X363203Y109040D01*
X363225Y109142D01*
X363262Y109274D01*
X363291Y109412D01*
X363327Y109565D01*
X363371Y109726D01*
X363451Y110054D01*
X363488Y110214D01*
X363524Y110360D01*
X363560Y110491D01*
X363582Y110600D01*
X363612Y110695D01*
X363619Y110724D01*
X363626Y110754D01*
X365536Y117570D01*
X367147D01*
X368590Y112459D01*
Y112452D01*
X368598Y112437D01*
X368605Y112408D01*
X368612Y112372D01*
X368627Y112328D01*
X368642Y112270D01*
X368656Y112212D01*
X368678Y112139D01*
X368700Y112058D01*
X368722Y111971D01*
X368773Y111767D01*
X368831Y111548D01*
X368889Y111300D01*
X368955Y111030D01*
X369021Y110754D01*
X369086Y110455D01*
X369152Y110149D01*
X369276Y109521D01*
X369378Y108887D01*
Y108902D01*
X369385Y108931D01*
X369400Y108982D01*
X369414Y109055D01*
X369436Y109150D01*
X369458Y109252D01*
X369487Y109383D01*
X369516Y109521D01*
X369553Y109675D01*
X369589Y109842D01*
X369626Y110024D01*
X369677Y110214D01*
X369721Y110418D01*
X369772Y110630D01*
X369823Y110856D01*
X369881Y111082D01*
X371463Y117570D01*
X372811D01*
X370041Y107480D01*
D02*
G37*
G36*
X444064D02*
X442825D01*
Y114792D01*
X444064D01*
Y107480D01*
D02*
G37*
G36*
X406010Y117562D02*
X406127D01*
X406251Y117555D01*
X406389D01*
X406681Y117533D01*
X406980Y117511D01*
X407126Y117490D01*
X407264Y117475D01*
X407395Y117453D01*
X407519Y117424D01*
X407526D01*
X407556Y117417D01*
X407599Y117402D01*
X407665Y117387D01*
X407738Y117358D01*
X407825Y117329D01*
X407920Y117300D01*
X408029Y117256D01*
X408255Y117161D01*
X408503Y117030D01*
X408751Y116884D01*
X408875Y116797D01*
X408992Y116702D01*
X408999Y116695D01*
X409028Y116673D01*
X409072Y116629D01*
X409123Y116578D01*
X409189Y116513D01*
X409269Y116432D01*
X409349Y116338D01*
X409444Y116236D01*
X409539Y116112D01*
X409633Y115980D01*
X409735Y115842D01*
X409837Y115689D01*
X409932Y115521D01*
X410020Y115354D01*
X410107Y115164D01*
X410187Y114974D01*
X410194Y114960D01*
X410202Y114923D01*
X410224Y114872D01*
X410253Y114792D01*
X410282Y114690D01*
X410311Y114574D01*
X410348Y114435D01*
X410391Y114282D01*
X410428Y114114D01*
X410464Y113925D01*
X410493Y113728D01*
X410523Y113516D01*
X410552Y113298D01*
X410574Y113065D01*
X410581Y112824D01*
X410588Y112576D01*
Y112561D01*
Y112525D01*
Y112467D01*
X410581Y112379D01*
Y112284D01*
X410574Y112168D01*
X410566Y112037D01*
X410552Y111891D01*
X410537Y111738D01*
X410523Y111570D01*
X410472Y111227D01*
X410406Y110877D01*
X410319Y110535D01*
Y110528D01*
X410304Y110498D01*
X410289Y110447D01*
X410267Y110389D01*
X410246Y110316D01*
X410209Y110229D01*
X410173Y110127D01*
X410129Y110024D01*
X410034Y109791D01*
X409910Y109543D01*
X409779Y109303D01*
X409626Y109070D01*
X409619Y109062D01*
X409604Y109048D01*
X409582Y109011D01*
X409553Y108975D01*
X409517Y108924D01*
X409466Y108865D01*
X409356Y108734D01*
X409218Y108588D01*
X409065Y108435D01*
X408890Y108290D01*
X408707Y108151D01*
X408700D01*
X408685Y108136D01*
X408656Y108122D01*
X408620Y108100D01*
X408569Y108071D01*
X408511Y108042D01*
X408445Y108005D01*
X408372Y107969D01*
X408285Y107925D01*
X408197Y107881D01*
X408095Y107845D01*
X407993Y107801D01*
X407760Y107721D01*
X407505Y107648D01*
X407497D01*
X407475Y107641D01*
X407432Y107633D01*
X407381Y107619D01*
X407315Y107612D01*
X407235Y107597D01*
X407140Y107582D01*
X407038Y107568D01*
X406921Y107546D01*
X406797Y107531D01*
X406666Y107517D01*
X406520Y107510D01*
X406375Y107495D01*
X406214Y107488D01*
X405886Y107480D01*
X402248D01*
Y117570D01*
X405915D01*
X406010Y117562D01*
D02*
G37*
G36*
X377215Y114945D02*
X377309Y114938D01*
X377411Y114931D01*
X377521Y114923D01*
X377761Y114894D01*
X378016Y114858D01*
X378264Y114799D01*
X378388Y114763D01*
X378498Y114727D01*
X378505D01*
X378527Y114719D01*
X378556Y114705D01*
X378592Y114690D01*
X378643Y114668D01*
X378695Y114639D01*
X378826Y114574D01*
X378964Y114493D01*
X379110Y114399D01*
X379241Y114296D01*
X379358Y114172D01*
Y114165D01*
X379372Y114158D01*
X379387Y114136D01*
X379402Y114114D01*
X379453Y114041D01*
X379511Y113939D01*
X379576Y113815D01*
X379635Y113677D01*
X379693Y113509D01*
X379744Y113327D01*
Y113312D01*
X379751Y113290D01*
Y113269D01*
X379759Y113232D01*
X379766Y113181D01*
X379773Y113130D01*
X379781Y113065D01*
Y112992D01*
X379788Y112911D01*
X379795Y112817D01*
X379802Y112715D01*
Y112598D01*
X379810Y112474D01*
Y112335D01*
Y112190D01*
Y110542D01*
Y110535D01*
Y110520D01*
Y110498D01*
Y110469D01*
Y110425D01*
Y110382D01*
Y110265D01*
Y110127D01*
X379817Y109974D01*
Y109799D01*
Y109624D01*
X379824Y109252D01*
X379832Y109070D01*
X379839Y108887D01*
X379846Y108727D01*
X379861Y108581D01*
X379868Y108457D01*
X379875Y108399D01*
X379883Y108355D01*
Y108348D01*
X379890Y108333D01*
Y108311D01*
X379897Y108275D01*
X379912Y108238D01*
X379919Y108187D01*
X379956Y108071D01*
X379999Y107940D01*
X380050Y107794D01*
X380123Y107641D01*
X380204Y107480D01*
X378913D01*
Y107488D01*
X378906Y107495D01*
X378891Y107517D01*
X378884Y107546D01*
X378862Y107582D01*
X378848Y107633D01*
X378804Y107736D01*
X378760Y107874D01*
X378716Y108027D01*
X378687Y108195D01*
X378658Y108384D01*
X378651Y108377D01*
X378629Y108355D01*
X378592Y108326D01*
X378541Y108290D01*
X378476Y108238D01*
X378403Y108187D01*
X378323Y108122D01*
X378235Y108056D01*
X378133Y107991D01*
X378031Y107925D01*
X377805Y107787D01*
X377572Y107655D01*
X377448Y107604D01*
X377331Y107553D01*
X377324D01*
X377302Y107546D01*
X377266Y107531D01*
X377222Y107517D01*
X377164Y107502D01*
X377091Y107480D01*
X377010Y107458D01*
X376923Y107437D01*
X376828Y107415D01*
X376719Y107393D01*
X376486Y107356D01*
X376238Y107327D01*
X375968Y107320D01*
X375917D01*
X375851Y107327D01*
X375771D01*
X375669Y107334D01*
X375553Y107349D01*
X375421Y107371D01*
X375283Y107393D01*
X375137Y107422D01*
X374991Y107466D01*
X374831Y107510D01*
X374678Y107568D01*
X374532Y107633D01*
X374379Y107714D01*
X374248Y107801D01*
X374116Y107903D01*
X374109Y107910D01*
X374087Y107932D01*
X374058Y107961D01*
X374014Y108012D01*
X373971Y108071D01*
X373912Y108136D01*
X373854Y108217D01*
X373796Y108311D01*
X373737Y108413D01*
X373679Y108530D01*
X373621Y108654D01*
X373577Y108785D01*
X373533Y108931D01*
X373504Y109077D01*
X373482Y109237D01*
X373475Y109405D01*
Y109412D01*
Y109427D01*
Y109456D01*
X373482Y109500D01*
Y109543D01*
X373489Y109602D01*
X373504Y109733D01*
X373533Y109879D01*
X373577Y110046D01*
X373635Y110214D01*
X373715Y110382D01*
Y110389D01*
X373730Y110404D01*
X373737Y110425D01*
X373759Y110455D01*
X373810Y110535D01*
X373883Y110637D01*
X373978Y110754D01*
X374087Y110870D01*
X374211Y110987D01*
X374350Y111096D01*
X374357D01*
X374372Y111111D01*
X374393Y111125D01*
X374423Y111140D01*
X374459Y111162D01*
X374503Y111191D01*
X374612Y111249D01*
X374743Y111315D01*
X374896Y111381D01*
X375064Y111446D01*
X375246Y111504D01*
X375254D01*
X375261Y111512D01*
X375283D01*
X375312Y111519D01*
X375356Y111526D01*
X375399Y111541D01*
X375458Y111548D01*
X375523Y111563D01*
X375596Y111577D01*
X375676Y111592D01*
X375764Y111606D01*
X375866Y111621D01*
X375975Y111636D01*
X376092Y111658D01*
X376216Y111672D01*
X376347Y111687D01*
X376362D01*
X376383Y111694D01*
X376413D01*
X376493Y111708D01*
X376595Y111716D01*
X376719Y111738D01*
X376857Y111759D01*
X377018Y111781D01*
X377185Y111811D01*
X377360Y111840D01*
X377543Y111869D01*
X377907Y111942D01*
X378089Y111986D01*
X378257Y112029D01*
X378410Y112073D01*
X378556Y112117D01*
Y112131D01*
Y112161D01*
Y112197D01*
X378563Y112248D01*
Y112357D01*
Y112401D01*
Y112437D01*
Y112445D01*
Y112474D01*
Y112510D01*
X378556Y112561D01*
Y112620D01*
X378541Y112693D01*
X378520Y112853D01*
X378476Y113028D01*
X378410Y113210D01*
X378374Y113290D01*
X378323Y113371D01*
X378272Y113436D01*
X378206Y113502D01*
X378199Y113509D01*
X378184Y113524D01*
X378155Y113538D01*
X378119Y113567D01*
X378067Y113597D01*
X378009Y113633D01*
X377936Y113677D01*
X377856Y113713D01*
X377761Y113750D01*
X377652Y113794D01*
X377543Y113830D01*
X377411Y113859D01*
X377273Y113888D01*
X377127Y113910D01*
X376967Y113917D01*
X376799Y113925D01*
X376719D01*
X376653Y113917D01*
X376580D01*
X376500Y113910D01*
X376405Y113895D01*
X376311Y113888D01*
X376099Y113852D01*
X375888Y113794D01*
X375684Y113713D01*
X375589Y113670D01*
X375509Y113611D01*
X375501D01*
X375494Y113597D01*
X375472Y113575D01*
X375443Y113553D01*
X375407Y113516D01*
X375370Y113473D01*
X375326Y113422D01*
X375275Y113363D01*
X375224Y113290D01*
X375173Y113210D01*
X375122Y113123D01*
X375079Y113028D01*
X375028Y112919D01*
X374977Y112802D01*
X374933Y112671D01*
X374896Y112532D01*
X373686Y112700D01*
Y112707D01*
X373693Y112736D01*
X373701Y112773D01*
X373715Y112831D01*
X373737Y112897D01*
X373759Y112970D01*
X373781Y113057D01*
X373817Y113145D01*
X373890Y113349D01*
X373985Y113553D01*
X374095Y113764D01*
X374226Y113954D01*
X374233Y113961D01*
X374240Y113976D01*
X374262Y113998D01*
X374299Y114034D01*
X374335Y114070D01*
X374386Y114121D01*
X374437Y114172D01*
X374503Y114224D01*
X374576Y114282D01*
X374663Y114348D01*
X374751Y114406D01*
X374845Y114464D01*
X374955Y114530D01*
X375064Y114588D01*
X375188Y114639D01*
X375319Y114690D01*
X375326D01*
X375348Y114705D01*
X375392Y114712D01*
X375443Y114734D01*
X375516Y114748D01*
X375596Y114770D01*
X375691Y114799D01*
X375793Y114821D01*
X375910Y114843D01*
X376041Y114872D01*
X376179Y114894D01*
X376325Y114909D01*
X376478Y114931D01*
X376639Y114938D01*
X376981Y114953D01*
X377134D01*
X377215Y114945D01*
D02*
G37*
G36*
X440375Y114792D02*
X441607D01*
Y113830D01*
X440375D01*
Y109551D01*
Y109543D01*
Y109529D01*
Y109500D01*
Y109463D01*
Y109376D01*
X440382Y109266D01*
X440390Y109157D01*
X440397Y109040D01*
X440412Y108946D01*
X440426Y108909D01*
X440434Y108873D01*
Y108865D01*
X440448Y108851D01*
X440463Y108822D01*
X440485Y108785D01*
X440550Y108705D01*
X440594Y108669D01*
X440645Y108632D01*
X440652D01*
X440674Y108618D01*
X440703Y108603D01*
X440754Y108588D01*
X440813Y108574D01*
X440885Y108559D01*
X440973Y108552D01*
X441068Y108545D01*
X441148D01*
X441214Y108552D01*
X441286D01*
X441381Y108566D01*
X441491Y108574D01*
X441607Y108588D01*
X441789Y107495D01*
X441782D01*
X441768Y107488D01*
X441738D01*
X441702Y107480D01*
X441658Y107473D01*
X441600Y107458D01*
X441476Y107444D01*
X441330Y107422D01*
X441170Y107400D01*
X441009Y107393D01*
X440849Y107386D01*
X440740D01*
X440681Y107393D01*
X440616Y107400D01*
X440470Y107415D01*
X440302Y107437D01*
X440127Y107473D01*
X439960Y107524D01*
X439807Y107597D01*
X439799D01*
X439792Y107604D01*
X439748Y107633D01*
X439683Y107684D01*
X439602Y107743D01*
X439515Y107823D01*
X439428Y107918D01*
X439347Y108027D01*
X439282Y108151D01*
Y108158D01*
X439274Y108166D01*
X439267Y108187D01*
X439260Y108224D01*
X439245Y108268D01*
X439238Y108319D01*
X439223Y108384D01*
X439209Y108465D01*
X439194Y108559D01*
X439180Y108661D01*
X439172Y108785D01*
X439158Y108916D01*
X439150Y109070D01*
X439143Y109230D01*
X439136Y109420D01*
Y109616D01*
Y113830D01*
X438217D01*
Y114792D01*
X439136D01*
Y116600D01*
X440375Y117344D01*
Y114792D01*
D02*
G37*
G36*
X421574D02*
X422806D01*
Y113830D01*
X421574D01*
Y109551D01*
Y109543D01*
Y109529D01*
Y109500D01*
Y109463D01*
Y109376D01*
X421582Y109266D01*
X421589Y109157D01*
X421596Y109040D01*
X421611Y108946D01*
X421625Y108909D01*
X421633Y108873D01*
Y108865D01*
X421647Y108851D01*
X421662Y108822D01*
X421684Y108785D01*
X421749Y108705D01*
X421793Y108669D01*
X421844Y108632D01*
X421851D01*
X421873Y108618D01*
X421902Y108603D01*
X421953Y108588D01*
X422012Y108574D01*
X422085Y108559D01*
X422172Y108552D01*
X422267Y108545D01*
X422347D01*
X422413Y108552D01*
X422485D01*
X422580Y108566D01*
X422690Y108574D01*
X422806Y108588D01*
X422989Y107495D01*
X422981D01*
X422967Y107488D01*
X422937D01*
X422901Y107480D01*
X422857Y107473D01*
X422799Y107458D01*
X422675Y107444D01*
X422529Y107422D01*
X422369Y107400D01*
X422208Y107393D01*
X422048Y107386D01*
X421939D01*
X421880Y107393D01*
X421815Y107400D01*
X421669Y107415D01*
X421501Y107437D01*
X421326Y107473D01*
X421159Y107524D01*
X421006Y107597D01*
X420998D01*
X420991Y107604D01*
X420947Y107633D01*
X420882Y107684D01*
X420801Y107743D01*
X420714Y107823D01*
X420626Y107918D01*
X420546Y108027D01*
X420481Y108151D01*
Y108158D01*
X420473Y108166D01*
X420466Y108187D01*
X420459Y108224D01*
X420444Y108268D01*
X420437Y108319D01*
X420422Y108384D01*
X420408Y108465D01*
X420393Y108559D01*
X420379Y108661D01*
X420371Y108785D01*
X420357Y108916D01*
X420350Y109070D01*
X420342Y109230D01*
X420335Y109420D01*
Y109616D01*
Y113830D01*
X419416D01*
Y114792D01*
X420335D01*
Y116600D01*
X421574Y117344D01*
Y114792D01*
D02*
G37*
G36*
X383200D02*
X384432D01*
Y113830D01*
X383200D01*
Y109551D01*
Y109543D01*
Y109529D01*
Y109500D01*
Y109463D01*
Y109376D01*
X383207Y109266D01*
X383214Y109157D01*
X383222Y109040D01*
X383236Y108946D01*
X383251Y108909D01*
X383258Y108873D01*
Y108865D01*
X383273Y108851D01*
X383287Y108822D01*
X383309Y108785D01*
X383375Y108705D01*
X383418Y108669D01*
X383469Y108632D01*
X383477D01*
X383499Y108618D01*
X383528Y108603D01*
X383579Y108588D01*
X383637Y108574D01*
X383710Y108559D01*
X383798Y108552D01*
X383892Y108545D01*
X383972D01*
X384038Y108552D01*
X384111D01*
X384206Y108566D01*
X384315Y108574D01*
X384432Y108588D01*
X384614Y107495D01*
X384607D01*
X384592Y107488D01*
X384563D01*
X384526Y107480D01*
X384483Y107473D01*
X384424Y107458D01*
X384300Y107444D01*
X384155Y107422D01*
X383994Y107400D01*
X383834Y107393D01*
X383674Y107386D01*
X383564D01*
X383506Y107393D01*
X383440Y107400D01*
X383295Y107415D01*
X383127Y107437D01*
X382952Y107473D01*
X382784Y107524D01*
X382631Y107597D01*
X382624D01*
X382616Y107604D01*
X382573Y107633D01*
X382507Y107684D01*
X382427Y107743D01*
X382340Y107823D01*
X382252Y107918D01*
X382172Y108027D01*
X382106Y108151D01*
Y108158D01*
X382099Y108166D01*
X382092Y108187D01*
X382084Y108224D01*
X382070Y108268D01*
X382062Y108319D01*
X382048Y108384D01*
X382033Y108465D01*
X382019Y108559D01*
X382004Y108661D01*
X381997Y108785D01*
X381982Y108916D01*
X381975Y109070D01*
X381968Y109230D01*
X381960Y109420D01*
Y109616D01*
Y113830D01*
X381042D01*
Y114792D01*
X381960D01*
Y116600D01*
X383200Y117344D01*
Y114792D01*
D02*
G37*
G36*
X500758Y114945D02*
X500860Y114938D01*
X500991Y114923D01*
X501137Y114901D01*
X501305Y114872D01*
X501487Y114829D01*
X501677Y114778D01*
X501881Y114712D01*
X502085Y114632D01*
X502289Y114537D01*
X502493Y114420D01*
X502697Y114289D01*
X502894Y114136D01*
X503076Y113961D01*
X503091Y113946D01*
X503120Y113917D01*
X503164Y113859D01*
X503230Y113779D01*
X503302Y113677D01*
X503383Y113560D01*
X503470Y113414D01*
X503558Y113254D01*
X503645Y113065D01*
X503732Y112860D01*
X503813Y112642D01*
X503886Y112394D01*
X503951Y112131D01*
X503995Y111854D01*
X504031Y111555D01*
X504039Y111235D01*
Y111227D01*
Y111220D01*
Y111198D01*
Y111176D01*
Y111096D01*
X504031Y111001D01*
X504024Y110885D01*
X504017Y110746D01*
X504002Y110593D01*
X503988Y110433D01*
X503966Y110258D01*
X503937Y110075D01*
X503900Y109893D01*
X503857Y109704D01*
X503805Y109521D01*
X503754Y109347D01*
X503682Y109179D01*
X503609Y109019D01*
X503601Y109011D01*
X503587Y108982D01*
X503565Y108938D01*
X503528Y108887D01*
X503485Y108814D01*
X503434Y108741D01*
X503368Y108654D01*
X503295Y108559D01*
X503215Y108457D01*
X503120Y108355D01*
X503018Y108253D01*
X502909Y108151D01*
X502792Y108049D01*
X502661Y107947D01*
X502522Y107852D01*
X502377Y107765D01*
X502369Y107757D01*
X502340Y107743D01*
X502296Y107721D01*
X502238Y107699D01*
X502158Y107663D01*
X502070Y107626D01*
X501968Y107582D01*
X501859Y107546D01*
X501728Y107502D01*
X501597Y107458D01*
X501451Y107422D01*
X501298Y107393D01*
X501130Y107364D01*
X500962Y107342D01*
X500795Y107327D01*
X500612Y107320D01*
X500547D01*
X500510Y107327D01*
X500467D01*
X500357Y107334D01*
X500226Y107349D01*
X500080Y107371D01*
X499913Y107400D01*
X499730Y107444D01*
X499534Y107495D01*
X499337Y107561D01*
X499125Y107641D01*
X498921Y107736D01*
X498717Y107845D01*
X498513Y107976D01*
X498316Y108122D01*
X498134Y108297D01*
X498127Y108311D01*
X498090Y108341D01*
X498046Y108399D01*
X497988Y108479D01*
X497915Y108581D01*
X497835Y108705D01*
X497755Y108851D01*
X497667Y109019D01*
X497580Y109208D01*
X497492Y109420D01*
X497412Y109653D01*
X497339Y109908D01*
X497281Y110185D01*
X497237Y110477D01*
X497201Y110797D01*
X497193Y111133D01*
Y111140D01*
Y111154D01*
Y111184D01*
Y111220D01*
X497201Y111271D01*
Y111329D01*
X497208Y111395D01*
Y111468D01*
X497215Y111548D01*
X497230Y111636D01*
X497252Y111825D01*
X497288Y112037D01*
X497332Y112270D01*
X497390Y112510D01*
X497470Y112758D01*
X497558Y113006D01*
X497667Y113254D01*
X497798Y113495D01*
X497944Y113728D01*
X498119Y113939D01*
X498316Y114136D01*
X498331Y114143D01*
X498360Y114172D01*
X498411Y114209D01*
X498484Y114267D01*
X498579Y114326D01*
X498688Y114391D01*
X498812Y114471D01*
X498958Y114544D01*
X499118Y114617D01*
X499293Y114697D01*
X499482Y114763D01*
X499687Y114829D01*
X499898Y114880D01*
X500124Y114916D01*
X500365Y114945D01*
X500612Y114953D01*
X500714D01*
X500758Y114945D01*
D02*
G37*
G36*
X478072D02*
X478174Y114938D01*
X478305Y114923D01*
X478443Y114901D01*
X478604Y114872D01*
X478779Y114829D01*
X478968Y114778D01*
X479158Y114712D01*
X479362Y114632D01*
X479559Y114530D01*
X479763Y114420D01*
X479953Y114282D01*
X480142Y114129D01*
X480324Y113954D01*
X480332Y113939D01*
X480368Y113910D01*
X480412Y113852D01*
X480470Y113772D01*
X480543Y113670D01*
X480623Y113546D01*
X480703Y113400D01*
X480791Y113232D01*
X480878Y113043D01*
X480966Y112831D01*
X481039Y112598D01*
X481112Y112350D01*
X481170Y112080D01*
X481221Y111789D01*
X481250Y111475D01*
X481257Y111147D01*
Y111140D01*
Y111125D01*
Y111103D01*
Y111067D01*
Y111016D01*
Y110965D01*
X481250Y110899D01*
Y110819D01*
X475797D01*
Y110804D01*
X475805Y110768D01*
Y110703D01*
X475819Y110622D01*
X475834Y110520D01*
X475848Y110404D01*
X475878Y110280D01*
X475907Y110141D01*
X475943Y109988D01*
X475994Y109842D01*
X476045Y109689D01*
X476111Y109536D01*
X476184Y109383D01*
X476271Y109237D01*
X476366Y109099D01*
X476475Y108975D01*
X476482Y108967D01*
X476504Y108946D01*
X476541Y108916D01*
X476585Y108873D01*
X476643Y108829D01*
X476716Y108778D01*
X476803Y108720D01*
X476898Y108661D01*
X477000Y108596D01*
X477117Y108545D01*
X477241Y108486D01*
X477379Y108443D01*
X477525Y108399D01*
X477678Y108370D01*
X477839Y108348D01*
X478006Y108341D01*
X478072D01*
X478123Y108348D01*
X478181Y108355D01*
X478247Y108362D01*
X478327Y108370D01*
X478407Y108384D01*
X478589Y108428D01*
X478786Y108494D01*
X478888Y108530D01*
X478983Y108581D01*
X479078Y108632D01*
X479173Y108698D01*
X479180Y108705D01*
X479194Y108712D01*
X479216Y108734D01*
X479253Y108763D01*
X479296Y108807D01*
X479340Y108851D01*
X479391Y108909D01*
X479450Y108975D01*
X479508Y109055D01*
X479573Y109135D01*
X479632Y109230D01*
X479697Y109332D01*
X479763Y109449D01*
X479821Y109573D01*
X479880Y109704D01*
X479938Y109850D01*
X481214Y109682D01*
Y109667D01*
X481199Y109631D01*
X481177Y109573D01*
X481155Y109500D01*
X481119Y109405D01*
X481075Y109295D01*
X481024Y109172D01*
X480959Y109040D01*
X480886Y108909D01*
X480805Y108763D01*
X480711Y108618D01*
X480609Y108472D01*
X480499Y108333D01*
X480375Y108195D01*
X480237Y108063D01*
X480091Y107940D01*
X480084Y107932D01*
X480055Y107910D01*
X480011Y107881D01*
X479945Y107845D01*
X479865Y107794D01*
X479763Y107743D01*
X479654Y107684D01*
X479523Y107633D01*
X479377Y107575D01*
X479224Y107517D01*
X479049Y107466D01*
X478866Y107415D01*
X478670Y107378D01*
X478458Y107349D01*
X478232Y107327D01*
X477999Y107320D01*
X477926D01*
X477889Y107327D01*
X477846D01*
X477736Y107334D01*
X477598Y107349D01*
X477445Y107371D01*
X477270Y107400D01*
X477080Y107444D01*
X476884Y107495D01*
X476672Y107561D01*
X476461Y107641D01*
X476249Y107736D01*
X476038Y107845D01*
X475834Y107976D01*
X475637Y108129D01*
X475455Y108304D01*
X475447Y108319D01*
X475418Y108348D01*
X475367Y108406D01*
X475309Y108486D01*
X475236Y108588D01*
X475163Y108712D01*
X475076Y108851D01*
X474988Y109019D01*
X474901Y109208D01*
X474820Y109412D01*
X474740Y109638D01*
X474667Y109886D01*
X474609Y110156D01*
X474565Y110440D01*
X474529Y110746D01*
X474521Y111074D01*
Y111082D01*
Y111096D01*
Y111118D01*
Y111154D01*
X474529Y111198D01*
Y111249D01*
Y111308D01*
X474536Y111381D01*
X474551Y111533D01*
X474573Y111708D01*
X474602Y111905D01*
X474638Y112124D01*
X474689Y112343D01*
X474755Y112576D01*
X474828Y112817D01*
X474923Y113057D01*
X475032Y113290D01*
X475156Y113516D01*
X475302Y113735D01*
X475469Y113932D01*
X475484Y113946D01*
X475513Y113976D01*
X475564Y114027D01*
X475644Y114092D01*
X475739Y114172D01*
X475848Y114253D01*
X475980Y114348D01*
X476133Y114442D01*
X476300Y114537D01*
X476490Y114632D01*
X476687Y114719D01*
X476905Y114792D01*
X477146Y114858D01*
X477394Y114909D01*
X477656Y114938D01*
X477933Y114953D01*
X477999D01*
X478072Y114945D01*
D02*
G37*
G36*
X449050D02*
X449152Y114938D01*
X449284Y114923D01*
X449429Y114901D01*
X449597Y114872D01*
X449779Y114829D01*
X449969Y114778D01*
X450173Y114712D01*
X450377Y114632D01*
X450581Y114537D01*
X450785Y114420D01*
X450989Y114289D01*
X451186Y114136D01*
X451369Y113961D01*
X451383Y113946D01*
X451412Y113917D01*
X451456Y113859D01*
X451522Y113779D01*
X451594Y113677D01*
X451675Y113560D01*
X451762Y113414D01*
X451850Y113254D01*
X451937Y113065D01*
X452025Y112860D01*
X452105Y112642D01*
X452178Y112394D01*
X452243Y112131D01*
X452287Y111854D01*
X452323Y111555D01*
X452331Y111235D01*
Y111227D01*
Y111220D01*
Y111198D01*
Y111176D01*
Y111096D01*
X452323Y111001D01*
X452316Y110885D01*
X452309Y110746D01*
X452294Y110593D01*
X452280Y110433D01*
X452258Y110258D01*
X452229Y110075D01*
X452192Y109893D01*
X452148Y109704D01*
X452098Y109521D01*
X452046Y109347D01*
X451973Y109179D01*
X451901Y109019D01*
X451893Y109011D01*
X451879Y108982D01*
X451857Y108938D01*
X451820Y108887D01*
X451777Y108814D01*
X451726Y108741D01*
X451660Y108654D01*
X451587Y108559D01*
X451507Y108457D01*
X451412Y108355D01*
X451310Y108253D01*
X451201Y108151D01*
X451084Y108049D01*
X450953Y107947D01*
X450814Y107852D01*
X450669Y107765D01*
X450661Y107757D01*
X450632Y107743D01*
X450588Y107721D01*
X450530Y107699D01*
X450450Y107663D01*
X450362Y107626D01*
X450260Y107582D01*
X450151Y107546D01*
X450020Y107502D01*
X449889Y107458D01*
X449743Y107422D01*
X449590Y107393D01*
X449422Y107364D01*
X449254Y107342D01*
X449087Y107327D01*
X448904Y107320D01*
X448839D01*
X448802Y107327D01*
X448759D01*
X448649Y107334D01*
X448518Y107349D01*
X448372Y107371D01*
X448205Y107400D01*
X448022Y107444D01*
X447825Y107495D01*
X447629Y107561D01*
X447417Y107641D01*
X447213Y107736D01*
X447009Y107845D01*
X446805Y107976D01*
X446608Y108122D01*
X446426Y108297D01*
X446419Y108311D01*
X446382Y108341D01*
X446338Y108399D01*
X446280Y108479D01*
X446207Y108581D01*
X446127Y108705D01*
X446047Y108851D01*
X445959Y109019D01*
X445872Y109208D01*
X445784Y109420D01*
X445704Y109653D01*
X445631Y109908D01*
X445573Y110185D01*
X445529Y110477D01*
X445493Y110797D01*
X445485Y111133D01*
Y111140D01*
Y111154D01*
Y111184D01*
Y111220D01*
X445493Y111271D01*
Y111329D01*
X445500Y111395D01*
Y111468D01*
X445507Y111548D01*
X445522Y111636D01*
X445544Y111825D01*
X445580Y112037D01*
X445624Y112270D01*
X445682Y112510D01*
X445762Y112758D01*
X445850Y113006D01*
X445959Y113254D01*
X446091Y113495D01*
X446236Y113728D01*
X446411Y113939D01*
X446608Y114136D01*
X446623Y114143D01*
X446652Y114172D01*
X446703Y114209D01*
X446776Y114267D01*
X446871Y114326D01*
X446980Y114391D01*
X447104Y114471D01*
X447250Y114544D01*
X447410Y114617D01*
X447585Y114697D01*
X447775Y114763D01*
X447979Y114829D01*
X448190Y114880D01*
X448416Y114916D01*
X448657Y114945D01*
X448904Y114953D01*
X449007D01*
X449050Y114945D01*
D02*
G37*
G36*
X427158D02*
X427260Y114938D01*
X427392Y114923D01*
X427530Y114901D01*
X427691Y114872D01*
X427866Y114829D01*
X428055Y114778D01*
X428245Y114712D01*
X428449Y114632D01*
X428646Y114530D01*
X428850Y114420D01*
X429039Y114282D01*
X429229Y114129D01*
X429411Y113954D01*
X429418Y113939D01*
X429455Y113910D01*
X429498Y113852D01*
X429557Y113772D01*
X429630Y113670D01*
X429710Y113546D01*
X429790Y113400D01*
X429878Y113232D01*
X429965Y113043D01*
X430053Y112831D01*
X430125Y112598D01*
X430198Y112350D01*
X430257Y112080D01*
X430308Y111789D01*
X430337Y111475D01*
X430344Y111147D01*
Y111140D01*
Y111125D01*
Y111103D01*
Y111067D01*
Y111016D01*
Y110965D01*
X430337Y110899D01*
Y110819D01*
X424884D01*
Y110804D01*
X424891Y110768D01*
Y110703D01*
X424906Y110622D01*
X424920Y110520D01*
X424935Y110404D01*
X424964Y110280D01*
X424993Y110141D01*
X425030Y109988D01*
X425081Y109842D01*
X425132Y109689D01*
X425197Y109536D01*
X425270Y109383D01*
X425358Y109237D01*
X425453Y109099D01*
X425562Y108975D01*
X425569Y108967D01*
X425591Y108946D01*
X425628Y108916D01*
X425671Y108873D01*
X425730Y108829D01*
X425802Y108778D01*
X425890Y108720D01*
X425985Y108661D01*
X426087Y108596D01*
X426203Y108545D01*
X426327Y108486D01*
X426466Y108443D01*
X426612Y108399D01*
X426765Y108370D01*
X426925Y108348D01*
X427093Y108341D01*
X427158D01*
X427209Y108348D01*
X427268Y108355D01*
X427333Y108362D01*
X427414Y108370D01*
X427494Y108384D01*
X427676Y108428D01*
X427873Y108494D01*
X427975Y108530D01*
X428070Y108581D01*
X428164Y108632D01*
X428259Y108698D01*
X428266Y108705D01*
X428281Y108712D01*
X428303Y108734D01*
X428339Y108763D01*
X428383Y108807D01*
X428427Y108851D01*
X428478Y108909D01*
X428536Y108975D01*
X428594Y109055D01*
X428660Y109135D01*
X428718Y109230D01*
X428784Y109332D01*
X428850Y109449D01*
X428908Y109573D01*
X428966Y109704D01*
X429025Y109850D01*
X430300Y109682D01*
Y109667D01*
X430286Y109631D01*
X430264Y109573D01*
X430242Y109500D01*
X430206Y109405D01*
X430162Y109295D01*
X430111Y109172D01*
X430045Y109040D01*
X429972Y108909D01*
X429892Y108763D01*
X429797Y108618D01*
X429695Y108472D01*
X429586Y108333D01*
X429462Y108195D01*
X429323Y108063D01*
X429178Y107940D01*
X429170Y107932D01*
X429141Y107910D01*
X429098Y107881D01*
X429032Y107845D01*
X428952Y107794D01*
X428850Y107743D01*
X428740Y107684D01*
X428609Y107633D01*
X428463Y107575D01*
X428310Y107517D01*
X428135Y107466D01*
X427953Y107415D01*
X427756Y107378D01*
X427545Y107349D01*
X427319Y107327D01*
X427085Y107320D01*
X427013D01*
X426976Y107327D01*
X426932D01*
X426823Y107334D01*
X426685Y107349D01*
X426531Y107371D01*
X426357Y107400D01*
X426167Y107444D01*
X425970Y107495D01*
X425759Y107561D01*
X425547Y107641D01*
X425336Y107736D01*
X425125Y107845D01*
X424920Y107976D01*
X424723Y108129D01*
X424541Y108304D01*
X424534Y108319D01*
X424505Y108348D01*
X424454Y108406D01*
X424396Y108486D01*
X424323Y108588D01*
X424250Y108712D01*
X424162Y108851D01*
X424075Y109019D01*
X423987Y109208D01*
X423907Y109412D01*
X423827Y109638D01*
X423754Y109886D01*
X423696Y110156D01*
X423652Y110440D01*
X423615Y110746D01*
X423608Y111074D01*
Y111082D01*
Y111096D01*
Y111118D01*
Y111154D01*
X423615Y111198D01*
Y111249D01*
Y111308D01*
X423623Y111381D01*
X423637Y111533D01*
X423659Y111708D01*
X423688Y111905D01*
X423725Y112124D01*
X423776Y112343D01*
X423841Y112576D01*
X423914Y112817D01*
X424009Y113057D01*
X424119Y113290D01*
X424242Y113516D01*
X424388Y113735D01*
X424556Y113932D01*
X424570Y113946D01*
X424600Y113976D01*
X424651Y114027D01*
X424731Y114092D01*
X424826Y114172D01*
X424935Y114253D01*
X425066Y114348D01*
X425219Y114442D01*
X425387Y114537D01*
X425576Y114632D01*
X425773Y114719D01*
X425992Y114792D01*
X426232Y114858D01*
X426480Y114909D01*
X426743Y114938D01*
X427020Y114953D01*
X427085D01*
X427158Y114945D01*
D02*
G37*
G36*
X415407D02*
X415509Y114938D01*
X415640Y114923D01*
X415779Y114901D01*
X415939Y114872D01*
X416114Y114829D01*
X416304Y114778D01*
X416493Y114712D01*
X416697Y114632D01*
X416894Y114530D01*
X417098Y114420D01*
X417288Y114282D01*
X417477Y114129D01*
X417660Y113954D01*
X417667Y113939D01*
X417703Y113910D01*
X417747Y113852D01*
X417805Y113772D01*
X417878Y113670D01*
X417958Y113546D01*
X418039Y113400D01*
X418126Y113232D01*
X418214Y113043D01*
X418301Y112831D01*
X418374Y112598D01*
X418447Y112350D01*
X418505Y112080D01*
X418556Y111789D01*
X418585Y111475D01*
X418593Y111147D01*
Y111140D01*
Y111125D01*
Y111103D01*
Y111067D01*
Y111016D01*
Y110965D01*
X418585Y110899D01*
Y110819D01*
X413132D01*
Y110804D01*
X413140Y110768D01*
Y110703D01*
X413154Y110622D01*
X413169Y110520D01*
X413183Y110404D01*
X413213Y110280D01*
X413242Y110141D01*
X413278Y109988D01*
X413329Y109842D01*
X413380Y109689D01*
X413446Y109536D01*
X413519Y109383D01*
X413606Y109237D01*
X413701Y109099D01*
X413810Y108975D01*
X413818Y108967D01*
X413839Y108946D01*
X413876Y108916D01*
X413920Y108873D01*
X413978Y108829D01*
X414051Y108778D01*
X414138Y108720D01*
X414233Y108661D01*
X414335Y108596D01*
X414452Y108545D01*
X414576Y108486D01*
X414714Y108443D01*
X414860Y108399D01*
X415013Y108370D01*
X415174Y108348D01*
X415341Y108341D01*
X415407D01*
X415458Y108348D01*
X415516Y108355D01*
X415582Y108362D01*
X415662Y108370D01*
X415742Y108384D01*
X415925Y108428D01*
X416121Y108494D01*
X416223Y108530D01*
X416318Y108581D01*
X416413Y108632D01*
X416508Y108698D01*
X416515Y108705D01*
X416530Y108712D01*
X416551Y108734D01*
X416588Y108763D01*
X416632Y108807D01*
X416675Y108851D01*
X416726Y108909D01*
X416785Y108975D01*
X416843Y109055D01*
X416909Y109135D01*
X416967Y109230D01*
X417033Y109332D01*
X417098Y109449D01*
X417157Y109573D01*
X417215Y109704D01*
X417273Y109850D01*
X418549Y109682D01*
Y109667D01*
X418534Y109631D01*
X418512Y109573D01*
X418491Y109500D01*
X418454Y109405D01*
X418410Y109295D01*
X418359Y109172D01*
X418294Y109040D01*
X418221Y108909D01*
X418141Y108763D01*
X418046Y108618D01*
X417944Y108472D01*
X417835Y108333D01*
X417710Y108195D01*
X417572Y108063D01*
X417426Y107940D01*
X417419Y107932D01*
X417390Y107910D01*
X417346Y107881D01*
X417280Y107845D01*
X417200Y107794D01*
X417098Y107743D01*
X416989Y107684D01*
X416858Y107633D01*
X416712Y107575D01*
X416559Y107517D01*
X416384Y107466D01*
X416201Y107415D01*
X416005Y107378D01*
X415793Y107349D01*
X415567Y107327D01*
X415334Y107320D01*
X415261D01*
X415225Y107327D01*
X415181D01*
X415072Y107334D01*
X414933Y107349D01*
X414780Y107371D01*
X414605Y107400D01*
X414416Y107444D01*
X414219Y107495D01*
X414007Y107561D01*
X413796Y107641D01*
X413584Y107736D01*
X413373Y107845D01*
X413169Y107976D01*
X412972Y108129D01*
X412790Y108304D01*
X412782Y108319D01*
X412753Y108348D01*
X412702Y108406D01*
X412644Y108486D01*
X412571Y108588D01*
X412498Y108712D01*
X412411Y108851D01*
X412323Y109019D01*
X412236Y109208D01*
X412156Y109412D01*
X412075Y109638D01*
X412003Y109886D01*
X411944Y110156D01*
X411900Y110440D01*
X411864Y110746D01*
X411857Y111074D01*
Y111082D01*
Y111096D01*
Y111118D01*
Y111154D01*
X411864Y111198D01*
Y111249D01*
Y111308D01*
X411871Y111381D01*
X411886Y111533D01*
X411908Y111708D01*
X411937Y111905D01*
X411973Y112124D01*
X412024Y112343D01*
X412090Y112576D01*
X412163Y112817D01*
X412258Y113057D01*
X412367Y113290D01*
X412491Y113516D01*
X412637Y113735D01*
X412804Y113932D01*
X412819Y113946D01*
X412848Y113976D01*
X412899Y114027D01*
X412979Y114092D01*
X413074Y114172D01*
X413183Y114253D01*
X413315Y114348D01*
X413468Y114442D01*
X413635Y114537D01*
X413825Y114632D01*
X414022Y114719D01*
X414241Y114792D01*
X414481Y114858D01*
X414729Y114909D01*
X414991Y114938D01*
X415268Y114953D01*
X415334D01*
X415407Y114945D01*
D02*
G37*
G36*
X388784D02*
X388886Y114938D01*
X389017Y114923D01*
X389156Y114901D01*
X389316Y114872D01*
X389491Y114829D01*
X389681Y114778D01*
X389870Y114712D01*
X390074Y114632D01*
X390271Y114530D01*
X390475Y114420D01*
X390665Y114282D01*
X390854Y114129D01*
X391036Y113954D01*
X391044Y113939D01*
X391080Y113910D01*
X391124Y113852D01*
X391182Y113772D01*
X391255Y113670D01*
X391335Y113546D01*
X391416Y113400D01*
X391503Y113232D01*
X391590Y113043D01*
X391678Y112831D01*
X391751Y112598D01*
X391824Y112350D01*
X391882Y112080D01*
X391933Y111789D01*
X391962Y111475D01*
X391969Y111147D01*
Y111140D01*
Y111125D01*
Y111103D01*
Y111067D01*
Y111016D01*
Y110965D01*
X391962Y110899D01*
Y110819D01*
X386509D01*
Y110804D01*
X386517Y110768D01*
Y110703D01*
X386531Y110622D01*
X386546Y110520D01*
X386560Y110404D01*
X386590Y110280D01*
X386619Y110141D01*
X386655Y109988D01*
X386706Y109842D01*
X386757Y109689D01*
X386823Y109536D01*
X386896Y109383D01*
X386983Y109237D01*
X387078Y109099D01*
X387187Y108975D01*
X387195Y108967D01*
X387216Y108946D01*
X387253Y108916D01*
X387297Y108873D01*
X387355Y108829D01*
X387428Y108778D01*
X387515Y108720D01*
X387610Y108661D01*
X387712Y108596D01*
X387829Y108545D01*
X387953Y108486D01*
X388091Y108443D01*
X388237Y108399D01*
X388390Y108370D01*
X388550Y108348D01*
X388718Y108341D01*
X388784D01*
X388835Y108348D01*
X388893Y108355D01*
X388959Y108362D01*
X389039Y108370D01*
X389119Y108384D01*
X389301Y108428D01*
X389498Y108494D01*
X389600Y108530D01*
X389695Y108581D01*
X389790Y108632D01*
X389885Y108698D01*
X389892Y108705D01*
X389907Y108712D01*
X389928Y108734D01*
X389965Y108763D01*
X390008Y108807D01*
X390052Y108851D01*
X390103Y108909D01*
X390162Y108975D01*
X390220Y109055D01*
X390286Y109135D01*
X390344Y109230D01*
X390409Y109332D01*
X390475Y109449D01*
X390533Y109573D01*
X390592Y109704D01*
X390650Y109850D01*
X391926Y109682D01*
Y109667D01*
X391911Y109631D01*
X391889Y109573D01*
X391867Y109500D01*
X391831Y109405D01*
X391787Y109295D01*
X391736Y109172D01*
X391671Y109040D01*
X391598Y108909D01*
X391518Y108763D01*
X391423Y108618D01*
X391321Y108472D01*
X391211Y108333D01*
X391088Y108195D01*
X390949Y108063D01*
X390803Y107940D01*
X390796Y107932D01*
X390767Y107910D01*
X390723Y107881D01*
X390657Y107845D01*
X390577Y107794D01*
X390475Y107743D01*
X390366Y107684D01*
X390234Y107633D01*
X390089Y107575D01*
X389936Y107517D01*
X389761Y107466D01*
X389578Y107415D01*
X389382Y107378D01*
X389170Y107349D01*
X388944Y107327D01*
X388711Y107320D01*
X388638D01*
X388602Y107327D01*
X388558D01*
X388449Y107334D01*
X388310Y107349D01*
X388157Y107371D01*
X387982Y107400D01*
X387792Y107444D01*
X387596Y107495D01*
X387384Y107561D01*
X387173Y107641D01*
X386961Y107736D01*
X386750Y107845D01*
X386546Y107976D01*
X386349Y108129D01*
X386167Y108304D01*
X386159Y108319D01*
X386130Y108348D01*
X386079Y108406D01*
X386021Y108486D01*
X385948Y108588D01*
X385875Y108712D01*
X385788Y108851D01*
X385700Y109019D01*
X385613Y109208D01*
X385532Y109412D01*
X385452Y109638D01*
X385379Y109886D01*
X385321Y110156D01*
X385277Y110440D01*
X385241Y110746D01*
X385234Y111074D01*
Y111082D01*
Y111096D01*
Y111118D01*
Y111154D01*
X385241Y111198D01*
Y111249D01*
Y111308D01*
X385248Y111381D01*
X385263Y111533D01*
X385285Y111708D01*
X385314Y111905D01*
X385350Y112124D01*
X385401Y112343D01*
X385467Y112576D01*
X385540Y112817D01*
X385634Y113057D01*
X385744Y113290D01*
X385868Y113516D01*
X386014Y113735D01*
X386181Y113932D01*
X386196Y113946D01*
X386225Y113976D01*
X386276Y114027D01*
X386356Y114092D01*
X386451Y114172D01*
X386560Y114253D01*
X386692Y114348D01*
X386845Y114442D01*
X387012Y114537D01*
X387202Y114632D01*
X387399Y114719D01*
X387617Y114792D01*
X387858Y114858D01*
X388106Y114909D01*
X388368Y114938D01*
X388645Y114953D01*
X388711D01*
X388784Y114945D01*
D02*
G37*
%LPC*%
G36*
X405915Y116381D02*
X403582D01*
Y108669D01*
X405901D01*
X405981Y108676D01*
X406076D01*
X406185Y108683D01*
X406302Y108691D01*
X406550Y108712D01*
X406812Y108749D01*
X407067Y108792D01*
X407184Y108822D01*
X407293Y108851D01*
X407300D01*
X407315Y108858D01*
X407351Y108873D01*
X407388Y108887D01*
X407439Y108902D01*
X407490Y108931D01*
X407621Y108989D01*
X407767Y109062D01*
X407920Y109150D01*
X408066Y109259D01*
X408204Y109376D01*
X408212Y109383D01*
X408226Y109398D01*
X408248Y109427D01*
X408285Y109463D01*
X408321Y109507D01*
X408365Y109565D01*
X408416Y109638D01*
X408474Y109711D01*
X408532Y109799D01*
X408591Y109893D01*
X408656Y110003D01*
X408715Y110112D01*
X408773Y110236D01*
X408831Y110367D01*
X408890Y110506D01*
X408941Y110652D01*
Y110659D01*
X408955Y110688D01*
X408962Y110732D01*
X408984Y110797D01*
X409006Y110870D01*
X409028Y110965D01*
X409050Y111074D01*
X409079Y111198D01*
X409101Y111329D01*
X409123Y111483D01*
X409145Y111643D01*
X409167Y111811D01*
X409189Y111993D01*
X409196Y112182D01*
X409210Y112387D01*
Y112598D01*
Y112605D01*
Y112612D01*
Y112634D01*
Y112671D01*
Y112707D01*
Y112751D01*
X409203Y112860D01*
X409196Y112992D01*
X409181Y113145D01*
X409167Y113312D01*
X409145Y113495D01*
X409116Y113684D01*
X409079Y113888D01*
X409043Y114085D01*
X408992Y114289D01*
X408926Y114486D01*
X408860Y114675D01*
X408780Y114858D01*
X408685Y115025D01*
X408678Y115033D01*
X408664Y115062D01*
X408635Y115106D01*
X408591Y115164D01*
X408540Y115230D01*
X408481Y115310D01*
X408416Y115397D01*
X408336Y115492D01*
X408248Y115587D01*
X408153Y115682D01*
X408044Y115776D01*
X407935Y115871D01*
X407818Y115959D01*
X407694Y116039D01*
X407563Y116112D01*
X407424Y116170D01*
X407417D01*
X407403Y116177D01*
X407366Y116192D01*
X407322Y116206D01*
X407264Y116221D01*
X407191Y116236D01*
X407104Y116258D01*
X407009Y116279D01*
X406892Y116294D01*
X406768Y116316D01*
X406622Y116330D01*
X406469Y116352D01*
X406294Y116359D01*
X406112Y116374D01*
X405915Y116381D01*
D02*
G37*
G36*
X378556Y111147D02*
X378549D01*
X378527Y111133D01*
X378483Y111118D01*
X378432Y111103D01*
X378359Y111074D01*
X378272Y111052D01*
X378170Y111016D01*
X378046Y110987D01*
X377914Y110950D01*
X377761Y110907D01*
X377594Y110870D01*
X377419Y110834D01*
X377215Y110790D01*
X377003Y110754D01*
X376777Y110710D01*
X376529Y110673D01*
X376522D01*
X376493Y110666D01*
X376456D01*
X376405Y110652D01*
X376340Y110644D01*
X376274Y110630D01*
X376107Y110600D01*
X375932Y110564D01*
X375749Y110520D01*
X375589Y110477D01*
X375516Y110455D01*
X375450Y110425D01*
X375436Y110418D01*
X375399Y110404D01*
X375341Y110367D01*
X375275Y110323D01*
X375195Y110272D01*
X375115Y110199D01*
X375035Y110119D01*
X374962Y110024D01*
X374955Y110010D01*
X374933Y109981D01*
X374911Y109923D01*
X374882Y109857D01*
X374845Y109769D01*
X374823Y109667D01*
X374802Y109558D01*
X374794Y109441D01*
Y109434D01*
Y109420D01*
Y109390D01*
X374802Y109361D01*
X374809Y109317D01*
X374816Y109266D01*
X374838Y109150D01*
X374882Y109026D01*
X374955Y108887D01*
X374991Y108814D01*
X375042Y108749D01*
X375100Y108683D01*
X375166Y108618D01*
X375173D01*
X375181Y108603D01*
X375203Y108588D01*
X375239Y108566D01*
X375275Y108545D01*
X375319Y108516D01*
X375377Y108486D01*
X375443Y108457D01*
X375516Y108421D01*
X375596Y108392D01*
X375684Y108362D01*
X375786Y108341D01*
X375888Y108319D01*
X376004Y108304D01*
X376128Y108297D01*
X376260Y108290D01*
X376332D01*
X376383Y108297D01*
X376442D01*
X376515Y108304D01*
X376602Y108319D01*
X376690Y108326D01*
X376887Y108362D01*
X377105Y108421D01*
X377324Y108494D01*
X377535Y108596D01*
X377543Y108603D01*
X377557Y108610D01*
X377586Y108625D01*
X377623Y108654D01*
X377674Y108683D01*
X377725Y108727D01*
X377849Y108822D01*
X377980Y108946D01*
X378111Y109091D01*
X378242Y109259D01*
X378352Y109456D01*
Y109463D01*
X378359Y109478D01*
X378374Y109500D01*
X378381Y109536D01*
X378403Y109580D01*
X378417Y109631D01*
X378432Y109696D01*
X378454Y109769D01*
X378476Y109850D01*
X378490Y109937D01*
X378512Y110039D01*
X378527Y110149D01*
X378534Y110272D01*
X378549Y110404D01*
X378556Y110542D01*
Y110688D01*
Y111147D01*
D02*
G37*
G36*
X500612Y113925D02*
X500569D01*
X500525Y113917D01*
X500459D01*
X500379Y113903D01*
X500284Y113888D01*
X500182Y113866D01*
X500073Y113837D01*
X499956Y113801D01*
X499832Y113757D01*
X499701Y113699D01*
X499570Y113633D01*
X499446Y113553D01*
X499315Y113458D01*
X499191Y113349D01*
X499074Y113225D01*
X499067Y113217D01*
X499045Y113196D01*
X499016Y113152D01*
X498980Y113094D01*
X498936Y113021D01*
X498885Y112933D01*
X498826Y112824D01*
X498775Y112707D01*
X498717Y112561D01*
X498659Y112408D01*
X498608Y112241D01*
X498564Y112051D01*
X498527Y111847D01*
X498498Y111621D01*
X498477Y111388D01*
X498469Y111133D01*
Y111125D01*
Y111118D01*
Y111096D01*
Y111074D01*
X498477Y111001D01*
Y110907D01*
X498491Y110790D01*
X498498Y110652D01*
X498520Y110506D01*
X498542Y110345D01*
X498579Y110178D01*
X498615Y110003D01*
X498666Y109828D01*
X498724Y109660D01*
X498797Y109485D01*
X498877Y109325D01*
X498965Y109172D01*
X499074Y109033D01*
X499082Y109026D01*
X499103Y109004D01*
X499140Y108967D01*
X499184Y108924D01*
X499242Y108873D01*
X499315Y108814D01*
X499402Y108749D01*
X499497Y108691D01*
X499599Y108625D01*
X499716Y108559D01*
X499847Y108501D01*
X499978Y108450D01*
X500124Y108406D01*
X500284Y108370D01*
X500445Y108348D01*
X500612Y108341D01*
X500656D01*
X500700Y108348D01*
X500766Y108355D01*
X500846Y108362D01*
X500941Y108377D01*
X501043Y108399D01*
X501152Y108428D01*
X501268Y108465D01*
X501393Y108508D01*
X501524Y108566D01*
X501655Y108639D01*
X501779Y108720D01*
X501910Y108807D01*
X502034Y108916D01*
X502151Y109040D01*
X502158Y109048D01*
X502180Y109077D01*
X502209Y109113D01*
X502245Y109172D01*
X502296Y109245D01*
X502347Y109339D01*
X502398Y109449D01*
X502457Y109573D01*
X502515Y109711D01*
X502566Y109871D01*
X502625Y110046D01*
X502668Y110236D01*
X502705Y110447D01*
X502734Y110673D01*
X502756Y110914D01*
X502763Y111176D01*
Y111184D01*
Y111191D01*
Y111235D01*
X502756Y111308D01*
Y111395D01*
X502741Y111512D01*
X502734Y111643D01*
X502712Y111781D01*
X502683Y111942D01*
X502654Y112102D01*
X502610Y112270D01*
X502559Y112437D01*
X502500Y112612D01*
X502428Y112773D01*
X502347Y112933D01*
X502253Y113086D01*
X502143Y113225D01*
X502136Y113232D01*
X502114Y113254D01*
X502078Y113290D01*
X502034Y113334D01*
X501976Y113385D01*
X501903Y113444D01*
X501815Y113509D01*
X501721Y113575D01*
X501618Y113640D01*
X501502Y113706D01*
X501378Y113764D01*
X501239Y113815D01*
X501094Y113859D01*
X500941Y113895D01*
X500780Y113917D01*
X500612Y113925D01*
D02*
G37*
G36*
X477941Y113932D02*
X477860D01*
X477802Y113925D01*
X477722Y113917D01*
X477642Y113903D01*
X477547Y113881D01*
X477445Y113859D01*
X477328Y113830D01*
X477219Y113794D01*
X477095Y113742D01*
X476978Y113691D01*
X476854Y113626D01*
X476730Y113546D01*
X476614Y113458D01*
X476504Y113356D01*
X476497Y113349D01*
X476482Y113327D01*
X476453Y113298D01*
X476410Y113254D01*
X476366Y113196D01*
X476315Y113123D01*
X476264Y113043D01*
X476205Y112955D01*
X476147Y112853D01*
X476089Y112736D01*
X476038Y112612D01*
X475987Y112474D01*
X475943Y112335D01*
X475907Y112175D01*
X475878Y112015D01*
X475863Y111840D01*
X479953D01*
Y111847D01*
X479945Y111883D01*
Y111927D01*
X479931Y111993D01*
X479923Y112066D01*
X479902Y112153D01*
X479887Y112255D01*
X479858Y112357D01*
X479800Y112583D01*
X479719Y112809D01*
X479610Y113028D01*
X479544Y113130D01*
X479479Y113217D01*
X479471Y113225D01*
X479450Y113247D01*
X479420Y113283D01*
X479369Y113327D01*
X479311Y113385D01*
X479245Y113444D01*
X479158Y113509D01*
X479063Y113575D01*
X478961Y113640D01*
X478844Y113706D01*
X478721Y113764D01*
X478582Y113823D01*
X478436Y113866D01*
X478276Y113903D01*
X478116Y113925D01*
X477941Y113932D01*
D02*
G37*
G36*
X448904Y113925D02*
X448861D01*
X448817Y113917D01*
X448751D01*
X448671Y113903D01*
X448576Y113888D01*
X448474Y113866D01*
X448365Y113837D01*
X448248Y113801D01*
X448124Y113757D01*
X447993Y113699D01*
X447862Y113633D01*
X447738Y113553D01*
X447607Y113458D01*
X447483Y113349D01*
X447366Y113225D01*
X447359Y113217D01*
X447337Y113196D01*
X447308Y113152D01*
X447271Y113094D01*
X447228Y113021D01*
X447177Y112933D01*
X447118Y112824D01*
X447067Y112707D01*
X447009Y112561D01*
X446951Y112408D01*
X446900Y112241D01*
X446856Y112051D01*
X446819Y111847D01*
X446790Y111621D01*
X446769Y111388D01*
X446761Y111133D01*
Y111125D01*
Y111118D01*
Y111096D01*
Y111074D01*
X446769Y111001D01*
Y110907D01*
X446783Y110790D01*
X446790Y110652D01*
X446812Y110506D01*
X446834Y110345D01*
X446871Y110178D01*
X446907Y110003D01*
X446958Y109828D01*
X447016Y109660D01*
X447089Y109485D01*
X447169Y109325D01*
X447257Y109172D01*
X447366Y109033D01*
X447373Y109026D01*
X447395Y109004D01*
X447432Y108967D01*
X447476Y108924D01*
X447534Y108873D01*
X447607Y108814D01*
X447694Y108749D01*
X447789Y108691D01*
X447891Y108625D01*
X448008Y108559D01*
X448139Y108501D01*
X448270Y108450D01*
X448416Y108406D01*
X448576Y108370D01*
X448737Y108348D01*
X448904Y108341D01*
X448948D01*
X448992Y108348D01*
X449057Y108355D01*
X449138Y108362D01*
X449232Y108377D01*
X449335Y108399D01*
X449444Y108428D01*
X449560Y108465D01*
X449684Y108508D01*
X449816Y108566D01*
X449947Y108639D01*
X450071Y108720D01*
X450202Y108807D01*
X450326Y108916D01*
X450443Y109040D01*
X450450Y109048D01*
X450472Y109077D01*
X450501Y109113D01*
X450537Y109172D01*
X450588Y109245D01*
X450639Y109339D01*
X450691Y109449D01*
X450749Y109573D01*
X450807Y109711D01*
X450858Y109871D01*
X450916Y110046D01*
X450960Y110236D01*
X450997Y110447D01*
X451026Y110673D01*
X451048Y110914D01*
X451055Y111176D01*
Y111184D01*
Y111191D01*
Y111235D01*
X451048Y111308D01*
Y111395D01*
X451033Y111512D01*
X451026Y111643D01*
X451004Y111781D01*
X450975Y111942D01*
X450946Y112102D01*
X450902Y112270D01*
X450851Y112437D01*
X450793Y112612D01*
X450720Y112773D01*
X450639Y112933D01*
X450545Y113086D01*
X450435Y113225D01*
X450428Y113232D01*
X450406Y113254D01*
X450370Y113290D01*
X450326Y113334D01*
X450268Y113385D01*
X450195Y113444D01*
X450107Y113509D01*
X450012Y113575D01*
X449910Y113640D01*
X449794Y113706D01*
X449670Y113764D01*
X449531Y113815D01*
X449386Y113859D01*
X449232Y113895D01*
X449072Y113917D01*
X448904Y113925D01*
D02*
G37*
G36*
X427027Y113932D02*
X426947D01*
X426889Y113925D01*
X426809Y113917D01*
X426728Y113903D01*
X426634Y113881D01*
X426531Y113859D01*
X426415Y113830D01*
X426305Y113794D01*
X426182Y113742D01*
X426065Y113691D01*
X425941Y113626D01*
X425817Y113546D01*
X425700Y113458D01*
X425591Y113356D01*
X425584Y113349D01*
X425569Y113327D01*
X425540Y113298D01*
X425496Y113254D01*
X425453Y113196D01*
X425401Y113123D01*
X425351Y113043D01*
X425292Y112955D01*
X425234Y112853D01*
X425176Y112736D01*
X425125Y112612D01*
X425073Y112474D01*
X425030Y112335D01*
X424993Y112175D01*
X424964Y112015D01*
X424950Y111840D01*
X429039D01*
Y111847D01*
X429032Y111883D01*
Y111927D01*
X429017Y111993D01*
X429010Y112066D01*
X428988Y112153D01*
X428974Y112255D01*
X428944Y112357D01*
X428886Y112583D01*
X428806Y112809D01*
X428697Y113028D01*
X428631Y113130D01*
X428565Y113217D01*
X428558Y113225D01*
X428536Y113247D01*
X428507Y113283D01*
X428456Y113327D01*
X428398Y113385D01*
X428332Y113444D01*
X428245Y113509D01*
X428150Y113575D01*
X428048Y113640D01*
X427931Y113706D01*
X427807Y113764D01*
X427669Y113823D01*
X427523Y113866D01*
X427362Y113903D01*
X427202Y113925D01*
X427027Y113932D01*
D02*
G37*
G36*
X415276D02*
X415196D01*
X415137Y113925D01*
X415057Y113917D01*
X414977Y113903D01*
X414882Y113881D01*
X414780Y113859D01*
X414663Y113830D01*
X414554Y113794D01*
X414430Y113742D01*
X414313Y113691D01*
X414189Y113626D01*
X414066Y113546D01*
X413949Y113458D01*
X413839Y113356D01*
X413832Y113349D01*
X413818Y113327D01*
X413789Y113298D01*
X413745Y113254D01*
X413701Y113196D01*
X413650Y113123D01*
X413599Y113043D01*
X413541Y112955D01*
X413482Y112853D01*
X413424Y112736D01*
X413373Y112612D01*
X413322Y112474D01*
X413278Y112335D01*
X413242Y112175D01*
X413213Y112015D01*
X413198Y111840D01*
X417288D01*
Y111847D01*
X417280Y111883D01*
Y111927D01*
X417266Y111993D01*
X417259Y112066D01*
X417237Y112153D01*
X417222Y112255D01*
X417193Y112357D01*
X417135Y112583D01*
X417054Y112809D01*
X416945Y113028D01*
X416880Y113130D01*
X416814Y113217D01*
X416807Y113225D01*
X416785Y113247D01*
X416756Y113283D01*
X416705Y113327D01*
X416646Y113385D01*
X416581Y113444D01*
X416493Y113509D01*
X416398Y113575D01*
X416296Y113640D01*
X416180Y113706D01*
X416056Y113764D01*
X415917Y113823D01*
X415771Y113866D01*
X415611Y113903D01*
X415451Y113925D01*
X415276Y113932D01*
D02*
G37*
G36*
X388653D02*
X388572D01*
X388514Y113925D01*
X388434Y113917D01*
X388354Y113903D01*
X388259Y113881D01*
X388157Y113859D01*
X388040Y113830D01*
X387931Y113794D01*
X387807Y113742D01*
X387690Y113691D01*
X387566Y113626D01*
X387442Y113546D01*
X387326Y113458D01*
X387216Y113356D01*
X387209Y113349D01*
X387195Y113327D01*
X387165Y113298D01*
X387122Y113254D01*
X387078Y113196D01*
X387027Y113123D01*
X386976Y113043D01*
X386918Y112955D01*
X386859Y112853D01*
X386801Y112736D01*
X386750Y112612D01*
X386699Y112474D01*
X386655Y112335D01*
X386619Y112175D01*
X386590Y112015D01*
X386575Y111840D01*
X390665D01*
Y111847D01*
X390657Y111883D01*
Y111927D01*
X390643Y111993D01*
X390635Y112066D01*
X390614Y112153D01*
X390599Y112255D01*
X390570Y112357D01*
X390511Y112583D01*
X390431Y112809D01*
X390322Y113028D01*
X390256Y113130D01*
X390191Y113217D01*
X390183Y113225D01*
X390162Y113247D01*
X390132Y113283D01*
X390081Y113327D01*
X390023Y113385D01*
X389957Y113444D01*
X389870Y113509D01*
X389775Y113575D01*
X389673Y113640D01*
X389557Y113706D01*
X389433Y113764D01*
X389294Y113823D01*
X389148Y113866D01*
X388988Y113903D01*
X388828Y113925D01*
X388653Y113932D01*
D02*
G37*
%LPD*%
D10*
X400685Y196843D02*
G03*
X400685Y196843I-1181J0D01*
G01*
D11*
X391492Y197118D02*
G03*
X391492Y197118I-492J0D01*
G01*
D12*
X403500Y200780D02*
G03*
X408500Y200780I2500J0D01*
G01*
X395567Y123221D02*
X416433D01*
X408500Y200780D02*
X416433D01*
X395567D02*
X403500D01*
X416433Y123221D02*
Y200780D01*
X395567Y123221D02*
Y200780D01*
X354500Y175500D02*
X364500D01*
Y155500D02*
Y175500D01*
X354500Y155500D02*
X364500D01*
X354500D02*
Y175500D01*
X498500Y171000D02*
X508500D01*
Y151000D02*
Y171000D01*
X498500Y151000D02*
X508500D01*
X498500D02*
Y171000D01*
D13*
X512439Y140874D02*
G03*
X512495Y125848I-9086J-7547D01*
G01*
X442717Y133858D02*
X445276D01*
X468701D02*
X471260D01*
X445472Y137795D02*
X468701D01*
Y129921D02*
Y137795D01*
X445472Y129921D02*
X468701D01*
X445472D02*
Y137795D01*
X527220Y188063D02*
Y195937D01*
X503992D02*
X527220D01*
X503992Y188063D02*
Y195937D01*
Y188063D02*
X527220D01*
X501433Y192000D02*
X503992D01*
X527417D02*
X529976D01*
X103807Y229012D02*
X347902D01*
Y103028D02*
Y229012D01*
X103807Y103028D02*
X347902D01*
X103807D02*
Y229012D01*
X512439Y125805D02*
Y140831D01*
X442913Y188189D02*
X458661D01*
X442913D02*
Y196063D01*
X458661D01*
Y188189D02*
Y196063D01*
X438976Y192126D02*
X442913D01*
X458661D02*
X462598D01*
X134646Y121897D02*
X138644D01*
X148641Y118898D02*
X146642Y120897D01*
Y122896D01*
X148641Y124896D01*
X155639Y123896D02*
X154639Y124896D01*
X152640D01*
X151640Y123896D01*
Y119897D01*
X152640Y118898D01*
X154639D01*
X155639Y119897D01*
Y121897D01*
X153639D01*
X157638Y118898D02*
Y124896D01*
X161637Y118898D01*
Y124896D01*
X163636D02*
Y118898D01*
X166635D01*
X167635Y119897D01*
Y123896D01*
X166635Y124896D01*
X163636D01*
X169634Y118898D02*
X171634Y120897D01*
Y122896D01*
X169634Y124896D01*
X140551Y199998D02*
X148423D01*
X144487Y203934D02*
Y196062D01*
X499100Y174400D02*
Y180398D01*
X502099D01*
X503099Y179398D01*
Y177399D01*
X502099Y176399D01*
X499100D01*
X505098Y174400D02*
X507097D01*
X506098D01*
Y180398D01*
X505098Y179398D01*
X355100Y178900D02*
Y184898D01*
X358099D01*
X359099Y183898D01*
Y181899D01*
X358099Y180899D01*
X355100D01*
X365097Y178900D02*
X361098D01*
X365097Y182899D01*
Y183898D01*
X364097Y184898D01*
X362098D01*
X361098Y183898D01*
X402756Y210329D02*
Y205330D01*
X403756Y204331D01*
X405755D01*
X406755Y205330D01*
Y210329D01*
X408754Y204331D02*
X410753D01*
X409754D01*
Y210329D01*
X408754Y209329D01*
X451575Y141339D02*
Y147337D01*
X454574D01*
X455574Y146337D01*
Y144338D01*
X454574Y143338D01*
X451575D01*
X453574D02*
X455574Y141339D01*
X461572D02*
X457573D01*
X461572Y145337D01*
Y146337D01*
X460572Y147337D01*
X458572D01*
X457573Y146337D01*
X511024Y198425D02*
Y204423D01*
X514023D01*
X515022Y203424D01*
Y201424D01*
X514023Y200425D01*
X511024D01*
X513023D02*
X515022Y198425D01*
X517022D02*
X519021D01*
X518021D01*
Y204423D01*
X517022Y203424D01*
X192975Y167415D02*
X190976D01*
X191975D01*
Y162417D01*
X190976Y161417D01*
X189976D01*
X188976Y162417D01*
X198973Y161417D02*
X194974D01*
X198973Y165416D01*
Y166416D01*
X197974Y167415D01*
X195974D01*
X194974Y166416D01*
X594999Y170998D02*
X592999D01*
X593999D01*
Y166000D01*
X592999Y165000D01*
X592000D01*
X591000Y166000D01*
X596998Y165000D02*
X598997D01*
X597998D01*
Y170998D01*
X596998Y169998D01*
X515748Y135919D02*
Y129921D01*
X518747D01*
X519747Y130921D01*
Y134920D01*
X518747Y135919D01*
X515748D01*
X521746Y129921D02*
X523745D01*
X522746D01*
Y135919D01*
X521746Y134920D01*
X450282Y203550D02*
X449283Y204549D01*
X447283D01*
X446283Y203550D01*
Y199551D01*
X447283Y198551D01*
X449283D01*
X450282Y199551D01*
X452282Y198551D02*
X454281D01*
X453281D01*
Y204549D01*
X452282Y203550D01*
M02*
